<svg xmlns="http://www.w3.org/2000/svg" viewBox="0 0 662.68 379.87"><title>404</title><g id="Layer_2" data-name="Layer 2"><g id="Background_Complete" data-name="Background Complete"><path d="M24.15,280.25s-2.91,6.81,13,11.56,24.76,6,24.76,6,3.4,1.4,1.8,3.85S57,308,58.61,311.4s6.06,4,12,2.15,19-5.28,20.21-5.59,3,.05,2.2,1.9-9.62,13.21-4,17.05,21.29-3.89,23-4.7,2.57-.6,3.17.18-2.71,4.32-5.07,7.66-4.53,7.61-1.09,9.56,16,.48,34-15l7.86-7.71-2.59-10.75c-6.93-22.68-16.75-30.61-20.7-30.8s-4.41,4.58-4.19,8.67,1.14,8.84.21,9.18-1.76.07-2.78-1.54-10.13-16.52-17-16.27-5.46,14.54-5.75,16.54-2,1.31-2.87.43-10.06-10.83-14.1-15.52-8-6.61-11.27-4.58-1,8-.91,10.92-3.57,2.3-3.57,2.3-8.2-3.67-24.16-8.13-17.13,3-17.13,3" fill="#ebebeb"/><path d="M153.12,318.29c-11.7-3.32-32.41-9.58-50.22-14.86S69,293.39,57.28,290l-13.85-4-3.76-1.09-1-.29-.33-.11.34.08,1,.26,3.78,1c3.28.9,8,2.23,13.88,3.89,11.71,3.32,27.84,8.05,45.64,13.32s38.51,11.57,50.2,15" fill="#e0e0e0"/><path d="M66,306.25a3.31,3.31,0,0,1,.68-.41c.45-.25,1.11-.58,1.93-1,1.64-.81,3.94-1.87,6.5-3L81.66,299l2-.87a3.76,3.76,0,0,1,.74-.3,3.57,3.57,0,0,1-.68.42c-.46.24-1.12.57-1.94,1-1.65.79-4,1.82-6.52,2.94l-6.53,2.88-2,.89A4.39,4.39,0,0,1,66,306.25Z" fill="#e0e0e0"/><path d="M84.39,296.83c-.09,0-2.47-4.59-5.33-10.36S74,276,74,276s2.48,4.6,5.33,10.36S84.47,296.79,84.39,296.83Z" fill="#e0e0e0"/><path d="M111.37,306.17a3.35,3.35,0,0,1-.19-.79c-.1-.59-.23-1.31-.39-2.18-.33-1.83-.79-4.37-1.41-7.14s-1.26-5.28-1.74-7.08c-.22-.85-.41-1.56-.56-2.13a2.77,2.77,0,0,1-.17-.8,4,4,0,0,1,.29.76c.17.49.41,1.21.67,2.11.54,1.79,1.23,4.28,1.84,7.06s1.05,5.34,1.32,7.18c.14.93.23,1.68.29,2.2A4.46,4.46,0,0,1,111.37,306.17Z" fill="#e0e0e0"/><path d="M96.6,318.35a3.75,3.75,0,0,1,.53-.54l1.53-1.36c1.29-1.14,3.1-2.69,5.11-4.39s3.84-3.23,5.17-4.32l1.6-1.28a3.55,3.55,0,0,1,.61-.43s-.17.21-.53.54l-1.52,1.36c-1.3,1.13-3.1,2.69-5.11,4.39s-3.84,3.22-5.18,4.32l-1.59,1.27A3.4,3.4,0,0,1,96.6,318.35Z" fill="#e0e0e0"/><path d="M119.37,329.62a5.39,5.39,0,0,1,.69-.68l1.94-1.75c1.66-1.47,4-3.48,6.51-5.68s4.88-4.19,6.57-5.61l2-1.67a5.64,5.64,0,0,1,.77-.58,5.64,5.64,0,0,1-.68.68l-1.95,1.75c-1.65,1.47-4,3.48-6.51,5.68s-4.87,4.19-6.57,5.61l-2,1.67A5.64,5.64,0,0,1,119.37,329.62Z" fill="#e0e0e0"/><path d="M137.32,313.91a7.26,7.26,0,0,1-.26-1l-.59-2.74c-.5-2.31-1.21-5.5-2.09-9s-1.75-6.66-2.4-8.93c-.31-1.1-.57-2-.77-2.7a4.75,4.75,0,0,1-.24-1,6.8,6.8,0,0,1,.37,1c.22.63.52,1.54.87,2.67.71,2.26,1.62,5.4,2.5,8.91s1.55,6.72,2,9c.21,1.17.38,2.11.48,2.77A5.8,5.8,0,0,1,137.32,313.91Z" fill="#e0e0e0"/><path d="M475.5,104.82c-14-9.39-17.41-27.22-17.15-43.3,0-2.68-.3-5.51.94-7.89s4.18-4,6.6-3c2,.91,2.92,3.21,4.07,5.11a15.81,15.81,0,0,0,6.4,5.9c1.72.85,3.85,1.36,5.52.4,2.29-1.32,2.51-4.52,2.44-7.19L484,40a24.85,24.85,0,0,1,.67-7.94c.78-2.55,2.58-4.93,5.1-5.69s5.69.65,6.28,3.25a24.6,24.6,0,0,1,.13,3.33,2.82,2.82,0,0,0,1.69,2.61c1.07.29,2.13-.48,2.91-1.28,2.71-2.74,4.51-6.24,6.2-9.73s3.32-7,5.77-10,5.86-5.37,9.68-5.66,7.93,2,9,5.74-1.09,7.6-3.43,10.69a59.44,59.44,0,0,1-12.19,12,4.94,4.94,0,0,0-2,2.27c-.55,1.79,1.16,3.53,2.93,4.08,2,.63,4.16.38,6.24.59s4.36,1.09,5.18,3c1.14,2.71-1.09,5.61-3.3,7.52a51.23,51.23,0,0,1-14.95,9,17.28,17.28,0,0,0-5.56,2.82c-1.56,1.41-2.47,3.83-1.48,5.69s3.45,2.42,5.5,2,3.87-1.56,5.82-2.34c3.64-1.45,8.38-1.28,10.79,1.85a8.47,8.47,0,0,1,1,7.45A19.6,19.6,0,0,1,522,87.94a51.31,51.31,0,0,1-21.64,15.78c-8.45,3.11-16.32,4-24.83,1.1" fill="#ebebeb"/><path d="M479.47,94.67a240,240,0,0,1,9-25.91l2.72-6.67c.9-2.19,1.79-4.36,2.79-6.43a119.66,119.66,0,0,1,6.43-11.55c2.23-3.58,4.47-6.89,6.58-10s4.16-5.91,6.13-8.41a95.22,95.22,0,0,1,10.14-11.11c1.3-1.21,2.33-2.12,3-2.73l.81-.68.29-.22s-.08.09-.25.26l-.78.72c-.69.63-1.71,1.56-3,2.79a100.94,100.94,0,0,0-10,11.18c-1.94,2.51-3.95,5.35-6.06,8.43s-4.33,6.41-6.54,10a123.64,123.64,0,0,0-6.38,11.52c-1,2.06-1.87,4.21-2.77,6.41s-1.79,4.41-2.71,6.66a246.5,246.5,0,0,0-9.06,25.85" fill="#e0e0e0"/><path d="M494.15,55.64a5.66,5.66,0,0,1-.28-1.13c-.15-.74-.34-1.81-.55-3.13-.43-2.65-.89-6.33-1.38-10.39s-1-7.73-1.47-10.36c-.23-1.32-.42-2.39-.57-3.12a5.69,5.69,0,0,1-.17-1.16,4.82,4.82,0,0,1,.36,1.11c.2.73.45,1.78.72,3.1.55,2.63,1.12,6.3,1.62,10.36s.9,7.64,1.23,10.41c.16,1.25.29,2.3.4,3.15A5.55,5.55,0,0,1,494.15,55.64Z" fill="#e0e0e0"/><path d="M528.35,48.62a8,8,0,0,1-1.37.19c-.88.09-2.15.22-3.72.43-3.13.4-7.45,1.09-12.17,2.07s-9,2.06-12,2.93c-1.52.42-2.75.79-3.6,1a7,7,0,0,1-1.33.35,7.91,7.91,0,0,1,1.27-.54c.83-.31,2.05-.73,3.56-1.2,3-.95,7.27-2.09,12-3.08a122.25,122.25,0,0,1,12.23-1.93c1.58-.16,2.86-.24,3.75-.27A8.23,8.23,0,0,1,528.35,48.62Z" fill="#e0e0e0"/><path d="M479.88,94s-.1-.13-.24-.41L479,92.39c-.53-1.07-1.24-2.64-2.1-4.6-1.73-3.9-3.94-9.36-6.3-15.42s-4.52-11.54-6.17-15.48l-1.95-4.65c-.21-.5-.39-.92-.53-1.27a1.66,1.66,0,0,1-.15-.45,1.66,1.66,0,0,1,.24.41c.17.33.37.74.61,1.23.52,1.07,1.24,2.64,2.1,4.59,1.73,3.91,3.94,9.37,6.3,15.43s4.52,11.54,6.16,15.48c.81,1.91,1.47,3.48,2,4.65l.53,1.27A2.29,2.29,0,0,1,479.88,94Z" fill="#e0e0e0"/><path d="M525.21,78.53s-.15.08-.45.19l-1.31.47-4.86,1.67c-4.1,1.41-9.73,3.42-16,5.65s-11.89,4.2-16,5.53c-2.07.66-3.74,1.18-4.91,1.51l-1.34.38a1.75,1.75,0,0,1-.48.1,2.11,2.11,0,0,1,.45-.19l1.31-.47,4.86-1.67c4.1-1.41,9.74-3.42,16-5.65s11.89-4.2,16-5.52c2.07-.67,3.74-1.19,4.91-1.52l1.34-.38A1.75,1.75,0,0,1,525.21,78.53Z" fill="#e0e0e0"/><path d="M628.42,171.92a10.12,10.12,0,0,1-3.73,7,17.94,17.94,0,0,1-7.31,3.48c-5.11,1.28-11.1.34-16.14-1.19,2-5.48,8-8.78,11.1-10.27,4.92-2.35,15.24-3.6,16.08,1" fill="#ebebeb"/><path d="M594.94,189.06a8.68,8.68,0,0,1,8.69-.27,11.51,11.51,0,0,1,5.45,7,4.84,4.84,0,0,1-.26,4.07,3.71,3.71,0,0,1-3.49,1.37,7.6,7.6,0,0,1-3.54-1.65c-3.58-2.73-6.55-6-6.85-10.54" fill="#ebebeb"/><path d="M581.77,188.42a17.38,17.38,0,0,1,3.42-.65,16.11,16.11,0,0,1,3.81,0,36.7,36.7,0,0,1,4.59.7,17.42,17.42,0,0,1,7.52,3.79,13,13,0,0,1,1.72,1.91,3.07,3.07,0,0,1,.46.82c-.08.07-.82-1.06-2.45-2.41a18.52,18.52,0,0,0-7.39-3.53,40.6,40.6,0,0,0-4.51-.74,17.67,17.67,0,0,0-3.71-.12A24.47,24.47,0,0,1,581.77,188.42Z" fill="#e0e0e0"/><path d="M620.65,173.58a11.31,11.31,0,0,1-1.58.78c-1,.46-2.54,1.12-4.4,1.91-3.73,1.58-8.91,3.71-14.68,5.92s-11.06,4.07-14.91,5.33c-1.92.63-3.49,1.12-4.58,1.44a9.85,9.85,0,0,1-1.7.44,9.79,9.79,0,0,1,1.63-.66l4.52-1.62c3.81-1.36,9.06-3.27,14.83-5.48l14.73-5.76,4.47-1.74A9.23,9.23,0,0,1,620.65,173.58Z" fill="#e0e0e0"/><path d="M590.72,183.54a20.27,20.27,0,0,0,7.79-16.79c-.08-1.63-.59-3.54-2.13-4.08s-3.15.63-4.21,1.88a17.3,17.3,0,0,0-1.87,19.1" fill="#ebebeb"/><path d="M594.9,169.89a2.91,2.91,0,0,1,0,.93c0,.59-.1,1.45-.23,2.51a22.74,22.74,0,0,1-2.47,7.95,14.08,14.08,0,0,1-2.89,3.61,13.49,13.49,0,0,1-3.15,2.09,13.23,13.23,0,0,1-2.37.88,2.56,2.56,0,0,1-.91.18c0-.11,1.24-.46,3.09-1.44a14.46,14.46,0,0,0,3-2.11,14.88,14.88,0,0,0,2.74-3.5,25.9,25.9,0,0,0,2.57-7.73A26.53,26.53,0,0,1,594.9,169.89Z" fill="#e0e0e0"/><path d="M60.79,0a12,12,0,0,1,8.84,3.18,21.2,21.2,0,0,1,5.33,8c2.37,5.77,2.29,12.94,1.36,19.11C69.56,28.81,64.68,22.43,62.41,19c-3.59-5.36-6.83-17.23-1.62-19" fill="#ebebeb"/><path d="M86.56,36.32A10.23,10.23,0,0,1,84.77,26.2a13.6,13.6,0,0,1,7.28-7.58c1.51-.69,3.32-1.13,4.81-.39a4.37,4.37,0,0,1,2.19,3.86,8.88,8.88,0,0,1-1.31,4.42c-2.6,4.66-6,8.7-11.18,9.81" fill="#ebebeb"/><path d="M88.05,51.85A20.39,20.39,0,0,1,86.71,48a19.69,19.69,0,0,1-.65-4.46,42.37,42.37,0,0,1,0-5.5,20.53,20.53,0,0,1,3.15-9.45,14.77,14.77,0,0,1,2-2.33c.53-.48.85-.72.88-.68s-1.1,1.14-2.41,3.28a22,22,0,0,0-2.87,9.25,47.39,47.39,0,0,0-.1,5.41,21.6,21.6,0,0,0,.49,4.36A28.81,28.81,0,0,1,88.05,51.85Z" fill="#e0e0e0"/><path d="M64.05,8.86a12.46,12.46,0,0,1,1.18,1.72c.72,1.13,1.74,2.78,3,4.83,2.49,4.09,5.86,9.79,9.44,16.17s6.64,12.26,8.77,16.55c1.07,2.15,1.91,3.9,2.47,5.12a12.39,12.39,0,0,1,.81,1.92,11.75,11.75,0,0,1-1-1.8c-.69-1.3-1.59-3-2.66-5-2.25-4.23-5.38-10.06-9-16.44s-6.83-12-9.26-16.26L65,10.72A10.11,10.11,0,0,1,64.05,8.86Z" fill="#e0e0e0"/><path d="M80.81,42.2a24,24,0,0,0-21-6.25c-1.89.38-4,1.3-4.42,3.2s1.28,3.57,2.92,4.6A20.48,20.48,0,0,0,81,42.69" fill="#ebebeb"/><path d="M64.12,39.65a3.27,3.27,0,0,1,1.08-.18c.7-.08,1.72-.13,3-.16a26.86,26.86,0,0,1,9.73,1.54,17,17,0,0,1,4.73,2.76,16.6,16.6,0,0,1,3,3.33,16.33,16.33,0,0,1,1.44,2.63c.28.65.42,1,.37,1s-.75-1.37-2.21-3.37a18.17,18.17,0,0,0-3-3.12,17.67,17.67,0,0,0-4.57-2.61,30.31,30.31,0,0,0-9.49-1.69A36.73,36.73,0,0,1,64.12,39.65Z" fill="#e0e0e0"/><path d="M298,368.28a10.72,10.72,0,0,1,0-8.39,19.08,19.08,0,0,1,5.12-6.84c4.14-3.7,10.2-5.78,15.66-6.82.77,6.13-3.15,12.12-5.33,15-3.44,4.61-12.46,10.86-15.49,7" fill="#ebebeb"/><path d="M320.88,335.83a9.14,9.14,0,0,1-8,4.51,12.11,12.11,0,0,1-8.53-3.87,5.11,5.11,0,0,1-1.76-3.93,3.9,3.9,0,0,1,2.59-3,8,8,0,0,1,4.11-.21c4.69.8,9.08,2.43,11.57,6.49" fill="#ebebeb"/><path d="M333.5,330a18.49,18.49,0,0,1-2.88,2.28,16.94,16.94,0,0,1-3.55,1.88,37.45,37.45,0,0,1-4.64,1.59,18.24,18.24,0,0,1-8.88.16,14.24,14.24,0,0,1-2.54-.94,3.3,3.3,0,0,1-.84-.54c.05-.1,1.29.59,3.48,1.05a19.68,19.68,0,0,0,8.63-.33,44.64,44.64,0,0,0,4.58-1.53,18.65,18.65,0,0,0,3.52-1.71A25.25,25.25,0,0,1,333.5,330Z" fill="#e0e0e0"/><path d="M304.48,362.91a11.92,11.92,0,0,1,1.09-1.5c.74-.94,1.82-2.29,3.17-4,2.71-3.31,6.5-7.84,10.8-12.74s8.33-9.23,11.31-12.3c1.49-1.53,2.71-2.76,3.57-3.59a11.62,11.62,0,0,1,1.37-1.25,9.37,9.37,0,0,1-1.2,1.42l-3.42,3.73c-2.89,3.14-6.86,7.51-11.16,12.4l-10.93,12.62c-1.35,1.54-2.46,2.83-3.32,3.82A10.26,10.26,0,0,1,304.48,362.91Z" fill="#e0e0e0"/><path d="M327.54,338.92a21.34,21.34,0,0,0,1,19.49c.88,1.48,2.29,3,4,2.77s2.63-2.13,3-3.82a18.26,18.26,0,0,0-7.63-18.76" fill="#ebebeb"/><path d="M330.34,353.71a3.28,3.28,0,0,1-.47-.86c-.28-.56-.62-1.41-1-2.46a23.76,23.76,0,0,1-1.6-8.64,14.94,14.94,0,0,1,.92-4.79,14.54,14.54,0,0,1,1.92-3.49,14.39,14.39,0,0,1,1.77-2c.47-.43.74-.65.77-.62s-.94,1-2.18,2.86a14.88,14.88,0,0,0-2.58,8,27.23,27.23,0,0,0,1.39,8.48A31,31,0,0,1,330.34,353.71Z" fill="#e0e0e0"/></g><g id="Stains"><path d="M1.06,144.85c-4.21-24.29,4.23-51.13,23.63-66.36S74.22,62.14,93,78.11c13.21,11.23,19.4,28.37,27.26,43.82s19.8,31.09,36.93,33.76c14.78,2.3,29.64-5.79,44.47-3.85,14.47,1.9,26.6,13.74,30.76,27.73s1.06,29.53-6.42,42.08S207,244,194.45,251.36c-40.48,23.81-94.21,23-134-1.93s-63.84-73-60-119.84" fill="#e8505b"/><g opacity="0.7"><path d="M1.06,144.85c-4.21-24.29,4.23-51.13,23.63-66.36S74.22,62.14,93,78.11c13.21,11.23,19.4,28.37,27.26,43.82s19.8,31.09,36.93,33.76c14.78,2.3,29.64-5.79,44.47-3.85,14.47,1.9,26.6,13.74,30.76,27.73s1.06,29.53-6.42,42.08S207,244,194.45,251.36c-40.48,23.81-94.21,23-134-1.93s-63.84-73-60-119.84" fill="#fff"/></g><path d="M235.63,362.36c13.14-9,19.33-28.76,11.11-42.39h0c-8.33-12.41-21.25-22.3-36-24.38s-31.14,4.89-37.73,18.3c-4.15,8.44-4.16,18.65-.72,27.4a43.58,43.58,0,0,0,18.19,20.91C204.07,370.42,222.49,371.34,235.63,362.36Z" fill="#e8505b"/><g opacity="0.7"><path d="M235.63,362.36c13.14-9,19.33-28.76,11.11-42.39h0c-8.33-12.41-21.25-22.3-36-24.38s-31.14,4.89-37.73,18.3c-4.15,8.44-4.16,18.65-.72,27.4a43.58,43.58,0,0,0,18.19,20.91C204.07,370.42,222.49,371.34,235.63,362.36Z" fill="#fff"/></g><path d="M662.63,279.53c-.82-21-11.24-41.92-28.7-53.71s-41.77-13.39-59.77-2.44c-11.2,6.82-19.34,17.69-26.11,28.93-3.71,6.15-7.58,12.95-14.24,15.64-8.67,3.5-18.2-1.27-27.37-3.11a43.06,43.06,0,0,0-50,30.94c-8,33.19,15.26,56.89,40.14,71.27,27.82,16.07,63,16.06,93.24,5.33,19.85-7,38.36-18.6,51.88-34.75S663.45,300.57,662.63,279.53Z" fill="#e8505b"/><g opacity="0.7"><path d="M662.63,279.53c-.82-21-11.24-41.92-28.7-53.71s-41.77-13.39-59.77-2.44c-11.2,6.82-19.34,17.69-26.11,28.93-3.71,6.15-7.58,12.95-14.24,15.64-8.67,3.5-18.2-1.27-27.37-3.11a43.06,43.06,0,0,0-50,30.94c-8,33.19,15.26,56.89,40.14,71.27,27.82,16.07,63,16.06,93.24,5.33,19.85-7,38.36-18.6,51.88-34.75S663.45,300.57,662.63,279.53Z" fill="#fff"/></g><path d="M614.83,99.72c-2.57-16.8-18.77-31.9-35.69-30.28h0C563.35,71.73,547.86,79.6,539,92.88s-9.67,32.25.2,44.78c6.21,7.89,16,12.61,26,13.35a46.51,46.51,0,0,0,28.53-7.86C608,133.83,617.4,116.52,614.83,99.72Z" fill="#e8505b"/><g opacity="0.7"><path d="M614.83,99.72c-2.57-16.8-18.77-31.9-35.69-30.28h0C563.35,71.73,547.86,79.6,539,92.88s-9.67,32.25.2,44.78c6.21,7.89,16,12.61,26,13.35a46.51,46.51,0,0,0,28.53-7.86C608,133.83,617.4,116.52,614.83,99.72Z" fill="#fff"/></g></g><g id="Character_2" data-name="Character 2"><path d="M419,103.93c2.17-.27,3.91-1.87,5.89-2.8a10.19,10.19,0,0,1,9.42.47c2.8,1.68,4.8,3.69,5,7l-3.66,4" fill="#263238"/><path d="M442.27,124.36l-5.89,35.42c-1,6-3.71,14.66-13.16,12.64h0c-8.07-2.37-8.85-10.55-7.91-16.16.44-2.67.81-4.89.84-5.17,0,0-8.88-2.35-8-11.38.4-4.37,2-13.29,3.47-21.34A16.89,16.89,0,0,1,430,104.68l.87.09C440.15,106.3,444.06,115.08,442.27,124.36Z" fill="#f4d3bd"/><path d="M416.15,151a21.1,21.1,0,0,0,12.11-2.11s-3.46,6.2-12.38,4.44Z" fill="#eaae94"/><path d="M412.4,123.77a29.45,29.45,0,0,1,3.07-.11c1.67.19,2.84.93,3,.81s-.08-.33-.59-.66a5.73,5.73,0,0,0-2.42-.82,5.33,5.33,0,0,0-2.46.25C412.51,123.46,412.31,123.69,412.4,123.77Z" fill="#263238"/><path d="M426.1,125.3c.18.16,1.4-.29,3.06-.09s2.83.91,3,.79-.08-.32-.59-.65a5.93,5.93,0,0,0-2.4-.81,5.28,5.28,0,0,0-2.45.25C426.21,125,426,125.23,426.1,125.3Z" fill="#263238"/><path d="M425.79,127.52a1,1,0,0,0,.85,1.1,1,1,0,0,0,1.12-.79,1,1,0,0,0-.85-1.1A1,1,0,0,0,425.79,127.52Z" fill="#263238"/><path d="M412.84,126.1a1,1,0,0,0,.86,1.1,1,1,0,0,0,1.12-.79,1,1,0,0,0-.85-1.1A1,1,0,0,0,412.84,126.1Z" fill="#263238"/><path d="M420.55,134.44a9.43,9.43,0,0,0-2.21-.65c-.35-.07-.68-.18-.72-.42a1.93,1.93,0,0,1,.35-1l1.33-2.58c1.86-3.69,3.24-6.73,3.09-6.81a47.77,47.77,0,0,0-3.63,6.54l-1.29,2.61a2.13,2.13,0,0,0-.33,1.37.93.93,0,0,0,.53.58,2.61,2.61,0,0,0,.59.14A9.47,9.47,0,0,0,420.55,134.44Z" fill="#263238"/><path d="M427.78,119.25c.08.35,1.32.32,2.73.65s2.54.85,2.76.56c.1-.13-.07-.48-.5-.86a4.8,4.8,0,0,0-4.19-.93C428,118.84,427.74,119.08,427.78,119.25Z" fill="#263238"/><path d="M413.13,119.47c.1.3,1.32.21,2.74.42s2.55.6,2.75.34-.1-.4-.55-.71a4.9,4.9,0,0,0-2-.71,5.26,5.26,0,0,0-2.17.13C413.35,119.11,413.08,119.33,413.13,119.47Z" fill="#263238"/><path d="M440.83,131c.17-.05,6.39-1.18,5.55,5s-6.84,4-6.83,3.85S440.83,131,440.83,131Z" fill="#f4d3bd"/><path d="M441.75,137.71s.1.09.27.2a1.08,1.08,0,0,0,.8.12,2.66,2.66,0,0,0,1.55-2.2,3.6,3.6,0,0,0-.09-1.58,1.25,1.25,0,0,0-.69-.93.55.55,0,0,0-.68.21c-.1.16-.08.28-.11.29s-.12-.12,0-.37a.69.69,0,0,1,.3-.35.83.83,0,0,1,.61-.08,1.53,1.53,0,0,1,1,1.11,3.58,3.58,0,0,1,.13,1.77,2.8,2.8,0,0,1-1.92,2.44,1.18,1.18,0,0,1-1-.3C441.74,137.86,441.73,137.72,441.75,137.71Z" fill="#eaae94"/><path d="M409.87,116.29a13.09,13.09,0,0,0,11.85-1.39c2.38-1.63,4.36-4.13,7.2-4.69a7.37,7.37,0,0,1,5.52,1.36,14.2,14.2,0,0,1,3.84,4.35c-2.23,4.4-1.59,9.64-.9,14.52a2.47,2.47,0,0,0,.56,1.5,2,2,0,0,0,2.52-.29,7.59,7.59,0,0,0,2.09-3.84,25.53,25.53,0,0,0,1-10,17.42,17.42,0,0,0-3.83-9.22,16.5,16.5,0,0,0-11-5.54A20.22,20.22,0,0,0,416.6,106a11.8,11.8,0,0,0-4.25,4" fill="#263238"/><path d="M410.4,124.81c.58-2.48.85-5.6,1.43-8.09A15,15,0,0,0,423,114c1.64-1.27,3-3,5-3.55,2.57-.74,5.23.61,7.56,1.92l-.09-.11a11.2,11.2,0,0,1,3,3.1,35.4,35.4,0,0,0-1.13,15,2.6,2.6,0,0,0,1.17,1.85c1.28.77,2.22-.1,3.18-.7.71-.43,1.7-.71,2.3-.14a34.92,34.92,0,0,0,4.07-10,2.51,2.51,0,0,0,4.43,2.22,5.23,5.23,0,0,1-1.22-2.51,3.27,3.27,0,0,0,4.65-.37L454,118.65l2.78.15a14.86,14.86,0,0,1-5.28-4.58,22.94,22.94,0,0,0-4.91-5c-2-1.27-4.64-1.79-6.67-.61.14-3.25-2.19-6.26-5.14-7.63a21,21,0,0,0-11.19-1.11c-2.46.51-5,2-8.21,4.31a29.31,29.31,0,0,0-4.26,3.68c-1.94,2-5.8,5.4-9.51,4.4l.33,3.82c2,1.92,6.12.23,6.12.23s-2.38,2.38-4.6,2.32l.59,3.28s3.37.59,4.85-2Z" fill="#263238"/><path d="M438.28,115.92s-.29-.49-.91-1.29a11.28,11.28,0,0,0-3.1-2.87,12,12,0,0,0-2.72-1,5.87,5.87,0,0,0-3.25-.08c-2.26.68-3.91,3-6.33,4.42a14,14,0,0,1-7.52,2.24,17.28,17.28,0,0,1-1.78-.08,1.64,1.64,0,0,0-.74,0,7.6,7.6,0,0,0-.7.35,6.49,6.49,0,0,0-1.91,2.13,5.41,5.41,0,0,1-3.69,2.19,6.16,6.16,0,0,1-1.18,0,1.72,1.72,0,0,1-.41-.07s.57,0,1.56-.15a5.29,5.29,0,0,0,3.44-2.21,6.69,6.69,0,0,1,2-2.28,5.78,5.78,0,0,1,.75-.39,2.09,2.09,0,0,1,.92-.07c.56,0,1.14.07,1.73.06a13.81,13.81,0,0,0,7.27-2.2,25.86,25.86,0,0,0,3.18-2.46,9.36,9.36,0,0,1,3.28-2,6.18,6.18,0,0,1,3.48.11,11.88,11.88,0,0,1,2.8,1.14,10.91,10.91,0,0,1,3.08,3.06,9.86,9.86,0,0,1,.6,1A1.74,1.74,0,0,1,438.28,115.92Z" fill="#455a64"/><path d="M448,121.33a1.39,1.39,0,0,1-.17.51,5,5,0,0,1-.79,1.28,2.42,2.42,0,0,1-2.14.87,1.69,1.69,0,0,1-1.2-.86,2.52,2.52,0,0,1-.28-1.56l.46.13a2,2,0,0,1-1.73,1.16,2.43,2.43,0,0,1-1.83-.67,3.78,3.78,0,0,1-1-1.49,9.75,9.75,0,0,1-.42-2.87,16.76,16.76,0,0,0-.32-2.58,5,5,0,0,1,.67,2.55,10.8,10.8,0,0,0,.49,2.74,3.47,3.47,0,0,0,.87,1.29,2,2,0,0,0,1.46.54,1.52,1.52,0,0,0,1.33-.85l.82-2.08-.36,2.2a1.61,1.61,0,0,0,1.08,1.94,2.17,2.17,0,0,0,1.84-.67,6.75,6.75,0,0,0,.86-1.15C447.85,121.47,448,121.31,448,121.33Z" fill="#455a64"/><path d="M445.72,128.08a2.54,2.54,0,0,1-1.72.45,5.86,5.86,0,0,1-3.93-1.71,11.24,11.24,0,0,1-2.36-3.58,5.74,5.74,0,0,1-.58-1.67,7.14,7.14,0,0,1,.89,1.52,13.84,13.84,0,0,0,2.39,3.37,6.17,6.17,0,0,0,3.6,1.73A10.28,10.28,0,0,0,445.72,128.08Z" fill="#455a64"/><path d="M445.44,129.24a3.22,3.22,0,0,1-1.52.1,8.18,8.18,0,0,1-6.13-3.76,3.18,3.18,0,0,1-.6-1.4,10.14,10.14,0,0,1,.88,1.21A9.53,9.53,0,0,0,444,129,9.19,9.19,0,0,1,445.44,129.24Z" fill="#455a64"/><path d="M449.41,106.22a9.88,9.88,0,0,1-1.54-.21,10.06,10.06,0,0,0-7,1.73,11.35,11.35,0,0,1-1.26.91s.29-.55,1.05-1.19a8.77,8.77,0,0,1,7.25-1.8A3.39,3.39,0,0,1,449.41,106.22Z" fill="#455a64"/><path d="M441.06,100.86a7.86,7.86,0,0,1-1.28,8.2,19.81,19.81,0,0,0,1.33-4A20.13,20.13,0,0,0,441.06,100.86Z" fill="#455a64"/><path d="M405.14,112.05a4.46,4.46,0,0,0,1.28.73,7.09,7.09,0,0,0,4-.46c.83-.28,1.71-.64,2.68-1a16.16,16.16,0,0,0,2.93-1.39c2-1.13,4-2.76,6.48-3.87a11,11,0,0,1,3.84-1,7,7,0,0,1,3.63.75c2.1,1.09,3.59,2.62,5.19,3.25a5.17,5.17,0,0,0,3.93.18,4.66,4.66,0,0,0,1.2-.87,1.72,1.72,0,0,1-.21.33,3,3,0,0,1-.91.71,5.27,5.27,0,0,1-4.14,0c-1.7-.64-3.24-2.16-5.26-3.18a6.8,6.8,0,0,0-3.41-.67,10.69,10.69,0,0,0-3.66,1c-2.41,1.06-4.42,2.68-6.45,3.82a16.36,16.36,0,0,1-3,1.37c-1,.35-1.87.69-2.71,1a7,7,0,0,1-4.15.32,2.79,2.79,0,0,1-1-.61C405.21,112.17,405.13,112.06,405.14,112.05Z" fill="#455a64"/><path d="M440,108.54a32.21,32.21,0,0,0-2.38-2.4,14,14,0,0,0-7.31-3.19,22.84,22.84,0,0,0-4.47,0,25,25,0,0,1-3.72.07,7.9,7.9,0,0,1-2.47-.53,2.65,2.65,0,0,1-.81-.44,13,13,0,0,0,3.3.63,29.2,29.2,0,0,0,3.66-.18,22.13,22.13,0,0,1,4.57-.09,13.57,13.57,0,0,1,7.48,3.41,11.92,11.92,0,0,1,1.68,1.88A3,3,0,0,1,440,108.54Z" fill="#455a64"/><path d="M421.23,138.92c0-.17,1.22-.31,2.26-1.28a7.17,7.17,0,0,0,1.13-1.44c.26-.42.44-.67.5-.64s0,.33-.19.79a4.59,4.59,0,0,1-1.11,1.65,3.66,3.66,0,0,1-1.77.91C421.55,139,421.23,139,421.23,138.92Z" fill="#263238"/><path d="M582.14,310.76l16.37-9.28s14.93,13.53,18.12,12.11L599.78,281.2l-26.1,13.41Z" fill="#e8505b"/><g opacity="0.6"><path d="M591.9,292.2a1.48,1.48,0,0,1,1-1.7,1.41,1.41,0,0,1,1.69,1,1.57,1.57,0,0,1-1.1,1.79,1.49,1.49,0,0,1-1.65-1.25" fill="#fff"/></g><g opacity="0.6"><path d="M599.78,281.2l-2.58,1.45,17.12,30.51s1.38,1.12,2.31.43Z" fill="#fff"/></g><path d="M598.62,302.09c.15-.09-.19-.91-.08-2s.55-1.8.41-1.91-.93.6-1,1.86S598.49,302.2,598.62,302.09Z" fill="#263238"/><path d="M601.79,304.76c.17-.05.08-.87.47-1.76s1-1.4.93-1.56-1,.21-1.5,1.32S601.64,304.83,601.79,304.76Z" fill="#263238"/><path d="M606.86,304.57c0-.16-1,0-1.6.89s-.62,1.77-.45,1.77.39-.7.94-1.39S606.93,304.74,606.86,304.57Z" fill="#263238"/><path d="M594.65,303.79c.11-.14-.48-.75-.89-1.68s-.48-1.77-.66-1.78-.4.95.09,2S594.57,303.93,594.65,303.79Z" fill="#263238"/><g opacity="0.3"><polygon points="585.38 308.92 588.3 307.27 579.87 291.42 577.18 292.8 585.38 308.92"/></g><path d="M591.31,305.6c.07,0-.16-.7-.85-1.61a7.77,7.77,0,0,0-1.4-1.43,8.87,8.87,0,0,0-1-.67,2.39,2.39,0,0,0-.64-.3.78.78,0,0,0-.88.37,1,1,0,0,0,0,.88,2.61,2.61,0,0,0,.4.56,6.12,6.12,0,0,0,.87.83,6.49,6.49,0,0,0,1.76,1,3.07,3.07,0,0,0,1.82.27c0-.1-.67-.21-1.65-.68a7,7,0,0,1-1.56-1,7.18,7.18,0,0,1-.78-.78c-.26-.3-.42-.59-.31-.75s.06-.08.2-.06a1.51,1.51,0,0,1,.46.21,9.48,9.48,0,0,1,.94.6,10.18,10.18,0,0,1,1.42,1.26C590.87,305.06,591.23,305.65,591.31,305.6Z" fill="#263238"/><path d="M591.43,305.28a2.88,2.88,0,0,0-1.79.39,5.88,5.88,0,0,0-1.66,1.14,6.56,6.56,0,0,0-.77.93,1.51,1.51,0,0,0-.28,1.46.88.88,0,0,0,.81.44,2.64,2.64,0,0,0,.68-.14,4,4,0,0,0,1.09-.57,4.27,4.27,0,0,0,1.32-1.56,2.36,2.36,0,0,0,.29-1.82,12.08,12.08,0,0,1-.68,1.6,4.09,4.09,0,0,1-1.26,1.31,3.64,3.64,0,0,1-.95.46c-.37.13-.71.14-.75,0a1.12,1.12,0,0,1,.24-.85,5.8,5.8,0,0,1,.67-.86,6.26,6.26,0,0,1,1.46-1.15C590.77,305.52,591.45,305.38,591.43,305.28Z" fill="#263238"/><path d="M535.48,336.27l18.57-3s9.33,17.85,12.82,17.62l-4.62-36.21-29.13,3.56Z" fill="#e8505b"/><g opacity="0.6"><path d="M551.05,322.22a1.5,1.5,0,0,1,1.56-1.24,1.44,1.44,0,0,1,1.24,1.54,1.58,1.58,0,0,1-1.66,1.3,1.49,1.49,0,0,1-1.11-1.74" fill="#fff"/></g><g opacity="0.6"><path d="M562.25,314.63l-2.92.47,5.52,34.55s.91,1.52,2,1.19Z" fill="#fff"/></g><path d="M553.94,333.83c.17,0,.14-.92.6-1.86s1.14-1.5,1.05-1.66-1.08.24-1.61,1.39S553.78,333.89,553.94,333.83Z" fill="#263238"/><path d="M556,337.43c.18,0,.38-.79,1-1.48s1.44-1,1.41-1.15-1-.16-1.86.72S555.82,337.45,556,337.43Z" fill="#263238"/><path d="M560.81,339c0-.17-.89-.3-1.8.28s-1.19,1.45-1,1.51.61-.52,1.37-1S560.82,339.19,560.81,339Z" fill="#263238"/><path d="M549.63,334.06c.15-.1-.2-.88-.26-1.89s.16-1.82,0-1.9-.7.76-.62,2S549.5,334.16,549.63,334.06Z" fill="#263238"/><g opacity="0.3"><polygon points="539.15 335.66 542.46 335.12 540.03 317.34 537.03 317.7 539.15 335.66"/></g><path d="M545.87,334.6a3.51,3.51,0,0,0-.24-1.81,8.32,8.32,0,0,0-.82-1.82,8.64,8.64,0,0,0-.69-1,2.14,2.14,0,0,0-.5-.5.78.78,0,0,0-1,0,1,1,0,0,0-.3.83,2,2,0,0,0,.18.67,6.58,6.58,0,0,0,1.84,2.61,3.08,3.08,0,0,0,1.61.88c0-.09-.56-.43-1.31-1.2a7.69,7.69,0,0,1-1.12-1.51,6.57,6.57,0,0,1-.45-1c-.15-.37-.2-.69,0-.81s.09-.05.21,0a1.74,1.74,0,0,1,.36.36,9.87,9.87,0,0,1,.67.89,9.61,9.61,0,0,1,.9,1.67A13.09,13.09,0,0,0,545.87,334.6Z" fill="#263238"/><path d="M546.09,334.34c0-.07-.65-.34-1.81-.25a5.67,5.67,0,0,0-1.95.5,5.26,5.26,0,0,0-1,.6,1.5,1.5,0,0,0-.77,1.27.87.87,0,0,0,.6.7,3,3,0,0,0,.69.1,4,4,0,0,0,1.22-.16,4.13,4.13,0,0,0,1.77-1c.85-.83,1-1.59.91-1.6s-.36.61-1.19,1.27a4.35,4.35,0,0,1-1.63.79,3.71,3.71,0,0,1-1.06.1c-.39,0-.72-.11-.7-.26s.23-.53.52-.71a6.12,6.12,0,0,1,.92-.58,6.51,6.51,0,0,1,1.77-.58C545.39,334.34,546.08,334.44,546.09,334.34Z" fill="#263238"/><path d="M459.24,236.08c-.57.22,8.8,9.25,10.3,15.35,1.82,7.38,6.76,15.8,6.76,15.8l34.62,33.16,65.2-9.53,11,20.09-78.64,21.31a14.25,14.25,0,0,1-12.26-2.33l-50.69-37.7-29.08-36Z" fill="#263238"/><path d="M411.62,259l4.19,15.43C427.6,298.76,450,344.85,456,347.81c8.26,4.13,84.24-11,84.24-11l-1.65-20.92-63.75,5.51-42.65-74.91Z" fill="#263238"/><path d="M582.09,312.32l-.44.15-1.28.38-4.93,1.44-18.17,5.21-27,7.66-15.93,4.51c-1.38.38-2.75.8-4.19,1.16a20.42,20.42,0,0,1-4.43.54,19.91,19.91,0,0,1-8.82-2,21.47,21.47,0,0,1-3.87-2.45l-3.55-2.74q-3.5-2.76-6.82-5.5c-4.43-3.66-8.66-7.25-12.6-10.76-7.92-7-14.79-13.55-20.4-19.24s-9.88-10.54-12.68-14l-1.84-2.33-1.27-1.76c-.33-.47-.59-.83-.77-1.1s-.25-.38-.25-.38.11.12.29.36.46.6.81,1.06l1.31,1.73,1.87,2.3c2.84,3.44,7.15,8.24,12.78,13.89s12.52,12.2,20.45,19.15c3.95,3.5,8.18,7.08,12.6,10.73q3.33,2.73,6.83,5.48l3.54,2.74a21.21,21.21,0,0,0,3.78,2.4,19.3,19.3,0,0,0,12.93,1.41c1.39-.34,2.79-.77,4.17-1.15l15.94-4.48,27-7.56,18.22-5.05,5-1.35,1.29-.34A3.55,3.55,0,0,1,582.09,312.32Z" fill="#455a64"/><path d="M432.91,259.94c0,.07-.42.28-.52,1a1.3,1.3,0,0,0,.29,1,1.15,1.15,0,0,0,1.88-.82,1.28,1.28,0,0,0-.55-.91c-.56-.39-1-.2-1.05-.28s.08-.12.3-.17a1.33,1.33,0,0,1,.93.15,1.59,1.59,0,0,1,.83,1.17,1.58,1.58,0,0,1-2.68,1.16,1.57,1.57,0,0,1-.29-1.4,1.34,1.34,0,0,1,.53-.78C432.77,259.92,432.9,259.92,432.91,259.94Z" fill="#455a64"/><path d="M466.12,250.92s-.18.25-.58.62a13.83,13.83,0,0,1-1.83,1.37A15.67,15.67,0,0,1,449.15,254a13.41,13.41,0,0,1-2-1.08,2.43,2.43,0,0,1-.66-.51c0-.08,1,.59,2.81,1.27a17,17,0,0,0,7.25,1.07,16.81,16.81,0,0,0,7-2.17C465.18,251.67,466.06,250.86,466.12,250.92Z" fill="#455a64"/><path d="M525,195.57s-45.33-17-48.08-19.47-14.73-16-19.7-17.74c0,0-8.08-2.12-13.58-1.82l-5.81.69v-4.4l-23.88.39-.66,5.88-4.07,1.54s-9.56,20-9.56,29.12-4.72,62.51,4.59,72.77c1.42,1.57,7,.55,7,.55s26.84-2.85,53.52-21.51l-9.77-11.29s-3.46-23.58.58-40.52c.09-.38.17-.74.25-1.11,11.56,5.7,29.33,14,34.56,14,0,0,29.23,9.87,34.64,3.54C525.57,205.5,525,195.57,525,195.57Z" fill="#455a64"/><path d="M413.82,159.75s-9.35.38-15.44,7.95-16,39.86-16,39.86l-13.64-14-13,7.22s18.38,25.62,22,28.58a19.46,19.46,0,0,0,6.63,2.84c8.73.76,14.64-8.14,16.43-15.46l6-30.13" fill="#455a64"/><path d="M359.69,198.54l-14-8.31s-4.23-10-2.62-10.47,3,5.58,3,5.58l2,1s-2.74-5.08-1.78-5.57,2.27,1,3,2.18c.56.88,2.36,4.57,2.36,4.57l.95-1.3-.75-3.41s-1-2.28.12-2.3,1.1-.1,1.93,1.79,1.41,3.29,1.41,3.29,4.07,2.43,4.94,2.16a5.1,5.1,0,0,1,4,.31s3.88,2,2.94,6.14" fill="#f4d3bd"/><path d="M454.39,161.07a25.72,25.72,0,0,1-.74,2.52,28.15,28.15,0,0,0-.7,12.47,26.18,26.18,0,0,1,.46,2.58,9.44,9.44,0,0,1-.8-2.52,24,24,0,0,1-.51-6.36,24.43,24.43,0,0,1,1.21-6.28A9.65,9.65,0,0,1,454.39,161.07Z" fill="#263238"/><path d="M416.93,159.82a9.39,9.39,0,0,1-.26-3.39,9.13,9.13,0,0,1,.53-3.37,17.44,17.44,0,0,1,0,3.39A16.72,16.72,0,0,1,416.93,159.82Z" fill="#263238"/><path d="M422.51,160.66a15.58,15.58,0,0,1,.09-3.82,14.29,14.29,0,0,1,.58-3.77,15.5,15.5,0,0,1-.09,3.81A14.53,14.53,0,0,1,422.51,160.66Z" fill="#263238"/><path d="M430,160.46c-.14,0,.21-1.66.35-3.69s0-3.69.17-3.71a12.12,12.12,0,0,1-.52,7.4Z" fill="#263238"/><path d="M435.41,159.09c-.14,0,.08-1.4,0-3.1s-.28-3.07-.14-3.11A6.18,6.18,0,0,1,436,156,5.88,5.88,0,0,1,435.41,159.09Z" fill="#263238"/><path d="M400.11,172c.14,0,0,13.06-.3,29.16s-.66,29.16-.79,29.15,0-13,.3-29.16S400,172,400.11,172Z" fill="#263238"/><path d="M399.21,202.67a10.9,10.9,0,0,1-2-1.1,26.75,26.75,0,0,0-4.77-2.44,12,12,0,0,0-5.22-.76c-1.36.12-2.16.47-2.19.39a4.58,4.58,0,0,1,2.14-.74,11.08,11.08,0,0,1,5.44.65,21.21,21.21,0,0,1,4.79,2.6A9.84,9.84,0,0,1,399.21,202.67Z" fill="#fafafa"/><path d="M453.87,193.52a2.08,2.08,0,0,1-.46.31l-1.39.8c-.6.36-1.34.77-2.23,1.2s-1.88,1-3,1.44-2.39,1-3.76,1.55-2.85,1-4.42,1.52a73.39,73.39,0,0,1-21.08,3.28c-1.64,0-3.21,0-4.67-.11s-2.81-.19-4.05-.33-2.35-.31-3.32-.45-1.82-.3-2.49-.46l-1.57-.34a3.6,3.6,0,0,1-.53-.15,2.08,2.08,0,0,1,.55.05l1.58.25c.68.13,1.52.27,2.5.38s2.08.29,3.31.38,2.59.23,4,.27,3,.06,4.64.06a86.1,86.1,0,0,0,10.6-.91,87.33,87.33,0,0,0,10.36-2.35c1.56-.5,3.05-.95,4.41-1.48s2.62-1,3.76-1.48,2.15-1,3.05-1.37,1.65-.79,2.26-1.11l1.43-.72A3.42,3.42,0,0,1,453.87,193.52Z" fill="#fafafa"/><path d="M480.19,179c0,.07-.8.64-2,1.7a26.37,26.37,0,0,0-4.26,4.69,25.9,25.9,0,0,0-3,5.6c-.59,1.52-.83,2.51-.91,2.49s0-.26.08-.72a14.35,14.35,0,0,1,.5-1.89,22,22,0,0,1,7.33-10.44,16.74,16.74,0,0,1,1.61-1.11C479.94,179.13,480.17,179,480.19,179Z" fill="#fafafa"/><path d="M485.25,180.61c0,.08-1,.53-2.47,1.51a21.94,21.94,0,0,0-8.53,10.65c-.62,1.67-.84,2.76-.93,2.74a2.68,2.68,0,0,1,.08-.78,14.1,14.1,0,0,1,.52-2.08,20.05,20.05,0,0,1,3.36-6.19,19.78,19.78,0,0,1,5.32-4.64,13,13,0,0,1,1.91-1A2.56,2.56,0,0,1,485.25,180.61Z" fill="#fafafa"/><path d="M454.23,189.42a2.61,2.61,0,0,1-.5.24l-1.48.6c-.64.26-1.43.56-2.36.88s-2,.71-3.17,1.07c-2.35.76-5.2,1.53-8.39,2.26s-6.75,1.33-10.51,1.78-7.35.62-10.63.67-6.22-.07-8.69-.27c-1.24-.07-2.35-.21-3.33-.31s-1.81-.21-2.5-.32l-1.57-.24-.55-.12a2.19,2.19,0,0,1,.56,0l1.59.15c.68.08,1.52.17,2.5.24s2.09.18,3.32.23c2.47.16,5.4.22,8.67.17s6.84-.29,10.58-.71,7.27-1.07,10.46-1.74,6-1.43,8.39-2.15c1.19-.33,2.25-.69,3.18-1s1.74-.57,2.39-.8l1.5-.51A1.83,1.83,0,0,1,454.23,189.42Z" fill="#fafafa"/><path d="M399.71,195.08a24.44,24.44,0,0,0-11.2-4.36,5.53,5.53,0,0,1,1.81,0,16.19,16.19,0,0,1,4.24,1,16.4,16.4,0,0,1,3.83,2.11A5.18,5.18,0,0,1,399.71,195.08Z" fill="#fafafa"/><path d="M539.88,191.81,530,195.12l-5,.45v10.65L530.1,208l13.79-.75s7.9,4,9.9,3.76,2-.86,2-.86L546,204.22a5.6,5.6,0,0,1,3.76.5c2.26,1,6.14,3.26,7.52,2.63s1.13-1.13,1.13-1.13l-7.65-4.82s6.56,2.94,7.67,2.44a2.05,2.05,0,0,0,1.24-1.47l-4.27-3.79-6.39-5Z" fill="#f4d3bd"/><path d="M534.38,196.2a5.74,5.74,0,0,1,1.07.44c.68.32,1.65.79,2.84,1.38s2.6,1.31,4.14,2.19a3.73,3.73,0,0,1,1.12.89,2.71,2.71,0,0,1,.59,1.4,2.5,2.5,0,0,1-.35,1.56,2.32,2.32,0,0,1-1.38.9,4.63,4.63,0,0,1-2.19,0,17.15,17.15,0,0,1-1.91-.69c-1.2-.51-2.3-1-3.3-1.53l.26-.06a5.85,5.85,0,0,1-2.3,1.83,5.22,5.22,0,0,1-3.63.18c-.32-.11-.47-.2-.46-.22a9,9,0,0,0,1.88.21,5.05,5.05,0,0,0,2.07-.48,5.69,5.69,0,0,0,2.11-1.77l.1-.14.16.08c1,.47,2.1,1,3.29,1.46a15,15,0,0,0,1.85.65,4.15,4.15,0,0,0,1.95,0,1.8,1.8,0,0,0,1.09-.69,2,2,0,0,0,.28-1.24,2.53,2.53,0,0,0-1.46-2c-1.51-.88-2.91-1.63-4.08-2.27l-2.76-1.52A4.63,4.63,0,0,1,534.38,196.2Z" fill="#eaae94"/><path d="M551.25,201.43a19,19,0,0,1-4.38-2.71,11.28,11.28,0,0,1-.89-.78l.31,0a6.24,6.24,0,0,1-2.82.76c-.72,0-1.15,0-1.15-.11a6.31,6.31,0,0,1,1.12-.19,7.35,7.35,0,0,0,2.58-.86l.16-.1.14.13c.26.25.55.49.86.74A49.54,49.54,0,0,1,551.25,201.43Z" fill="#eaae94"/><path d="M568.14,278.07a20.26,20.26,0,0,1-5.9-.86c-19-5.68-18-19.39-17.22-30.41.74-10.27.76-16.73-7.71-19.91-11.2-4.21-15.82-.13-22.8,6.05-8.32,7.36-18.67,16.52-43.77,12.81-13-1.93-34-8.81-59.7-30.58a205,205,0,0,1-25.34-25.4l3.89-3.12c.38.48,38.77,47.79,81.88,54.17,22.8,3.38,31.8-4.58,39.74-11.61,7.11-6.29,13.84-12.24,27.85-7,12.39,4.65,11.61,15.43,10.93,24.94-.8,11.13-1.5,20.74,13.68,25.28,17.11,5.13,39.6-22,53-38.15,4.79-5.78,8.13-10,10.79-12.12l3.76,3c-1.66,2-6.28,7-10.72,12.32C606.85,254,586.82,278.07,568.14,278.07Z" fill="#e8505b"/><path d="M497.65,238.65s-.19.18-.59.44a18.56,18.56,0,0,1-1.76,1,26.47,26.47,0,0,1-6.28,2.15,26.05,26.05,0,0,1-6.63.51,19.53,19.53,0,0,1-2-.2c-.47-.08-.73-.14-.72-.18s1.05,0,2.73,0a32.53,32.53,0,0,0,6.52-.64,31.4,31.4,0,0,0,6.23-2C496.7,239.09,497.61,238.58,497.65,238.65Z" fill="#fff"/><path d="M526.89,223.6a10.1,10.1,0,0,1-1.63,0,11,11,0,0,0-7.18,2.48,13.33,13.33,0,0,1-1.26,1.05,3.77,3.77,0,0,1,1-1.32,9.65,9.65,0,0,1,7.43-2.56A3.74,3.74,0,0,1,526.89,223.6Z" fill="#fff"/><path d="M558.75,270.84a6.49,6.49,0,0,1-2.25-.7,14.23,14.23,0,0,1-4.6-3.33,14.46,14.46,0,0,1-3-4.84,6.55,6.55,0,0,1-.52-2.3c.09,0,.29.86.84,2.17a16.09,16.09,0,0,0,7.39,8C557.92,270.49,558.77,270.75,558.75,270.84Z" fill="#fff"/><path d="M628.38,224a31.88,31.88,0,0,1-3.77,4.1,30.18,30.18,0,0,1-4.11,3.76,32.08,32.08,0,0,1,3.76-4.1A31.42,31.42,0,0,1,628.38,224Z" fill="#fff"/><path d="M390.11,190.87h0a5.75,5.75,0,0,1-8.12.39l-8.77-8,7.73-8.51,8.78,8A5.74,5.74,0,0,1,390.11,190.87Z" fill="#e8505b"/><path d="M390.11,190.87a15.31,15.31,0,0,0,.82-1.34,5.74,5.74,0,0,0,.27-4.18,5.6,5.6,0,0,0-1.6-2.46L387,180.51,380.79,175h.34l-3.86,4.25-3.87,4.25,0-.34c2.2,2,4.26,3.91,6.13,5.61l2.61,2.41a5.52,5.52,0,0,0,2.61,1.35,5.7,5.7,0,0,0,4.13-.67,13.48,13.48,0,0,0,1.25-.93,4.15,4.15,0,0,1-1.17,1.08,5.75,5.75,0,0,1-4.27.83,5.94,5.94,0,0,1-2.8-1.38c-.82-.75-1.71-1.54-2.64-2.38l-6.17-5.56-.18-.16.16-.18c1.24-1.36,2.54-2.79,3.86-4.26s2.63-2.89,3.87-4.25l.17-.18.17.17,6.13,5.61,2.61,2.4a6,6,0,0,1,1.65,2.65,5.8,5.8,0,0,1-.42,4.34A4.47,4.47,0,0,1,390.11,190.87Z" fill="#263238"/><path d="M345.75,142.83l-15.13-12.52a2.79,2.79,0,0,1-.38-3.93h0a2.78,2.78,0,0,1,3.93-.37l15.14,12.52Z" fill="#e8505b"/><path d="M331.53,161.11l-15.14-12.52a2.78,2.78,0,0,1-.37-3.92h0a2.79,2.79,0,0,1,3.93-.38l15.14,12.52Z" fill="#e8505b"/><g opacity="0.6"><path d="M345.75,142.83l-15.13-12.52a2.79,2.79,0,0,1-.38-3.93h0a2.78,2.78,0,0,1,3.93-.37l15.14,12.52Z" fill="#fff"/></g><g opacity="0.6"><path d="M331.53,161.11l-15.14-12.52a2.78,2.78,0,0,1-.37-3.92h0a2.79,2.79,0,0,1,3.93-.38l15.14,12.52Z" fill="#fff"/></g><path d="M345.75,142.83a1.91,1.91,0,0,1,.24-.33l.67-.88,2.53-3.19,0,.21-7.1-5.79-4.46-3.65-2.39-2-1.22-1a2.65,2.65,0,0,0-1.34-.58,2.55,2.55,0,0,0-2.78,3.15,2.47,2.47,0,0,0,.54,1,8.18,8.18,0,0,0,.92.81l1.87,1.57,6.49,5.45,4.39,3.74,1.2,1a3.34,3.34,0,0,1,.42.4,3.5,3.5,0,0,1-.41-.3l-1.21-.95L339.66,138,333,132.58,331.09,131a8.57,8.57,0,0,1-1-.87,2.89,2.89,0,0,1-.64-1.24,3,3,0,0,1,4.89-3.06c.41.35.82.68,1.23,1l2.38,2,4.43,3.68,7,5.9.12.1-.1.11-2.71,3.15-.71.81A1.43,1.43,0,0,1,345.75,142.83Z" fill="#263238"/><path d="M331.53,161.11s.08-.12.23-.33.41-.52.68-.87l2.53-3.19,0,.21-7.11-5.79-4.45-3.66-2.39-2-1.23-1a2.62,2.62,0,0,0-1.33-.58,2.55,2.55,0,0,0-2.78,3.14,2.45,2.45,0,0,0,.54,1.05,9.16,9.16,0,0,0,.91.81l1.88,1.56,6.48,5.46,4.39,3.73,1.2,1.05a5,5,0,0,1,.43.39,2.08,2.08,0,0,1-.42-.29l-1.2-.95-4.47-3.59c-1.91-1.56-4.16-3.39-6.66-5.41l-1.92-1.58a8.62,8.62,0,0,1-1-.87,2.91,2.91,0,0,1-.65-1.24,3,3,0,0,1,3.31-3.75,3.12,3.12,0,0,1,1.59.69l1.22,1,2.38,2,4.43,3.69,7,5.9.12.09-.1.12-2.71,3.15c-.29.32-.52.59-.72.8S331.53,161.13,331.53,161.11Z" fill="#263238"/><path d="M380.15,158.66l.4-.49a5.34,5.34,0,0,0-7.43-7.6L351,132.11l-25.35,30.33,22.67,18a5.35,5.35,0,0,0,1.09,7h0a5.34,5.34,0,0,0,7.44-.61,15.43,15.43,0,0,0,21.32-2.67l3.64-4.55A15.41,15.41,0,0,0,380.15,158.66Z" fill="#e8505b"/><path d="M380.15,158.66s.07.05.19.17l.54.51a7.46,7.46,0,0,1,.8.88l.5.59.5.74a14.5,14.5,0,0,1,1.95,4.17,15.23,15.23,0,0,1,.53,6.18,15.42,15.42,0,0,1-2.75,7.15c-.81,1.15-1.76,2.24-2.68,3.42a30.13,30.13,0,0,1-3.06,3.54,15.45,15.45,0,0,1-9.27,4.1,15.67,15.67,0,0,1-10.72-3.06l.3,0a5.62,5.62,0,0,1-3.64,1.9,5.56,5.56,0,0,1-4.12-1.25h0a5.59,5.59,0,0,1-1.14-7.32l.06.32-17.56-13.95-5.13-4.08-.19-.16.16-.19L350.79,132l.14-.16.16.14,22.12,18.51H373a5.54,5.54,0,0,1,3.49-1.17,5.46,5.46,0,0,1,5.33,5.51,5.29,5.29,0,0,1-1,3q-.33.44-.51.63l-.2.21s.24-.3.65-.89a5.25,5.25,0,0,0-7.6-7.09l-.08.07-.09-.08-22.21-18.4.3,0c-7.49,9-16.11,19.3-25.32,30.35l0-.35,5.13,4.07,17.54,14,.17.14-.12.18a5.15,5.15,0,0,0,1,6.71h0a5.13,5.13,0,0,0,7.12-.59l.14-.16.17.13a15.24,15.24,0,0,0,19.47-.95,30.79,30.79,0,0,0,3-3.48c.92-1.18,1.89-2.28,2.68-3.4a15.18,15.18,0,0,0,2.29-13.09,14.93,14.93,0,0,0-1.87-4.15l-.48-.73-.48-.6a8.14,8.14,0,0,0-.79-.92l-.5-.53Z" fill="#263238"/><rect x="335.55" y="152.35" width="20.29" height="3.97" transform="translate(177.66 -184.91) rotate(39.59)" fill="#e0e0e0"/><path d="M380.15,158.66a7.81,7.81,0,0,1-.83,1.18c-.56.75-1.39,1.81-2.43,3.11-2.08,2.61-5,6.16-8.28,10.05L360.23,183l-2.55,3a9.29,9.29,0,0,1-1,1.07,8.12,8.12,0,0,1,.83-1.19c.56-.74,1.39-1.8,2.43-3.11,2.08-2.6,5-6.15,8.28-10l8.38-10,2.55-3A7.65,7.65,0,0,1,380.15,158.66Z" fill="#263238"/><path d="M373.12,150.57a10.43,10.43,0,0,1-.91,1.24c-.61.78-1.5,1.9-2.62,3.27-2.24,2.74-5.38,6.48-8.88,10.58s-6.63,7.74-9,10.48L349,179.31a10,10,0,0,1-1.05,1.12,8.39,8.39,0,0,1,.9-1.24c.61-.78,1.51-1.9,2.62-3.27,2.24-2.74,5.38-6.48,8.89-10.58l9-10.49c1.12-1.28,2-2.35,2.74-3.16A9.44,9.44,0,0,1,373.12,150.57Z" fill="#263238"/></g><g id="Character_1" data-name="Character 1"><path d="M273.5,70.17c-.14.33-11.18,8.71-11.18,8.71L262.11,86l5.71.8,8.1-4.6,5.48-.29s3.36,1.78,4,2a1.94,1.94,0,0,0,2.25-.93l-5-3.64s5.55,3.09,6.08,2.67a1.71,1.71,0,0,0-.54-2.66s1.73.91,2.81.17.7-1.59.7-1.59l-7.31-6.58A5,5,0,0,0,281,70.05Z" fill="#b78876"/><path d="M274.39,73.26a3.11,3.11,0,0,1-.08.84c-.09.63-.22,1.4-.36,2.35l-.15-.17L278,76a5.33,5.33,0,0,1,2.68.36,2.47,2.47,0,0,1,1.09,1.08,1.79,1.79,0,0,1,.07,1.63l0,.06-.06,0c-1.33.79-3,.61-4.44.71A5.2,5.2,0,0,0,274.21,81a21.32,21.32,0,0,0-2.31,2.24,10.36,10.36,0,0,1-2.29,1.94,5.4,5.4,0,0,1-2.54.71,10.1,10.1,0,0,1-3.68-.78,6.05,6.05,0,0,1-1.25-.57,11.64,11.64,0,0,1,1.31.39,10.66,10.66,0,0,0,3.6.61,5,5,0,0,0,2.35-.71,10.53,10.53,0,0,0,2.17-1.9,20.68,20.68,0,0,1,2.35-2.32,5.68,5.68,0,0,1,3.36-1.23c1.56-.09,3.09,0,4.24-.63l-.09.1a1.73,1.73,0,0,0-.94-2.1A5.08,5.08,0,0,0,278,76.4l-4.21.16h-.19l0-.18c.2-.93.36-1.7.49-2.32A4.68,4.68,0,0,1,274.39,73.26Z" fill="#aa6550"/><path d="M288.56,79.49a4.83,4.83,0,0,1-1.88-1.1c-1.07-.83-2.26-2.28-3.86-3.45a2.74,2.74,0,0,0-1.25-.53,12.16,12.16,0,0,0-1.35,0l-2.34,0a9.16,9.16,0,0,1-2.17-.14,10.14,10.14,0,0,1,2.16-.2l2.34-.1a13.58,13.58,0,0,1,1.42,0,3.11,3.11,0,0,1,1.47.6,40.17,40.17,0,0,1,3.81,3.59C287.88,79,288.6,79.42,288.56,79.49Z" fill="#aa6550"/><path d="M289.07,291.17l-.27,17.49s17.69,6.15,18,9.39l-33.94.69-.7-27.27Z" fill="#e8505b"/><g opacity="0.6"><path d="M278.28,307.4a1.4,1.4,0,0,0-.93,1.61,1.33,1.33,0,0,0,1.58.93,1.46,1.46,0,0,0,1-1.7,1.38,1.38,0,0,0-1.75-.79" fill="#fff"/></g><g opacity="0.6"><path d="M272.82,318.74l0-2.75,32.52.36s1.53.63,1.38,1.7Z" fill="#fff"/></g><path d="M289.35,308.48c0,.16-.83.25-1.63.8s-1.23,1.26-1.38,1.2.07-1,1.06-1.68S289.38,308.32,289.35,308.48Z" fill="#263238"/><path d="M292.94,309.88c0,.16-.67.45-1.22,1.16s-.7,1.46-.86,1.46-.29-.94.41-1.81S292.93,309.72,292.94,309.88Z" fill="#263238"/><path d="M295.05,314.09c-.15,0-.4-.78,0-1.7s1.17-1.29,1.24-1.15-.39.63-.71,1.39S295.21,314.07,295.05,314.09Z" fill="#263238"/><path d="M289,304.48c-.07.15-.83-.06-1.77,0s-1.66.4-1.75.26.6-.75,1.71-.83S289.05,304.35,289,304.48Z" fill="#263238"/><g opacity="0.3"><polygon points="289.01 294.63 288.97 297.75 272.29 297.94 272.21 295.13 289.01 294.63"/></g><path d="M289,301a3.12,3.12,0,0,1-1.7,0,7.83,7.83,0,0,1-2.78-1,2.07,2.07,0,0,1-.52-.39.71.71,0,0,1-.09-.88.9.9,0,0,1,.71-.39,2.06,2.06,0,0,1,.64.07,6.7,6.7,0,0,1,1.07.34,6.12,6.12,0,0,1,1.59,1c.8.71,1.08,1.33,1,1.36s-.46-.46-1.28-1a6.6,6.6,0,0,0-1.53-.82,5.26,5.26,0,0,0-1-.28c-.36-.09-.67-.09-.76.07s0,.09,0,.19a1.64,1.64,0,0,0,.39.29,9,9,0,0,0,.9.49,10,10,0,0,0,1.66.6A11.85,11.85,0,0,1,289,301Z" fill="#263238"/><path d="M288.75,301.19a2.7,2.7,0,0,1-.49-1.63,5.77,5.77,0,0,1,.2-1.86,5.35,5.35,0,0,1,.41-1,1.42,1.42,0,0,1,1.07-.89.82.82,0,0,1,.72.46,2.48,2.48,0,0,1,.18.62,4.07,4.07,0,0,1,0,1.15,4,4,0,0,1-.69,1.77c-.65.89-1.33,1.1-1.35,1.05s.51-.42,1-1.27a3.78,3.78,0,0,0,.51-1.61,3.26,3.26,0,0,0,0-1c-.06-.36-.2-.65-.34-.61s-.45.28-.58.57a5.32,5.32,0,0,0-.4.93,6.42,6.42,0,0,0-.3,1.7C288.65,300.55,288.84,301.17,288.75,301.19Z" fill="#263238"/><path d="M227.31,192.27c.83,1.24,37.67,39.47,37.67,39.47s-4.58,17.61-2.92,32.91,6.61,39.72,6.61,39.72l26.72-2.13-7.28-83L259,180.69Z" fill="#263238"/><path d="M298.31,271.83,301.59,289s18.57,2.44,19.48,5.55L288,302.13l-6.21-26.57Z" fill="#e8505b"/><g opacity="0.6"><path d="M291,289.92a1.39,1.39,0,0,0-.59,1.75,1.34,1.34,0,0,0,1.74.6,1.48,1.48,0,0,0,.61-1.87,1.39,1.39,0,0,0-1.88-.41" fill="#fff"/></g><g opacity="0.6"><path d="M288,302.13l-.52-2.71,31.92-6.23s1.62.31,1.69,1.38Z" fill="#fff"/></g><path d="M302.08,288.73c0,.16-.76.42-1.43,1.12s-.95,1.47-1.11,1.44-.14-1,.7-1.85S302.09,288.57,302.08,288.73Z" fill="#263238"/><path d="M305.88,289.37c.08.15-.56.58-.95,1.39s-.39,1.57-.55,1.6-.48-.86,0-1.86S305.84,289.22,305.88,289.37Z" fill="#263238"/><path d="M308.8,293.07c-.14.07-.55-.68-.33-1.66s.89-1.51,1-1.39-.26.7-.42,1.51S309,293,308.8,293.07Z" fill="#263238"/><path d="M300.9,284.89c0,.17-.82.11-1.72.38s-1.55.72-1.66.6.43-.85,1.5-1.15S301,284.75,300.9,284.89Z" fill="#263238"/><g opacity="0.3"><polygon points="298.95 275.24 299.54 278.3 283.24 281.86 282.6 279.13 298.95 275.24"/></g><path d="M300.18,281.44a3.33,3.33,0,0,1-1.66.37,7.36,7.36,0,0,1-1.86-.14,7.66,7.66,0,0,1-1.06-.29,2,2,0,0,1-.59-.27.73.73,0,0,1-.27-.85.9.9,0,0,1,.62-.53,2.09,2.09,0,0,1,.64-.05,5.63,5.63,0,0,1,1.11.12,6,6,0,0,1,1.76.65c.93.54,1.33,1.08,1.28,1.12s-.55-.35-1.46-.76a6.89,6.89,0,0,0-1.67-.49,6.8,6.8,0,0,0-1-.08c-.37,0-.67.06-.73.23s0,.09.08.18a1.51,1.51,0,0,0,.44.2,9.32,9.32,0,0,0,1,.3,8.57,8.57,0,0,0,1.74.25A11.54,11.54,0,0,1,300.18,281.44Z" fill="#263238"/><path d="M300,281.72s-.5-.47-.8-1.5a5.41,5.41,0,0,1-.19-1.87,6.19,6.19,0,0,1,.19-1.1,1.41,1.41,0,0,1,.87-1.08.81.81,0,0,1,.8.3,2.25,2.25,0,0,1,.3.57,3.94,3.94,0,0,1,.26,1.12,3.83,3.83,0,0,1-.32,1.87c-.45,1-1.08,1.35-1.1,1.3s.42-.51.72-1.44a3.91,3.91,0,0,0,.17-1.68,3.71,3.71,0,0,0-.25-.95c-.13-.34-.33-.59-.45-.53s-.38.36-.46.68a6,6,0,0,0-.2,1,6.48,6.48,0,0,0,.05,1.73C299.79,281.11,300.1,281.67,300,281.72Z" fill="#263238"/><path d="M161.41,166.11s-2.46,15.82,7.11,26.16,19.91,14.89,38.11,14.06,57.49.1,57.49.1,1.66,21,6.21,38.17,13.63,43,13.63,43l17.8-1.7S297,192.28,295.71,184s-15-12.46-22.48-14.95-50.16-11-50.16-11l-38.77-5.44Z" fill="#263238"/><path d="M301.76,285.85l-.31,0-.93.08-3.61.26-13.64.9h-.12l0-.12c-2.39-7.66-5.5-17.61-9.08-29.1-1.79-5.75-3.7-11.88-5.69-18.3-1-3.21-2.07-6.5-2.81-9.93a67,67,0,0,1-1.49-10.6,51.13,51.13,0,0,1,.67-12.5l.23.3c-10.84-.22-21.06-.34-30.29-.36-4.61,0-9,0-13,.07s-7.84.21-11.28.21c-6.88,0-12.4-.35-16.19-.68-1.89-.16-3.35-.32-4.34-.44l-1.12-.14-.38-.06a2.72,2.72,0,0,1,.38,0l1.13.1,4.35.35c3.79.28,9.3.59,16.17.53,3.43,0,7.2-.21,11.27-.27s8.44-.11,13-.11c9.23,0,19.45.09,30.3.3h.29l-.05.29a50.35,50.35,0,0,0-.66,12.36A67.14,67.14,0,0,0,266,229.58c.73,3.42,1.79,6.67,2.78,9.89,2,6.43,3.88,12.56,5.65,18.32,3.54,11.5,6.6,21.47,8.95,29.15l-.15-.11,13.65-.76,3.62-.18.93,0A2.38,2.38,0,0,1,301.76,285.85Z" fill="#455a64"/><path d="M273.49,195.64c.1.11-2.11,2.24-4.37,5.26s-3.7,5.73-3.83,5.66a6.87,6.87,0,0,1,.81-1.85,33.2,33.2,0,0,1,2.63-4.1,31.88,31.88,0,0,1,3.21-3.67A7.47,7.47,0,0,1,273.49,195.64Z" fill="#455a64"/><path d="M278.35,197.37a39.89,39.89,0,0,0-7,3.59,38.58,38.58,0,0,0-5.84,5.32,7.83,7.83,0,0,1,1.35-1.93,22,22,0,0,1,4.21-3.8,21.61,21.61,0,0,1,5-2.59A8,8,0,0,1,278.35,197.37Z" fill="#455a64"/><path d="M198.91,71.19c1.3.65,28.61,17.35,29.92,17.35s33.61-11.79,33.61-11.79L269.06,87s-28.33,21.82-37.61,22.15-24-7.14-24-7.14Z" fill="#455a64"/><path d="M142.08,80.36s-34,34.55-33.62,43.35,4.65,13.63,7.35,14.77c3.77,1.59,46.33-3.64,46.33-3.64l2.52-16.57c-7-1.38-15.87-2.43-25.49-3.35,4.31-4.51,9.1-7.93,15-8.93L164.3,94.92S151.69,78.2,142.08,80.36Z" fill="#455a64"/><path d="M140.33,90.7s-1.64-7.45,2-10.45c6-5,11.11-7.26,15.48-9.44,5-2.49,10.29-5.36,10.29-5.36l30.85,5.74S215.37,97.49,215,104a17.19,17.19,0,0,1-4.46,10.54,39.71,39.71,0,0,0,2.26,21.1c3.68,9.17,10.24,22.42,10.24,22.42s-35.36-5.74-52.14,2.46c-9,4.4-9.8,11.42-9.8,11.42l-1.32-38.52h0l-6.93-23.59Z" fill="#455a64"/><path d="M163.69,118.06s-.15-.06-.46-.13-.77-.15-1.37-.23c-1.19-.18-2.93-.4-5.08-.64-4.3-.49-10.24-1.09-16.82-1.72l-1.13-.11-.61-.06.48-.38c2.49-2,4.83-3.85,7-5.53a17.38,17.38,0,0,1,6.64-2.94,16.57,16.57,0,0,1,4.87-.31,10.08,10.08,0,0,1,1.31.18,1.32,1.32,0,0,1,.45.11,20.48,20.48,0,0,0-6.55.35,17.55,17.55,0,0,0-6.46,3l-7,5.56-.13-.44,1.13.11c6.58.63,12.52,1.29,16.81,1.86S163.77,117.84,163.69,118.06Z" fill="#263238"/><path d="M127.18,115.67a3.85,3.85,0,0,1,1.38-1.22,8.7,8.7,0,0,1,4.24-1.36,8.84,8.84,0,0,1,4.36.91,3.85,3.85,0,0,1,1.5,1.08c0,.06-.62-.34-1.64-.76a10,10,0,0,0-4.19-.74,9.83,9.83,0,0,0-4.1,1.17C127.76,115.27,127.23,115.73,127.18,115.67Z" fill="#263238"/><path d="M159.49,94.56c-.08,0-.38-1.27-1.13-3.24a22.49,22.49,0,0,0-4.13-7,14.07,14.07,0,0,0-3.5-2.77l-.9-.45c-.3-.14-.61-.22-.89-.33a12.24,12.24,0,0,0-1.65-.43,13,13,0,0,0-2.48-.19,3.93,3.93,0,0,1-.92,0,2.81,2.81,0,0,1,.91-.15,10,10,0,0,1,2.54,0,10.14,10.14,0,0,1,1.72.38c.3.11.62.19.93.32l.95.45A13.48,13.48,0,0,1,154.59,84a20.66,20.66,0,0,1,4.1,7.25,19.4,19.4,0,0,1,.67,2.44A2.86,2.86,0,0,1,159.49,94.56Z" fill="#263238"/><path d="M209.65,115.49s.4-.47,1.08-1.34a16.39,16.39,0,0,0,2.29-4,16.82,16.82,0,0,0,1.17-6.73,15.63,15.63,0,0,0-2.44-7.94,60.94,60.94,0,0,0-5.18-6.73,31.13,31.13,0,0,1-3.94-5.78,14.06,14.06,0,0,1-1.46-4.49,10.09,10.09,0,0,1-.08-1.28,2.56,2.56,0,0,1,0-.45s0,.62.24,1.7a15.55,15.55,0,0,0,1.57,4.36,33.22,33.22,0,0,0,4,5.65,58.78,58.78,0,0,1,5.25,6.76,16,16,0,0,1,2.48,8.18,16.78,16.78,0,0,1-1.31,6.88,14.8,14.8,0,0,1-2.47,4,8.43,8.43,0,0,1-.88.93A1.71,1.71,0,0,1,209.65,115.49Z" fill="#263238"/><g opacity="0.3"><path d="M155.9,116.69a4.61,4.61,0,0,1,2.82-5.64,27,27,0,0,1,3.72-.48c.78-.13,1.65-.52,1.81-1.29.21-1-.8-1.72-1.71-2.12a15.75,15.75,0,0,0-11.67-.27,18.42,18.42,0,0,1,3.65,9.66"/></g><g opacity="0.3"><path d="M202.66,82.46c-1.6-3.19,4.17,5.76,6.87,8.11a59.22,59.22,0,0,1,7.75,7.34c2.23,2.79,3.88,5.87,3.58,9.43l-6.43-2.26s.81-5.19-2-9S203.29,83.74,202.66,82.46Z"/></g><g opacity="0.3"><path d="M138.72,114.74c-1.77-1.93-4.47-2.7-7.08-3a10.74,10.74,0,0,0-4.72.31,5.1,5.1,0,0,0-3.32,3.17,1.58,1.58,0,0,0,.12,1.38,1.34,1.34,0,0,0,1.47.33,5,5,0,0,0,1.36-.83,12.19,12.19,0,0,1,11.92-1.32"/></g><path d="M149.24,90.15a2.11,2.11,0,1,1-2.11-2.1A2.12,2.12,0,0,1,149.24,90.15Z" fill="#263238"/><path d="M160.56,76.22a2.11,2.11,0,1,1-2.1-2.11A2.1,2.1,0,0,1,160.56,76.22Z" fill="#263238"/><path d="M182.63,77.09A2.11,2.11,0,1,1,180.52,75,2.1,2.1,0,0,1,182.63,77.09Z" fill="#263238"/><path d="M199.68,75.77a2.11,2.11,0,1,1-2.11-2.11A2.1,2.1,0,0,1,199.68,75.77Z" fill="#263238"/><path d="M227.91,100.75a2.11,2.11,0,1,1-2.11-2.11A2.11,2.11,0,0,1,227.91,100.75Z" fill="#263238"/><path d="M210.68,98.64a2.11,2.11,0,1,1-2.1-2.1A2.11,2.11,0,0,1,210.68,98.64Z" fill="#263238"/><path d="M214.32,84.63a2.11,2.11,0,1,1-2.11-2.11A2.11,2.11,0,0,1,214.32,84.63Z" fill="#263238"/><circle cx="237.99" cy="90.36" r="2.11" fill="#263238"/><path d="M254.71,92.26a2.11,2.11,0,1,1-2.11-2.11A2.11,2.11,0,0,1,254.71,92.26Z" fill="#263238"/><path d="M201.87,114.8a2.11,2.11,0,1,1-2.1-2.11A2.1,2.1,0,0,1,201.87,114.8Z" fill="#263238"/><path d="M209.53,126.76a2.11,2.11,0,1,1-2.1-2.11A2.11,2.11,0,0,1,209.53,126.76Z" fill="#263238"/><path d="M193.81,134.8a2.11,2.11,0,1,1-2.11-2.1A2.11,2.11,0,0,1,193.81,134.8Z" fill="#263238"/><path d="M183.62,148a2.11,2.11,0,1,1-2.11-2.11A2.12,2.12,0,0,1,183.62,148Z" fill="#263238"/><path d="M208.58,145.8a2.11,2.11,0,1,1-2.11-2.1A2.11,2.11,0,0,1,208.58,145.8Z" fill="#263238"/><path d="M167.74,157.71a2.11,2.11,0,1,1-2.11-2.11A2.11,2.11,0,0,1,167.74,157.71Z" fill="#263238"/><path d="M176.52,124.65a2.11,2.11,0,1,1-2.11-2.1A2.11,2.11,0,0,1,176.52,124.65Z" fill="#263238"/><path d="M169.43,140a2.11,2.11,0,1,1-2.1-2.11A2.1,2.1,0,0,1,169.43,140Z" fill="#263238"/><path d="M195.14,93.07A2.11,2.11,0,1,1,193,91,2.1,2.1,0,0,1,195.14,93.07Z" fill="#263238"/><path d="M182,109.88a2.11,2.11,0,1,1-2.1-2.1A2.1,2.1,0,0,1,182,109.88Z" fill="#263238"/><path d="M169.43,96.54a2.11,2.11,0,1,1-2.1-2.11A2.1,2.1,0,0,1,169.43,96.54Z" fill="#263238"/><path d="M117.54,129.13a2.11,2.11,0,1,1-2.1-2.11A2.1,2.1,0,0,1,117.54,129.13Z" fill="#263238"/><path d="M127.28,102.48a2.11,2.11,0,1,1-2.11-2.1A2.12,2.12,0,0,1,127.28,102.48Z" fill="#263238"/><path d="M146,132.11a2.11,2.11,0,1,1-2.1-2.11A2.1,2.1,0,0,1,146,132.11Z" fill="#263238"/><path d="M158.83,122.27a2.11,2.11,0,1,1-2.11-2.11A2.11,2.11,0,0,1,158.83,122.27Z" fill="#263238"/><path d="M133.22,120a2.11,2.11,0,1,1-2.11-2.1A2.1,2.1,0,0,1,133.22,120Z" fill="#263238"/><path d="M144.17,106.07a2.11,2.11,0,1,1-2.11-2.11A2.11,2.11,0,0,1,144.17,106.07Z" fill="#263238"/><path d="M135.3,227.62a59.89,59.89,0,0,1-12.93-1.4c-8.83-1.94-15.73-4.79-21.05-8.69a66.75,66.75,0,0,1-20.45,3.72c-22.68.61-43.2-6.48-68.38-26.86q-1.9-4-3.66-8.59c24.23,19.61,50.47,31,71.91,30.47A62.45,62.45,0,0,0,97,213.72c-5.85-6.1-8.79-14.07-8.75-23.75,0-10.61,4.55-15.42,8.33-17.59,5.36-3.06,12.67-2.64,19.09,1.1,7.08,4.13,11.29,11.11,11.26,18.68a20.55,20.55,0,0,1-8.07,16,61.29,61.29,0,0,1-11.9,7.15,59.23,59.23,0,0,0,39.58,6.25c21.31-4.23,39.1-11.79,52.89-22.47a86,86,0,0,0,33.53-70.77v-.09c-1.22-24.65-15.62-48.73-36.67-61.34-18.27-11-41.67-14-65.88-8.45-15.06,3.42-35.53,11.53-47.61,30.76-13,20.71-9.47,46.43,1.25,58.38,7.65,8.52,22.32,5.45,34.1,3l3.88-.8c12.68-2.52,64.08-26.63,64.28-26.7l1.09,4.1c-.82.29-51.37,24.9-64.4,27.49-1.23.24-2.51.51-3.83.78-13,2.74-29.26,6.14-38.83-4.53-6.92-7.71-10.77-18.85-10.83-31.36a63,63,0,0,1,9.07-33c13-20.68,34.75-29.34,50.72-33,25.47-5.79,50.18-2.58,69.55,9,22.43,13.45,37.76,39.09,39.08,65.33.11,1.35,1.45,20.46-8.77,42.1a90.36,90.36,0,0,1-26.67,33c-14.4,11.16-32.9,19-55,23.42A62.89,62.89,0,0,1,135.3,227.62Zm-30.71-52.3A11.14,11.14,0,0,0,99,176.71c-3.79,2.17-5.81,6.76-5.83,13.28,0,9.32,2.89,16.54,9,21.9a57.31,57.31,0,0,0,13.56-7.7,15.53,15.53,0,0,0,6.14-12.05c0-5.77-3.26-11.14-8.79-14.36A17.18,17.18,0,0,0,104.59,175.32Z" fill="#e8505b"/><path d="M105.35,220.12a6.06,6.06,0,0,1-1.88-.91,35.71,35.71,0,0,1-4-3,32.34,32.34,0,0,1-3.61-3.5A5.64,5.64,0,0,1,94.64,211a20.72,20.72,0,0,1,1.43,1.5c.88.91,2.18,2.1,3.67,3.35s2.88,2.33,3.92,3.06A15.52,15.52,0,0,1,105.35,220.12Z" fill="#263238"/><path d="M110.58,217.2a6.07,6.07,0,0,1-2.24-.57,18.83,18.83,0,0,1-4.8-2.88,22.92,22.92,0,0,1-3.92-4,7.22,7.22,0,0,1-1.22-2,18.15,18.15,0,0,1,1.49,1.74,30,30,0,0,0,4,3.83,23,23,0,0,0,4.62,2.94C109.75,216.9,110.6,217.12,110.58,217.2Z" fill="#263238"/><path d="M90.62,200a3.12,3.12,0,0,1-.31-.81,20.31,20.31,0,0,1-.58-2.3,29.52,29.52,0,0,1,1.08-15.44,20,20,0,0,1,.89-2.19c.25-.5.39-.78.43-.76s-.41,1.17-1,3.06a34.2,34.2,0,0,0-1.07,15.27C90.38,198.76,90.7,200,90.62,200Z" fill="#fff"/><path d="M78.18,217.87a8.77,8.77,0,0,1-2.41.42,26.37,26.37,0,0,1-5.9-.17,26.66,26.66,0,0,1-5.72-1.48A8.77,8.77,0,0,1,62,215.57a19.2,19.2,0,0,1,2.31.74,34.52,34.52,0,0,0,5.67,1.32,34,34,0,0,0,5.81.31A17.86,17.86,0,0,1,78.18,217.87Z" fill="#fff"/><path d="M216,184.73a11.33,11.33,0,0,1-1.46,2.18,52,52,0,0,1-4.14,4.79,50.66,50.66,0,0,1-4.67,4.25,12.37,12.37,0,0,1-2.14,1.52,15.83,15.83,0,0,1,1.91-1.78c1.2-1.07,2.84-2.58,4.55-4.34s3.18-3.43,4.22-4.66A17,17,0,0,1,216,184.73Z" fill="#fff"/><path d="M73.41,133.78a8.33,8.33,0,0,1-.51-1.32,38.47,38.47,0,0,1-1.05-3.73,49.19,49.19,0,0,1-1-5.67,50.14,50.14,0,0,1,.37-14,48.8,48.8,0,0,1,1.28-5.6,37.9,37.9,0,0,1,1.24-3.67,7.74,7.74,0,0,1,.58-1.3,7.7,7.7,0,0,1-.4,1.36c-.29.86-.67,2.13-1.09,3.7a56.67,56.67,0,0,0-1.16,5.58,58,58,0,0,0-.63,7,59.4,59.4,0,0,0,.26,7,56.14,56.14,0,0,0,.87,5.64c.33,1.59.65,2.88.9,3.75A9.09,9.09,0,0,1,73.41,133.78Z" fill="#fff"/><path d="M79.46,88.9a8.91,8.91,0,0,1-1.22,2.67A9.29,9.29,0,0,1,76.6,94a8.62,8.62,0,0,1,1.21-2.67A8.72,8.72,0,0,1,79.46,88.9Z" fill="#fff"/><path d="M200.51,44.8c-1.19,1.9-.16,4.4,1.17,6.2s3,3.53,3.29,5.76c.36,3.05-2.23,5.71-5,7a5.41,5.41,0,0,0-2.36,1.48c-.78,1.08-.47,2.55-.49,3.88a6.48,6.48,0,0,1-3.33,5.58,5.37,5.37,0,0,1-6.26-1A7.53,7.53,0,0,1,185.88,70a16.32,16.32,0,0,1,3.57-14.17c1.68-1.87,3.82-3.27,5.66-5s3.47-3.89,3.63-6.4" fill="#263238"/><path d="M200.18,22c-1.4-3.59-5-5.79-8.67-7.06a24.5,24.5,0,0,0-16.25-.35c-7.62,2.76-12.74,9.86-16.67,16.94-1.72,3.08-3.63,6.52-7,7.54-1.8.55-3.74.3-5.61.51a11.44,11.44,0,0,0-7.47,4c-2.25,2.72-3.41,6.62-6.63,8.05-2.08.93-4.46.53-6.74.61-4.72.14-9.71,3-10.75,7.61-.68,3,.35,6.37-1,9.13-.51,1-1.3,1.83-1.78,2.85a5.19,5.19,0,0,0,7.54,6.55A13.73,13.73,0,0,1,121.19,77c1.64-.68,3.5.22,4.93,1.29s2.84,2.36,4.61,2.55c3.63.41,6.43-3.94,10.07-3.71,2,.13,3.66,1.66,5.4,2.72,3.06,1.84,4.6.18,7.2-2.27s4,7.88,10,5.18c5.57-2.51.05-12.06,2.09-11.84s7.41-.12,8.55-1.83" fill="#263238"/><path d="M200.87,32.67a13.52,13.52,0,0,0-1.58-12.31,17.75,17.75,0,0,0-7.63-5.82,19.05,19.05,0,0,0-12.75-1.18c-4.18,1.22-7.85,4.56-8.78,8.81-.43,1.94-.31,4-1.15,5.8a4.39,4.39,0,0,0-.78,2.41,2.07,2.07,0,0,0,1.61,1.54,4.49,4.49,0,0,0,2.32-.2,24.54,24.54,0,0,0,7-3.89" fill="#263238"/><path d="M187,70.39c.46-3.68.63-5.19.63-5.16s7.93-.41,10.7-10.38c1.37-5,2.06-13.27,2.4-20.09.31-6.14-2.88-14.07-9-14.12l-19.5,2.64a3.59,3.59,0,0,0-3.6,3.26L165.51,71s8.81,10.42,16.44,9S187,70.39,187,70.39Z" fill="#b78876"/><path d="M197.45,41.59A1.32,1.32,0,0,1,196,42.77a1.26,1.26,0,0,1-1.21-1.33,1.31,1.31,0,0,1,1.41-1.17A1.25,1.25,0,0,1,197.45,41.59Z" fill="#263238"/><path d="M198.41,38.86c-.18.16-1.08-.69-2.48-.84s-2.51.43-2.64.24.13-.37.61-.65a3.67,3.67,0,0,1,2.14-.4,3.48,3.48,0,0,1,2,.88C198.39,38.47,198.5,38.8,198.41,38.86Z" fill="#263238"/><path d="M184.64,40.27a1.3,1.3,0,0,1-1.4,1.17A1.24,1.24,0,0,1,182,40.12a1.31,1.31,0,0,1,1.4-1.18A1.26,1.26,0,0,1,184.64,40.27Z" fill="#263238"/><path d="M184.61,37.56c-.18.15-1.09-.69-2.49-.84s-2.51.42-2.64.24.13-.38.62-.65a3.5,3.5,0,0,1,2.14-.4,3.38,3.38,0,0,1,1.95.88C184.58,37.17,184.7,37.49,184.61,37.56Z" fill="#263238"/><path d="M188.51,48.53a9.59,9.59,0,0,1,2.33-.15c.36,0,.71,0,.79-.27a1.79,1.79,0,0,0-.11-1.08l-.75-2.85a47.75,47.75,0,0,1-1.57-7.4A47.81,47.81,0,0,1,191.36,44c.24,1,.48,2,.7,2.85a2.11,2.11,0,0,1,0,1.43.91.91,0,0,1-.65.46,2.61,2.61,0,0,1-.62,0A8.94,8.94,0,0,1,188.51,48.53Z" fill="#263238"/><path d="M187.6,65.23a26,26,0,0,1-13.19-5.17s2.62,7.42,12.9,7.62Z" fill="#aa6550"/><path d="M187.54,51.84a2.54,2.54,0,0,0-2.16-1.19,2.36,2.36,0,0,0-1.69.67,1.49,1.49,0,0,0-.3,1.66,1.7,1.7,0,0,0,1.79.67,5.39,5.39,0,0,0,1.91-.86,2,2,0,0,0,.45-.37.48.48,0,0,0,.05-.52" fill="#aa6550"/><path d="M185.28,32.47c-.18.37-1.56,0-3.23,0s-3.05.31-3.23-.06c-.08-.17.2-.5.77-.81a5.43,5.43,0,0,1,2.47-.56,5.33,5.33,0,0,1,2.45.57C185.09,32,185.36,32.3,185.28,32.47Z" fill="#263238"/><path d="M198.7,32.69c-.28.29-1.21-.15-2.37-.3s-2.17,0-2.35-.39c-.08-.17.11-.47.57-.72a3.28,3.28,0,0,1,2-.31,3.37,3.37,0,0,1,1.82.86C198.73,32.2,198.83,32.55,198.7,32.69Z" fill="#263238"/><path d="M169.51,43.89c.09-.76-.58-2.64-1.32-2.84-2-.54-5.57-.79-6.18,4.27-.83,6.92,6.29,6.33,6.32,6.13S169.22,46.5,169.51,43.89Z" fill="#b78876"/><path d="M166.53,48.58s-.13.07-.34.14a1.28,1.28,0,0,1-.9-.09,3,3,0,0,1-1.06-2.85,4.06,4.06,0,0,1,.54-1.68,1.4,1.4,0,0,1,1-.82.61.61,0,0,1,.67.42c.07.2,0,.34,0,.35s.16-.1.14-.39a.91.91,0,0,0-.22-.47.93.93,0,0,0-.65-.25,1.69,1.69,0,0,0-1.39.92,4.17,4.17,0,0,0-.65,1.88c-.12,1.4.44,2.79,1.4,3.2a1.33,1.33,0,0,0,1.13,0C166.5,48.74,166.56,48.59,166.53,48.58Z" fill="#aa6550"/><path d="M192.77,19.55a9.51,9.51,0,0,1-7.12,6.65c-1.79.36-3.89.31-5.06,1.71s-.8,3.7-1.93,5.18c-1.56,2-5.27,1.6-6.51,3.86-.55,1-.43,2.24-1,3.22a3.21,3.21,0,0,1-4,1.12,5.13,5.13,0,0,1-2.74-3.39,13.75,13.75,0,0,1-.32-4.48,24.77,24.77,0,0,1,1.54-8.68c2.43-5.69,11.71-13,17.82-12" fill="#263238"/><path d="M199.73,46.86c1.58-1.87,3.09-4,4.67-5.82s3.06-3.69,3.25-6A9.74,9.74,0,0,0,206,29.54a70.33,70.33,0,0,0-6.59-9,8.82,8.82,0,0,0-1.91-1.9,4.45,4.45,0,0,0-2.09-.7,2.52,2.52,0,0,0-1.74.41,1.41,1.41,0,0,0-.5,1.62c.23.52.81.77,1.32,1,2.88,1.47,4.72,4.48,5.55,7.6s.59,6.16.51,9.39c0,2.53-.4,5.23-.66,7.56" fill="#263238"/><path d="M183.48,12.94A21,21,0,0,0,164.3,21c-2.42,3.25-4.19,7.47-8,8.83-3.12,1.11-6.6-.13-9.86.44a9.14,9.14,0,0,0-6.69,5.31c-.93,2.18-1,4.8-2.67,6.52-2.15,2.27-6.05,2-8.23,4.25-1.81,1.83-1.86,4.8-1.15,7.27a3.31,3.31,0,0,0,4.44,2.82,30.38,30.38,0,0,0,8.91-3.53c6.37-3.42,12.51-7.26,18.64-11.11a38,38,0,0,0,8-6.06c3-3.26,4.76-7.44,6.86-11.34s4.78-7.78,8.81-9.63" fill="#263238"/><path d="M114.81,78.88a1.2,1.2,0,0,1-.28-.08,4.38,4.38,0,0,1-.76-.38,4.85,4.85,0,0,1-1.89-2.65,6.15,6.15,0,0,1,.6-5.07,10.55,10.55,0,0,1,5.43-4.13A52.72,52.72,0,0,1,126,64.79a18.59,18.59,0,0,0,4.36-1.35,9.7,9.7,0,0,0,3.77-2.88,9.85,9.85,0,0,0,1.73-4.67,41.65,41.65,0,0,1,.9-5.32,13.67,13.67,0,0,1,7.36-8.39A12.89,12.89,0,0,1,149.81,41c1.92,0,3.76.34,5.56.46a12.57,12.57,0,0,0,5.21-.55,6.52,6.52,0,0,0,2.14-1.28,7.72,7.72,0,0,0,1.48-2c.79-1.45,1.3-3,2.17-4.4a11,11,0,0,1,3.31-3.31,26.78,26.78,0,0,1,7.75-3,45.33,45.33,0,0,0,6.53-2,16.25,16.25,0,0,0,4.42-2.56,9.62,9.62,0,0,0,2.08-2.47c.36-.65.51-1,.53-1a6.8,6.8,0,0,1-.45,1.05,9.12,9.12,0,0,1-2,2.56,16.18,16.18,0,0,1-4.44,2.68,46.37,46.37,0,0,1-6.55,2,26.63,26.63,0,0,0-7.62,3,10.68,10.68,0,0,0-3.16,3.19c-.83,1.33-1.33,2.89-2.14,4.4A8.24,8.24,0,0,1,163,39.93a6.84,6.84,0,0,1-2.29,1.38,12.92,12.92,0,0,1-5.4.59c-1.83-.12-3.67-.43-5.53-.45a12.51,12.51,0,0,0-5.45,1.18,13.24,13.24,0,0,0-7.11,8.08,40.68,40.68,0,0,0-.89,5.26,10.48,10.48,0,0,1-1.84,4.87,10.23,10.23,0,0,1-4,3,20,20,0,0,1-4.46,1.35A53.94,53.94,0,0,0,118,66.9a10.21,10.21,0,0,0-5.31,3.94,6,6,0,0,0-.66,4.87,4.9,4.9,0,0,0,1.76,2.63A7.13,7.13,0,0,0,114.81,78.88Z" fill="#455a64"/><path d="M115.44,57.64a2.64,2.64,0,0,1,.69-.69,4.87,4.87,0,0,1,2.68-.82,12.85,12.85,0,0,1,4.38.74,18.37,18.37,0,0,0,2.67.61,5.82,5.82,0,0,0,3-.3,6.17,6.17,0,0,0,2.56-2A11.53,11.53,0,0,0,133,51.92c.43-1.19.76-2.47,1.22-3.77A25.21,25.21,0,0,1,136,44.29a14.62,14.62,0,0,1,6.35-6.39,11.4,11.4,0,0,1,4.73-1c1.63,0,3.27.06,4.89-.1a7.07,7.07,0,0,0,4.34-1.72,12.74,12.74,0,0,0,2.6-3.86,18.89,18.89,0,0,1,2.38-4,10.94,10.94,0,0,1,3.53-2.74,22.18,22.18,0,0,1,7.93-2.05c2.55-.24,4.93-.33,7.07-.65a18.55,18.55,0,0,0,5.58-1.57,12.09,12.09,0,0,0,3.56-2.51,8.85,8.85,0,0,0,1.6-2.26c.28-.57.38-.89.41-.88a5.68,5.68,0,0,1-.32.92,7.94,7.94,0,0,1-1.55,2.35,12,12,0,0,1-3.58,2.63,18.7,18.7,0,0,1-5.65,1.67c-2.16.34-4.54.45-7.08.71a22,22,0,0,0-7.76,2,10.65,10.65,0,0,0-3.38,2.65,18.75,18.75,0,0,0-2.31,3.9,13.18,13.18,0,0,1-2.7,4A7.66,7.66,0,0,1,152,37.3c-1.68.16-3.33.05-4.92.1a11,11,0,0,0-4.54.94,14.17,14.17,0,0,0-6.16,6.17,24,24,0,0,0-1.71,3.79c-.46,1.27-.8,2.55-1.25,3.76-.83,2.41-2.32,4.62-4.47,5.45a6.17,6.17,0,0,1-3.13.28,19.24,19.24,0,0,1-2.71-.65,13,13,0,0,0-4.3-.82,4.92,4.92,0,0,0-2.62.71A6.84,6.84,0,0,0,115.44,57.64Z" fill="#455a64"/><path d="M145.86,78.65s.16-.05.43-.19a1.79,1.79,0,0,0,.77-1,2.16,2.16,0,0,0-.31-2,5.22,5.22,0,0,0-2.18-1.67,10.84,10.84,0,0,1-3-1.76,5.93,5.93,0,0,1-1.68-3.67,7.63,7.63,0,0,1,.89-4.38,10,10,0,0,1,3.33-3.43c2.79-1.81,5.93-2.4,8.66-2.92a36.4,36.4,0,0,0,7.17-1.78,13.13,13.13,0,0,0,4.19-2.6c.84-.82,1.19-1.39,1.23-1.36a2.18,2.18,0,0,1-.24.42,8.26,8.26,0,0,1-.86,1.07A12.27,12.27,0,0,1,160,56.2a35,35,0,0,1-7.21,1.91c-2.73.54-5.79,1.14-8.48,2.88a9.7,9.7,0,0,0-3.18,3.26,7.21,7.21,0,0,0-.86,4.09,5.6,5.6,0,0,0,1.51,3.43,10.8,10.8,0,0,0,2.9,1.74A5.44,5.44,0,0,1,147,75.34a2.36,2.36,0,0,1,.26,2.16,1.78,1.78,0,0,1-.91,1A1,1,0,0,1,145.86,78.65Z" fill="#455a64"/><path d="M158.43,130.88s-1.16-1.26-.77-2.41,1.05-2,1.34-1.92.2-6.26,1.35-6.74a17,17,0,0,1,2.5-.77s1.35-3.47,2.12-3.37,9.34,1.64,9.34,1.64,6.73,7.21,6.35,7.89-.77,1.44-1.83,1.06a11.56,11.56,0,0,1-2.07-1.06l3.58,3.93s-.69,3-3.63.88l1.45,1.83s-.87,3.75-5.11.58l-4.33-2.6h-2.79l6.35,3.87s.68,1.92-1.25,1.91-6.76-2.56-6.76-2.56-2.88,1.7-3.84,1.7-1.23-1.07-1.23-1.07Z" fill="#b78876"/><path d="M176.87,130.21a15,15,0,0,1-1.49-1.27,35.68,35.68,0,0,1-3.52-3.19,3,3,0,0,0-2.16-1,16.25,16.25,0,0,0-2.09.14,4.1,4.1,0,0,1-2-.09c0-.08.75,0,1.94-.26a12.21,12.21,0,0,1,2.15-.24,3.89,3.89,0,0,1,1.31.25,3.37,3.37,0,0,1,1.18.83c1.24,1.38,2.54,2.41,3.41,3.28A5.5,5.5,0,0,1,176.87,130.21Z" fill="#aa6550"/><path d="M180.34,129.13a15.11,15.11,0,0,1-1.75-1.72c-1-1.08-2.49-2.58-4.13-4.19-.83-.79-1.6-1.6-2.35-2.19a4.44,4.44,0,0,0-2.36-.86c-1.47-.1-2.42,0-2.42,0s.22-.1.64-.17a8.58,8.58,0,0,1,1.81-.13,4.46,4.46,0,0,1,2.59.83,28.6,28.6,0,0,1,2.43,2.21c1.65,1.61,3.07,3.16,4,4.31A11,11,0,0,1,180.34,129.13Z" fill="#aa6550"/><path d="M183.39,49.79c.26-.1.85.82,1.76,1.73s1.8,1.54,1.69,1.8-1.34,0-2.4-1.11S183.14,49.87,183.39,49.79Z" fill="#263238"/><path d="M257.19,130l-8.88-45.69a3.43,3.43,0,1,0-6.73,1.31l.4,2.07-18.39,4.53A12.29,12.29,0,0,0,215,99.85l-11.1,2.73a7.16,7.16,0,0,0-5.24,8.67l1,4L188.81,118a5.62,5.62,0,0,0,2.68,10.91l10.86-2.67.77,3.14a7.16,7.16,0,0,0,8.67,5.24l11.29-2.77,0-.09a12.28,12.28,0,0,0,10.9,2.59l16.32-4,.19,1a3.42,3.42,0,1,0,6.72-1.31Z" fill="#e8505b"/><path d="M257.19,130a2.63,2.63,0,0,1,.09.78,3.38,3.38,0,0,1-.78,2.11,3.51,3.51,0,0,1-3.38,1.21,3.58,3.58,0,0,1-2-1.22,3.41,3.41,0,0,1-.64-1.17c-.13-.45-.19-.89-.29-1.36l.13.09-12,3-3.58.89a13.94,13.94,0,0,1-3.91.55,12.53,12.53,0,0,1-7.89-3l.31-.19,0,.08,0,.18-.18.05c-3.81.92-7.8,2-12.1,2.95a7.42,7.42,0,0,1-6.27-2.2A7.32,7.32,0,0,1,203,129.7c-.31-1.14-.57-2.28-.86-3.43l.27.16-9.15,2.26c-.79.18-1.53.42-2.39.55a5.86,5.86,0,0,1-5.76-8.77,6.1,6.1,0,0,1,4.29-2.89l10.22-2.52-.18.3c-.21-.83-.42-1.69-.64-2.57a17.58,17.58,0,0,1-.55-2.73,7.39,7.39,0,0,1,3.85-7,9.73,9.73,0,0,1,2.59-.9L215,99.62l-.17.15A12.66,12.66,0,0,1,220,93.46a13,13,0,0,1,3.73-1.54l3.8-.93,14.44-3.54-.16.26c-.11-.55-.21-1.09-.31-1.63a4.16,4.16,0,0,1-.11-1.69,3.63,3.63,0,0,1,7.12-.29q1.16,6,2.18,11.32c1.37,7.1,2.55,13.3,3.54,18.42s1.73,9.14,2.25,11.9c.25,1.37.44,2.42.58,3.15.06.35.1.61.14.81a.93.93,0,0,1,0,.27l-.07-.26c0-.2-.09-.46-.17-.81-.15-.72-.36-1.77-.64-3.13-.55-2.76-1.36-6.78-2.37-11.88s-2.24-11.31-3.64-18.41c-.7-3.54-1.44-7.31-2.22-11.28a3.23,3.23,0,0,0-4.62-2.12,3.24,3.24,0,0,0-1.69,2.37,3.93,3.93,0,0,0,.11,1.55c.1.54.21,1.08.32,1.62l0,.21-.2,0L227.6,91.44c-2.48.69-5.17,1-7.39,2.42a12.26,12.26,0,0,0-5,6.08l0,.12-.13,0-10.26,2.53a9.09,9.09,0,0,0-2.48.85,6.91,6.91,0,0,0-3.59,6.56,18.06,18.06,0,0,0,.54,2.65c.22.87.43,1.73.63,2.56l.06.24-.24.06-10.22,2.51a5.62,5.62,0,0,0-4,2.66,5.38,5.38,0,0,0,5.28,8.06c.76-.11,1.57-.36,2.34-.53L202.3,126l.21-.06.06.22c.29,1.15.55,2.31.85,3.41a6.86,6.86,0,0,0,1.65,2.88,7,7,0,0,0,5.91,2.08c4.21-.93,8.26-2,12.06-2.9l-.14.23,0-.08-.14-.57.45.38a12.15,12.15,0,0,0,7.64,2.91,13.89,13.89,0,0,0,3.83-.52l3.59-.88,12-2.9.11,0,0,.11c.09.46.16.93.27,1.34a3.35,3.35,0,0,0,5.75,1.17,3.31,3.31,0,0,0,.81-2C257.24,130.24,257.17,130,257.19,130Z" fill="#263238"/><path d="M250.68,130.22c-.13,0-2.28-9.46-4.79-21.19s-4.44-21.26-4.31-21.28,2.28,9.45,4.79,21.18S250.81,130.19,250.68,130.22Z" fill="#263238"/><path d="M223.06,131.73c-.13,0-2-7.09-4.25-15.91s-3.91-16-3.78-16,2,7.09,4.26,15.91S223.2,131.7,223.06,131.73Z" fill="#263238"/><path d="M202.35,126.21a24.64,24.64,0,0,1-1.58-5.4,46.19,46.19,0,0,1-1.1-5.51,24.87,24.87,0,0,1,1.58,5.4A46.61,46.61,0,0,1,202.35,126.21Z" fill="#263238"/><path d="M212.21,102.48a26.69,26.69,0,0,1-2.79.6c-.86.18-1.88.41-3,.72a15.13,15.13,0,0,0-3.46,1.36,4.76,4.76,0,0,0-2.43,2.55,7.55,7.55,0,0,0-.07,3c.23,1.74.51,2.8.44,2.82a9.14,9.14,0,0,1-.78-2.76,7.27,7.27,0,0,1,0-3.17,3.62,3.62,0,0,1,1-1.64,7.87,7.87,0,0,1,1.62-1.21,14.39,14.39,0,0,1,3.59-1.37c1.14-.29,2.17-.49,3.05-.63A12.2,12.2,0,0,1,212.21,102.48Z" fill="#fff"/><path d="M238.52,90.36a4.25,4.25,0,0,1-.94.29l-2.62.6-8.66,1.82a18.15,18.15,0,0,0-4.53,1.58,9.54,9.54,0,0,0-3,2.46,8.42,8.42,0,0,0-1.49,3.25,2.58,2.58,0,0,1,.08-1,6.46,6.46,0,0,1,1.14-2.47,9.24,9.24,0,0,1,3-2.65,17.66,17.66,0,0,1,4.64-1.66c3.39-.73,6.47-1.28,8.7-1.69,1.12-.19,2-.35,2.65-.44A3.79,3.79,0,0,1,238.52,90.36Z" fill="#fff"/><path d="M197.76,117.79a4.74,4.74,0,0,1-1.93.77c-1.25.34-3,.48-4.89.87a10.28,10.28,0,0,0-2.51.88,6.16,6.16,0,0,0-1.71,1.31,8.31,8.31,0,0,0-1.08,1.69,3,3,0,0,1,.81-1.92,6.16,6.16,0,0,1,1.76-1.47,9.43,9.43,0,0,1,2.63-1c1.93-.4,3.68-.49,4.92-.73S197.73,117.72,197.76,117.79Z" fill="#fff"/><path d="M246,82.58c0,.07-.36.07-.89.21a3.45,3.45,0,0,0-1.76,1.08,3.57,3.57,0,0,0-.79,1.91c-.06.54,0,.89-.07.91s-.24-.31-.28-.92a3.29,3.29,0,0,1,.77-2.22,3.18,3.18,0,0,1,2.06-1.1C245.65,82.38,246,82.52,246,82.58Z" fill="#fff"/></g><g id="Lines"><path d="M391.7,75.84l-.19.12-.57.31-2.2,1.15-8.2,4.19L353,95.47l-.19.09-.12-.17c-.77-1.08-1.58-2.23-2.4-3.4l-3.42-4.84.32.07L321.57,102l-7.65,4.36-2.07,1.15-.55.29-.19.09a1.08,1.08,0,0,1,.17-.13l.52-.33,2-1.23,7.57-4.48L347,86.8l.19-.11.13.18,3.42,4.84,2.4,3.4L352.8,95l27.59-13.72,8.26-4,2.25-1.08.59-.27C391.62,75.85,391.69,75.83,391.7,75.84Z" fill="#263238"/><path d="M384.41,112a4.73,4.73,0,0,1-.55.15l-1.58.34-5.85,1.19-19.61,3.81-.25,0,0-.25c-.14-.77-.28-1.59-.43-2.42-.1-.55-.2-1.1-.29-1.61l.29.2c-8,1.37-15,3-20.05,4.36-2.52.67-4.55,1.23-5.95,1.63l-1.61.44a3.23,3.23,0,0,1-.57.13,2.57,2.57,0,0,1,.54-.22l1.59-.53c1.38-.45,3.4-1.07,5.91-1.78A203.64,203.64,0,0,1,356,112.94l.24,0,.05.24c.09.51.19,1,.28,1.6.15.83.3,1.66.43,2.43l-.28-.2,19.63-3.66,5.89-1,1.59-.26A2.21,2.21,0,0,1,384.41,112Z" fill="#263238"/><path d="M317.36,77.25c.13.06-2.42,5.56-5.68,12.28s-6,12.12-6.13,12.06S308,96,311.23,89.31,317.24,77.19,317.36,77.25Z" fill="#263238"/><path d="M347.22,104.21c0,.13-6.29,2.09-14.13,4.38s-14.23,4-14.27,3.91,6.29-2.09,14.13-4.38S347.18,104.08,347.22,104.21Z" fill="#263238"/><path d="M298.29,60a8.3,8.3,0,0,1,.41,1c.25.74.59,1.71,1,2.92l3.45,10.32.1.3h-.32l-7.81-.16.24-.29c.19,1,.38,2,.58,3.1,1.28,7,2.44,13.42,3.29,18.12.39,2.27.71,4.14.94,5.5.1.61.17,1.11.24,1.51a2,2,0,0,1,0,.52,2.77,2.77,0,0,1-.14-.51c-.09-.39-.19-.88-.32-1.48-.28-1.36-.65-3.21-1.1-5.47-.89-4.7-2.1-11.06-3.43-18.1-.2-1.06-.39-2.11-.58-3.1l-.05-.3h.3l7.81.2-.22.29-3.28-10.38c-.36-1.22-.66-2.21-.89-3A5.49,5.49,0,0,1,298.29,60Z" fill="#263238"/><path d="M263.75,135.39c-.06-.13,5-2.62,11.33-5.58s11.48-5.26,11.54-5.14-5,2.62-11.33,5.58S263.81,135.51,263.75,135.39Z" fill="#263238"/><path d="M287.33,142.64a50,50,0,0,1,4.33-5.58,49.06,49.06,0,0,1,4.71-5.26,52.69,52.69,0,0,1-4.33,5.58A53.08,53.08,0,0,1,287.33,142.64Z" fill="#263238"/><path d="M300.05,177c-.14,0,.73-9.76,1.93-21.75s2.3-21.72,2.43-21.71-.73,9.75-1.94,21.75S300.18,177,300.05,177Z" fill="#263238"/><path d="M282.7,90.82a22.73,22.73,0,0,1,2.3,4.09,22.3,22.3,0,0,1,1.87,4.31,22.4,22.4,0,0,1-2.31-4.09A21.86,21.86,0,0,1,282.7,90.82Z" fill="#263238"/></g></g></svg>