<svg xmlns="http://www.w3.org/2000/svg" viewBox="0 0 535.69 315.47"><title>Books</title><g id="Layer_2" data-name="Layer 2"><g id="illustrations"><g id="books-by-oblik-studio"><g id="Layer_2-2" data-name="Layer 2"><g id="illustrations-2" data-name="illustrations"><rect x="101.09" y="100.48" width="87.64" height="65.98" fill="#f8d7bc"/><polygon points="92.24 95.22 92.24 100.48 188.41 100.48 188.41 166.44 92.24 166.44 92.24 171.36 462.16 171.36 462.16 95.22 92.24 95.22" fill="#4e53ba"/><path d="M16.09,178.25H283.27a52,52,0,0,1,51.86,51.87v3.61a51.7,51.7,0,0,1-51.53,51.86H16.09V178.25Z" fill="#f8ece2"/><path d="M482.19,171.36H3.28A3.1,3.1,0,0,0,0,174.64H0a3.1,3.1,0,0,0,3.28,3.28H281.63a53.5,53.5,0,0,1,53.5,53.51h0A53.72,53.72,0,0,1,282,285.26H3.28A3.1,3.1,0,0,0,0,288.54H0a3.1,3.1,0,0,0,3.28,3.28H482.19a53.51,53.51,0,0,0,53.5-53.5h0V225.2a54,54,0,0,0-53.5-53.84Z" fill="#ff5856"/><path d="M291.81,201.24H16.09v-3.62H291.81a2.13,2.13,0,0,1,2,2h0a1.84,1.84,0,0,1-2,1.65Z" fill="#ebd0be"/><path d="M164.45,150.68H101.09v-3.61h63.68a2.12,2.12,0,0,1,2,2h0A2.43,2.43,0,0,1,164.45,150.68Z" fill="#e0c1a6"/><path d="M149.36,130H101.09v-3.61h48.58a1.9,1.9,0,0,1,2,2h0A2.54,2.54,0,0,1,149.36,130Z" fill="#e0c1a6"/><path d="M311.82,242.92H16.09v-3.61H311.84a2.12,2.12,0,0,1,2,2h0a1.86,1.86,0,0,1-2,1.64Z" fill="#ebd0be"/><path d="M275.4,266.24H16.09v-3.95H275.4a1.85,1.85,0,0,1,2,1.64h0a2.49,2.49,0,0,1-2,2.31Z" fill="#ebd0be"/><path d="M303,222.58H16.09V219H303a2.12,2.12,0,0,1,2,2h0c-.33.64-1,1.64-2,1.64Z" fill="#ebd0be"/><path d="M265.18,89.28H157.84V49.56H265.18a11.08,11.08,0,0,1,11.17,11.17V78.46A11,11,0,0,1,265.18,89.28Z" fill="#f8d0b3"/><path d="M474.33,43.66H148.71a3,3,0,0,0,0,5.9H265.24a11.08,11.08,0,0,1,11.17,11.17v17.4a11.07,11.07,0,0,1-11.17,11.16H149.37c-1.64.33-3,1.64-2.62,3.28a2.82,2.82,0,0,0,2.62,2.62h325A11.08,11.08,0,0,0,485.5,84V54.48c0-5.25-5.27-10.82-11.17-10.82Z" fill="#ff7a82"/><path d="M140.51,2.62h175a18.69,18.69,0,0,1,18.7,18.71h0v1.3a18.69,18.69,0,0,1-18.7,18.71h-175V2.62Z" fill="#f8e7d8"/><path d="M439.54,0H133a1.41,1.41,0,0,0-1.31,1.31h0A1.42,1.42,0,0,0,133,2.62H314.8A19.4,19.4,0,0,1,334.17,22h0A19.41,19.41,0,0,1,314.8,41.36H133a1.41,1.41,0,0,0-1.31,1.31h0A1.42,1.42,0,0,0,133,44H439.52a19.41,19.41,0,0,0,19.37-19.37h0V19.35A19.37,19.37,0,0,0,439.54,0Z" fill="#2b31ba"/><path d="M295.43,13.45H140.51V11.81H295.43a.86.86,0,0,1,1,1h0C296.43,13.12,296.1,13.45,295.43,13.45Z" fill="#debca7"/><path d="M280.67,32.49H140.51V30.85H280.67a.86.86,0,0,1,1,1h0C281.65,32.16,281.32,32.49,280.67,32.49Z" fill="#debca7"/><path d="M312.83,23H140.51V21H312.83a1,1,0,0,1,1,1h0a1,1,0,0,1-1,1Z" fill="#debca7"/><path d="M243.89,239.31h-43s-6.89,2.3-12.81,13.46c-7.22,13.78-4.92,26.91-9.51,37.1a36.05,36.05,0,0,1-14.12,16.4,60.53,60.53,0,0,0,15.43.33,28.13,28.13,0,0,0,11.48-5.25A30.69,30.69,0,0,1,193,315.47s15.76-3.62,22-12.81c8.86-12.48,1.31-27.91,13.12-47.27A73.23,73.23,0,0,1,243.89,239.31Z" fill="#bfa990"/></g></g></g></g></g></svg>