<svg xmlns="http://www.w3.org/2000/svg" viewBox="0 0 583.25 597.82"><title>Cool cat</title><g id="Layer_2" data-name="Layer 2"><g id="illustrations"><g id="cat-video-games-controller-plant-by-oblik-studio"><path d="M307.68,168.89c-9.2-30.6-9.62-47.93-8.45-60.72S334.8,113,341.44,118c8.53,6.5,18.8,15.92,18.8,15.92Z" fill="#110580"/><path d="M404.43,134c23.44-21.62,38.94-29.54,51-34.06S466,134,464.9,142.21c-1.25,9.68-3.9,25.12-3.9,25.12Z" fill="#110580"/><path d="M475.15,360.5c10.66,16.57,18.09,35.17,28.11,52.28,5.84,10.05,18.84,30.46,20.67,7.79,2.34-28.65-17.19-59.23-25-85.92-8.54-29.29-12.31-63.52,3.94-90.91,16.53-27.88,69.9-38.82,79.4,1.57,5.67,24.17-14.19,42.6-37.77,34.3l-3.34-1.19L556,281.16c-5,0-.2-4.75-.77,1.18-.67,7.06-2.79,13.39-2.67,20.59.27,14.92,4,29.49,7.64,43.84,7.59,29.59,21,65.71,8.89,95.8-11.94,29.83-46.68,46.09-74.83,26.43-27-18.86-42.32-68.38-43.23-99.81-.4-12.52,16.71-20.31,24.22-8.69Z" fill="#110580"/><path d="M469.66,201.46c-2,40-21.74,72-89,68.18C319.17,266.29,297,232.8,299,192.78s41.84-70.58,89-68.18S471.71,161.4,469.66,201.46Z" fill="#110580"/><path d="M388.16,212a28.89,28.89,0,0,0-16.53-.12,2.77,2.77,0,0,0-1.15.91,2.71,2.71,0,0,0-.52,1.37,3,3,0,0,0,.21,1.48,2.83,2.83,0,0,0,.92,1.2,3.91,3.91,0,0,1,.69.6c-.44-.6.08.1.21.23s.58.69.85,1a4.2,4.2,0,0,1,.42.62s.06.09.08.14c.21.36.4.75.59,1.13a59.61,59.61,0,0,0,2.84,5.5,3.24,3.24,0,0,0,.2.36l.13.14.12.15a3,3,0,0,0,1.72.77,3,3,0,0,0,1.81-.42A1.65,1.65,0,0,0,381,227a2.42,2.42,0,0,0,.9-1.17,2.78,2.78,0,0,1,.25-.62v-.09a8.43,8.43,0,0,1,.94-1.24l.54-.62.25-.26c.44-.39.84-.84,1.23-1.24a16.32,16.32,0,0,0,4.59-6,2.93,2.93,0,0,0-1.54-3.75Zm-4.24,10.93.11-.08c.16-.24,0-.1-.15.08Z" fill="#787ccb"/><path d="M445.35,184.73a.94.94,0,0,1,.29.37,1.08,1.08,0,0,1,.11.47,1.11,1.11,0,0,1-.11.46.94.94,0,0,1-.29.37c-5.55,4.84-11.7,11-18,14.12-6.69,3.35-13.6,3.13-20.42,1.25a59.12,59.12,0,0,1-7.64-3,1.05,1.05,0,0,1-.67-.71,1.06,1.06,0,0,1,0-.5,1.08,1.08,0,0,1,.21-.46,44.17,44.17,0,0,1,19.86-16.25C426.43,177.81,438.34,179,445.35,184.73Z" fill="#fff"/><path d="M427.72,197.37a14.29,14.29,0,0,0,.29-4.92,17.22,17.22,0,0,0-1.27-5,11.66,11.66,0,0,0-4.3-5.79,6.44,6.44,0,0,0-3.63-.84,5,5,0,0,0-3.13,1.53,5.29,5.29,0,0,0-1.56,2.59,15.06,15.06,0,0,0-.53,4.72,18.74,18.74,0,0,0,3.88,10.67,6.72,6.72,0,0,0,3.28,2.06,5.85,5.85,0,0,0,6.07-2.56A8.47,8.47,0,0,0,427.72,197.37Z" fill="#787ccb"/><path d="M368.31,196.13a.94.94,0,0,1,.13.43.83.83,0,0,1-.06.44,1,1,0,0,1-.23.38,1.34,1.34,0,0,1-.4.23A56.11,56.11,0,0,1,352.18,201a26.65,26.65,0,0,1-16.42-4.18c-4.5-3.1-7.55-7.84-10.22-12.64a1.44,1.44,0,0,1-.13-.4,1.13,1.13,0,0,1,0-.41,2.08,2.08,0,0,1,.2-.36,1.13,1.13,0,0,1,.36-.24c7.43-3.22,16.36-5.56,24-3.08S364.12,189.27,368.31,196.13Z" fill="#fff"/><path d="M353.46,189.55a11,11,0,0,0,0-6.85,5.32,5.32,0,0,0-1.19-1.88,5.26,5.26,0,0,0-1.86-1.25,5.45,5.45,0,0,0-4.36.07,13.29,13.29,0,0,0-4.17,3.87,19.66,19.66,0,0,0-3.61,11.08,6.57,6.57,0,0,0,1.25,3.59,5.24,5.24,0,0,0,2.21,1.74,5.37,5.37,0,0,0,2.8.35,9,9,0,0,0,3.27-1.68,14.82,14.82,0,0,0,3.49-3.91A17.09,17.09,0,0,0,353.46,189.55Z" fill="#787ccb"/><path d="M324.56,245.11s-10,51.29-38.25,95.75c-21.6,34-35.6,82.76-16.63,128.39s67.11,61.42,115.43,62.93,107.55-30.41,118-70.25,3.11-72.81-14.34-104C455,297.37,444.66,244.64,444.66,244.64Z" fill="#110580"/><path d="M321.37,496.94A24.09,24.09,0,0,0,299.94,505c-5,6.18-5.93,15.71-1.4,22.25,5,7.22,14.62,9.33,23.43,10.18a168.42,168.42,0,0,0,37.75-.53c5.67-.74,11.54-1.83,16.21-5.12s7.93-9.35,6.28-14.84Z" fill="#110580"/><path d="M444.29,493.68a24.21,24.21,0,0,1,21.45,8.05c5,6.18,5.92,15.71,1.35,22.26-5,7.22-14.6,9.33-23.32,10.18a167.63,167.63,0,0,1-37.73-.54c-5.7-.73-11.56-1.82-16.23-5.12s-7.91-9.34-6.28-14.84Z" fill="#110580"/><path d="M341.61,216.8a283.68,283.68,0,0,1-79.19-3.05c-3.17-.59-4.53,4.25-1.36,4.84a288.84,288.84,0,0,0,80.55,3.23C344.78,221.5,344.82,216.48,341.61,216.8Z" fill="#787ccb"/><path d="M343.9,229.25a120.33,120.33,0,0,1-60.66,18.12c-3.23,0-3.23,5,0,5a125.41,125.41,0,0,0,63.19-18.81C349.18,231.92,346.66,227.55,343.9,229.25Z" fill="#787ccb"/><path d="M417.47,221.45c8.62-1.07,17.24.64,25.84,1.07a139.93,139.93,0,0,0,23.33-.78,144.29,144.29,0,0,0,45.17-13c2.92-1.38.4-5.71-2.52-4.34a137.08,137.08,0,0,1-44.18,12.51,140.58,140.58,0,0,1-22.57.59c-8.37-.47-16.72-2.08-25.09-1-3.17.4-3.21,5.42,0,5Z" fill="#787ccb"/><path d="M416.35,235a197.91,197.91,0,0,0,58.8,16.24c3.21.37,3.17-4.67,0-5a190.46,190.46,0,0,1-56.26-15.49c-2.92-1.3-5.46,3-2.52,4.34Z" fill="#787ccb"/><path d="M451.07,530.55a9.28,9.28,0,0,0,4.05-5.64,12.15,12.15,0,0,0-.69-6.95,32.38,32.38,0,0,0-11.19-13.5,2.54,2.54,0,0,0-3.44.89,2.69,2.69,0,0,0-.23,1.91,2.59,2.59,0,0,0,1.13,1.54,27.45,27.45,0,0,1,8.83,10.35,8.31,8.31,0,0,1,.77,4.45c0-.53-.13.42-.17.6s-.33.67,0,.21l-.25.46-.31.47c.29-.42-.11.1-.19.19a4.45,4.45,0,0,1-.52.48c-.17.15.19-.11-.27.2a2.6,2.6,0,0,0-1.11,1.51,2.48,2.48,0,0,0,3.65,2.75Z" fill="#787ccb"/><path d="M421.4,510.41a37,37,0,0,1,2.4,20.09,2.7,2.7,0,0,0,.27,1.89,2.55,2.55,0,0,0,1.5,1.19,2.47,2.47,0,0,0,1.88-.21,2.57,2.57,0,0,0,1.21-1.46,43.49,43.49,0,0,0-2.92-24,2.58,2.58,0,0,0-1.55-1.16,2.5,2.5,0,0,0-1.89.25,2.6,2.6,0,0,0-1.13,1.55,2.57,2.57,0,0,0,.23,1.9Z" fill="#787ccb"/><path d="M380.73,363.52c-.88,12.91-1.48,25.84-1.4,38.78,0,10.31.46,20.61.54,30.93a2.49,2.49,0,0,0,.76,1.77,2.42,2.42,0,0,0,1.77.74,2.47,2.47,0,0,0,1.77-.74,2.55,2.55,0,0,0,.73-1.77c-.1-10.32-.5-20.62-.54-30.93,0-12.94.5-25.87,1.4-38.78C386,360.3,381,360.3,380.73,363.52Z" fill="#787ccb"/><path d="M465.45,499.66a29.68,29.68,0,0,0-27-12.53l2.52,2.51a519.77,519.77,0,0,0,1.05-104.86c-.28-3.19-5.3-3.23-5,0A521.24,521.24,0,0,1,436,489.64a2.55,2.55,0,0,0,.73,1.78,2.53,2.53,0,0,0,1.78.73,24.72,24.72,0,0,1,22.62,10.05C463,504.81,467.32,502.32,465.45,499.66Z" fill="#787ccb"/><path d="M327.5,402.25a447.28,447.28,0,0,1-5.4,48.83c-.55,3.16,4.29,4.52,4.84,1.34a453,453,0,0,0,5.57-50.24c.16-3.23-4.84-3.21-5,0Z" fill="#787ccb"/><path d="M384.8,485.49c-.23-7.84.71-15.64.5-23.44,0-3.24-5-3.24-5,0,.19,7.82-.75,15.62-.5,23.44C379.89,488.71,384.92,488.72,384.8,485.49Z" fill="#787ccb"/><path d="M216,380.4c-.37-5.38-38-9.72-84.34-9.72s-84,4.34-84.34,9.72v.13c.19,5.39,37.87,9.76,84.36,9.76s84.18-4.37,84.36-9.76A.33.33,0,0,1,216,380.4Zm-84.34,8.37c-39.21,0-71-3.68-71.13-8.24v-.1c.31-4.52,32-8.19,71.11-8.19s70.82,3.67,71.13,8.19v.1c-.12,4.47-31.9,8.16-71.11,8.16Z" fill="#e8d4c1"/><path d="M131.65,388.69c39.21,0,71-3.69,71.15-8.24v-.1c-.33-4.52-32.05-8.19-71.13-8.19s-70.8,3.67-71.13,8.19v.1C60.66,385,92.44,388.69,131.65,388.69Z" fill="#ba9c7e"/><path d="M135.66,389.67A986.32,986.32,0,0,0,118.78,263.9,973.9,973.9,0,0,0,85.93,141.66Q74.48,107.81,60.5,74.86a3.21,3.21,0,0,0-4.36-1.15,3.37,3.37,0,0,0-1.42,2A3.41,3.41,0,0,0,55,78.08,968.72,968.72,0,0,1,96.3,196.8a978.55,978.55,0,0,1,25.58,122.41q5,35.07,7.41,70.46C129.56,393.74,136,393.78,135.66,389.67Z" fill="#4c7378"/><path d="M157.4,397.66a1287.75,1287.75,0,0,1,8.37-198q3.34-27.57,7.82-55c.67-4-5.47-5.74-6.13-1.67a1293.83,1293.83,0,0,0-17.18,198.26q-.24,28.19.73,56.37c.13,4.08,6.49,4.1,6.37,0Z" fill="#4c7378"/><path d="M120.22,403.61A370.3,370.3,0,0,0,58.66,256.25,368.44,368.44,0,0,0,30.39,220.9c-2.76-3.05-7.24,1.45-4.49,4.5a365.1,365.1,0,0,1,77.71,136.68,361.93,361.93,0,0,1,10.47,43.2C114.81,409.32,121,407.61,120.22,403.61Z" fill="#4c7378"/><path d="M63.4,346.29,48,338.84l-13.4-6.3c-7.89-3.79-13.63-6.87-13.75-9.51-.13-2.3,5.45-6.42,15.73-8.29,1.28-.22,2.61-.42,4-.59s2.86-.18,4.38-.23a62.62,62.62,0,0,1,9.68.5,71,71,0,0,1,21.22,6.41,67.66,67.66,0,0,1,18,13,63.33,63.33,0,0,1,6.22,7.47c.87,1.26,1.67,2.43,2.42,3.65s1.35,2.44,2,3.58c4.65,9.36,4.78,16.26,3.34,17.24-1.94,1.37-7.91-1.31-15.8-5.21l-13.21-6.7Z" fill="#4c7378"/><path d="M17.91,227.78A141.19,141.19,0,0,1,1.45,185.53C-.85,173.81-.22,166,2,165s8.2,4.05,15.61,12.81a261.15,261.15,0,0,1,24.76,35.7A239.32,239.32,0,0,1,60.89,252.9c3.86,10.85,5.32,18.52,3.84,19.64-1.81,1.37-8.93-2-18-9.71A138.93,138.93,0,0,1,17.91,227.78Z" fill="#689399"/><path d="M70.74,265.36c-6-35.6-1-65.81,4.07-66.5s18,26.69,23.89,61.81,1.15,65.47-2.46,66.21C91.75,327.78,76.69,301,70.74,265.36Z" fill="#57848a"/><path d="M43.26,73.22a199.22,199.22,0,0,1-10-50.45C32.49,9.39,33.93.71,36.38,0s7.76,6.27,14.06,17.84A298.64,298.64,0,0,1,70.16,64.26a278.88,278.88,0,0,1,11.56,49.07c1.69,13.11,1.58,21.76-.15,22.55-2.11.87-8.47-5.19-16-16.31A196,196,0,0,1,43.26,73.22Z" fill="#57848a"/><path d="M84.18,124.13c-1.36-33.91,5.93-62,11-62.33S111.12,88.59,112.5,123s-8.69,62.36-12.34,62.39C95.53,185.43,85.56,158.05,84.18,124.13Z" fill="#4c7378"/><path d="M57.37,174.31a94.61,94.61,0,0,1-18.91-21.73c-4.09-6.7-5.8-12.21-4.32-14.3s7.22-2.23,15.07,0a72.44,72.44,0,0,1,26.52,14.5,69.44,69.44,0,0,1,18.11,24.28c3.34,7.5,3.92,13.29,2.61,14.57-1.67,1.67-7.37.78-14.65-2.16A92.26,92.26,0,0,1,57.37,174.31Z" fill="#689399"/><path d="M127.58,312.83a209.1,209.1,0,0,1-9.68-34.19c-1.67-9.4-1.67-16.13.48-17.47s8.18,1.88,15.34,9.08a94.23,94.23,0,0,1,20.42,32.65,90.76,90.76,0,0,1,5.51,38.18c-.83,10.13-3.34,16.49-5.19,16.74-2.32.41-6.7-4.7-11.71-12.89A200.25,200.25,0,0,1,127.58,312.83Z" fill="#4c7378"/><path d="M153.41,300.59a130.34,130.34,0,0,1,17-37.24c6.09-8.89,11.62-13.62,14-12.76s3.36,8,2.94,18.52a179.75,179.75,0,0,1-6.67,39.2,171,171,0,0,1-15.26,36.84c-5.23,9.19-9.93,14.68-11.7,14.31-2.24-.45-4.49-7.38-5-18.15A128.42,128.42,0,0,1,153.41,300.59Z" fill="#57848a"/><path d="M129.27,167.06c-8.2-29.17-6.88-55.26-2-56.93s21,19.59,29.31,49.25,4.24,56.41.69,57.28C152.75,217.73,137.51,196.23,129.27,167.06Z" fill="#4c7378"/><path d="M158,108.65A189.31,189.31,0,0,1,170.25,61c5-11.84,9.85-18.74,12.36-18.27,4.75,1,8.11,32.47,3.48,69.48a240.7,240.7,0,0,1-10.77,47.1c-4.13,12-8.16,19.39-10,19.28-2.3-.17-5.32-8.07-7.22-20.78A187.51,187.51,0,0,1,158,108.65Z" fill="#4c7378"/><path d="M131.65,390.29c45.78,0,83-4.23,84.3-9.53l-6.7,79.93c0,37.91-34.89,68.92-77.56,68.92s-77.56-31-77.56-68.92l-6.7-80C48.27,386,85.64,390.29,131.65,390.29Z" fill="#dec7b2"/><path d="M213.05,415a22.52,22.52,0,0,0-15.38,6.7c-8.66,8.37-14,21.26-21,31.11a159,159,0,0,1-7-16.29c-2.47-6.7-11.42-12.83-18.41-7.47a69.5,69.5,0,0,0-17.84,20.41c-4.17,7-7.55,15.26-14,20.46s-13.4,6.52-15.92-2.44c-2.28-7.9-1.5-16.36-4-24.25-2.08-6.58-5.49-13.39-12.16-16.29-8-3.43-15.61.82-22.71,4.39-4.23,2.12-8.36,4.42-12.43,6.84l1.42,16.87c7.24-4.52,16.09-10.05,23.53-11.14,4.7-.68,4.37,2.48,4.68,6.92.27,3.95.25,7.92.48,11.87.44,8,1.67,16.06,6.34,22.76,10.14,14.3,29.21,13.63,42.63,4.53a61.38,61.38,0,0,0,17.09-18.53c1.5-2.35,2.94-4.87,4.44-7.37,5.76,13.4,14.55,25.42,29.09,20.33,9.06-3.15,14.88-13,20.26-20.35,1.67-2.26,4.74-7.82,7.83-12.77Z" fill="#ebdbcd"/><path d="M113.54,211.42a207.63,207.63,0,0,1,16-49.13c5.86-12.11,11.35-19,13.79-18.42,4.72,1.29,5.57,34.49-2,73-1.9,9.66-4.23,18.75-6.68,27s-5,15.07-6.69,20.88-2.86,10.63-3.61,14.25-1.3,5.94-2.19,6.24-3.2-1-5.58-4.59a44.12,44.12,0,0,1-5.9-16.54,107.68,107.68,0,0,1-.77-24.6A210.63,210.63,0,0,1,113.54,211.42Z" fill="#57848a"/><path d="M215.82,379.76H202.6a1.16,1.16,0,0,1,.25.59v.1c-.15,4.55-31.95,8.24-71.14,8.24s-71-3.69-71.15-8.24v-.1a1,1,0,0,1,.25-.59H47.6a1.27,1.27,0,0,0-.25.64v.13c.19,5.39,37.87,9.76,84.36,9.76s84.18-4.37,84.36-9.76a.15.15,0,0,1,0-.13A1.62,1.62,0,0,0,215.82,379.76Z" fill="#e8d4c1"/><path d="M163.1,195a114.89,114.89,0,0,1,20.74-33.27c7-7.59,13-11.24,15.25-10.05s2.42,8.11.79,18a171.8,171.8,0,0,1-10.58,36.16,167.89,167.89,0,0,1-9,18.42,145.26,145.26,0,0,1-9.2,14.28c-2.78,3.74-4.91,6.7-6.51,9s-2.72,4-3.66,4.06-2.85-1.26-4.27-4.43a32.8,32.8,0,0,1-2.13-13.66,104.5,104.5,0,0,1,2.25-18A117.37,117.37,0,0,1,163.1,195Z" fill="#689399"/><path d="M403.6,89.4c-8.72-1.93-16-13.55-18.66-20.57a25.53,25.53,0,0,1-.83-11.62,14.07,14.07,0,0,1,1.67-5.38,13.65,13.65,0,0,1,3.65-4.28,11.05,11.05,0,0,1,12.06-.32,13.71,13.71,0,0,1,4.34,4.3,13.55,13.55,0,0,1,2.09,5.75,19.51,19.51,0,0,1,11.18-4.77c3.34-.54,7.18-.27,9.79,1.94,3.36,2.85,3.71,8.14,1.88,12.12a40.21,40.21,0,0,1-9.69,12.65A56.1,56.1,0,0,1,403.6,89.48" fill="#ff5856"/><path d="M441.45,29.45c-5.28,1.21-12.27-3.23-15.52-6.38a15.43,15.43,0,0,1-3.49-6.13,8.5,8.5,0,0,1-.5-3.39,8.37,8.37,0,0,1,.92-3.31,6.62,6.62,0,0,1,2.73-2.64,6.81,6.81,0,0,1,3.76-.71,8.32,8.32,0,0,1,3.46,1.2,8.18,8.18,0,0,1,2.63,2.57,11.83,11.83,0,0,1,4.88-5.51,7.47,7.47,0,0,1,5.85-1.49,6.24,6.24,0,0,1,3.06,2.4,6.31,6.31,0,0,1,1.09,3.75,24.37,24.37,0,0,1-1.94,9.49,34,34,0,0,1-6.87,10.15" fill="#ff7a82"/><path d="M420.12,557.91a39.52,39.52,0,0,0-9.07-16.64L376.12,498a77.48,77.48,0,0,0-57.36-25.32H211.07A77.43,77.43,0,0,0,153.71,498l-34.93,43.29a39.43,39.43,0,0,0-9.08,16.64c-2.9,11.31-3.57,28.25,14.27,36.74,22.87,10.89,62-8.75,81.53-21.77A40.78,40.78,0,0,1,228.28,566h73.24c8.16,0,16.09.22,22.81,4.74,19.49,13.07,58.57,34.89,81.5,24C423.71,586.13,423,569.22,420.12,557.91Z" fill="#4e53ba"/><path d="M311.16,488.57c5.09,0,9.22-1.57,9.22-3.5s-4.13-3.5-9.22-3.5-9.24,1.57-9.24,3.5S306.05,488.57,311.16,488.57Z" fill="#aaace3"/><path d="M311.18,488.57c-5,0-9.24-1.57-9.24-3.5V488c0,1.92,4.13,3.5,9.24,3.5s9.23-1.58,9.23-3.5v-2.9C320.36,487,316.21,488.57,311.18,488.57Z" fill="#868ae0"/><path d="M348.47,488.57c5.09,0,9.22-1.57,9.22-3.5s-4.13-3.5-9.22-3.5-9.24,1.57-9.24,3.5S343.36,488.57,348.47,488.57Z" fill="#aaace3"/><path d="M348.47,488.57c-5,0-9.22-1.57-9.22-3.5V488c0,1.92,4.13,3.5,9.22,3.5s9.22-1.58,9.22-3.5v-2.9C357.69,487,353.56,488.57,348.47,488.57Z" fill="#868ae0"/><path d="M329.82,480.75c5.09,0,9.22-1.57,9.22-3.5s-4.13-3.5-9.22-3.5-9.25,1.57-9.25,3.5S324.7,480.75,329.82,480.75Z" fill="#aaace3"/><path d="M329.82,480.75c-5,0-9.25-1.56-9.25-3.5v2.91c0,1.93,4.13,3.51,9.25,3.51s9.22-1.58,9.22-3.51v-2.87C339,479.19,334.91,480.75,329.82,480.75Z" fill="#868ae0"/><path d="M329.82,497.21c5.09,0,9.22-1.56,9.22-3.5s-4.13-3.5-9.22-3.5-9.25,1.57-9.25,3.5S324.7,497.21,329.82,497.21Z" fill="#aaace3"/><path d="M329.82,497.21c-5,0-9.25-1.57-9.25-3.5v2.9c0,1.94,4.13,3.5,9.25,3.5s9.22-1.56,9.22-3.5v-2.9C339,495.71,334.91,497.21,329.82,497.21Z" fill="#868ae0"/><path d="M206.68,488.71c9.56,0,17.32-2.94,17.32-6.57s-7.76-6.56-17.32-6.56-17.33,2.94-17.33,6.56S197.11,488.71,206.68,488.71Z" fill="#2b31ba"/><path d="M206.68,488.71c-9.57,0-17.31-2.93-17.33-6.57v5.44c0,3.64,7.76,6.57,17.33,6.57S224,491.22,224,487.58v-5.44C224,485.78,216.24,488.71,206.68,488.71Z" fill="#110580"/><path d="M297,513.77c9.58,0,17.34-2.94,17.34-6.56s-7.76-6.57-17.34-6.57-17.32,2.94-17.32,6.57S287.4,513.77,297,513.77Z" fill="#2b31ba"/><path d="M297,513.77c-9.53,0-17.3-2.93-17.3-6.56v5.46c0,3.61,7.75,6.56,17.3,6.56s17.34-3,17.34-6.56v-5.44C314.29,510.78,306.53,513.77,297,513.77Z" fill="#110580"/><path d="M250.48,486.73c2.51,0,4.53-.76,4.53-1.71s-2-1.71-4.53-1.71S246,484.08,246,485,248,486.73,250.48,486.73Z" fill="#aaace3"/><path d="M250.48,486.73c-2.5,0-4.52-.75-4.52-1.67v1.42c0,.95,2,1.67,4.52,1.67s4.53-.75,4.53-1.67v-1.42C255,486,253,486.73,250.48,486.73Z" fill="#868ae0"/><path d="M279.32,486.73c2.5,0,4.55-.76,4.55-1.71s-2.05-1.71-4.55-1.71-4.53.77-4.53,1.71S276.82,486.73,279.32,486.73Z" fill="#aaace3"/><path d="M279.4,486.73c-2.5,0-4.52-.75-4.52-1.67v1.42c0,.95,2,1.67,4.52,1.67s4.53-.75,4.53-1.67v-1.42C283.87,486,281.84,486.73,279.4,486.73Z" fill="#868ae0"/><path d="M252.8,508.87h-9.29c-1.21,0-2.21-.4-2.21-.91v-3.77c0-.5-1-.9-2.19-.9H230c-1.23,0-2.21.4-2.21.9V508c0,.51-1,.91-2.21.91h-9.29c-1.21,0-2.21.4-2.21.89v4.8c0,.5,1,.9,2.21.9h9.29c1.23,0,2.21.41,2.21.89v3.79c0,.48,1,.9,2.21.9h9.14c1.21,0,2.19-.42,2.19-.9v-3.79c0-.48,1-.89,2.21-.89h9.29c1.23,0,2.21-.4,2.21-.9v-4.8C255,509.27,254,508.87,252.8,508.87Z" fill="#868ae0"/><path d="M252.8,504.41h-9.29c-1.21,0-2.21-.4-2.21-.89v-3.78c0-.5-1-.9-2.19-.9H230c-1.23,0-2.21.4-2.21.9v3.78c0,.49-1,.89-2.21.89h-9.29c-1.21,0-2.21.4-2.21.91v4.8c0,.49,1,.89,2.21.89h9.29c1.23,0,2.21.4,2.21.9v3.77c0,.5,1,.91,2.21.91h9.14c1.21,0,2.19-.41,2.19-.91v-3.77c0-.5,1-.9,2.21-.9h9.29c1.23,0,2.21-.4,2.21-.89v-4.8C255,504.81,254,504.41,252.8,504.41Z" fill="#aaace3"/></g></g></g></svg>