<svg xmlns="http://www.w3.org/2000/svg" viewBox="0 0 643.91 351.98"><title>Customer Service</title><g id="Layer_2" data-name="Layer 2"><g id="illustrations"><g id="podcasts-equipment-by-oblik-studio"><path d="M511.34,0H165.81A6.79,6.79,0,0,0,159,6.8V228.5a6.79,6.79,0,0,0,6.79,6.8H511.34a6.8,6.8,0,0,0,6.8-6.8V6.8A6.8,6.8,0,0,0,511.34,0Z" fill="#e8e8f7"/><path d="M511.34,0H165.81A6.79,6.79,0,0,0,159,6.8V26H518.14V6.8a6.81,6.81,0,0,0-6.8-6.8Z" fill="#d6d7f0"/><path d="M179,17.7A4.75,4.75,0,1,0,174.21,13,4.74,4.74,0,0,0,179,17.7Z" fill="#acafe0"/><path d="M196.66,17.7A4.75,4.75,0,1,0,191.89,13,4.74,4.74,0,0,0,196.66,17.7Z" fill="#acafe0"/><path d="M214.37,17.7A4.75,4.75,0,1,0,209.6,13,4.74,4.74,0,0,0,214.37,17.7Z" fill="#acafe0"/><path d="M642.77,74.39a1,1,0,0,1,.42,0,1,1,0,0,1,.62.56,1.22,1.22,0,0,1,0,.82,30.69,30.69,0,0,1-2.81,5.9,1.08,1.08,0,0,1-.66.48,1.12,1.12,0,0,1-.81-.13,1,1,0,0,1-.3-.28.81.81,0,0,1-.19-.38.75.75,0,0,1,0-.42,1.28,1.28,0,0,1,.13-.39,26.46,26.46,0,0,0,2.61-5.48,1.07,1.07,0,0,1,.36-.48A1,1,0,0,1,642.77,74.39Z" fill="#110580"/><path d="M467.59,22.45a.73.73,0,0,1,.36,0l1.53.45,11,3.2a1.17,1.17,0,0,1,.36.21,1.06,1.06,0,0,1,.26.33.79.79,0,0,1,.1.4.81.81,0,0,1,0,.41,4.13,4.13,0,0,1-.2.37,1.91,1.91,0,0,1-.32.27,1.73,1.73,0,0,1-.43.12,1,1,0,0,1-.42-.06c-3.79-1.24-7.42-2.3-10.95-3.2l-1.5-.45a1,1,0,0,1-.66-.52,1.17,1.17,0,0,1-.09-.82.87.87,0,0,1,.39-.5A1,1,0,0,1,467.59,22.45Zm24.73,8.3a1.57,1.57,0,0,1,.53,0,97.77,97.77,0,0,1,11.73,5.94.89.89,0,0,1,.29.26,1,1,0,0,1,.2.37,2,2,0,0,1,0,.42,1,1,0,0,1-.16.39,1.39,1.39,0,0,1-.27.32,1.14,1.14,0,0,1-.39.18,1,1,0,0,1-.42,0,1,1,0,0,1-.39-.15,93.4,93.4,0,0,0-11.54-5.77,1.17,1.17,0,0,1-.59-.57,1.13,1.13,0,0,1,0-.81,1.3,1.3,0,0,1,.39-.47,1.07,1.07,0,0,1,.59-.2Zm22.29,13.41a1.22,1.22,0,0,1,.46,0,1,1,0,0,1,.36.21A64.9,64.9,0,0,1,524.48,54a1.06,1.06,0,0,1,.23.8,1.11,1.11,0,0,1-.43.71,1,1,0,0,1-.36.19,1,1,0,0,1-.42,0,1.33,1.33,0,0,1-.4-.13,1.43,1.43,0,0,1-.32-.28,60.71,60.71,0,0,0-8.76-9.3,1.06,1.06,0,0,1,0-1.54,1.1,1.1,0,0,1,.59-.42Zm15.65,20.55a1.11,1.11,0,0,1,.65.14,1.22,1.22,0,0,1,.43.47,63.3,63.3,0,0,1,4.25,12.57,1.37,1.37,0,0,1-.17.8,1.08,1.08,0,0,1-1.5.33,1.16,1.16,0,0,1-.46-.68,58.22,58.22,0,0,0-4.08-12.12,1,1,0,0,1,0-.82,1.23,1.23,0,0,1,.58-.59A.6.6,0,0,1,530.26,64.71Zm-6,14.3a49.14,49.14,0,0,1,7.28,0,1.08,1.08,0,0,1,.75.31,1.09,1.09,0,0,1,0,1.5,1.08,1.08,0,0,1-.75.31,54.35,54.35,0,0,0-7,0,45,45,0,0,0-5.72.8,1.13,1.13,0,0,1-.82-.16,1.1,1.1,0,0,1-.45-.67.75.75,0,0,1,0-.42.76.76,0,0,1,.16-.38A.83.83,0,0,1,518,80a1.07,1.07,0,0,1,.36-.16,42.9,42.9,0,0,1,6-.83Zm20,2.21h.39c3.7,1,7.55,2.28,12.49,4.17a.8.8,0,0,1,.32.22.81.81,0,0,1,.26.33.86.86,0,0,1,.1.41,1.76,1.76,0,0,1-.06.4,1.31,1.31,0,0,1-.23.36,1.12,1.12,0,0,1-.33.24.92.92,0,0,1-.39.09,1,1,0,0,1-.43-.06A104.71,104.71,0,0,0,544,83.31a1.06,1.06,0,0,1-.56-.44,1.32,1.32,0,0,1-.2-.7,1.19,1.19,0,0,1,.95-1Zm-37.9,3.43a1.09,1.09,0,0,1,.68.16,1,1,0,0,1,.43.55.88.88,0,0,1,0,.71.93.93,0,0,1-.46.54,28.06,28.06,0,0,0-5.1,4.27,21.23,21.23,0,0,0-3.2,4.74,1.81,1.81,0,0,1-.23.41,1.53,1.53,0,0,1-.39.27,1.25,1.25,0,0,1-.46.09,1,1,0,0,1-.46-.12.94.94,0,0,1-.36-.29,1.13,1.13,0,0,1-.22-.42.94.94,0,0,1,0-.47,1,1,0,0,1,.19-.43,24.53,24.53,0,0,1,3.66-5.26,30.06,30.06,0,0,1,5.52-4.59A.86.86,0,0,1,506.28,84.65ZM535.59,90a1.07,1.07,0,0,1,.72.35,1.15,1.15,0,0,1,.29.77,39.73,39.73,0,0,1-2.74,13.05,1.77,1.77,0,0,1-.23.35,1,1,0,0,1-.36.24,1.12,1.12,0,0,1-.39.1,1.26,1.26,0,0,1-.43-.08,1.08,1.08,0,0,1-.59-.58.93.93,0,0,1,0-.83A36.3,36.3,0,0,0,534.44,91a1.33,1.33,0,0,1,.36-.74A1.1,1.1,0,0,1,535.59,90Zm33.13,0a1.19,1.19,0,0,1,.46,0l4.28,1.6c2.84,1,5.42,1.89,8,2.66a1.6,1.6,0,0,1,.4.19,1.58,1.58,0,0,1,.26.31,1.87,1.87,0,0,1,.13.4,2,2,0,0,1,0,.42,1.29,1.29,0,0,1-.53.64,1.13,1.13,0,0,1-.85.09c-2.58-.76-5.23-1.66-8.07-2.69-1.47-.51-2.87-1.06-4.31-1.63a1.23,1.23,0,0,1-.36-.23.71.71,0,0,1-.23-.34.82.82,0,0,1-.1-.4,1.41,1.41,0,0,1,.07-.41,1,1,0,0,1,.45-.39,1,1,0,0,1,.59-.09Zm62.45-.55a1,1,0,0,1,.65.16,1,1,0,0,1,.43.53,1.09,1.09,0,0,1,0,.69,1.29,1.29,0,0,1-.43.55A42.27,42.27,0,0,1,620,97.51a1.11,1.11,0,0,1-.82-.05,1.14,1.14,0,0,1-.52-.62,1,1,0,0,1,.06-.81,1,1,0,0,1,.62-.54,41.21,41.21,0,0,0,11.21-5.71,1.35,1.35,0,0,1,.59-.22Zm-37.38,7.7h.26a62.72,62.72,0,0,0,12.84.67,1.11,1.11,0,0,1,1,1,1.09,1.09,0,0,1-.23.72,1,1,0,0,1-.62.42,66.51,66.51,0,0,1-13.23-.71A1.06,1.06,0,0,1,592.9,98a1.1,1.1,0,0,1,.89-.77Zm-98.72,9.62a1,1,0,0,1,.42,0,1.26,1.26,0,0,1,.36.19,1,1,0,0,1,.23.31.79.79,0,0,1,.13.39,13.68,13.68,0,0,0,4.41,8.78,11.43,11.43,0,0,0,1.64,1.25,1.21,1.21,0,0,1,.36.28,1.06,1.06,0,0,1,.22.42.73.73,0,0,1,0,.46,1.12,1.12,0,0,1-.17.44,1.08,1.08,0,0,1-.32.32,1.05,1.05,0,0,1-.46.16,1.15,1.15,0,0,1-.46,0,1.18,1.18,0,0,1-.42-.24,14.32,14.32,0,0,1-1.87-1.44,16,16,0,0,1-5.09-10.14,1.11,1.11,0,0,1,.91-1.18Zm30.58,6.67a.86.86,0,0,1,.46.07.93.93,0,0,1,.39.28,1.08,1.08,0,0,1,.33.75,1.12,1.12,0,0,1-.33.76,27,27,0,0,1-12,6.22,1,1,0,0,1-.78-.17,1.07,1.07,0,0,1-.46-.67.94.94,0,0,1,0-.41.93.93,0,0,1,.42-.7.87.87,0,0,1,.4-.17,25,25,0,0,0,11-5.67,1,1,0,0,1,.58-.32Z" fill="#110580"/><path d="M449.55,15.26a1,1,0,0,1,.72.23,21.8,21.8,0,0,0,5.29,2.85,1.08,1.08,0,0,1,.56.59.91.91,0,0,1,0,.82,1,1,0,0,1-.56.58,1.06,1.06,0,0,1-.82,0A24.58,24.58,0,0,1,449,17.12a1,1,0,0,1-.39-.71,1.16,1.16,0,0,1,.19-.79,1.12,1.12,0,0,1,.79-.36Z" fill="#110580"/><path d="M165.29,170.62a1.32,1.32,0,0,1-.72-.63,1.37,1.37,0,0,1,1.27-2h6.77v-6.73a1.44,1.44,0,0,1,.49-.86A1.3,1.3,0,0,1,174,160a1.43,1.43,0,0,1,.92.34,1.5,1.5,0,0,1,.49.86v9.62h-9.67Z" fill="#110580"/><path d="M26.35,170.52a1.31,1.31,0,0,1-.59-.5,1.19,1.19,0,0,1-.23-.75,1.36,1.36,0,0,1,.39-1,1.39,1.39,0,0,1,1-.4H44.29a1.41,1.41,0,0,1,1,.4,1.41,1.41,0,0,1,0,1.95,1.41,1.41,0,0,1-1,.4H26.9A1,1,0,0,1,26.35,170.52Zm34.73,0a1.39,1.39,0,0,1-.59-.51,1.33,1.33,0,0,1-.22-.77,1.36,1.36,0,0,1,.39-1,1.4,1.4,0,0,1,1-.41H79a1.4,1.4,0,0,1,1,.41,1.41,1.41,0,0,1,0,1.95,1.44,1.44,0,0,1-1,.4H61.67a1.64,1.64,0,0,1-.62-.06Zm34.74,0a1.39,1.39,0,0,1-.33-2.36,1.36,1.36,0,0,1,.88-.3h17.35a1.43,1.43,0,0,1,.89.48,1.55,1.55,0,0,1,.32.92,1.6,1.6,0,0,1-.32.92,1.47,1.47,0,0,1-.89.47H96.41a1.47,1.47,0,0,1-.59-.06Zm34.73,0a1.14,1.14,0,0,1-.58-.5,1.19,1.19,0,0,1-.23-.75,1.5,1.5,0,0,1,.39-1,1.39,1.39,0,0,1,1-.4h17.35a1.34,1.34,0,0,1,1,.4,1.32,1.32,0,0,1,0,1.95,1.34,1.34,0,0,1-1,.4H131.11a1.16,1.16,0,0,1-.56-.06Z" fill="#110580"/><path d="M0,170.62V161a1.35,1.35,0,0,1,.42-1,1.33,1.33,0,0,1,1-.42,1.37,1.37,0,0,1,1,.43,1.41,1.41,0,0,1,.43,1v6.74H9.65a1.44,1.44,0,0,1,1.21,1.39,1.46,1.46,0,0,1-1.21,1.4Z" fill="#110580"/><path d="M.83,146.28a1.25,1.25,0,0,1-.59-.5A1.19,1.19,0,0,1,0,145V129a1.33,1.33,0,0,1,.39-1,1.4,1.4,0,0,1,1-.41,1.4,1.4,0,0,1,1,.41,1.33,1.33,0,0,1,.39,1v16a1.34,1.34,0,0,1-.39,1,1.45,1.45,0,0,1-1,.41A1.77,1.77,0,0,1,.83,146.28Zm0-32.06a1.22,1.22,0,0,1-.63-.55,1.28,1.28,0,0,1-.19-.83v-16A1.23,1.23,0,0,1,.47,96a1.44,1.44,0,0,1,1.86,0,1.31,1.31,0,0,1,.46.86v16a1.31,1.31,0,0,1-.4,1,1.4,1.4,0,0,1-1,.41,1,1,0,0,1-.55-.13Zm0-32.07a1.27,1.27,0,0,1-.59-.51A1.27,1.27,0,0,1,0,80.87v-16a1.37,1.37,0,0,1,.39-1,1.4,1.4,0,0,1,2,0,1.37,1.37,0,0,1,.39,1v16a1.37,1.37,0,0,1-.39,1,1.44,1.44,0,0,1-1,.4,2.28,2.28,0,0,1-.49-.32Z" fill="#110580"/><path d="M.89,49.73a1.39,1.39,0,0,1-.59-.51,1.34,1.34,0,0,1-.23-.77V38.83H9.65a1.44,1.44,0,0,1,1,.42,1.4,1.4,0,0,1,0,2,1.44,1.44,0,0,1-1,.42H2.85v6.73a1.43,1.43,0,0,1-.39,1,1.42,1.42,0,0,1-1,.41A1.58,1.58,0,0,1,.89,49.73Z" fill="#110580"/><path d="M26.44,41.69a1.27,1.27,0,0,1-.68-.63,1.34,1.34,0,0,1-.17-.93,1.43,1.43,0,0,1,.53-.81A1.28,1.28,0,0,1,27,39H44.35a1.37,1.37,0,0,1,.85.47,1.38,1.38,0,0,1,.36.92,1.44,1.44,0,0,1-1.21,1.39H27A1.61,1.61,0,0,1,26.44,41.69Zm34.64,0a1.45,1.45,0,0,1-.62-.5,1.31,1.31,0,0,1-.23-.76,1.42,1.42,0,0,1,1.41-1.37H79a1.34,1.34,0,0,1,1,.4,1.34,1.34,0,0,1,0,1.95,1.34,1.34,0,0,1-1,.4H61.64A1.07,1.07,0,0,1,61.08,41.69Zm34.74,0a1.39,1.39,0,0,1-.36-2.37,1.33,1.33,0,0,1,.88-.29h17.38a1.37,1.37,0,0,1,1,.4,1.34,1.34,0,0,1,0,2,1.37,1.37,0,0,1-1,.4H96.41a1.37,1.37,0,0,1-.49-.09Zm34.73,0a1.49,1.49,0,0,1-.62-.52,1.57,1.57,0,0,1-.23-.76,1.41,1.41,0,0,1,.43-1,1.34,1.34,0,0,1,1-.4h17.38a1.45,1.45,0,0,1,.85.47,1.35,1.35,0,0,1,.33.92,1.34,1.34,0,0,1-.33.92,1.45,1.45,0,0,1-.85.47H131.17a1.45,1.45,0,0,1-.52-.12Z" fill="#110580"/><path d="M173.56,49.83a1.45,1.45,0,0,1-.62-.5,1.5,1.5,0,0,1-.23-.75V41.69h-6.77a1.35,1.35,0,0,1-1-.41,1.34,1.34,0,0,1,0-2,1.34,1.34,0,0,1,1-.4h9.64v9.62a1.39,1.39,0,0,1-.42,1,1.35,1.35,0,0,1-1,.41A1.21,1.21,0,0,1,173.56,49.83Z" fill="#110580"/><path d="M173.56,146.38a1.38,1.38,0,0,1-.62-.5,1.5,1.5,0,0,1-.2-.75v-16a1.51,1.51,0,0,1,.39-1,1.39,1.39,0,0,1,1-.4,1.34,1.34,0,0,1,1,.4,1.41,1.41,0,0,1,.43,1v16a1.38,1.38,0,0,1-.43,1,1.35,1.35,0,0,1-1,.41A1.14,1.14,0,0,1,173.56,146.38Zm0-32.07a1.47,1.47,0,0,1-.62-.51,1.61,1.61,0,0,1-.23-.77V97a1.46,1.46,0,0,1,.39-1,1.4,1.4,0,0,1,1-.41,1.44,1.44,0,0,1,1,.41,1.53,1.53,0,0,1,.42,1v16a1.4,1.4,0,0,1-.42,1,1.34,1.34,0,0,1-1,.4,1.3,1.3,0,0,1-.52-.19Zm0-32.06a1.31,1.31,0,0,1-.62-.51,1.27,1.27,0,0,1-.23-.77v-16a1.5,1.5,0,0,1,.39-1,1.4,1.4,0,0,1,1-.41,1.35,1.35,0,0,1,1,.41,1.39,1.39,0,0,1,.42,1V81a1.4,1.4,0,0,1-.42,1,.89.89,0,0,1-1.5.08Z" fill="#110580"/><path d="M420.11,55.41H74.61a6.8,6.8,0,0,0-6.83,6.8v221.7a6.81,6.81,0,0,0,6.83,6.8h345.5a6.83,6.83,0,0,0,6.83-6.8V62.21A6.83,6.83,0,0,0,420.11,55.41Z" fill="#fff"/><path d="M238.91,123.9v121a6.41,6.41,0,1,0,12.81,0v-121a6.41,6.41,0,1,0-12.81,0Z" fill="#ff7a82"/><path d="M298.71,138.11v92.63a6.42,6.42,0,0,0,12.84,0V138.11a6.42,6.42,0,1,0-12.84,0Z" fill="#ff7a82"/><path d="M179.08,138.11v92.63a6.41,6.41,0,1,0,12.81,0V138.11a6.41,6.41,0,1,0-12.81,0Z" fill="#ff7a82"/><path d="M328.64,162.19v44.47a6.41,6.41,0,1,0,12.81,0V162.19a6.41,6.41,0,1,0-12.81,0Z" fill="#ff7a82"/><path d="M149.15,162.16v44.47a6.41,6.41,0,1,0,12.81,0V162.16a6.41,6.41,0,1,0-12.81,0Z" fill="#ff7a82"/><path d="M358.54,152.28v64.29a6.42,6.42,0,0,0,12.84,0V152.28a6.42,6.42,0,0,0-12.84,0Z" fill="#ff7a82"/><path d="M119.28,152.25v64.29a6.41,6.41,0,1,0,12.81,0V152.25a6.41,6.41,0,1,0-12.81,0Z" fill="#ff7a82"/><path d="M268.81,146.57v75.64a6.41,6.41,0,1,0,12.81,0V146.57a6.41,6.41,0,1,0-12.81,0Z" fill="#ff7a82"/><path d="M209,146.6v75.64a6.42,6.42,0,1,0,12.84,0V146.6a6.42,6.42,0,0,0-12.84,0Z" fill="#ff7a82"/><path d="M420.11,55.41H74.64a7,7,0,0,0-2.64.51,6.68,6.68,0,0,0-3.7,3.68,6.51,6.51,0,0,0-.52,2.61V81.45H427V62.21a7.27,7.27,0,0,0-.52-2.61,6.69,6.69,0,0,0-1.51-2.21,6.48,6.48,0,0,0-2.22-1.47A6.89,6.89,0,0,0,420.11,55.41Z" fill="#d6d7f0"/><path d="M87.75,73.11A4.75,4.75,0,1,0,83,68.36,4.74,4.74,0,0,0,87.75,73.11Z" fill="#ff7a82"/><path d="M105.46,73.11a4.75,4.75,0,1,0-4.77-4.75A4.75,4.75,0,0,0,105.46,73.11Z" fill="#fdb62f"/><path d="M123.1,73.11a4.75,4.75,0,1,0-4.74-4.75A4.75,4.75,0,0,0,123.1,73.11Z" fill="#64a7b0"/><path d="M473.11,213.3h0A33.75,33.75,0,0,0,439.29,247v32.77a33.75,33.75,0,0,0,33.79,33.7h0a33.71,33.71,0,0,0,33.75-33.7V247A33.71,33.71,0,0,0,473.11,213.3Z" fill="#aaace3"/><path d="M508.14,352a4.43,4.43,0,0,0,2.16-.56,4.48,4.48,0,0,0,1.6-1.55,4.43,4.43,0,0,0,.65-2.13,4.92,4.92,0,0,0-.49-2.17,43.36,43.36,0,0,0-78,0,4.22,4.22,0,0,0-.49,2.17,4.43,4.43,0,0,0,.65,2.13,4.22,4.22,0,0,0,1.64,1.55A4.47,4.47,0,0,0,438,352Z" fill="#868ae0"/><path d="M482.26,247.35a6.42,6.42,0,0,0,6.44,6.41h18.13V246.9a34.54,34.54,0,0,0-.52-6.09H488.7a6.54,6.54,0,0,0-4.61,1.92,6.65,6.65,0,0,0-1.37,2.13A6.43,6.43,0,0,0,482.26,247.35Z" fill="#868ae0"/><path d="M482.26,267.81a6.44,6.44,0,0,0,6.44,6.41h18.13V261.4H488.7a6.42,6.42,0,0,0-6.44,6.41Z" fill="#868ae0"/><path d="M482.26,288.24a6.4,6.4,0,0,0,1.89,4.53,6.48,6.48,0,0,0,4.55,1.88h14.67a33.36,33.36,0,0,0,3.4-12.83H488.7a6.48,6.48,0,0,0-4.55,1.88A6.39,6.39,0,0,0,482.26,288.24Z" fill="#868ae0"/><path d="M463.86,247.35a6.35,6.35,0,0,0-1.86-4.53,6.45,6.45,0,0,0-4.54-1.88H439.84a34.57,34.57,0,0,0-.55,6.09v6.73h18.17a6.37,6.37,0,0,0,6.4-6.41Z" fill="#868ae0"/><path d="M463.86,267.81a6.37,6.37,0,0,0-6.4-6.41H439.29v12.82h18.17a6.38,6.38,0,0,0,6.4-6.41Z" fill="#868ae0"/><path d="M463.86,288.24A6.36,6.36,0,0,0,462,283.7a6.45,6.45,0,0,0-4.54-1.88H439.35a33,33,0,0,0,3.21,12.83h14.73a6.67,6.67,0,0,0,2.52-.44,6.86,6.86,0,0,0,2.12-1.38,6.3,6.3,0,0,0,1.44-2.1A6.46,6.46,0,0,0,463.86,288.24Z" fill="#868ae0"/><path d="M473.08,333.74a55.5,55.5,0,0,1-55.52-55.38v-4.1a6.39,6.39,0,0,1,1.89-4.54,6.43,6.43,0,0,1,9.09,0,6.39,6.39,0,0,1,1.89,4.54v4.1a42.55,42.55,0,0,0,85.09,0v-4.1a6.43,6.43,0,0,1,11-4.54,6.37,6.37,0,0,1,1.87,4.54v4.1a55.52,55.52,0,0,1-55.29,55.38Z" fill="#aaace3"/><path d="M556.86,250.78h-13.4a70.39,70.39,0,0,0-140.77,0h-13.4a83.79,83.79,0,0,1,167.57,0Z" fill="#aaace3"/><path d="M398.8,235.68h-6.4a9.48,9.48,0,0,0-9.48,9.46v56.31a9.48,9.48,0,0,0,9.48,9.46h6.4a9.48,9.48,0,0,0,9.48-9.46V245.14A9.48,9.48,0,0,0,398.8,235.68Z" fill="#110580"/><path d="M553.72,235.68h-6.37a9.48,9.48,0,0,0-9.51,9.46v56.31a9.48,9.48,0,0,0,9.51,9.46h6.37a9.48,9.48,0,0,0,9.48-9.46V245.14A9.48,9.48,0,0,0,553.72,235.68Z" fill="#110580"/><path d="M563.2,243.7v59.06a32,32,0,0,0,0-58.94Z" fill="#2b31ba"/><path d="M382.92,243.7v59.06a32.06,32.06,0,0,1,0-58.94Z" fill="#2b31ba"/></g></g></g></svg>