<svg xmlns="http://www.w3.org/2000/svg" viewBox="0 0 198.75 198.79"><title>Edutarget Android logo</title><g id="Layer_2" data-name="Layer 2"><g id="Layer_1-2" data-name="Layer 1"><line x1="35.16" y1="72.12" x2="104.01" y2="3.32" fill="none" stroke="#6723ba" stroke-miterlimit="10" stroke-width="7"/><line x1="3.41" y1="72.12" x2="72.26" y2="3.32" fill="none" stroke="#6723ba" stroke-miterlimit="10" stroke-width="7"/><line x1="103.95" y1="3.5" x2="72.32" y2="3.5" fill="none" stroke="#6723ba" stroke-miterlimit="10" stroke-width="7"/><line x1="35.16" y1="72" x2="104.01" y2="140.81" fill="none" stroke="#6723ba" stroke-miterlimit="10" stroke-width="7"/><line x1="195.41" y1="94.79" x2="103.86" y2="3.29" fill="none" stroke="#6723ba" stroke-miterlimit="10" stroke-width="7"/><line x1="94.8" y1="195.24" x2="3.45" y2="103.96" fill="none" stroke="#6723ba" stroke-miterlimit="10" stroke-width="7"/><line x1="126.59" y1="195.29" x2="94.6" y2="195.29" fill="none" stroke="#6723ba" stroke-miterlimit="10" stroke-width="7"/><line x1="3.5" y1="103.88" x2="3.5" y2="72.28" fill="none" stroke="#6723ba" stroke-miterlimit="10" stroke-width="7"/><line x1="126.58" y1="195.24" x2="195.29" y2="126.58" fill="none" stroke="#6723ba" stroke-miterlimit="10" stroke-width="7"/><line x1="3.41" y1="72" x2="88.19" y2="156.73" fill="none" stroke="#6723ba" stroke-miterlimit="10" stroke-width="7"/><line x1="88.22" y1="156.7" x2="141.16" y2="103.79" fill="none" stroke="#6723ba" stroke-miterlimit="10" stroke-width="7"/><line x1="50.83" y1="87.78" x2="119.55" y2="19.1" fill="none" stroke="#6723ba" stroke-miterlimit="10" stroke-width="7"/><line x1="87.98" y1="50.65" x2="103.77" y2="34.87" fill="none" stroke="#6723ba" stroke-miterlimit="10" stroke-width="7"/><line x1="103.71" y1="34.93" x2="195.26" y2="126.43" fill="none" stroke="#6723ba" stroke-miterlimit="10" stroke-width="7"/><line x1="87.98" y1="50.65" x2="163.75" y2="126.37" fill="none" stroke="#6723ba" stroke-miterlimit="10" stroke-width="7"/><line x1="94.78" y1="195.29" x2="163.75" y2="126.37" fill="none" stroke="#6723ba" stroke-miterlimit="10" stroke-width="7"/><line x1="195.25" y1="126.62" x2="195.25" y2="94.58" fill="none" stroke="#6723ba" stroke-miterlimit="10" stroke-width="7"/></g></g></svg>