<svg xmlns="http://www.w3.org/2000/svg" viewBox="0 0 518.34 518.44"><title>Edutarget Logo</title><g id="Layer_2" data-name="Layer 2"><g id="Layer_1-2" data-name="Layer 1"><line x1="87.93" y1="186.5" x2="271.52" y2="3.02" fill="none" stroke="#6723ba" stroke-miterlimit="10" stroke-width="7"/><line x1="3.26" y1="186.5" x2="186.85" y2="3.02" fill="none" stroke="#6723ba" stroke-miterlimit="10" stroke-width="7"/><line x1="271.36" y1="3.5" x2="187.03" y2="3.5" fill="none" stroke="#6723ba" stroke-miterlimit="10" stroke-width="7"/><line x1="87.93" y1="186.17" x2="271.52" y2="369.65" fill="none" stroke="#6723ba" stroke-miterlimit="10" stroke-width="7"/><line x1="515.26" y1="246.93" x2="271.12" y2="2.94" fill="none" stroke="#6723ba" stroke-miterlimit="10" stroke-width="7"/><line x1="246.96" y1="514.82" x2="3.38" y2="271.4" fill="none" stroke="#6723ba" stroke-miterlimit="10" stroke-width="7"/><line x1="331.74" y1="514.94" x2="246.44" y2="514.94" fill="none" stroke="#6723ba" stroke-miterlimit="10" stroke-width="7"/><line x1="3.5" y1="271.19" x2="3.5" y2="186.91" fill="none" stroke="#6723ba" stroke-miterlimit="10" stroke-width="7"/><line x1="331.71" y1="514.82" x2="514.94" y2="331.71" fill="none" stroke="#6723ba" stroke-miterlimit="10" stroke-width="7"/><line x1="3.26" y1="186.17" x2="229.35" y2="412.12" fill="none" stroke="#6723ba" stroke-miterlimit="10" stroke-width="7"/><line x1="229.43" y1="412.04" x2="370.6" y2="270.95" fill="none" stroke="#6723ba" stroke-miterlimit="10" stroke-width="7"/><line x1="129.7" y1="228.24" x2="312.97" y2="45.09" fill="none" stroke="#6723ba" stroke-miterlimit="10" stroke-width="7"/><line x1="228.78" y1="129.22" x2="270.88" y2="87.15" fill="none" stroke="#6723ba" stroke-miterlimit="10" stroke-width="7"/><line x1="270.71" y1="87.32" x2="514.86" y2="331.3" fill="none" stroke="#6723ba" stroke-miterlimit="10" stroke-width="7"/><line x1="228.78" y1="129.22" x2="430.83" y2="331.14" fill="none" stroke="#6723ba" stroke-miterlimit="10" stroke-width="7"/><line x1="246.92" y1="514.94" x2="430.83" y2="331.14" fill="none" stroke="#6723ba" stroke-miterlimit="10" stroke-width="7"/><line x1="514.84" y1="331.82" x2="514.84" y2="246.38" fill="none" stroke="#6723ba" stroke-miterlimit="10" stroke-width="7"/></g></g></svg>