<svg xmlns="http://www.w3.org/2000/svg" viewBox="0 0 680.56 837.05"><title>Edutarget main Logo</title><g id="Layer_2" data-name="Layer 2"><g id="Layer_1-2" data-name="Layer 1"><line x1="114.72" y1="244.55" x2="356.55" y2="2.87" fill="none" stroke="#fff" stroke-miterlimit="10" stroke-width="7"/><line x1="3.18" y1="244.55" x2="245.02" y2="2.87" fill="none" stroke="#fff" stroke-miterlimit="10" stroke-width="7"/><line x1="356.34" y1="3.5" x2="245.25" y2="3.5" fill="none" stroke="#fff" stroke-miterlimit="10" stroke-width="7"/><line x1="114.72" y1="244.12" x2="356.55" y2="485.81" fill="none" stroke="#fff" stroke-miterlimit="10" stroke-width="7"/><line x1="677.61" y1="324.15" x2="356.02" y2="2.76" fill="none" stroke="#fff" stroke-miterlimit="10" stroke-width="7"/><line x1="324.19" y1="677.03" x2="3.34" y2="356.38" fill="none" stroke="#fff" stroke-miterlimit="10" stroke-width="7"/><line x1="435.87" y1="677.19" x2="323.52" y2="677.19" fill="none" stroke="#fff" stroke-miterlimit="10" stroke-width="7"/><line x1="3.5" y1="356.12" x2="3.5" y2="245.1" fill="none" stroke="#fff" stroke-miterlimit="10" stroke-width="7"/><line x1="435.83" y1="677.03" x2="677.19" y2="435.83" fill="none" stroke="#fff" stroke-miterlimit="10" stroke-width="7"/><line x1="3.18" y1="244.12" x2="301" y2="541.75" fill="none" stroke="#fff" stroke-miterlimit="10" stroke-width="7"/><line x1="301.11" y1="541.64" x2="487.07" y2="355.8" fill="none" stroke="#fff" stroke-miterlimit="10" stroke-width="7"/><line x1="169.74" y1="299.54" x2="411.15" y2="58.28" fill="none" stroke="#fff" stroke-miterlimit="10" stroke-width="7"/><line x1="300.25" y1="169.11" x2="355.7" y2="113.69" fill="none" stroke="#fff" stroke-miterlimit="10" stroke-width="7"/><line x1="355.49" y1="113.91" x2="677.08" y2="435.3" fill="none" stroke="#fff" stroke-miterlimit="10" stroke-width="7"/><line x1="300.25" y1="169.11" x2="566.4" y2="435.08" fill="none" stroke="#fff" stroke-miterlimit="10" stroke-width="7"/><line x1="324.14" y1="677.19" x2="566.4" y2="435.08" fill="none" stroke="#fff" stroke-miterlimit="10" stroke-width="7"/><line x1="677.06" y1="435.97" x2="677.06" y2="323.43" fill="none" stroke="#fff" stroke-miterlimit="10" stroke-width="7"/><text transform="translate(75.53 805.43)" font-size="126.46" fill="#fff" font-family="MyriadPro-Regular, Myriad Pro"><tspan letter-spacing="0em">E</tspan><tspan x="61.71" y="0" letter-spacing="0em">duta</tspan><tspan x="305.51" y="0" letter-spacing="-0.01em">r</tspan><tspan x="345.85" y="0">get</tspan></text></g></g></svg>