<svg xmlns="http://www.w3.org/2000/svg" viewBox="0 0 502.35 738.72"><title>Juggling</title><g id="Layer_2" data-name="Layer 2"><g id="illustrations"><g id="girl-with-objects-around-her-by-oblik-studio"><path d="M450.54,314.73l-22-.07c-7.47-.07-13.6-4.65-13.67-10.15v-1.9c-.07-5.5,5.92-9.94,13.32-9.87l22,.07c7.48.07,13.61,4.65,13.68,10.15v1.9C463.93,310.36,457.94,314.8,450.54,314.73Z" fill="#fcb58a"/><path d="M69.11,313.46l-22-.07c-7.48-.07-13.61-4.65-13.68-10.15v-1.9c-.07-5.5,5.92-9.94,13.32-9.87l22,.07c7.47.07,13.6,4.65,13.67,10.15v1.9C82.5,309.09,76.51,313.53,69.11,313.46Z" fill="#fcb58a"/><path d="M188.31,640.05c-.85,11.21-1.69,22.41-2.61,33.62-.56,7.47,8.18,13.46,15.44,13.11,8.74-.42,13.46-7.12,14-14.66q1.26-16.82,2.6-33.63c.57-7.47-8.17-13.46-15.43-13.11C193.6,625.81,189,632.5,188.31,640.05Z" fill="#fcb58a"/><path d="M295.67,643.57c1.76,11.07,3.52,22.21,5.28,33.27,1.2,7.4,11.07,11.21,18.05,9.17,8.39-2.47,11.42-10,10.22-17.49-1.76-11.06-3.52-22.2-5.29-33.27-1.19-7.4-11.06-11.21-18-9.16C297.5,628.56,294.47,636.1,295.67,643.57Z" fill="#fcb58a"/><path d="M69.68,626.86c-27.28,0-49.49-2.53-50.26-5.64l4,47.59c0,22.55,20.8,41,46.25,41s46.24-18.47,46.24-41l4-47.66C119.37,624.33,97.1,626.86,69.68,626.86Z" fill="#dec7b2"/><path d="M69.68,626.86c-27.71,0-50.2-2.61-50.26-5.78V621c.21-3.17,22.62-5.78,50.26-5.78s50.05,2.61,50.26,5.78v.07C119.79,624.25,97.38,626.86,69.68,626.86Z" fill="#e8d4c1"/><path d="M69.68,625.88c-23.34,0-42.3-2.19-42.37-4.94v-.07c.21-2.68,19.1-4.86,42.37-4.86s42.22,2.18,42.36,4.86v.07C112,623.69,93,625.88,69.68,625.88Z" fill="#ba9c7e"/><path d="M21.11,641.6a13.34,13.34,0,0,1,9.16,4c5.15,5,8.39,12.69,12.55,18.54A99,99,0,0,0,47,654.43c1.48-3.95,6.77-7.62,10.92-4.45a42.76,42.76,0,0,1,10.65,12.13c2.47,4.16,4.51,9.09,8.39,12.19s8,3.88,9.51-1.48c1.34-4.72.85-9.72,2.4-14.45,1.27-3.94,3.24-8,7.26-9.73,4.73-2,9.31.5,13.54,2.61,2.53,1.27,5,2.61,7.4,4.09l-.85,10c-4.3-2.68-9.58-6-14-6.62-2.82-.43-2.6,1.48-2.82,4.08-.14,2.33-.14,4.73-.28,7.05-.28,4.8-1,9.59-3.8,13.54-6.07,8.53-17.42,8.1-25.38,2.68A35.49,35.49,0,0,1,59.74,675c-.92-1.41-1.76-2.89-2.68-4.37-3.45,8-8.67,15.15-17.34,12.12-5.36-1.9-8.88-7.75-12.06-12.12-1-1.34-2.82-4.65-4.65-7.61Z" fill="#ebdbcd"/><path d="M1.44,464.24c1.06-4.09,5.85-4.72,8.67-2.32,5.36,4.51,8.17,10.71,11.14,16.84a93,93,0,0,0,11.34,18c9,11.49,19,22.13,25.59,35.31C70.94,557.57,74,587.6,65.23,614.88c-.28.85,1.41-3.45-1.34,4.09-2.46,6.84-12.19,3.17-12.12-4.79a47.73,47.73,0,0,0-5.43-22c-6.84-13.74-15.44-26.57-22.13-40.39A341,341,0,0,1,6.72,508.72C2.07,494.41-2.37,479.26,1.44,464.24Z" fill="#4c7378"/><path d="M64.18,384.23c3.45-6.27,13.53-2,11.56,4.87-5.93,20.16-1.69,41.52,2,61.68,3.74,20.58,8.11,41,10.64,61.82,4.52,36.87,3,78.31-20.3,109.19-2.53,3.31-7.82.56-5.71-3.39,2.33-4.36-3.52-33.13-6.13-42.29-2.61-9.52-5.29-19-7.61-28.55-4.66-18.68-8.46-37.71-9.45-57C37,453.17,46.27,416.94,64.18,384.23Z" fill="#57848a"/><path d="M75.31,589.29c2.75-12.55.71-25.87,3.39-38.35,2.6-12.26,6.2-24.67,11.91-35.88,5.43-10.64,13.74-18.18,23.47-24.81,9.17-6.2,20-12.33,23.26-23.68,1.91-6.77,13.4-5.78,12.69,1.69-1.55,15.22-8,28.62-15.44,41.8-8,14-14.94,27.35-18.82,43.07C109.08,580.06,103.3,615,72.63,623.2,68.9,624.19,69.39,616.15,75.31,589.29Z" fill="#689399"/><path d="M68.76,316.49c22.34,11.42,45,18,70.28,17.48,23.68-.49,46.73-6.84,60.05-28.05,8.81-14.1-13.46-27.07-22.27-13-9,14.38-27,15.43-42.37,15.29-19-.14-35.88-5.35-52.65-14C67.06,286.67,54,309,68.76,316.49Z" fill="#fcb58a"/><path d="M412.68,294.22c-16.84,8.6-33.62,13.81-52.65,13.95-16.22.14-30.88-1.69-40-16.49-8.74-14.1-31-1.13-22.28,13,5.71,9.23,13.47,17.34,23.19,22.2,10.93,5.5,22.42,6.77,34.47,7.05,25.31.5,47.94-6.06,70.28-17.48C440.46,309,427.42,286.67,412.68,294.22Z" fill="#fcb58a"/><path d="M490.79,399.18l-8.81,48-38.56-31.86Z" fill="#d4bfa9"/><path d="M143.12,52.92a25.87,25.87,0,1,0-25.87-25.87A25.87,25.87,0,0,0,143.12,52.92Z" fill="#ebdbcd"/><path d="M167.73,79a.7.7,0,0,1-.57-.36.59.59,0,0,1,.28-.77l2.68-1.2L168.92,74a.58.58,0,0,1,1.06-.49l1.62,3.8-3.8,1.63C167.87,79,167.8,79,167.73,79Z" fill="#110580"/><path d="M112.74,103a.71.71,0,0,1-.56-.35.59.59,0,0,1,.28-.77l6.91-3a.58.58,0,0,1,.49,1.06L113,103A.26.26,0,0,1,112.74,103Zm13.75-6a.72.72,0,0,1-.57-.35.6.6,0,0,1,.28-.78l6.91-3a.59.59,0,0,1,.5,1.06l-6.91,3A.26.26,0,0,1,126.49,97.05Zm13.74-6a.71.71,0,0,1-.56-.35.6.6,0,0,1,.28-.78l6.91-3a.59.59,0,0,1,.77.28.6.6,0,0,1-.28.78l-6.91,3A.26.26,0,0,1,140.23,91.06ZM154,85a.73.73,0,0,1-.57-.35.59.59,0,0,1,.29-.78l6.9-3a.59.59,0,0,1,.5,1.06l-6.91,3A.26.26,0,0,1,154,85Z" fill="#110580"/><path d="M102.31,107.7l-1.62-3.81a.59.59,0,0,1,.28-.77.58.58,0,0,1,.77.28l1.2,2.68,2.68-1.2a.58.58,0,0,1,.49,1.06Z" fill="#110580"/><path d="M98.43,97.9a.71.71,0,0,1-.56-.35l-2.82-6.42a.58.58,0,1,1,1.06-.49l2.82,6.41a.6.6,0,0,1-.29.78C98.57,97.83,98.5,97.9,98.43,97.9ZM92.79,85.07a.71.71,0,0,1-.56-.35L89.41,78.3a.58.58,0,0,1,1.06-.49l2.82,6.41A.6.6,0,0,1,93,85C93,85.07,92.86,85.07,92.79,85.07ZM87.22,72.31a.71.71,0,0,1-.56-.35l-2.82-6.42a.59.59,0,0,1,.28-.77.6.6,0,0,1,.78.28l2.82,6.41a.6.6,0,0,1-.28.78A.28.28,0,0,1,87.22,72.31Z" fill="#110580"/><path d="M81.66,59.55a.72.72,0,0,1-.57-.35l-1.62-3.81,3.81-1.62a.59.59,0,0,1,.77.28.6.6,0,0,1-.28.78L81.09,56l1.2,2.68a.6.6,0,0,1-.28.78A1,1,0,0,1,81.66,59.55Z" fill="#110580"/><path d="M90.32,51.94a.7.7,0,0,1-.56-.36.59.59,0,0,1,.28-.77l6.91-3a.59.59,0,0,1,.77.28.58.58,0,0,1-.28.77l-6.91,3A.71.71,0,0,1,90.32,51.94Zm13.75-6.07a.75.75,0,0,1-.57-.35.58.58,0,0,1,.29-.77l6.91-3a.58.58,0,0,1,.77.28.59.59,0,0,1-.28.77l-6.91,3C104.28,45.87,104.14,45.87,104.07,45.87Zm13.74-6a.71.71,0,0,1-.56-.35.6.6,0,0,1,.28-.78l6.91-3a.6.6,0,0,1,.78.28.59.59,0,0,1-.29.78l-6.91,3C118,39.88,118,39.88,117.81,39.88Zm13.82-6a.71.71,0,0,1-.56-.35.6.6,0,0,1,.28-.78l6.91-3A.59.59,0,0,1,139,30a.6.6,0,0,1-.28.78l-6.91,3C131.77,33.82,131.7,33.89,131.63,33.89Z" fill="#110580"/><path d="M150,29.66a.71.71,0,0,1-.56-.35l-1.2-2.68-2.68,1.2a.59.59,0,1,1-.5-1.06l3.81-1.62L150.52,29a.59.59,0,0,1-.28.77A.26.26,0,0,0,150,29.66Z" fill="#110580"/><path d="M166.74,68a.73.73,0,0,1-.57-.35l-2.82-6.42a.58.58,0,0,1,1.06-.49l2.82,6.41a.6.6,0,0,1-.28.78A.71.71,0,0,1,166.74,68Zm-5.57-12.83a.75.75,0,0,1-.57-.35l-2.81-6.42a.58.58,0,0,1,.28-.77.59.59,0,0,1,.77.28l2.82,6.41a.6.6,0,0,1-.28.78A.26.26,0,0,1,161.17,55.18ZM155.6,42.42a.75.75,0,0,1-.57-.35l-2.81-6.42a.58.58,0,0,1,.28-.77.59.59,0,0,1,.77.28l2.82,6.41a.6.6,0,0,1-.28.78A.26.26,0,0,1,155.6,42.42Z" fill="#110580"/><path d="M454.77,461.63l-3.17-1.2c-.29-.07-.36-.35-.29-.63a.43.43,0,0,1,.64-.28l2.25.84.85-2.25c.07-.28.35-.35.63-.28s.36.35.29.63Z" fill="#110580"/><path d="M446.73,458.6h-.14l-4.93-1.83c-.29-.07-.35-.35-.29-.64a.44.44,0,0,1,.64-.28l4.93,1.83c.29.08.36.36.29.64A.48.48,0,0,1,446.73,458.6Zm-9.87-3.66h-.14l-4.93-1.84c-.28-.07-.35-.35-.28-.63s.35-.36.63-.28l4.93,1.83c.29.07.36.35.29.63A.74.74,0,0,1,436.86,454.94Zm-9.94-3.67h-.14l-4.93-1.83c-.28-.07-.35-.36-.28-.64a.43.43,0,0,1,.63-.28l4.94,1.83c.28.07.35.36.28.64A.59.59,0,0,1,426.92,451.27ZM417,447.53h-.14l-4.93-1.83c-.28-.07-.35-.35-.28-.63a.42.42,0,0,1,.63-.28l4.94,1.83c.28.07.35.35.28.63A.59.59,0,0,1,417,447.53Z" fill="#110580"/><path d="M407.12,443.87H407l-3.18-1.2,1.2-3.17a.42.42,0,0,1,.63-.28c.29.06.36.35.29.63l-.85,2.26,2.26.84c.28.07.35.35.28.64A.71.71,0,0,1,407.12,443.87Z" fill="#110580"/><path d="M407.26,435.13h-.15c-.28-.07-.35-.36-.28-.64l1.84-4.93a.42.42,0,0,1,.63-.28c.28.07.35.35.28.63l-1.83,4.93A.91.91,0,0,1,407.26,435.13Zm3.66-9.87h-.14c-.28-.07-.35-.35-.28-.64l1.83-4.93a.43.43,0,0,1,.64-.28c.28.07.35.35.28.63L411.42,425A.62.62,0,0,1,410.92,425.26Zm3.67-9.94h-.14c-.29-.07-.36-.35-.29-.64l1.84-4.93a.43.43,0,0,1,.63-.28c.28.07.35.35.28.63L415.08,415A.59.59,0,0,1,414.59,415.32Zm3.73-9.94h-.14c-.28-.07-.35-.35-.28-.64l1.83-4.93a.43.43,0,0,1,.64-.28c.28.07.35.35.28.63l-1.83,4.94A.54.54,0,0,1,418.32,405.38Z" fill="#110580"/><path d="M422,395.51h-.14c-.28-.07-.35-.35-.28-.63l1.19-3.18,3.18,1.2c.28.07.35.36.28.64s-.35.35-.64.28l-2.25-.85-.85,2.26A.59.59,0,0,1,422,395.51Z" fill="#110580"/><path d="M465.41,408.55h-.14l-4.93-1.83c-.29-.07-.36-.35-.29-.63a.44.44,0,0,1,.64-.29l4.93,1.84c.29.07.36.35.29.63A.62.62,0,0,1,465.41,408.55Zm-9.94-3.66h-.14l-4.93-1.84c-.28-.07-.35-.35-.28-.63s.35-.35.63-.28l4.93,1.83c.29.07.36.35.29.64A.61.61,0,0,1,455.47,404.89Zm-9.87-3.74h-.14l-4.93-1.83c-.28-.07-.35-.35-.28-.64a.43.43,0,0,1,.63-.28l4.94,1.83c.28.08.35.36.28.64A.71.71,0,0,1,445.6,401.15Zm-9.93-3.67h-.14l-4.94-1.83c-.28-.07-.35-.35-.28-.63a.42.42,0,0,1,.63-.28l4.94,1.83c.28.07.35.35.28.63A.59.59,0,0,1,435.67,397.48Z" fill="#110580"/><path d="M472.11,414.12H472c-.28-.07-.36-.35-.28-.63l.84-2.26-2.25-.85c-.29-.07-.36-.35-.29-.63a.43.43,0,0,1,.64-.28l3.17,1.2-1.2,3.17A.53.53,0,0,1,472.11,414.12Z" fill="#110580"/><path d="M457.3,453.81h-.14c-.28-.07-.35-.35-.28-.64l1.83-4.93a.43.43,0,0,1,.64-.28c.28.07.35.35.28.63l-1.83,4.94A.62.62,0,0,1,457.3,453.81Zm3.67-9.94h-.14c-.28-.07-.36-.35-.28-.64l1.83-4.93A.43.43,0,0,1,463,438c.28.07.35.35.28.63l-1.83,4.94A.47.47,0,0,1,461,443.87ZM464.7,434h-.14c-.28-.07-.35-.35-.28-.64l1.83-4.93a.43.43,0,0,1,.64-.28c.28.07.35.35.28.63l-1.83,4.94A.71.71,0,0,1,464.7,434Zm3.67-9.94h-.14c-.28-.07-.35-.35-.28-.63l1.83-4.94a.43.43,0,0,1,.63-.28c.29.07.36.35.29.63l-1.84,4.94A.59.59,0,0,1,468.37,424.06Z" fill="#110580"/><path d="M320,226.33s-12.48-39.68-16.64-56.46c-6.49-25.87-24.11-41.45-49-41.45-25.24,0-43,15.86-50,41.59-7.12,26.5-16.49,54.21-16.49,54.21a7,7,0,0,0,4,8.67c8,3.17,24.82,8.81,62.39,8.39,33.55-.43,50.89-5.15,59.64-6.07A7.07,7.07,0,0,0,320,226.33Z" fill="#110580"/><path d="M268.67,213.78H240v48.85a7.4,7.4,0,0,0,7.4,7.41h13.89a7.4,7.4,0,0,0,7.4-7.41Z" fill="#fcb58a"/><path d="M253.94,124.62A17.91,17.91,0,1,0,236,106.71,17.9,17.9,0,0,0,253.94,124.62Z" fill="#110580"/><path d="M211.78,219.57c-4.65,0-4.79-15.65-4.79-17.42s.14-17.41,4.79-17.41,4.8,15.65,4.8,17.41S216.36,219.57,211.78,219.57Zm0-32.15c-.84,1.13-2.18,6.14-2.18,14.66s1.34,13.54,2.18,14.67c.85-1.13,2.19-6.14,2.19-14.67S212.63,188.62,211.78,187.42Z" fill="#fff"/><path d="M296,219.57c-4.65,0-4.79-15.65-4.79-17.42s.14-17.41,4.79-17.41,4.79,15.65,4.79,17.41S300.6,219.57,296,219.57Zm0-32.15c-.85,1.13-2.18,6.14-2.18,14.66s1.33,13.54,2.18,14.67c.85-1.13,2.19-6.14,2.19-14.67S296.87,188.62,296,187.42Z" fill="#fff"/><path d="M254.36,224.43A47.44,47.44,0,1,0,206.92,177,47.44,47.44,0,0,0,254.36,224.43Z" fill="#fcb58a"/><path d="M205.93,180.44c.07.78.14,1.55.21,2.26V183c.07.85.22,1.62.36,2.47v.07c.14.84.35,1.69.49,2.61a29.79,29.79,0,0,1,29-22.77,31.22,31.22,0,0,1,5.15.42,17.81,17.81,0,0,0,3.88.42,17.16,17.16,0,0,0,17.05-15.29s.08,0,.08-.07a16.91,16.91,0,0,0-.22,2.75,18.26,18.26,0,0,0,18.26,18.25h.07A27.27,27.27,0,0,1,301,190.66a50.9,50.9,0,0,0,1.42-6.48v-.28c.14-.92.21-1.84.28-2.82,0-.21.07-.5.07-.71.07-1.05.14-2.11.14-3.17s0-1.76-.07-2.61c0-.28-.07-.49-.07-.77-.07-.64-.07-1.27-.14-1.84a3.51,3.51,0,0,0-.14-.84c-.07-.57-.14-1.2-.22-1.76-.07-.29-.07-.57-.14-.85-.14-.56-.21-1.2-.35-1.76a3.05,3.05,0,0,1-.14-.78,17.7,17.7,0,0,0-.49-1.83c-.07-.21-.15-.42-.21-.64-.22-.63-.43-1.26-.64-1.9a1.3,1.3,0,0,1-.14-.49,16.11,16.11,0,0,0-.78-2c-.07-.07-.07-.21-.14-.28-.28-.77-.63-1.55-1-2.32a48.54,48.54,0,0,0-19.46-21.29,46.26,46.26,0,0,0-8.46-3.88c-.07,0-.21-.07-.28-.07-.85-.28-1.69-.56-2.61-.78-.14-.07-.28-.07-.42-.14a56.65,56.65,0,0,0-5.85-1.2,3,3,0,0,0-.78-.07l-2.25-.21c-.28,0-.57-.07-.85-.07-1-.07-2-.07-3-.07a48.49,48.49,0,0,0-48.5,48.5c0,.92,0,1.76.07,2.68A1.06,1.06,0,0,1,205.93,180.44Z" fill="#110580"/><path d="M300.6,255.87c-12.05-7.19-25.87-9.66-31.93-10.57-1.9,7.89-5.92,12.26-14.8,12.26-9,0-12.13-4.51-13.82-12.62a85.49,85.49,0,0,0-8.67,1.48c-16.35,3.18-23,7.4-31.23,13.54-12.62,9.44-25,29-27.63,33.48a1.73,1.73,0,0,0,0,1.83c1.48,2.26,5.57,8.11,11.42,11.92a78.49,78.49,0,0,0,17.9,8.38s3.95-7.18,5.08-9.93c1.55-3.6,5.64-15.72,5.64-15.72a49,49,0,0,0-4,16.49c-.21,7.68,2.4,16.35,2.19,21.43-.57,11.63-4,21.64-5.22,26.15a1.92,1.92,0,0,0,1.48,2.4c6.27,1.41,25,5.64,44.06,5.57a300.5,300.5,0,0,0,47.72-3.6,1.93,1.93,0,0,0,1.55-2.39c-1-4-2.68-10.72-4.37-25.8-1.34-11.85.07-14.1,0-22.42,0-6.13-2.54-18.4-2.54-18.4l2.4,23.41s8.67.42,21.08-5c4.3-1.9,9.72-6.77,12-8.95a2.07,2.07,0,0,0,.42-2.4C326.19,289.92,312.44,262.92,300.6,255.87Z" fill="#fff"/><path d="M254.36,224.43a48.17,48.17,0,0,1-14.31-2.18v8.88c4.51,1.41,9.45,1.48,14.52,1,6.7-.63,9.59-1.9,14.1-3.87v-6A48.12,48.12,0,0,1,254.36,224.43Z" fill="#e3996d"/><path d="M213.62,357.94s23.4,3.95,39.75,3.95c17.34,0,38.77-2.47,38.77-2.47s1.91,12.34,2.68,15-14.17,8-40.81,7.48c-34.9-.64-43.22-5.64-43.22-7.05C210.73,373.87,213.62,357.94,213.62,357.94Z" fill="#fcb58a"/><path d="M303.35,382.54c21.64,43,31.79,70,37.57,127.66,4.87,48.5-1.27,113.28-2.25,150.29a5.9,5.9,0,0,1-.92,3.24c-1.76,2.82-13,5.15-16.14,5.36-15.65,1.06-30.17-1.2-31.58-6.7a923.36,923.36,0,0,1-18.75-100.94c-3.67-28.2-8-59.64-10.5-82.83a1.64,1.64,0,0,0-3.25,0c-.42,3.88-.91,25.52-1.48,31.93-1.55,18.19-4.58,36.09-7.54,54.14-4.65,28.62-15.72,69-24.11,96.22-.56,1.83-2.47,4.37-4.58,4.72a104.07,104.07,0,0,1-17.41,1c-7-.56-21.64-2.61-22.42-6.06-10.57-44.06-10.92-129,4.37-217.33,3.67-21,12.13-44.48,19.88-58.57,0,0,25,4.93,48,4.86A207.36,207.36,0,0,0,303.35,382.54Z" fill="#ffadb2"/><path d="M110.56,121.37l-31.09-10a3.68,3.68,0,0,1-2.33-4.51l6.56-20.3a3.68,3.68,0,0,1,4.51-2.33l31.09,10a3.67,3.67,0,0,1,2.32,4.51l-6.55,20.31A3.58,3.58,0,0,1,110.56,121.37Z" fill="#aaace3"/><path d="M125,104.38a2.88,2.88,0,0,0-2.75,2.05l-1.13,3.38L120,113.19a2.89,2.89,0,0,0,1.06,3.25l8.39,6.34A2.9,2.9,0,0,0,134,121.3l2.19-6.7,2.18-6.69a3,3,0,0,0-2.89-3.88Z" fill="#aaace3"/><path d="M210.73,374.93a7.44,7.44,0,0,0-4.37,3.45,18.76,18.76,0,0,0-2.05,6.21s18.12,5.35,52.38,6.27c33.2.84,46.66-8.32,46.66-8.32s-1.2-3.74-4-5.36-4.65-2.75-4.65-2.75-10.36,9.24-42,7S210.73,374.93,210.73,374.93Z" fill="#ffadb2"/><path d="M66.55,171.1l-10.83.79,4.79,65.59,10.83-.79Z" fill="#dadaed"/><path d="M60,180.44l-3.72.27,0,.77,3.73-.27Z" fill="#989bd7"/><path d="M60.61,187.77l-3.73.27.06.77,3.72-.27Z" fill="#989bd7"/><path d="M61.17,195.1l-3.72.27,0,.77,3.73-.27Z" fill="#989bd7"/><path d="M61.66,202.43l-3.72.27.05.77,3.73-.27Z" fill="#989bd7"/><path d="M62.23,209.83l-3.73.27.06.78,3.72-.28Z" fill="#989bd7"/><path d="M62.72,217.16l-3.72.27,0,.78,3.73-.27Z" fill="#989bd7"/><path d="M63.29,224.49l-3.73.27.06.78,3.72-.28Z" fill="#989bd7"/><path d="M55.49,193.7l-6.87,1.2,9.06,51.8,6.88-1.21Z" fill="#ffadb2"/><path d="M55.5,193.7l-6.91,1.19L49.72,185l1.41-.29Z" fill="#ebdbcd"/><path d="M50.14,189.54l1-.64.77.07,1.06-.49-1.83-3.74-1.41.29-.5,3.94Z" fill="#ff7a82"/><path d="M71.5,235.85a2.28,2.28,0,0,1-1.83-2.54L75,198.7l.21-.84,3.1-8.75a2.32,2.32,0,0,1,2.54-1.4l.49.06A2.35,2.35,0,0,1,83.21,190l-.71,9.24a4.82,4.82,0,0,1-.14.91l-8.25,34A2.18,2.18,0,0,1,71.5,235.85Z" fill="#2b31ba"/><path d="M112,259.54H67.13v15H112Z" fill="#f8d7bc"/><path d="M113.94,258.48v1.12H67.07v15h46.87v1.13H17.58V258.48Z" fill="#ff7a82"/><path d="M53,301.48h66.33V277.23H53a5.91,5.91,0,0,0-5.92,5.92v12.34A5.88,5.88,0,0,0,53,301.48Z" fill="#f8ece2"/><path d="M13.77,275.75H122.33a.78.78,0,1,1,0,1.55H59.24a12.13,12.13,0,1,0,0,24.25h63.09a.78.78,0,1,1,0,1.55H13.77A12.12,12.12,0,0,1,1.65,291v-3A12.14,12.14,0,0,1,13.77,275.75Z" fill="#2b31ba"/><path d="M119.37,281.18H56.42V282h63Z" fill="#ebd0be"/><path d="M119.37,291.11H51.91V292h67.46Z" fill="#ebd0be"/><path d="M119.37,296.33H60.16v.85h59.21Z" fill="#ebd0be"/><path d="M119.44,286.46H54v.85h65.48Z" fill="#ebd0be"/><path d="M67.91,257.84H26.6v-8.67H67.91A2.08,2.08,0,0,1,70,251.29v4.37A2.13,2.13,0,0,1,67.91,257.84Z" fill="#f8e7d8"/><path d="M93.57,248.54H24.84a.28.28,0,1,0,0,.56H65.58a4.3,4.3,0,0,1,0,8.6H24.84a.3.3,0,0,0-.28.28.31.31,0,0,0,.28.29H93.57a4.33,4.33,0,0,0,4.3-4.3V252.7A4.2,4.2,0,0,0,93.57,248.54Z" fill="#ff5856"/><path d="M50.71,212.23H80.88a1.28,1.28,0,0,1,1.27,1.48l-4.37,34.83H53.6l-4.23-34.83A1.38,1.38,0,0,1,50.71,212.23Z" fill="#aaace3"/><path d="M81.44,187.56l-.49-.07a2.29,2.29,0,0,0-2.61,1.41l-3.17,8.88a.68.68,0,0,0-.07.36,7.37,7.37,0,0,0,3.74,1.69,7.88,7.88,0,0,0,3.66-.21c0-.14.07-.22.07-.36l.71-9.37A2.28,2.28,0,0,0,81.44,187.56Z" fill="#d7d7e6"/><path d="M81.59,174.17a.8.8,0,0,1,1.41,0c.49,1,1.12,2.19,1.62,3a11.65,11.65,0,0,1,.84,6.56,16.53,16.53,0,0,1-2.32,4.65.7.7,0,0,1-.35.28,4.49,4.49,0,0,1-2.26.07c-1.48-.35-1.62-1.34-1.62-1.34a21.13,21.13,0,0,1-.71-5.21,10.49,10.49,0,0,1,1.7-4.94C80.11,176.92,81,175.37,81.59,174.17Z" fill="#c7645d"/><path d="M198.39,678.25a39.23,39.23,0,0,0,16.28-3s4,8.53,4.8,13,3.1,19.46-.35,22.28c-3.74,3.1-3,2.25-7.83,4.3-6.7,2.82-9.59,1.48-18.68,6.13-3.38,1.76-18.05,15.37-32.85,16.64-12.48,1-15.79-4.94-17.27-8.25s1.2-9.73,10-16.29c10.72-8,21.43-19.38,23.62-22.27a74.09,74.09,0,0,0,9.58-17.06S188.24,678,198.39,678.25Z" fill="#c7645d"/><path d="M316.6,679.24c-9.86.14-15.79-3.1-15.79-3.1a43.21,43.21,0,0,0-6,14.8c-.77,4.44-2.4,17.76,1.06,20.65,3.73,3.11,3,2.26,7.82,4.3,6.7,2.83,9.59,1.48,18.68,6.14,3.39,1.76,18,15.51,32.85,16.63,9,.71,15.79-4.93,17.27-8.24s1.62-10.08-9.51-17.49S338.74,693.76,337,690.52c-2.6-4.94-7.82-15.86-7.82-15.86S326.75,679,316.6,679.24Z" fill="#c7645d"/><path d="M444.61,194.89a13.22,13.22,0,0,1-16.21-9.23L425,173.25a13.19,13.19,0,1,1,25.44-7l3.39,12.41A13.24,13.24,0,0,1,444.61,194.89Z" fill="#aaace3"/><path d="M446.66,202.51A21.71,21.71,0,0,1,420,187.28l-.42-1.55a2.52,2.52,0,0,1,4.86-1.34l.43,1.55A16.63,16.63,0,1,0,457,177.13l-.42-1.55a2.52,2.52,0,1,1,4.86-1.34l.42,1.55A21.64,21.64,0,0,1,446.66,202.51Z" fill="#aaace3"/><path d="M461.81,205.82a1.72,1.72,0,0,0,.85-2.82,16.92,16.92,0,0,0-29.4,8,1.8,1.8,0,0,0,2.19,2Z" fill="#aaace3"/><path d="M380.54,268.7c2.54-5.36,9.52-9.94,14.8-9.52s3.6.57,5.29.42,4.3-1.9,7.82-.84c3.95,1.2,12.27,5.57,12.41,15.3.14,8.31-5.92,17.83-16.92,20s-18.4-1.91-21.71-6.63C378.42,282,378.07,273.84,380.54,268.7Z" fill="#ff5856"/><path d="M397.67,266.09s-.85-12.48,4.23-17.76c5.64-5.86,13-11.35,12.47-7.76-.14.85,1.06,12.9-2.32,17.41C406.9,264.89,397.67,266.09,397.67,266.09Z" fill="#4c7378"/><path d="M396.33,265.6s-1-5.36-1.9-8.39c-2-6.21-3.25-9.17-3.25-9.17l5.5-1.2s2,7.34,2.4,10.16a34.63,34.63,0,0,1,.28,8.31s-.71,1.13-1.69,1C396.54,266.3,396.33,265.6,396.33,265.6Z" fill="#6b4d3a"/><path d="M394.1,248.81c1.54-.27,2.68-1.08,2.55-1.81s-1.47-1.1-3-.83-2.67,1.07-2.54,1.8S392.57,249.07,394.1,248.81Z" fill="#8a634b"/><path d="M500.37,303H372.08a2,2,0,0,1-2-2v-5.07a2,2,0,0,1,2-2H500.3a2.05,2.05,0,0,1,2.05,2v5.07A2,2,0,0,1,500.37,303Z" fill="#c5c6e3"/><path d="M435.24,292.31H407.18v-9.86h28.06a1.34,1.34,0,0,1,1.34,1.33v7.12A1.32,1.32,0,0,1,435.24,292.31Z" fill="#f8d0b3"/><path d="M485.78,280.89H404.86a.79.79,0,0,0-.78.78.79.79,0,0,0,.78.77h29a2.75,2.75,0,0,1,2.75,2.75v4.37a2.75,2.75,0,0,1-2.75,2.75H405.07a.79.79,0,0,0-.78.78.79.79,0,0,0,.78.77h80.71a2.75,2.75,0,0,0,2.75-2.75v-7.4A2.73,2.73,0,0,0,485.78,280.89Z" fill="#ff7a82"/><path d="M448.91,280.19H403.59v-9.52h45.32a2.38,2.38,0,0,1,2.4,2.4v4.72A2.38,2.38,0,0,1,448.91,280.19Z" fill="#f8e7d8"/><path d="M477.25,270H401.62a.35.35,0,1,0,0,.7h44.83a4.8,4.8,0,0,1,0,9.59H401.62a.35.35,0,1,0,0,.7h75.56a4.8,4.8,0,0,0,4.8-4.79v-1.41A4.74,4.74,0,0,0,477.25,270Z" fill="#4e53ba"/><path d="M438.06,277.37H403.52V277h34.54a.19.19,0,0,1,.21.21C438.34,277.3,438.2,277.37,438.06,277.37Z" fill="#debca7"/><path d="M446,274.27H403.59v-.43H446a.2.2,0,0,1,.22.22A.23.23,0,0,1,446,274.27Z" fill="#debca7"/><path d="M383.64,130.15c1.43-2.78-3.29-8-10.53-11.75s-14.26-4.48-15.68-1.71,3.29,8,10.53,11.75S382.22,132.92,383.64,130.15Z" fill="#d4bfa9"/><path d="M360.1,112.07a53.15,53.15,0,0,0,6-15.3c2.32-11.7-.85-25.31,6.62-34.54,5.36-6.7,15-8.74,23.41-7.54,10.36,1.48,20.23,7.54,24.95,16.84s3.52,21.72-3.95,29c-6.27,6.13-15.65,8.1-22.2,13.88-3.67,3.25-6.28,7.55-9,11.63l-.91,1.27C365,125.11,360.1,112.07,360.1,112.07Z" fill="#ebdbcd"/><path d="M395.48,94c-.84-3.1-3.52-3-5.92-1.9-.56-1.69-1.48-3.88-3.24-4.58-2-.78-4.23.56-5.78,1.76A24.47,24.47,0,0,0,373,99.59c-1.56,4-2.33,8.18-3.74,12.2-.57,1.62,2,2.32,2.61.7,1.76-5.07,2.46-10.64,5.28-15.3,1.55-2.6,3.81-5.64,6.7-6.83.92-.43,1.55-.5,2.19.42a7.72,7.72,0,0,1,1,2.33c0,.07.07.14.07.21a10.24,10.24,0,0,0-.91.63c-2.75,2-6.42,5.71-6.35,9.45a3.06,3.06,0,0,0,2.82,3.24c1.91.14,3.81-1.34,5-2.75a11.4,11.4,0,0,0,2.46-9.3A4.77,4.77,0,0,1,392,94c1.69-.14.91,2.61.7,3.53a30.81,30.81,0,0,1-4.3,8.31,45.76,45.76,0,0,1-3.95,5.85,27.73,27.73,0,0,1-6.06,4.73c-1.48.91-.14,3.24,1.34,2.32,2.54-1.62,5.15-3.24,7.05-5.56a61.75,61.75,0,0,0,5.36-8C393.86,102.06,396.47,97.55,395.48,94Zm-8,4.58a8.67,8.67,0,0,1-2,3.81c-.56.63-3.17,2.75-3,.78a8.56,8.56,0,0,1,1.76-3.46,17.23,17.23,0,0,1,3.39-3.38A8.43,8.43,0,0,1,387.45,98.53Z" fill="#bfa990"/><path d="M368,128.42c-6.56-3.31-11-8-10.78-10.85l-3.32,11.7c-1.13,2.25,2.68,6.48,8.53,9.51s11.56,3.67,12.69,1.41c.07-.14.07-.21.14-.35l7.83-9C380.89,132.72,374.55,131.8,368,128.42Z" fill="#bfa990"/><path d="M295.18,38.54a.26.26,0,0,1-.21-.07.58.58,0,0,1-.29-.77,14.46,14.46,0,0,1,1.84-3.18.61.61,0,1,1,1,.71,12.45,12.45,0,0,0-1.69,3A.74.74,0,0,1,295.18,38.54Z" fill="#110580"/><path d="M390.41,74.85a.24.24,0,0,1-.21-.08l-.85-.28c-1.9-.7-3.87-1.48-6-2.32a.72.72,0,0,1-.35-.78.7.7,0,0,1,.77-.35c2.05.84,4,1.62,5.93,2.32l.84.29a.61.61,0,0,1,.35.77A.43.43,0,0,1,390.41,74.85ZM377,69.21a.38.38,0,0,1-.28-.08,58.24,58.24,0,0,1-6.35-3.8.61.61,0,1,1,.71-1A43.33,43.33,0,0,0,377.3,68a.59.59,0,0,1,.28.77A.65.65,0,0,1,377,69.21Zm-11.84-8.39a.61.61,0,0,1-.43-.21,37,37,0,0,1-4.65-5.78.62.62,0,0,1,1.06-.64,33.47,33.47,0,0,0,4.51,5.57.65.65,0,0,1,0,.85A.93.93,0,0,1,365.18,60.82Zm-7.83-12.2a.59.59,0,0,1-.56-.42A35.47,35.47,0,0,1,355,41a.61.61,0,0,1,1.2-.21,34.7,34.7,0,0,0,1.76,6.91.62.62,0,0,1-.35.77C357.49,48.62,357.42,48.62,357.35,48.62Zm3.95-7.68a25.88,25.88,0,0,1-4-.28.61.61,0,0,1,.21-1.2,24.12,24.12,0,0,0,3.88.28,24.38,24.38,0,0,0,3.24-.21.64.64,0,0,1,.71.49.69.69,0,0,1-.5.71A31.53,31.53,0,0,1,361.3,40.94Zm-11-2.12h-.21c-2-.7-4.09-1.62-6.77-2.82a.58.58,0,1,1,.5-1c2.6,1.2,4.65,2.11,6.69,2.82a.6.6,0,0,1,.36.77A.77.77,0,0,1,350.3,38.82Zm21.22-.28a.62.62,0,0,1-.5-.28.69.69,0,0,1,.22-.85,16.22,16.22,0,0,0,3-2.18,10.49,10.49,0,0,0,2-2.54.62.62,0,1,1,1.06.64,12.15,12.15,0,0,1-2.26,2.74,14.66,14.66,0,0,1-3.24,2.33A.45.45,0,0,1,371.52,38.54Zm-16.07-4.23c-.43-.07-.64-.35-.57-.63a21.62,21.62,0,0,1,2.05-7.19.59.59,0,0,1,.77-.28A.58.58,0,0,1,358,27a21.05,21.05,0,0,0-2,6.77A.55.55,0,0,1,355.45,34.31ZM337,32.9a.58.58,0,0,1-.29-.07l-2.32-1.06c-1.55-.7-3-1.26-4.3-1.83a.6.6,0,0,1,.42-1.13c1.41.57,2.82,1.13,4.37,1.84l2.33,1.05a.6.6,0,0,1,.28.78A.51.51,0,0,1,337,32.9Zm-34.75-2.32a.47.47,0,0,1-.5-.29.6.6,0,0,1,.21-.84,22.78,22.78,0,0,1,6.84-3,.58.58,0,1,1,.28,1.13,23.32,23.32,0,0,0-6.48,2.81C302.51,30.58,302.37,30.58,302.23,30.58Zm21.14-2.75h-.14a36.69,36.69,0,0,0-7.12-.92.57.57,0,0,1-.56-.63.55.55,0,0,1,.56-.57,39.5,39.5,0,0,1,7.33.92.56.56,0,0,1,.43.7A.45.45,0,0,1,323.37,27.83Zm55.27-1.13a.56.56,0,0,1-.57-.57,7.69,7.69,0,0,0-2-5.07,8.71,8.71,0,0,0-.85-.78.65.65,0,0,1-.14-.84.66.66,0,0,1,.85-.14,6.56,6.56,0,0,1,1,.91,8.64,8.64,0,0,1,2.39,5.86.63.63,0,0,1-.63.63Zm-16.71-5a.64.64,0,0,1-.49-.22.58.58,0,0,1,.14-.84,15.36,15.36,0,0,1,6.91-3,.6.6,0,0,1,.21,1.19,12.91,12.91,0,0,0-6.35,2.75A.79.79,0,0,1,361.93,21.7Z" fill="#110580"/><path d="M400.13,79.57a1,1,0,0,1-.42-.14,12.83,12.83,0,0,0-2.82-1.84.59.59,0,0,1-.28-.77.6.6,0,0,1,.78-.28,18.48,18.48,0,0,1,3.1,2,.66.66,0,0,1,.07.85A.5.5,0,0,1,400.13,79.57Z" fill="#110580"/><path d="M394.85,3.79c3.95,13.39,3.59,25.8,3.24,39.55-.07,3.8,12.34,2.61,13.18-.71,3.32-13.25,1-27.56-3.24-40.32C406.69-1.85,393.79.2,394.85,3.79Z" fill="#f3e9e1"/><path d="M447.79,30.16c-6,10.78-13.54,19.74-21.22,29.18-3.38,4.16,8.46,3.45,10.65,1.48,9.44-8.32,16.77-19.53,22.41-30.66C461.32,26.91,449.55,26.91,447.79,30.16Z" fill="#f3e9e1"/><path d="M445.67,86.34c8.46.21,16.92.63,25.31,1.13,3,.21,7.75-1,8.67-4.37s-3.1-5.22-5.78-5.36c-8.46-.49-16.85-.85-25.31-1.13-3-.07-7.68.92-8.67,4.37S442.92,86.27,445.67,86.34Z" fill="#f3e9e1"/><path d="M293.9,289.07s1.84,10.43,2,15.51c.07,3.1,0,8,0,8s2.32,0,3.52-.14a22.68,22.68,0,0,0,2.61-.35s-1.41-4.65-2.89-9.3C297.71,298.73,293.9,289.07,293.9,289.07Z" fill="#e0e0e0"/><path d="M212.91,288.51s-2.54,7.26-3.66,11.91c-.85,3.52-.5,6.62-.71,7.47a76.91,76.91,0,0,1-2.46,7.47,1.25,1.25,0,0,1-1.42.78c-1-.21-2.46-.57-3.59-.92-1.83-.56-3.1-1.13-2.82-1,0,0,3.95-5.64,6.77-10.44C207.41,299.71,212.91,288.51,212.91,288.51Z" fill="#e0e0e0"/><path d="M295.39,384.3c16,31.72,25.79,66.27,31.08,101.3,5.64,37.08,6.13,74.79,4.37,112.22-1,21.64-2.82,43.21-4.86,64.78-.21,2.47,3.59,2.4,3.8,0,3.67-38.7,6.56-77.54,5.57-116.38-.91-36.3-5.21-72.67-15-107.64A316.32,316.32,0,0,0,298.7,382.4C297.57,380.22,294.26,382.12,295.39,384.3Z" fill="#fff"/><path d="M208.12,385.08c-14,32.21-21.72,66.61-25.94,101.37-4.37,35.73-5.43,72-5,107.92A621.9,621.9,0,0,0,181,658.23c.28,2.4,4.09,2.47,3.8,0-4.3-37.07-4.51-74.5-3.17-111.8,1.2-34.75,4.16-69.64,11.91-103.69A315.88,315.88,0,0,1,211.43,387C212.35,384.8,209.1,382.83,208.12,385.08Z" fill="#fff"/><path d="M122.26,301.48h-6.91a6.42,6.42,0,0,1-1.27,1.48h8.11a.78.78,0,0,0,.77-.78A.66.66,0,0,0,122.26,301.48Z" fill="#2b31ba"/><path d="M122.26,277.23a.78.78,0,0,0,0-1.55h-5.5v1.48Z" fill="#2b31ba"/><path d="M112.32,305.64a96.79,96.79,0,0,1-9.66-2.68H33.37v.21a7.73,7.73,0,0,0,1.55,4.51H108.3A5.39,5.39,0,0,0,112.32,305.64Z" fill="#e3996d"/><path d="M382.37,305.56a5.56,5.56,0,0,0,4.09,2.12h76.83a6.49,6.49,0,0,0,.5-2.89V303h-72C388.64,303.94,385.54,304.86,382.37,305.56Z" fill="#e3996d"/><path d="M253.37,361.89c-16.35,0-39.76-3.95-39.76-3.95s-.35,1.83-.77,4.3c10.57,3.31,24.88,5,40.6,4.44,14.81-.56,28.2-3.17,38.35-6.91.14-.07.21-.14.35-.21v-.14S270.64,362,253.37,361.89Z" fill="#f0a173"/></g></g></g></svg>