<svg xmlns="http://www.w3.org/2000/svg" viewBox="0 0 571.96 664.63"><title>Learning</title><g id="Layer_2" data-name="Layer 2"><g id="illustrations"><g id="girl-sitting-on-books-with-laptop-by-oblik-studio"><path d="M63,166.25,356.11,21.76l69.13,261.81L92.36,271.52Z" fill="#ebdbcd"/><path d="M268.7,93.54,257.37,177.8a2.45,2.45,0,0,0,1.43,2.58,58.9,58.9,0,0,0,19.58,4.88c6.95.35,19.29-1.51,26.39-3.66a2.51,2.51,0,0,0,1.65-3.16l-33-85.55A2.46,2.46,0,0,0,268.7,93.54Z" fill="#110580"/><path d="M306.63,166.61a49.48,49.48,0,1,0-49.48-49.48A49.48,49.48,0,0,0,306.63,166.61Z" fill="#fcb58a"/><path d="M232.48,498.05H164.79v51.2h67.69Z" fill="#f8d7bc"/><path d="M158.12,494.11v3.94h74.43v51.21H158.12v3.87H444.39v-59Z" fill="#4e53ba"/><path d="M129.72,463.85Q132.2,479.55,136,495c4.37,18.22,32.41,10.47,28-7.74-2.51-10.33-4.52-20.73-6.24-31.2-1.22-7.74-10.9-12-17.86-10.18C131.59,448.29,128.5,456.1,129.72,463.85Z" fill="#e3996d"/><path d="M572,357.5l-50.49,29.26L520.54,327Z" fill="#2b31ba"/><path d="M297.74,309.6a2.14,2.14,0,0,0-.86-.29c-4.81-.79-41.81-7.17-80.25-14.55-17.14-3.3-67-17.43-93.15-7.25S92.22,313,89.92,323.73c-2,9.68,1.51,42.59,10,76,7.6,29.9,26.17,67.76,30.05,75.44a2.79,2.79,0,0,0,2.36,1.57A38.62,38.62,0,0,0,145.71,475a81.49,81.49,0,0,0,13.91-6.16,2.89,2.89,0,0,0,1.44-2.44c.14-8.32.79-47.19-.22-74.51-1-26.53-10.11-35.28-10.11-35.28s31.41,34.85,63.46,44.39c25.39,7.53,78.6,24.24,100.61,23.59,25.53-.72,44-11.47,52.21-24.45,15.27-24,5.81-59.59,3.37-67.41a2.75,2.75,0,0,0-2.08-1.94c-8.39-2-48.26-11.54-58.59-15.84C301.25,311.32,298.6,310,297.74,309.6Z" fill="#ff8a91"/><path d="M369.16,298.41a115,115,0,0,0,.07,16,148.17,148.17,0,0,0,2.08,16.7S333.09,325,318.6,319.35c-18.28-7.1-21.22-10-21.22-10a86.62,86.62,0,0,0,4.66-13.2c.93-4.09,1.43-15.34,1.43-15.34s19.8,9.39,33.64,12.69S369.16,298.41,369.16,298.41Z" fill="#fcb58a"/><path d="M36.86,85.94A36.86,36.86,0,1,0,0,49.08,36.86,36.86,0,0,0,36.86,85.94Z" fill="#4e53ba"/><path d="M325.49,641H99V558.29H325.42a20.43,20.43,0,0,1,20.44,20.44v41.95A20.36,20.36,0,0,1,325.49,641Z" fill="#f8ece2"/><path d="M459.66,553.13H89.21a2.58,2.58,0,1,0,0,5.16H304.48a41.38,41.38,0,1,1,0,82.75H89.13a2.59,2.59,0,0,0,0,5.17H459.66A41.34,41.34,0,0,0,501,604.83V594.58A41.36,41.36,0,0,0,459.66,553.13Z" fill="#ff5856"/><path d="M312.44,576.22H99v-2.87H312.44a1.44,1.44,0,1,1,0,2.87Z" fill="#ebd0be"/><path d="M214,537.06H164.79V534.2H214a1.43,1.43,0,1,1,0,2.86Z" fill="#e0c1a6"/><path d="M202.36,520.93H164.79v-2.87h37.5a1.44,1.44,0,0,1,1.44,1.43A1.35,1.35,0,0,1,202.36,520.93Z" fill="#e0c1a6"/><path d="M327.93,608.41H99v-2.87h228.9a1.44,1.44,0,0,1,0,2.87Z" fill="#ebd0be"/><path d="M299.75,626.27H99V623.4H299.75a1.44,1.44,0,0,1,0,2.87Z" fill="#ebd0be"/><path d="M321.05,592.64H99v-2.87h222a1.44,1.44,0,0,1,1.43,1.44A1.39,1.39,0,0,1,321.05,592.64Z" fill="#ebd0be"/><path d="M296.73,489.38H209.68v-30.7h87.05A4.32,4.32,0,0,1,301,463v22.09A4.28,4.28,0,0,1,296.73,489.38Z" fill="#f8d0b3"/><path d="M453.64,454H202.51a2.37,2.37,0,0,0,0,4.74h89.92a8.63,8.63,0,0,1,8.61,8.6v13.41a8.64,8.64,0,0,1-8.61,8.61H203a2.37,2.37,0,1,0,0,4.73H453.64a8.63,8.63,0,0,0,8.6-8.61V462.56A8.57,8.57,0,0,0,453.64,454Z" fill="#ff7a82"/><path d="M154,266.07c25.67-11.54,55.36,3.95,81,8.32,25.1,4.3,52.56.93,70-19.58,3.94-4.66,4.59-11.47,0-16.06-4.09-4.09-12.12-4.73-16.06,0C272.43,258,247,254.53,225,248.93c-27.6-7.1-55-14.77-82.39-2.51-5.59,2.51-7,10.69-4.09,15.56C141.77,267.79,148.37,268.58,154,266.07Z" fill="#f0a173"/><path d="M162.21,273.17c27.89-9.1,55.43,8.9,81.53,16.57,25,7.31,52.71,6.16,72.21-12.77,10.54-10.18-5.59-26.31-16.06-16.06-17.57,17.07-43.31,9.9-63.54,2.37-25.74-9.54-52.49-21.09-80.17-12C142.34,255.75,148.29,277.76,162.21,273.17Z" fill="#fcb58a"/><path d="M337.75,187.26c2.44.72,24.17,9.47,32.34,38.58,6.82,24,12.48,59.67,14.27,71.35A4.24,4.24,0,0,1,381,302a139.24,139.24,0,0,1-38.29,1.72c-24.67-2.22-40.37-8.89-40.37-8.89l.64-5.6-2.22,1a4,4,0,0,1-4.87-1.22l-16.07-21.37a2.85,2.85,0,0,1,.93-4.23l.22-.15-13-15.63a3.67,3.67,0,0,1,.28-5c4.6-4.44,14.56-14.48,21.66-24.16,5.16-7,12-19.79,16.21-24.74C314.59,183.75,331.37,185.4,337.75,187.26Z" fill="#fff"/><path d="M338.54,196.37l-15.85-40.66-30.11-.21,15.77,40.65Z" fill="#fcb58a"/><path d="M310.93,205.26c4.52,1.08,10.61-3.22,15.71-5.52a53.82,53.82,0,0,1,11.83-3.44l-30.12-.22C308.35,196.15,306.2,204.19,310.93,205.26Z" fill="#fcb58a"/><path d="M300.39,238.18s-3,8.1-6,12.62S281,263.28,281,263.28l-3.88-4.67a57.81,57.81,0,0,0,12.34-8.6C293.15,246.5,300.39,238.18,300.39,238.18Z" fill="#e0e0e0"/><path d="M303,289.23s9.33-5.52,13.49-10,10-13.56,10-13.56-6.38,13.84-9.54,19.79c-4.37,8.18-7.74,11.84-7.74,11.84l-6.74-2.37a26.17,26.17,0,0,1,.29-2.65C302.83,290.88,303,289.23,303,289.23Z" fill="#e0e0e0"/><path d="M131.73,263a88.55,88.55,0,0,1,20.65-9.61c6.1-1.87,3.52-11.62-2.65-9.75a94.06,94.06,0,0,0-23,10.61C121.33,257.68,126.28,266.43,131.73,263Z" fill="#f0a173"/><path d="M358.62,81.35A18.65,18.65,0,1,0,340,62.7,18.65,18.65,0,0,0,358.62,81.35Z" fill="#110580"/><path d="M305.48,132c5.17,1.93,7.46,1.86,7.46,1.86-.64-3.44-1.29-7.1-1.29-7.39,0,0-8.6-2.86-14.34-8.6-8.61-8.61-4.3-17.21-11.47-24.38a39.58,39.58,0,0,0-16-9.33c-.07.08-.14.08-.14.15A40.36,40.36,0,0,1,285,96.19c6.09,8.11.57,16.07,7.88,25.82C297.31,128,301,130.33,305.48,132Z" fill="#e3996d"/><path d="M325.49,162.88a48.59,48.59,0,0,1-18.86,3.73,46.81,46.81,0,0,1-10.11-1.08l4.23,10.83a32.19,32.19,0,0,0,3.59-.64,47.72,47.72,0,0,0,21.73-11.55Z" fill="#e3996d"/><path d="M318.46,170.41a17.86,17.86,0,1,1,17.86-17.85A17.9,17.9,0,0,1,318.46,170.41Zm0-32.77a14.92,14.92,0,1,0,14.92,14.92A14.91,14.91,0,0,0,318.46,137.64Z" fill="#fff"/><path d="M376.19,180.24a3.92,3.92,0,0,0,2.44-5l-23.74-71.78a50.27,50.27,0,0,0-86-19.65,39.54,39.54,0,0,1,16.78,9.61c7.17,7.17,2.87,15.77,11.47,24.38,5.74,5.74,14.35,8.6,14.35,8.6,0,.87,4.23,22.52,7.6,39.3.71,3.66,1.43,8,2,11.26a4.76,4.76,0,0,0,2.87,3.51,69.69,69.69,0,0,0,29.4,4.81C361.13,185,371,182,376.19,180.24Z" fill="#110580"/><path d="M370.88,326.31s3.44,14.05,2.37,14.05-42.6-8.24-53.35-10.61c-23.74-5.09-27.4-21.23-27.4-21.23a7.61,7.61,0,0,0,3.88-1.57c2-1.51,2.72-2.08,2.72-2.08s3.37,8.32,24,14.34C351.73,327.53,370.88,326.31,370.88,326.31Z" fill="#ffadb2"/><path d="M134.1,487s9.46-.07,14.27-.93,14-5.45,14-5.45,5.45,12,7,15.2,8.32,11.11,9.18,16.28,1.07,16.78-18.93,18.57c-9.25.79-18,19.65-28.11,21-5,.72-28.76,3.3-35.5-.36s-4.59-13.55,11.69-18.93,13.19-10.75,17.07-17.71S134.1,487,134.1,487Z" fill="#ab534d"/><path d="M78.66,468.51c-1.43,11.69-2.79,23.3-4.23,35-.93,7.82,7.39,14.56,14.56,14.56,8.6,0,13.55-6.74,14.56-14.56,1.43-11.69,2.79-23.3,4.23-35,.93-7.82-7.39-14.56-14.56-14.56C84.54,454,79.6,460.69,78.66,468.51Z" fill="#fcb58a"/><path d="M307.85,424.12c21,2.08,40.44-3.8,55.21-18.07s13.84-38.29,13-48c-.64-7.67-3.22-20.07-4.23-24.95a3.08,3.08,0,0,0-2.44-2.37c-7.52-1.36-33.77-6.09-41.59-8.53-6.38-2-12-4.16-14.84-5.31a3,3,0,0,0-3.16.58c-2.36,2.15-8.1,6.09-17.35,5.16-12.62-1.29-68.12-18.43-90-25.17s-58.58-23-92.57-11.76c-21.66,7.17-37.94,27.89-38.37,71.42-.29,33.78-.36,77,.22,93.3.43,12.83-.07,26.39-.29,31.55a3,3,0,0,0,1.94,3,80.67,80.67,0,0,0,11.83,3.37c7,1.51,15.7.93,19.58.5a3,3,0,0,0,2.58-2.08c2.08-6.16,8.89-26.67,15.06-43.88,15.41-43.1,16.71-66.26,16-76.73a3,3,0,0,1,4.8-2.73c10.19,7,32.06,21.44,56.58,32.41C233.41,411,281.67,421.47,307.85,424.12Z" fill="#ffadb2"/><path d="M337.39,326.09c.15,15.13-4.59,30.62-15.56,41.45a43.41,43.41,0,0,1-17.71,10.76c-8,2.44-16.49,2-24.67.71-30.62-4.87-58.66-19-86.34-32.19-13.91-6.67-27.89-13.2-42.45-18.43-3.66-1.29-7.31-2.58-11-3.66-4.09-1.22-8.32-2.37-12.55-1.86-6.89.71-12.19,5.45-15.78,11-3.8,5.95-5.66,13.12-7.17,20A180,180,0,0,0,100.68,377c-1.08,11.18-1.36,22.37-2.37,33.56-2.08,22.23-4.59,44.6-8.53,66.62-.29,1.79-.65,3.51-1,5.23-.51,2.44,3.22,3.52,3.72,1,1.94-9.17,3.23-18.5,4.45-27.82,1.65-12.05,3.08-24.16,4.38-36.28,1.07-10.19,1.79-20.3,2.36-30.55.79-15.13,2.44-30.69,7.39-45.18,2.08-6.17,5.66-12.55,11.69-15.63,7.17-3.66,15.84.14,22.8,2.58,14.7,5,28.9,11.47,42.88,18.21C216.2,362,244.1,376.36,274.65,382c8.32,1.5,16.78,2.58,25.17,1.22A44.83,44.83,0,0,0,319,375c12.12-8.89,19.44-22.73,21.66-37.5a69.64,69.64,0,0,0,.79-11.55C341.26,323.58,337.39,323.58,337.39,326.09Z" fill="#fff"/><path d="M130.08,270.8c6.46-6.23,14.92-8.46,23.52-10.11,6.1-1.22,4-10.68-2.22-9.46-10.18,2-20.22,5.09-27.9,12.48C119,268,125.56,275.18,130.08,270.8Z" fill="#fcb58a"/><path d="M165.29,273.67l-20.94,5.17a5.72,5.72,0,0,1-6.95-4.24l-3.3-13.26a5.72,5.72,0,0,1,4.23-7l20.94-5.16a5.71,5.71,0,0,1,6.95,4.23l3.3,13.27A5.77,5.77,0,0,1,165.29,273.67Z" fill="#fcb58a"/><path d="M339.26,451.87H198.35V422.4H339.26a7.22,7.22,0,0,1,7.24,7.24v14.92A7.28,7.28,0,0,1,339.26,451.87Z" fill="#f8e7d8"/><path d="M427,420.1H192.32a1.08,1.08,0,0,0,0,2.16H331.51a14.77,14.77,0,0,1,0,29.54H192.32a1.08,1.08,0,0,0,0,2.15H427a14.75,14.75,0,0,0,14.77-14.77v-4.3A14.76,14.76,0,0,0,427,420.1Z" fill="#2b31ba"/><path d="M26.17,572.42c3.52,7.1,21.16,10.25,39.37-2.8,27.54-19.72,44-13.7,44-30.19,0-7.39-1.51-14.2-3.44-22-1.79-7.09-1.72-20.5-1.72-20.5s-13.12,1.43-19.79.21a33,33,0,0,1-8.9-2.94,81.35,81.35,0,0,1-8,21.8c-4.3,7.89-7.45,12.69-14.77,19.43C48.4,539.5,20.29,560.66,26.17,572.42Z" fill="#c7645d"/><path d="M305.48,445.35H198.35V444H305.48a.72.72,0,0,1,.72.72A.71.71,0,0,1,305.48,445.35Z" fill="#debca7"/><path d="M317.17,430.86H198.35V429.5H317.1a.72.72,0,0,1,.72.72A.7.7,0,0,1,317.17,430.86Z" fill="#debca7"/><path d="M330.22,437.82H198.35v-1.36H330.22a.71.71,0,0,1,.72.71A.77.77,0,0,1,330.22,437.82Z" fill="#debca7"/><path d="M449.12,8.21c9.75,10.11,15.27,21.22,21.37,33.7,1.72,3.44,12.19-3.44,11.4-6.81-3.23-13.34-12-25-21.73-34.43C457-2.34,446.54,5.55,449.12,8.21Z" fill="#f3e9e1"/><path d="M508.57,7c-.29,12.33-2.87,23.87-5.24,35.92-1.07,5.31,9.11-.93,10.18-3.66C518,27.49,519.32,14,519.18,1.46,519.11-2.26,508.64,3.26,508.57,7Z" fill="#f3e9e1"/><path d="M533,58c7.6-3.73,15.34-7.39,23.09-10.83,2.79-1.22,6.45-4.52,5.66-8S556.54,36,554,37.1c-7.75,3.52-15.42,7.1-23.09,10.83-2.73,1.36-6.46,4.45-5.67,8S530.51,59.19,533,58Z" fill="#f3e9e1"/><path d="M275.36,605.54H242.09s-5.38,1.8-10,10.33c-5.66,10.61-3.66,20.87-7.31,28.76-4.23,9.1-10.83,12.62-10.83,12.62s7.39,1,11.83.36c4-.58,9-4,9-4a15.56,15.56,0,0,1,1.14,5.31,24.48,24.48,0,0,1-.07,5.66S248,661.77,253,654.74c6.88-9.75,1.15-21.73,10-36.5C267,611.71,275.36,605.54,275.36,605.54Z" fill="#bfa990"/><path d="M481.58,128.49c1.34-2.83-3.59-8-11-11.47s-14.5-4.06-15.84-1.23,3.59,8,11,11.47S480.24,131.31,481.58,128.49Z" fill="#d4bfa9"/><path d="M457.29,111a53,53,0,0,0,5.52-15.57c1.94-11.83-1.64-25.38,5.53-34.92,5.16-6.88,14.7-9.25,23.23-8.32,10.4,1.15,20.58,7,25.67,16.14s4.23,21.65-3,29.26c-6.09,6.38-15.42,8.6-21.87,14.63-3.59,3.36-6,7.74-8.68,12l-.86,1.29C462.6,124,457.29,111,457.29,111Z" fill="#ebdbcd"/><path d="M492.22,91.67c-.94-3.08-3.59-2.79-6-1.72-.64-1.65-1.65-3.87-3.44-4.52-2-.71-4.23.72-5.74,1.94a25.06,25.06,0,0,0-7.24,10.69c-1.43,4-2.08,8.31-3.37,12.33-.5,1.65,2.08,2.29,2.58.65,1.65-5.17,2.15-10.83,4.81-15.57,1.5-2.65,3.65-5.73,6.45-7.1.93-.43,1.58-.57,2.22.36a9.71,9.71,0,0,1,1.15,2.3c0,.07.07.14.07.21a10.69,10.69,0,0,0-.93.65c-2.72,2.15-6.24,6-6.09,9.68a3.15,3.15,0,0,0,2.94,3.16c1.93.07,3.8-1.51,4.94-3a11.78,11.78,0,0,0,2.23-9.46,4.48,4.48,0,0,1,1.79-.65c1.65-.14,1,2.59.79,3.52a32.89,32.89,0,0,1-4,8.46,45.86,45.86,0,0,1-3.8,5.95,30.41,30.41,0,0,1-5.95,5c-1.44.93,0,3.23,1.43,2.29a28.48,28.48,0,0,0,6.89-5.8,77.42,77.42,0,0,0,5.16-8.25C490.85,99.85,493.36,95.33,492.22,91.67Zm-7.89,4.88a7.8,7.8,0,0,1-1.87,3.87c-.57.65-3.08,2.87-2.94.86a8.46,8.46,0,0,1,1.65-3.51,16.53,16.53,0,0,1,3.23-3.51A8.39,8.39,0,0,1,484.33,96.55Z" fill="#bfa990"/><path d="M465.75,127.24c-6.67-3.15-11.25-7.6-11.18-10.54l-2.94,11.83c-1.08,2.3,2.87,6.46,8.89,9.25s11.69,3.3,12.76,1c.08-.15.08-.22.15-.36l7.6-9.25C478.8,131.12,472.42,130.4,465.75,127.24Z" fill="#bfa990"/><path d="M90.14,280.2a4.52,4.52,0,0,1-5.52-3.08l-31.27-112A4.47,4.47,0,1,1,62,162.67l31.26,112A4.35,4.35,0,0,1,90.14,280.2Z" fill="#c5c6e3"/><path d="M84.47,275.68a4.5,4.5,0,0,1,4.73-4.23l116.1,6.81a4.49,4.49,0,0,1-.5,9L88.7,280.41A4.49,4.49,0,0,1,84.47,275.68Z" fill="#c5c6e3"/><path d="M540.19,351.4,535.1,350a.63.63,0,0,1-.43-.72.63.63,0,0,1,.72-.42l3.94,1.07,1.08-3.94a.61.61,0,0,1,.71-.43.63.63,0,0,1,.43.71Z" fill="#ebdbcd"/><path d="M526.06,347.54h-.14L516.74,345a.62.62,0,0,1-.43-.71.63.63,0,0,1,.72-.43l9.18,2.51a.64.64,0,0,1,.43.71A.55.55,0,0,1,526.06,347.54Zm-18.35-5h-.15l-9.18-2.51a.65.65,0,0,1-.43-.72.63.63,0,0,1,.72-.43l9.18,2.51a.63.63,0,0,1,.43.72A.55.55,0,0,1,507.71,342.59Zm-18.29-4.95h-.14l-9.18-2.51a.59.59,0,0,1,.28-1.15l9.18,2.51a.63.63,0,0,1,.43.72A.66.66,0,0,1,489.42,337.64Z" fill="#ebdbcd"/><path d="M471.06,332.69h-.14l-5.09-1.36,1.36-5.09a.64.64,0,0,1,.72-.44.66.66,0,0,1,.43.72l-1.08,4,3.95,1.07a.63.63,0,0,1,.42.72A.65.65,0,0,1,471.06,332.69Z" fill="#ebdbcd"/><path d="M470.2,317.77h-.14a.62.62,0,0,1-.43-.71l2.44-9.18a.59.59,0,1,1,1.14.28l-2.44,9.18A.54.54,0,0,1,470.2,317.77Zm4.95-18.28H475a.64.64,0,0,1-.43-.72l2.44-9.18a.59.59,0,1,1,1.15.29l-2.44,9.18A.62.62,0,0,1,475.15,299.49Z" fill="#ebdbcd"/><path d="M480.1,281.13H480a.64.64,0,0,1-.43-.72l1.37-5.09,5.09,1.36a.66.66,0,0,1,.43.72.63.63,0,0,1-.72.43l-3.94-1.07-1.08,3.94A.54.54,0,0,1,480.1,281.13Z" fill="#ebdbcd"/><path d="M540.91,292.67h-.15l-9.18-2.5a.66.66,0,0,1-.43-.72.64.64,0,0,1,.72-.43l9.18,2.51a.63.63,0,0,1,.43.71A.6.6,0,0,1,540.91,292.67Zm-18.36-4.94h-.15l-9.17-2.51a.64.64,0,0,1-.43-.72.63.63,0,0,1,.71-.43l9.18,2.51a.63.63,0,0,1,.43.72A.61.61,0,0,1,522.55,287.73Zm-18.36-5h-.14l-9.18-2.51a.59.59,0,1,1,.29-1.15l9.18,2.51a.63.63,0,0,1,.42.72A.54.54,0,0,1,504.19,282.78Z" fill="#ebdbcd"/><path d="M553.39,300.92h-.15a.63.63,0,0,1-.43-.72l1.08-3.94-3.95-1.07a.66.66,0,0,1-.43-.72.63.63,0,0,1,.72-.43l5.09,1.36L554,300.49A.6.6,0,0,1,553.39,300.92Z" fill="#ebdbcd"/><path d="M543.49,337.57h-.14a.63.63,0,0,1-.43-.72l2.43-9.18a.59.59,0,0,1,1.15.29l-2.44,9.18A.61.61,0,0,1,543.49,337.57Zm5-18.29h-.15a.64.64,0,0,1-.43-.72l2.44-9.18a.59.59,0,0,1,1.15.29L549,318.85A.72.72,0,0,1,548.44,319.28Z" fill="#ebdbcd"/><path d="M342.7,303.72a161,161,0,0,1-32.7-6.24,87.77,87.77,0,0,0,35.5,11.62,91.6,91.6,0,0,0,23.52-.43c-.08-1.94-.08-3.59-.08-5.09A131.41,131.41,0,0,1,342.7,303.72Z" fill="#f0a173"/><path d="M10.9,136.64a.63.63,0,0,1-.5-.22,21.5,21.5,0,0,1-2.29-4.23.59.59,0,1,1,1.07-.5,19.59,19.59,0,0,0,2.15,4,.5.5,0,0,1-.14.78A.51.51,0,0,1,10.9,136.64Z" fill="#ebdbcd"/><path d="M6.81,123.08a.61.61,0,0,1-.57-.57v-.29a33.35,33.35,0,0,1,1.43-9.46.57.57,0,1,1,1.08.36,31,31,0,0,0-1.43,9.1v.22A.54.54,0,0,1,6.81,123.08Zm5.6-18.28c-.15,0-.22,0-.29-.07a.51.51,0,0,1-.14-.79,45.64,45.64,0,0,1,6.16-7.6.56.56,0,0,1,.79.79,47,47,0,0,0-6,7.38A.54.54,0,0,1,12.41,104.8ZM25.82,91a.49.49,0,0,1-.43-.22.51.51,0,0,1,.14-.79q2.37-1.82,5.16-3.65c.93-.65,1.94-1.29,2.87-1.87a.57.57,0,0,1,.65.93c-.94.65-1.94,1.22-2.87,1.87-1.87,1.22-3.52,2.44-5.09,3.66C26,90.89,26,91,25.82,91ZM42,80.2a.54.54,0,0,1-.5-.28.65.65,0,0,1,.14-.79,76.44,76.44,0,0,0,7.82-5.6.56.56,0,0,1,.72.86,94.25,94.25,0,0,1-8,5.67C42.17,80.2,42,80.2,42,80.2Zm33.49-5.81a.61.61,0,0,1-.57-.57.56.56,0,0,1,.57-.57A43.9,43.9,0,0,0,84.91,72a.62.62,0,0,1,.71.43.63.63,0,0,1-.43.71A50,50,0,0,1,75.44,74.39Zm-9.61-.86h-.14a45.24,45.24,0,0,1-9.33-2.94.61.61,0,0,1-.28-.79.6.6,0,0,1,.79-.28A43.82,43.82,0,0,0,66,72.39a.59.59,0,0,1,.43.71A.61.61,0,0,1,65.83,73.53Zm28.4-3.37a.53.53,0,0,1-.5-.36A.61.61,0,0,1,94,69a68.54,68.54,0,0,0,8.53-4.44.6.6,0,0,1,.8.21.58.58,0,0,1-.22.79A70.15,70.15,0,0,1,94.44,70C94.37,70.09,94.3,70.16,94.23,70.16ZM56.8,67.94a.54.54,0,0,1-.36-.14.57.57,0,0,1-.08-.79,34.58,34.58,0,0,0,5.1-8,.59.59,0,0,1,.78-.29.6.6,0,0,1,.29.79A38.47,38.47,0,0,1,57.3,67.8,1.93,1.93,0,0,1,56.8,67.94Zm-8.47-2.3A.59.59,0,0,1,48,65.5a27.65,27.65,0,0,1-6.59-7.31.58.58,0,0,1,1-.58,27.61,27.61,0,0,0,6.31,7,.56.56,0,0,1,.07.79A.61.61,0,0,1,48.33,65.64Zm62.53-5.3a.65.65,0,0,1-.5-.22.51.51,0,0,1,.15-.79c2.43-1.72,4.66-3.44,6.81-5.16l.93-.72a.55.55,0,0,1,.79.08.64.64,0,0,1-.07.78L118,55c-2.15,1.65-4.44,3.37-6.81,5.17C111.08,60.27,111,60.34,110.86,60.34Zm-46.54-9.9a.59.59,0,0,1-.57-.64V48.65a23,23,0,0,0-.36-3.87A15,15,0,0,0,62,40.62a.59.59,0,1,1,1.07-.5,17.14,17.14,0,0,1,1.51,4.44,19.1,19.1,0,0,1,.36,4.09v1.22A.62.62,0,0,1,64.32,50.44Zm-25.74-1a.55.55,0,0,1-.57-.5,19.38,19.38,0,0,1-.07-2,20,20,0,0,1,1.57-7.75.6.6,0,0,1,1.08.51A17.68,17.68,0,0,0,39.08,47a16.09,16.09,0,0,0,.07,1.87c.08.28-.14.57-.57.57ZM55.94,34a.43.43,0,0,1-.29-.07,10,10,0,0,0-7.32-1.22l-1.5.43a.57.57,0,1,1-.36-1.08,12.76,12.76,0,0,1,1.65-.5,11.51,11.51,0,0,1,8.17,1.36.58.58,0,0,1,.22.79A.65.65,0,0,1,55.94,34Z" fill="#ebdbcd"/><path d="M126.5,48.79a.54.54,0,0,1-.5-.28.58.58,0,0,1,.21-.79,18,18,0,0,1,4.38-2.08.57.57,0,0,1,.71.43.58.58,0,0,1-.43.72,16.86,16.86,0,0,0-4.08,1.93C126.71,48.79,126.64,48.79,126.5,48.79Z" fill="#ebdbcd"/></g></g></g></svg>