<svg xmlns="http://www.w3.org/2000/svg" xmlns:xlink="http://www.w3.org/1999/xlink" viewBox="0 0 430.55 347.33"><defs><clipPath id="clip-path"><polygon points="48.23 210.5 242.62 99.36 392.58 185.6 201.75 295.67 48.23 210.5" fill="none"/></clipPath></defs><title>Maths</title><g style="isolation:isolate"><g id="Layer_2" data-name="Layer 2"><g id="OBJECTS"><line x1="213.97" y1="104.3" x2="213.97" y2="7.24" fill="none" stroke="#171d51" stroke-linecap="round" stroke-linejoin="round" stroke-width="1.5"/><polyline points="209.49 9.39 214.23 0.75 218.85 3.99" fill="none" stroke="#171d51" stroke-linecap="round" stroke-linejoin="round" stroke-width="1.5"/><line x1="162.47" y1="128.93" x2="259.54" y2="70.87" fill="none" stroke="#171d51" stroke-linecap="round" stroke-linejoin="round" stroke-width="1.5"/><polyline points="260.06 66.07 265.87 67.35 259.87 75.55" fill="none" stroke="#171d51" stroke-linecap="round" stroke-linejoin="round" stroke-width="1.5"/><path d="M184.36,109.35s6.87-3.38,9.5-15.17c9-40.18,1.84-62.3,20.57-73.5" fill="none" stroke="#171d51" stroke-linecap="round" stroke-linejoin="round" stroke-width="1.5"/><path d="M244,73.7s-6.86,4.82-9.49-3.82c-9-29.45-1.85-60.09-20.58-48.89" fill="none" stroke="#171d51" stroke-linecap="round" stroke-linejoin="round" stroke-width="1.5"/><g clip-path="url(#clip-path)"><polygon points="48.23 210.5 242.62 99.36 392.58 185.6 201.75 295.67 48.23 210.5" fill="#f5f5f5"/><polygon points="146.58 310.98 146.06 310.08 394.06 167.09 394.59 167.99 146.58 310.98" fill="#dd9e4a"/><g style="mix-blend-mode:multiply"><polygon points="52.83 218.41 52.3 217.51 300.31 74.53 300.83 75.43 52.83 218.41" fill="#e9e9fb"/></g><g style="mix-blend-mode:multiply"><polygon points="59.52 225.02 59 224.13 307 81.14 307.53 82.04 59.52 225.02" fill="#e9e9fb"/></g><g style="mix-blend-mode:multiply"><polygon points="66.22 231.63 65.7 230.74 313.7 87.75 314.23 88.65 66.22 231.63" fill="#e9e9fb"/></g><g style="mix-blend-mode:multiply"><polygon points="72.92 238.25 72.39 237.35 320.4 94.36 320.92 95.26 72.92 238.25" fill="#e9e9fb"/></g><g style="mix-blend-mode:multiply"><polygon points="79.61 244.86 79.09 243.96 327.1 100.97 327.62 101.87 79.61 244.86" fill="#e9e9fb"/></g><g style="mix-blend-mode:multiply"><polygon points="86.31 251.47 85.79 250.57 333.79 107.59 334.32 108.48 86.31 251.47" fill="#e9e9fb"/></g><g style="mix-blend-mode:multiply"><polygon points="93.01 258.08 92.48 257.18 340.49 114.2 341.01 115.1 93.01 258.08" fill="#e9e9fb"/></g><g style="mix-blend-mode:multiply"><polygon points="99.7 264.69 99.18 263.8 347.19 120.81 347.71 121.71 99.7 264.69" fill="#e9e9fb"/></g><g style="mix-blend-mode:multiply"><polygon points="106.4 271.31 105.88 270.41 353.88 127.42 354.41 128.32 106.4 271.31" fill="#e9e9fb"/></g><g style="mix-blend-mode:multiply"><polygon points="113.1 277.92 112.57 277.02 360.58 134.03 361.11 134.93 113.1 277.92" fill="#e9e9fb"/></g><g style="mix-blend-mode:multiply"><polygon points="119.8 284.53 119.27 283.63 367.28 140.65 367.8 141.54 119.8 284.53" fill="#e9e9fb"/></g><g style="mix-blend-mode:multiply"><polygon points="126.49 291.14 125.97 290.24 373.97 147.26 374.5 148.16 126.49 291.14" fill="#e9e9fb"/></g><g style="mix-blend-mode:multiply"><polygon points="133.19 297.75 132.66 296.85 380.67 153.87 381.19 154.77 133.19 297.75" fill="#e9e9fb"/></g><g style="mix-blend-mode:multiply"><polygon points="139.89 304.36 139.36 303.46 387.37 160.48 387.89 161.38 139.89 304.36" fill="#e9e9fb"/></g><g style="mix-blend-mode:multiply"><polygon points="153.28 317.59 152.76 316.69 400.76 173.7 401.29 174.6 153.28 317.59" fill="#e9e9fb"/></g><g style="mix-blend-mode:multiply"><polygon points="186.34 81.78 186.89 80.87 430.55 220.77 430 221.68 186.34 81.78" fill="#e9e9fb"/></g><g style="mix-blend-mode:multiply"><polygon points="178.26 89.17 178.81 88.26 422.47 228.16 421.92 229.07 178.26 89.17" fill="#e9e9fb"/></g><g style="mix-blend-mode:multiply"><polygon points="170.19 96.56 170.74 95.65 414.39 235.55 413.85 236.46 170.19 96.56" fill="#e9e9fb"/></g><g style="mix-blend-mode:multiply"><polygon points="162.11 103.95 162.66 103.05 406.32 242.94 405.77 243.85 162.11 103.95" fill="#e9e9fb"/></g><g style="mix-blend-mode:multiply"><polygon points="154.03 111.34 154.58 110.44 398.24 250.34 397.69 251.24 154.03 111.34" fill="#e9e9fb"/></g><g style="mix-blend-mode:multiply"><polygon points="145.96 118.73 146.51 117.83 390.17 257.73 389.62 258.63 145.96 118.73" fill="#e9e9fb"/></g><g style="mix-blend-mode:multiply"><polygon points="137.88 126.13 138.43 125.22 382.09 265.12 381.54 266.02 137.88 126.13" fill="#e9e9fb"/></g><g style="mix-blend-mode:multiply"><polygon points="129.8 133.52 130.35 132.61 374.01 272.51 373.46 273.42 129.8 133.52" fill="#e9e9fb"/></g><g style="mix-blend-mode:multiply"><polygon points="121.73 140.91 122.28 140 365.94 279.9 365.39 280.81 121.73 140.91" fill="#e9e9fb"/></g><g style="mix-blend-mode:multiply"><polygon points="113.65 148.3 114.2 147.39 357.86 287.29 357.31 288.2 113.65 148.3" fill="#e9e9fb"/></g><g style="mix-blend-mode:multiply"><polygon points="105.57 155.69 106.12 154.78 349.78 294.68 349.23 295.59 105.57 155.69" fill="#e9e9fb"/></g><g style="mix-blend-mode:multiply"><polygon points="97.5 163.08 98.05 162.18 341.71 302.07 341.16 302.98 97.5 163.08" fill="#e9e9fb"/></g><g style="mix-blend-mode:multiply"><polygon points="89.42 170.47 89.97 169.57 333.63 309.47 333.08 310.37 89.42 170.47" fill="#e9e9fb"/></g><g style="mix-blend-mode:multiply"><polygon points="81.34 177.87 81.89 176.96 325.55 316.86 325 317.76 81.34 177.87" fill="#e9e9fb"/></g><g style="mix-blend-mode:multiply"><polygon points="73.27 185.26 73.82 184.35 317.48 324.25 316.93 325.16 73.27 185.26" fill="#e9e9fb"/></g><g style="mix-blend-mode:multiply"><polygon points="65.19 192.65 65.74 191.74 309.4 331.64 308.85 332.55 65.19 192.65" fill="#e9e9fb"/></g><g style="mix-blend-mode:multiply"><polygon points="57.11 200.04 57.66 199.13 301.32 339.03 300.77 339.94 57.11 200.04" fill="#e9e9fb"/></g><g style="mix-blend-mode:multiply"><polygon points="49.04 207.43 49.59 206.52 293.25 346.42 292.7 347.33 49.04 207.43" fill="#e9e9fb"/></g></g><polygon points="68.59 211.09 68.59 241.95 160.46 294.97 160.46 264.11 68.59 211.09" fill="#d5d5f7"/><polygon points="160.46 264.11 160.46 294.97 299.83 215.49 299.83 183.5 160.46 264.11" fill="#0f193a"/><polygon points="66.79 210.8 206.4 130.71 300.07 183.5 160.46 264.11 66.79 210.8" fill="#22366d"/><polygon points="67.49 238.31 67.49 241.08 160.46 294.97 160.46 292.07 67.49 238.31" fill="#132057"/><polygon points="152.89 177.82 140.7 184.75 205.98 222.2 218.18 215.26 152.89 177.82" fill="#0f193a"/><polygon points="170.3 168.59 158.11 175.52 223.39 212.97 235.59 206.03 170.3 168.59" fill="#0f193a"/><path d="M213.79,164.45h0a1.87,1.87,0,0,0-1.11-.21l-7.82.72,1.39-4.5a.55.55,0,0,0-.32-.64l0,0a2.06,2.06,0,0,0-1.81,0l-9.84,5.57c-.5.29-.51.76,0,1.05a2,2,0,0,0,1.82,0l7-4-1,3.25c-.07.25.07.48.36.66h0a1.87,1.87,0,0,0,1.11.22l5.66-.53-7,4c-.5.29-.53.75,0,1a2.08,2.08,0,0,0,1.82,0l9.84-5.58A.56.56,0,0,0,213.79,164.45Z" fill="#f5f6f7" stroke="#f5f6f7" stroke-miterlimit="10" stroke-width="0.5"/><path d="M221.33,168.91a2,2,0,0,0-1.44-.17L206.5,172.2c-.65.18-1,.62-.67,1a1,1,0,0,0,.26.21,2,2,0,0,0,1.42.16l3-.76,3.92,2.31L213,176.81c-.24.29-.12.61.24.82a1.76,1.76,0,0,0,.35.15,1.87,1.87,0,0,0,1.74-.37l6.25-7.66C221.83,169.45,221.72,169.12,221.33,168.91Zm-5.76,4.78L213,172.15l4.9-1.26Z" fill="#f5f6f7" stroke="#f5f6f7" stroke-miterlimit="10" stroke-width="0.5"/><path d="M231.43,177a2,2,0,0,0,1.82,0c.52-.29.52-.76,0-1l-6.89-4.06a1.93,1.93,0,0,0-1.81,0c-.5.28-.54.75,0,1l2.55,1.5-8.91,5.05c-.52.29-.51.76,0,1a2,2,0,0,0,1.81,0l8.91-5Z" fill="#f5f6f7" stroke="#f5f6f7" stroke-miterlimit="10" stroke-width="0.5"/><path d="M243.7,182.06a2,2,0,0,0-1.8,0l-4,2.27-4.18-2.46,4-2.27c.52-.3.52-.76,0-1a2,2,0,0,0-1.81,0l-9.84,5.58c-.52.29-.53.75,0,1a2,2,0,0,0,1.82,0l4-2.26,4.18,2.46-4,2.27c-.51.29-.53.74,0,1a2,2,0,0,0,1.83,0l9.84-5.57C244.21,182.82,244.2,182.36,243.7,182.06Z" fill="#f5f6f7" stroke="#f5f6f7" stroke-miterlimit="10" stroke-width="0.5"/><g opacity="0.7" style="mix-blend-mode:multiply"><path d="M91.49,229.55l3.05,1.68,8,4.46c3.29,1.88,7.16,4,11.26,6.41l12.85,7.44,12.79,7.55c4.09,2.41,7.86,4.73,11.11,6.68s5.93,3.63,7.82,4.78l2.95,1.84-3-1.67c-1.93-1.08-4.71-2.59-8-4.47s-7.17-4-11.27-6.41l-12.85-7.44-12.79-7.55c-4.08-2.41-7.85-4.72-11.1-6.67l-7.82-4.79Z" fill="#e3e3e5"/><path d="M74.15,226.55l2.54,1.4c1.61.91,3.93,2.18,6.67,3.75s6,3.39,9.37,5.4l10.68,6.28L114,249.77c3.39,2,6.52,4,9.21,5.65s4.91,3.09,6.48,4.07l2.44,1.56-2.54-1.39c-1.61-.91-3.92-2.17-6.66-3.75s-6-3.39-9.37-5.4l-10.68-6.28-10.62-6.39c-3.39-2-6.51-4-9.21-5.65s-4.91-3.09-6.48-4.07Z" fill="#e3e3e5"/><path d="M95.15,246.22l2.54,1.4c1.61.91,3.93,2.17,6.67,3.75s6,3.39,9.37,5.4L124.41,263,135,269.43c3.39,2,6.52,4,9.21,5.66s4.91,3.09,6.48,4.07l2.44,1.56-2.54-1.4c-1.61-.91-3.92-2.17-6.66-3.75s-6-3.38-9.37-5.39L123.9,263.9l-10.62-6.39c-3.39-2-6.51-4-9.21-5.66s-4.91-3.08-6.48-4.06Z" fill="#e3e3e5"/></g><polygon points="135.8 265.38 155.06 276.6 155.06 303.76 143.85 292.95 135.94 292.95 135.8 265.38" fill="#9797ce"/><polygon points="219.59 127.9 256.92 149.46 256.79 49.36 219.59 127.9" fill="#d5d5f7"/><polygon points="294.02 127.9 256.7 149.46 256.83 49.36 294.02 127.9" fill="#bab9f3"/><polygon points="0 170.34 5.17 182.81 24.04 193.85 24.04 177.82 0 170.34" fill="#9797ce"/><polygon points="15.85 161.26 0 170.34 24.11 184.27 40.1 175.21 15.85 161.26" fill="#bab9f3"/><polygon points="56.1 184.41 40.1 175.21 24.11 184.27 40.07 193.49 56.1 184.41" fill="#f5ba5e"/><polygon points="24.04 193.85 24.11 184.27 40.07 193.49 56.1 184.41 64.11 198.34 48.42 207.43 24.04 193.85" fill="#dd9e4a"/><path d="M354,224.69a8,8,0,0,0-10.84-3c-7.79,4.43-21.08,12-34.23,19.51,2.27,3.55,4.47,7.14,6.84,10.63.6.89,1.21,1.78,1.8,2.67l33.45-19A8,8,0,0,0,354,224.69Z" fill="#dd9e4a"/><path d="M258.1,282.45l10.24.06v-.24a14.45,14.45,0,0,0-7.89-13.42l-5.15,8.77A14.43,14.43,0,0,1,258.1,282.45Z" fill="#e9e9fb"/><path d="M258.1,282.45a14.43,14.43,0,0,0-2.79-4.83l-2.81,4.8Z" fill="#132057"/><path d="M340.46,241.18l0,.38,6.54-3.71,0-.38a17.35,17.35,0,0,0-1.47-5.78l-6.1,3.48A14.32,14.32,0,0,1,340.46,241.18Z" fill="#e7ecff"/><path d="M339.39,235.17l6.1-3.48A17.89,17.89,0,0,0,339.1,224l-6.54,3.73A14.35,14.35,0,0,1,339.39,235.17Z" fill="#e9e9fb"/><path d="M340.44,241.56l0-.38a14.32,14.32,0,0,0-1.07-6l-57.27,32.64-14.84,8.46a14.31,14.31,0,0,1,1.07,6v.24l72.1-40.93Z" fill="#2244b0"/><path d="M340.46,241.18l0,.38,6.54-3.71,0-.38a17.35,17.35,0,0,0-1.47-5.78l-6.1,3.48A14.32,14.32,0,0,1,340.46,241.18Z" fill="#d5d5f7" opacity="0.5" style="mix-blend-mode:multiply"/><path d="M340.44,241.56l0-.38a14.32,14.32,0,0,0-1.07-6l-57.27,32.64-14.84,8.46a14.31,14.31,0,0,1,1.07,6v.24l72.1-40.93Z" fill="#0f193a"/><path d="M332.56,227.75h0l-72.1,41.1a14.37,14.37,0,0,1,6.82,7.42l14.84-8.46,57.27-32.64A14.35,14.35,0,0,0,332.56,227.75Z" fill="#132057"/><path d="M303.85,73.87V50.65c0-4.37-3.54-6.07-7.91-3.81h0c-4.37,2.27-7.92,7.65-7.92,12V100c0,3.5,2.84,4.87,6.33,3h0c3.5-1.81,6.33-6.11,6.33-9.61V65.22c0-2.48-2-3.44-4.48-2.16h0a8.61,8.61,0,0,0-4.48,6.81V92.81" fill="none" stroke="#171d51" stroke-linecap="round" stroke-linejoin="round" stroke-width="2"/><polygon points="301.22 143.63 301.22 178.26 306.94 181.21 307.13 146.81 301.22 143.63" fill="#0f193a"/><polygon points="301.22 101.57 301.22 136.21 306.94 139.16 307.13 104.76 301.22 101.57" fill="#c68c46"/><polygon points="341.85 119.31 306.94 139.16 307.13 104.76 342.04 84.91 341.85 119.31" fill="#dd9e4a"/><path d="M316.74,116.45a3.33,3.33,0,0,1,1.61-2.51l12.31-7c.86-.5,1.59-.19,1.58.69a3.33,3.33,0,0,1-1.6,2.48l-12.31,7C317.46,117.61,316.73,117.31,316.74,116.45Z" fill="#f5f6f7"/><polygon points="342.04 84.91 336.82 82 301.22 101.57 307.13 104.76 342.04 84.91" fill="#f5ba5e"/><polygon points="341.85 161.36 306.94 181.21 307.13 146.81 342.04 126.96 341.85 161.36" fill="#132057"/><polygon points="342.04 126.96 336.82 124.06 301.22 143.63 307.13 146.81 342.04 126.96" fill="#20326d"/><path d="M316.74,158.51a3.32,3.32,0,0,1,1.61-2.51l12.31-7c.86-.49,1.59-.19,1.58.69a3.33,3.33,0,0,1-1.6,2.48l-12.31,7C317.46,159.67,316.73,159.36,316.74,158.51Z" fill="#f5f6f7"/><path d="M327,147.61a5.09,5.09,0,0,1-2.49,3.86c-1.37.78-2.48.32-2.47-1a5.08,5.08,0,0,1,2.49-3.86C325.9,145.8,327,146.26,327,147.61Z" fill="#f5f6f7"/><path d="M327,157.73a5.11,5.11,0,0,1-2.5,3.86c-1.37.78-2.48.32-2.47-1a5.12,5.12,0,0,1,2.5-3.86C325.85,155.92,327,156.38,327,157.73Z" fill="#f5f6f7"/><polygon points="344.77 120.36 344.77 155 350.49 157.95 350.68 123.55 344.77 120.36" fill="#c68c46"/><polygon points="385.39 138.1 350.49 157.95 350.68 123.55 385.58 103.7 385.39 138.1" fill="#dd9e4a"/><polygon points="385.58 103.7 380.37 100.79 344.77 120.36 350.68 123.55 385.58 103.7" fill="#f5ba5e"/><path d="M373.07,123.58l-3.24,6.2,3.19,2.57c.46.33.29,1.35-.28,2.08a3.12,3.12,0,0,1-.87.78,1.26,1.26,0,0,1-1.18.09L368,133.19l-2.73,5.19a3.31,3.31,0,0,1-1.11,1.22,1.34,1.34,0,0,1-.87.2c-.62-.05-.75-.9-.28-1.75l3.27-6.25-3.22-2.53c-.46-.3-.32-1.28.3-2.06s1.49-1.17,2-.83l2.69,2,2.72-5.11a2.53,2.53,0,0,1,2.06-1.46C373.38,121.94,373.53,122.75,373.07,123.58Z" fill="#f5f6f7"/><polygon points="344.17 78.01 344.17 112.65 349.89 115.59 350.08 81.19 344.17 78.01" fill="#0f193a"/><polygon points="384.8 95.75 349.89 115.59 350.08 81.19 384.99 61.35 384.8 95.75" fill="#132057"/><polygon points="384.99 61.35 379.77 58.44 344.17 78.01 350.08 81.19 384.99 61.35" fill="#22366d"/><path d="M365.89,90.81,362.05,93c-.82.46-1.49.2-1.49-.62a3.13,3.13,0,0,1,1.5-2.32l3.85-2.18,0-3.71a3.11,3.11,0,0,1,1.55-2.4c.84-.48,1.54-.21,1.53.64l0,3.71,3.84-2.18c.82-.46,1.49-.18,1.48.62a3,3,0,0,1-1.49,2.31L369,89.06l0,3.7a3.14,3.14,0,0,1-1.55,2.4c-.86.49-1.54.21-1.53-.64Z" fill="#f5f6f7"/><polygon points="73.91 272.9 73.91 293.13 92.34 303.92 92.45 283.82 73.91 272.9" fill="#c68c46"/><polygon points="112.73 292.32 92.34 303.92 92.45 283.82 112.84 272.23 112.73 292.32" fill="#dd9e4a"/><polygon points="112.84 272.23 94.7 261.47 73.91 272.9 92.45 283.82 112.84 272.23" fill="#f5ba5e"/><path d="M105.53,283.84l-1.9,3.63,1.87,1.5c.27.19.17.79-.16,1.21a2,2,0,0,1-.51.46.76.76,0,0,1-.7.05l-1.56-1.24-1.6,3a1.8,1.8,0,0,1-.65.71.82.82,0,0,1-.5.12c-.36,0-.44-.53-.17-1l1.91-3.65-1.88-1.47c-.27-.18-.19-.75.18-1.21s.87-.68,1.15-.48l1.57,1.19,1.59-3a1.5,1.5,0,0,1,1.21-.86C105.71,282.88,105.8,283.36,105.53,283.84Z" fill="#f5f6f7"/><path d="M38,273.06l-3-3-.09,0-3.58-1.79h-.05a1.21,1.21,0,0,0-.45-.16,16.87,16.87,0,0,0-4.39-.33,7.21,7.21,0,0,0-2.52.84,6.88,6.88,0,0,0-2.44,2.4,6.43,6.43,0,0,0-1,3.58l7.7,3.63,1.8-2.15.1-.05A83.91,83.91,0,0,1,38,273.06Z" fill="#20326d"/><path d="M47.85,250.59q0-6.27-4.92-7.84-6-1.87-17.1,3.75l1.64-5.24L44.65,232l4.87-12.82L28.66,230,20.58,256c1.14-.64,2-1.13,2.59-1.44,5.73-3.11,9.59-1.27,13.37-1s5.67,2.35,5.67,6.13a10.61,10.61,0,0,1-1.85,5.65,12.27,12.27,0,0,1-4.5,4.35,7.49,7.49,0,0,1-.92.43l3,3c2.86-1.06,5.62-2.26,7-3.65a21.84,21.84,0,0,0,5.08-7.7C51.53,258.31,47.85,253.25,47.85,250.59Z" fill="#0f193a"/><polygon points="28.66 230.02 34.59 232.95 31.95 251.07 26.8 259.19 20.58 255.96 28.66 230.02" fill="#20326d"/><polygon points="49.52 219.13 55 221.88 42.11 230.45 34.59 232.95 28.66 230.02 49.52 219.13" fill="#0f193a"/><path d="M34.59,233,55,221.88,51.76,232l-17.17,9.31L33,246.5q11.1-5.61,17.1-3.75Q55,244.31,55,250.59a22.59,22.59,0,0,1-2.3,9.09,33.36,33.36,0,0,1-6.43,9.42,37,37,0,0,1-9.09,7c-3.57,1.93-6.31,2.76-8.23,2.46A2.07,2.07,0,0,1,27,276.4a5.74,5.74,0,0,1,1-3,6.88,6.88,0,0,1,2.44-2.4,7.44,7.44,0,0,1,2.52-.85,17.48,17.48,0,0,1,4.39.34,10.23,10.23,0,0,0,3.4,0,7.7,7.7,0,0,0,2.24-.85,12.32,12.32,0,0,0,4.49-4.35,10.54,10.54,0,0,0,1.86-5.65q0-5.67-5.68-6.13t-14.26,4.2c-.58.32-1.45.8-2.59,1.45Z" fill="#132057"/><path d="M174.66,43.68v-6.3c-2,1.11-4,2.15-6.14,3.09-.32.15-.64.28-1,.41V60.32c0,6.37.57,9.59,1.23,10.45l10.47,6,.14-35.56Z" fill="#af7a41"/><path d="M191.48,29.77l-10.46-6L149.79,41.64c-6.36,3.64-9.66,6.44-11.48,8.72l1,3.73c.7-.6,1.5-1.2,2.37-1.81l5.42,3.09c-.84,10.29-2.82,23.05-5.23,30.8l6.94-4c2.22-6.35,4.15-18.78,5.08-29Z" fill="#f5ba5e"/><path d="M153.64,55.6c0-.26.05-.51.07-.77-2,1.81-4,3.12-6.84,2.92-.92,9.82-2.78,21.26-5,28.42l10.46,6,6.24-15.8,1.91-23.15-6.59,2.31Z" fill="#af7a41"/><path d="M185.12,39.11V61.5c0,6.53.58,9.5,1.16,11.23l-7,4c-.66-.86-1.24-4.09-1.24-10.45V43.17l-13.14,7.51c-.33,10.68-2.73,29.23-5.62,37.5l-6.94,4c3-9.54,5.29-26.73,5.62-37.49a56.23,56.23,0,0,0-8.18,5.42l-1-3.73c1.82-2.28,5.12-5.08,11.49-8.72l31.22-17.85-.82,6.17Z" fill="#dd9e4a"/><polygon points="138.31 50.36 139.3 54.09 149.76 60.06 148.77 56.34 138.31 50.36" fill="#c68c46"/><path d="M97.33,64a17.91,17.91,0,0,1-1.45,1.38,9.2,9.2,0,0,1-1.76,1.21,3.89,3.89,0,0,1-2.48.7,1.51,1.51,0,0,1-1-1.25l-.09,0q-.48.86-.93,1.5a11.73,11.73,0,0,1-1,1.22A13.42,13.42,0,0,1,87.35,70a10.16,10.16,0,0,1-1.69,1.09,2.82,2.82,0,0,1-2.71.26c-.74-.4-1.08-1.26-1-2.58a8.18,8.18,0,0,1,.31-2.07,8.78,8.78,0,0,1,1.73-3.23c.37-.44.78-.88,1.22-1.32.84-.83,1.85-1.76,3-2.8a33.13,33.13,0,0,0,2.58-2.47l0-1.68c0-.29,0-.67,0-1.13a3.25,3.25,0,0,0-.2-1.08,1,1,0,0,0-.58-.62,1.32,1.32,0,0,0-1.08.2,4.11,4.11,0,0,0-1,.76,6.92,6.92,0,0,0-.67.8,5.37,5.37,0,0,0,.21.94,4.2,4.2,0,0,1,.15,1.28,3.42,3.42,0,0,1-.14.81,3.34,3.34,0,0,1-.38.9,4.49,4.49,0,0,1-1.95,1.76c-.78.42-1.36.49-1.75.23a1.67,1.67,0,0,1-.54-1.52,4.53,4.53,0,0,1,.66-2.09A12.22,12.22,0,0,1,85,54.39a15.32,15.32,0,0,1,2-1.88,14.31,14.31,0,0,1,2.11-1.41A18,18,0,0,1,91.63,50a3.93,3.93,0,0,1,2-.25,1.87,1.87,0,0,1,1.31,1,5.72,5.72,0,0,1,.42,2.77c0,1.32-.1,2.89-.19,4.72s-.15,3-.16,3.61A2.48,2.48,0,0,0,95.16,63a.62.62,0,0,0,.55.38,1.78,1.78,0,0,0,.74-.23c.34-.16.64-.32.92-.47Zm-6.61-5.46q-.78.75-1.56,1.59a12.33,12.33,0,0,0-1.27,1.57,6.15,6.15,0,0,0-.84,1.68,6.54,6.54,0,0,0-.35,1.95c0,.92.12,1.49.44,1.72a1.05,1.05,0,0,0,1.2,0,3.88,3.88,0,0,0,1.27-1.07,8.86,8.86,0,0,0,.89-1.43Z" fill="#132057"/><path d="M115.46,46.21l-6.55,3.49L108.68,58l-2.27,1.21.23-8.28L100.1,54.4l.08-2.87L106.72,48l.23-8.28,2.27-1.21L109,46.83l6.55-3.49Z" fill="#132057"/><path d="M135.07,35.81a16,16,0,0,1-2.24,7.62,13.51,13.51,0,0,1-5.28,5.37,11.58,11.58,0,0,1-2.09.9A6,6,0,0,1,124,50a3.45,3.45,0,0,1-1-.11l-.58-.22-2,3.33-.81,0c.07-.87.13-1.82.19-2.83s.12-2.37.17-4.06l.45-16.38a2.66,2.66,0,0,0-.18-1.12.87.87,0,0,0-.55-.56,1.57,1.57,0,0,0-.76,0,5,5,0,0,0-.92.3l0-1.27L124.84,23l.2.17-.31,11.38.08,0a16,16,0,0,1,2.12-2.92,8.49,8.49,0,0,1,2.15-1.72q2.89-1.55,4.5.07T135.07,35.81Zm-5,2.86a18,18,0,0,0-.08-2.48,6.35,6.35,0,0,0-.47-1.9,1.94,1.94,0,0,0-.94-1,1.77,1.77,0,0,0-1.49.24,5,5,0,0,0-1.41,1.09,7.8,7.8,0,0,0-1,1.56l-.28,10.19a4.28,4.28,0,0,0,.28.75,1.91,1.91,0,0,0,.44.64,1.21,1.21,0,0,0,.68.31,2,2,0,0,0,1-.32,5.44,5.44,0,0,0,2.27-3.13A19,19,0,0,0,130.09,38.67Z" fill="#132057"/><path d="M142.22,113.74l5.16,13.9-1.73.85-4,11.4,4,21.45,1.73-1.11c7.27-4.85,10.19-9.06,10.19-9.06V113.9Z" fill="#1d306d"/><path d="M91.88,83.83H90.31L77.9,119.26,120.53,128l25.12.48,1.73-.85c6.41-4.4,10.14-9.61,10.14-15.2C157.52,96.64,128.51,83.83,91.88,83.83Z" fill="#132057"/><path d="M91.88,114.58V116a3.22,3.22,0,0,1-.64.07c-2.18,0-3.18-2.23-3-4.31l-20.92-.78-43.91,1.5v38.73s19.35,23.41,66.71,23.41l1.78,0c26.82-.29,43.8-7,53.77-13.22V128.49Z" fill="#f5ba5e"/><path d="M90.31,83.83c-37,0-66.92,12.81-66.92,28.61s30,28.62,66.92,28.62c23.9,0,43.5-4.51,55.34-12.57L90.31,114.18Z" fill="#dd9e4a"/></g></g></g></svg>