<svg xmlns="http://www.w3.org/2000/svg" xmlns:xlink="http://www.w3.org/1999/xlink" viewBox="0 0 563.03 386.17"><defs><clipPath id="clip-path"><path d="M256.44,136.06l-23.83-13.85a18.9,18.9,0,0,1-3.3-2.42l23.83,13.84A18.46,18.46,0,0,0,256.44,136.06Z" fill="none"/></clipPath><clipPath id="clip-path-2"><path d="M288.49,332.72l0,11.34c0,.06,0,.12,0,.19l0-11.34A1.21,1.21,0,0,0,288.49,332.72Z" fill="none"/></clipPath><clipPath id="clip-path-3"><path d="M9.09,221l15.64-9.09a34.12,34.12,0,0,0-6.89,5.55L2.2,226.51A34.12,34.12,0,0,1,9.09,221Z" fill="none"/></clipPath></defs><title>Maths-Second</title><g id="Layer_2" data-name="Layer 2"><g id="OBJECTS"><path d="M18,247.92l161.25,96.19a4.88,4.88,0,0,0,4.9,0L472.24,179.29a4.85,4.85,0,0,0-3.15-9L19.73,239A4.85,4.85,0,0,0,18,247.92Z" fill="#ccc" opacity="0.34"/><g style="isolation:isolate"><polygon points="169.02 148.69 169.12 156.83 329.56 250.27 329.46 242.12 169.02 148.69" fill="#c5c5c5"/><polygon points="329.46 242.12 329.56 250.27 477.95 164.65 477.85 156.5 329.46 242.12" fill="#aa3967"/><polygon points="169.02 148.69 329.46 242.12 477.85 156.5 317.41 63.07 169.02 148.69" fill="#582536"/></g><g style="isolation:isolate"><polygon points="20.66 234.16 20.76 242.31 181.2 335.74 181.11 327.59 20.66 234.16" fill="#893656"/><polygon points="181.11 327.59 181.2 335.74 329.59 250.13 329.49 241.98 181.11 327.59" fill="#aa3967"/><polygon points="20.66 234.16 181.11 327.59 329.49 241.98 169.05 148.54 20.66 234.16" fill="#582536"/></g><g style="isolation:isolate"><polygon points="172.84 116.76 172.94 150.8 325.66 239.55 325.56 205.51 172.84 116.76" fill="#c5c5c5"/><path d="M325.56,205.51l.1,34,144-83.11s-3.68-9.94-4.07-13.42c-1.14-10.23,4-20.62,4-20.62Z" fill="#ffe0b8"/><polygon points="172.84 116.76 325.56 205.51 469.51 122.4 316.79 33.65 172.84 116.76" fill="#edcca9"/></g><path d="M234.56,69.6c-41.18,23.78-60.87,46-61.91,47.21l152.73,88.75C338.45,190,358.25,175.87,378.85,164,420,140.2,462.18,126,464.4,125.3L311.68,36.54A359.54,359.54,0,0,0,234.56,69.6Z" fill="#f9e8d9"/><g style="isolation:isolate"><polygon points="181.72 288.67 181.82 322.71 325.77 239.6 325.67 205.56 181.72 288.67" fill="#ffe0b8"/><path d="M28.29,199.46s4.62,10.92,4,21c-.42,6.47-3.88,13.07-3.88,13.07l153.44,89.21s1.11-14.55,1.05-19.41c-.05-3.67-1.15-14.63-1.15-14.63Z" fill="#ffd28e"/><polygon points="29 199.92 181.72 288.67 325.67 205.56 172.95 116.81 29 199.92" fill="#edcca9"/><polyline points="30.18 204 181.94 292.2 447.86 139.04" fill="none" stroke="#cea672" stroke-miterlimit="10"/><polyline points="31.24 209.16 182.42 297.02 449.55 145.85" fill="none" stroke="#cea672" stroke-miterlimit="10"/><polyline points="32.1 214.2 182.9 301.84 448.6 152.02" fill="none" stroke="#cea672" stroke-miterlimit="10"/><polyline points="32.32 218.87 182.81 306.32 450.08 156.16" fill="none" stroke="#cea672" stroke-miterlimit="10"/><polyline points="32.1 223.28 182.61 310.74 451.2 160.42" fill="none" stroke="#cea672" stroke-miterlimit="10"/><polyline points="30.93 227.14 182.34 315.13 468.01 154.05" fill="none" stroke="#cea672" stroke-miterlimit="10"/><polyline points="29.57 230.89 182.05 319.5 457.63 162.25" fill="none" stroke="#cea672" stroke-miterlimit="10"/></g><path d="M95.84,149.92C54.65,173.7,35,196,33.92,197.14l152.73,88.75c13.07-15.58,32.87-29.69,53.47-41.59,41.19-23.78,83.33-37.93,85.55-38.67L173,116.87A359.46,359.46,0,0,0,95.84,149.92Z" fill="#ffedd9"/><ellipse cx="232" cy="158.05" rx="73.91" ry="22.89" transform="translate(-47.94 137.18) rotate(-30)" fill="#ccc" opacity="0.34"/><g style="isolation:isolate"><g style="isolation:isolate"><g clip-path="url(#clip-path)"><g style="isolation:isolate"><path d="M256.44,136.06l-23.83-13.85a18.9,18.9,0,0,1-3.3-2.42l23.83,13.84a18.46,18.46,0,0,0,3.3,2.43" fill="#4a4a4a"/></g></g></g><path d="M288.22,40.36c7.51-3.49,16.72-5.09,24.24-.73h0l-13.89-8.07-8.17-4.75a24.81,24.81,0,0,0-8.53-3.41c-7.46-1.17-15,1.46-21.39,5.14l8.8,5.11q6.53,3.81,13.07,7.6a17.94,17.94,0,0,0,1.7,1c.07,0,.18.15.26.15s.54-.31.69-.39c.37-.21.75-.41,1.14-.61C286.82,41,287.52,40.68,288.22,40.36Z" fill="#ef78bf"/><path d="M267.37,95a72.38,72.38,0,0,0,.42-22.23,46.75,46.75,0,0,0-2.29-9.09c-.25-.68-.52-1.35-.81-2a5,5,0,0,0-.58-1.24,3.2,3.2,0,0,0-.51-.29l-17.28-10-6-3.5c4,8.29,4.76,17.85,4.13,26.92a99.75,99.75,0,0,1-7.05,29.6,124.73,124.73,0,0,1-6.57,14c-.3.56-.61,1.12-.92,1.68-.09.16-.63.85-.57,1s.18.09.22.13a10.54,10.54,0,0,0,1.35.78l12.26,7.13,6.31,3.66,2.26,1.32a6.35,6.35,0,0,0,1.26.73.65.65,0,0,1,.16.09,119,119,0,0,0,12.33-29.7C266.23,101,266.88,98,267.37,95Z" fill="#4a4a4a"/><path d="M265.74,58.45a71,71,0,0,1,18.57-16.06L271,34.65l-8.2-4.76a20.49,20.49,0,0,0-2.08-1.21c-.42-.18-.37-.06-.92.26-1.35.82-2.68,1.69-4,2.6a76.92,76.92,0,0,0-15.54,15l8.56,5,12.95,7.52,1.9,1.1c.09,0,.28.22.38.22s.25-.25.34-.35C264.86,59.51,265.3,59,265.74,58.45Z" fill="#e259a4"/><path d="M284.31,42.39C306.16,29.78,323.93,39.9,324,65s-17.59,55.67-39.43,68.29c-12.79,7.38-24.17,7-31.43.33,9.51-16.47,15.36-35,15.31-51.76,0-8.49-1.56-15.7-4.32-21.44A72.84,72.84,0,0,1,284.31,42.39Z" fill="#f18cd0"/></g><g style="isolation:isolate"><path d="M264.13,60.42c2.76,5.75,4.3,13,4.33,21.45,0,16.73-5.81,35.28-15.32,51.76-5.15-4.71-8.23-12.54-8.26-22.95C244.84,94.06,252.56,75,264.13,60.42Z" fill="#694ec3"/></g><g style="isolation:isolate"><path d="M217.69,50.5c8.46-4.49,18.4-7.45,28-5.34a25.94,25.94,0,0,1,7.4,2.86l-16.16-9.38-7.32-4.26a28.5,28.5,0,0,0-15.48-3.74c-7.93.29-15.61,3.28-22.42,7.21l8.57,5,13,7.52,1.9,1.11a1.45,1.45,0,0,0,.38.22c.14,0,.33-.15.46-.22C216.52,51.13,217.11,50.81,217.69,50.5Z" fill="#ffd773"/><path d="M162.93,142.79c0-14.34,4-28.6,10-41.53a123,123,0,0,1,24.36-35.32A89,89,0,0,1,215.52,51.7l-8.57-5-13-7.56-1.72-1c-.66-.39-.57-.29-1.37.19a89.1,89.1,0,0,0-12.12,8.85,111,111,0,0,0-19.89,22.87,126,126,0,0,0-13.73,27.07,95.74,95.74,0,0,0-6,30.1c-.19,8.32,1,17,5,24.45a28.66,28.66,0,0,0,11,11.43l11.24,6.53,11.39,6.61.64.38c-8.46-4.92-12.9-14.23-14.53-23.57A61,61,0,0,1,162.93,142.79Z" fill="#eaa40a"/><path d="M215.52,51.7c21.76-12.56,40.48-8.22,48.61,8.72C252.56,75,244.84,94.06,244.89,110.68c0,10.41,3.1,18.24,8.26,22.95-9.53,16.5-22.7,30.91-37.28,39.33-29.14,16.83-52.85,3.32-52.94-30.17S186.38,68.52,215.52,51.7Z" fill="#f7b53d"/></g><g style="isolation:isolate"><path d="M261,117.42q-.94,2.37-2,4.7l-8.12,9.16a16.55,16.55,0,0,1-1-1.34Z" fill="#4ac5b1"/><path d="M264.87,106.22c-.36,1.25-.73,2.49-1.14,3.74l-15.36,17.33c-.26-.52-.51-1.06-.75-1.61Z" fill="#4ac5b1"/><path d="M267.05,96.89c-.19,1-.41,2.11-.64,3.17l-19.92,22.47c-.18-.61-.35-1.24-.5-1.89Z" fill="#4ac5b1"/></g><path d="M268.15,88.77c-.08.92-.17,1.84-.28,2.77L245.31,117c-.1-.7-.18-1.43-.25-2.17Z" fill="#4ac5b1"/><path d="M268.45,81.55v.36c0,.71,0,1.41,0,2.12l-23.54,26.56c0-.84,0-1.68.05-2.52Z" fill="#4ac5b1"/><path d="M267.13,69.29c.14.65.28,1.32.4,2L247.07,94.36q.47-1.78,1-3.6Z" fill="#4ac5b1"/><path d="M265.64,64.09c.2.59.4,1.18.59,1.79L250.75,83.33q1-2.47,2.19-4.92Z" fill="#4ac5b1"/><path d="M268.08,75.09q.12,1.09.21,2.22l-22.92,25.85c.12-1,.27-2,.44-3Z" fill="#4ac5b1"/><g style="isolation:isolate"><polygon points="93.35 199.4 87.47 195.98 121.81 176.15 127.7 179.57 93.35 199.4" fill="#ff8f83"/><polygon points="92.17 201.45 86.29 198.03 85.81 30.92 91.7 34.34 92.17 201.45" fill="#e05446"/><polygon points="91.7 34.34 85.81 30.92 87 30.24 92.88 33.66 91.7 34.34" fill="#ff8f83"/><polygon points="92.88 33.66 93.35 199.4 127.7 179.57 127.7 180.93 92.17 201.45 91.7 34.34 92.88 33.66" fill="#fa6551"/></g><g style="isolation:isolate"><polygon points="104.08 43.28 99.38 40.55 99.38 39.46 104.08 42.2 104.08 43.28" fill="#e05446"/><polygon points="104.08 42.2 99.38 39.46 113.89 31.09 118.59 33.82 104.08 42.2" fill="#ff8f83"/><polygon points="118.59 33.82 118.59 34.9 104.08 43.28 104.08 42.2 118.59 33.82" fill="#fa6551"/></g><g style="isolation:isolate"><polygon points="104.08 55.71 99.38 52.98 99.38 51.89 104.08 54.63 104.08 55.71" fill="#e05446"/><polygon points="104.08 54.63 99.38 51.89 113.89 43.52 118.59 46.25 104.08 54.63" fill="#ff8f83"/><polygon points="118.59 46.25 118.59 47.33 104.08 55.71 104.08 54.63 118.59 46.25" fill="#fa6551"/></g><g style="isolation:isolate"><polygon points="104.08 68.14 99.38 65.41 99.38 64.32 104.08 67.05 104.08 68.14" fill="#e05446"/><polygon points="104.08 67.05 99.38 64.32 113.89 55.94 118.59 58.67 104.08 67.05" fill="#ff8f83"/><polygon points="118.59 58.67 118.59 59.76 104.08 68.14 104.08 67.05 118.59 58.67" fill="#fa6551"/></g><g style="isolation:isolate"><polygon points="104.08 80.56 99.38 77.83 99.38 76.75 104.08 79.48 104.08 80.56" fill="#e05446"/><polygon points="104.08 79.48 99.38 76.75 113.89 68.37 118.59 71.1 104.08 79.48" fill="#ff8f83"/><polygon points="118.59 71.1 118.59 72.19 104.08 80.56 104.08 79.48 118.59 71.1" fill="#fa6551"/></g><g style="isolation:isolate"><polygon points="104.08 92.99 99.38 90.26 99.38 89.18 104.08 91.91 104.08 92.99" fill="#e05446"/><polygon points="104.08 91.91 99.38 89.18 113.89 80.8 118.59 83.53 104.08 91.91" fill="#ff8f83"/><polygon points="118.59 83.53 118.59 84.62 104.08 92.99 104.08 91.91 118.59 83.53" fill="#fa6551"/></g><g style="isolation:isolate"><polygon points="104.08 105.42 99.38 102.69 99.38 101.6 104.08 104.33 104.08 105.42" fill="#e05446"/><polygon points="104.08 104.33 99.38 101.6 113.89 93.22 118.59 95.95 104.08 104.33" fill="#ff8f83"/><polygon points="118.59 95.95 118.59 97.04 104.08 105.42 104.08 104.33 118.59 95.95" fill="#fa6551"/></g><g style="isolation:isolate"><polygon points="104.08 117.85 99.38 115.12 99.38 114.03 104.08 116.76 104.08 117.85" fill="#e05446"/><polygon points="104.08 116.76 99.38 114.03 113.89 105.65 118.59 108.38 104.08 116.76" fill="#ff8f83"/><polygon points="118.59 108.38 118.59 109.47 104.08 117.85 104.08 116.76 118.59 108.38" fill="#fa6551"/></g><g style="isolation:isolate"><polygon points="104.08 130.28 99.38 127.55 99.38 126.45 104.08 129.19 104.08 130.28" fill="#e05446"/><polygon points="104.08 129.19 99.38 126.45 113.89 118.08 118.59 120.81 104.08 129.19" fill="#ff8f83"/><polygon points="118.59 120.81 118.59 121.9 104.08 130.28 104.08 129.19 118.59 120.81" fill="#fa6551"/></g><g style="isolation:isolate"><polygon points="104.08 142.7 99.38 139.97 99.38 138.88 104.08 141.62 104.08 142.7" fill="#e05446"/><polygon points="104.08 141.62 99.38 138.88 113.89 130.51 118.59 133.24 104.08 141.62" fill="#ff8f83"/><polygon points="118.59 133.24 118.59 134.32 104.08 142.7 104.08 141.62 118.59 133.24" fill="#fa6551"/></g><g style="isolation:isolate"><polygon points="104.08 155.13 99.38 152.4 99.38 151.31 104.08 154.04 104.08 155.13" fill="#e05446"/><polygon points="104.08 154.04 99.38 151.31 113.89 142.94 118.59 145.67 104.08 154.04" fill="#ff8f83"/><polygon points="118.59 145.67 118.59 146.75 104.08 155.13 104.08 154.04 118.59 145.67" fill="#fa6551"/></g><g style="isolation:isolate"><polygon points="104.08 167.56 99.38 164.83 99.38 163.74 104.08 166.47 104.08 167.56" fill="#e05446"/><polygon points="104.08 166.47 99.38 163.74 113.89 155.36 118.59 158.09 104.08 166.47" fill="#ff8f83"/><polygon points="118.59 158.09 118.59 159.18 104.08 167.56 104.08 166.47 118.59 158.09" fill="#fa6551"/></g><g style="isolation:isolate"><polygon points="104.08 179.98 99.38 177.25 99.38 176.17 104.08 178.9 104.08 179.98" fill="#e05446"/><polygon points="104.08 178.9 99.38 176.17 113.89 167.79 118.59 170.52 104.08 178.9" fill="#ff8f83"/><polygon points="118.59 170.52 118.59 171.61 104.08 179.98 104.08 178.9 118.59 170.52" fill="#fa6551"/></g><path d="M339.87,67.38l.77,3.16a1.17,1.17,0,0,0,1.4.86l14.69-3.57a2.79,2.79,0,0,0,2-3.37h0a2.79,2.79,0,0,0-3.37-2.06L340.72,66A1.17,1.17,0,0,0,339.87,67.38Z" fill="#e59885"/><path d="M344.27,70.05h0a2.78,2.78,0,0,0-.79-3.86l-15.59-8.94-1.45,2.19,14,11.4A2.79,2.79,0,0,0,344.27,70.05Z" fill="#e59885"/><path d="M327.89,57.25s.16-2.85-.5-3.54S326.26,55,326.26,55a12.19,12.19,0,0,0-.86-.9c-.22-.21-.43-.33-.53-.63,0-.06-.11-.75,0-.74a1.17,1.17,0,0,0-1.11.9c-.17.49-.17,1-.34,1.5-.08.21-.18.4-.25.6a2,2,0,0,0,.24,1.74c.38.55.85.62,1.41.85s1,.59,1.52.84Z" fill="#e59885"/><path d="M353.66,119.74h0a3.44,3.44,0,0,1-2.65-4.08L356,92l10.72,2.27-9,22.85A3.44,3.44,0,0,1,353.66,119.74Z" fill="#513242"/><path d="M354.56,115h0a3.44,3.44,0,0,0-3.9,2.92l-4.3,29.76,4.29.62,6.82-29.4A3.44,3.44,0,0,0,354.56,115Z" fill="#513242"/><path d="M373.32,120.64h0a3.44,3.44,0,0,1-3.61-3.26l-4.33-24,9.93-.52L376.58,117A3.44,3.44,0,0,1,373.32,120.64Z" fill="#513242"/><path d="M373,115.91h0a3.44,3.44,0,0,0-2.69,4l5.93,29.49,4.24-.86-3.43-30A3.44,3.44,0,0,0,373,115.91Z" fill="#513242"/><path d="M355.19,93.46a61.45,61.45,0,0,0,10.76.77,36.35,36.35,0,0,0,10.16-1.79l-1.73-27.88a4.19,4.19,0,0,0-4-3.93c-1.86-.06-4.14-.11-6.27,0a85.15,85.15,0,0,0-9.79,1.21Z" fill="#59ccbd"/><path d="M346.36,147.65s-5.14-.66-5.83,1.13l9.84,1.42.28-1.93Z" fill="#f96692"/><rect x="362.26" y="56.38" width="4.08" height="5.86" transform="translate(722.38 148.79) rotate(-175.22)" fill="#cc8071"/><path d="M376.15,148.75s-5.17.27-5.53,2.16l9.94-.37-.08-1.95Z" fill="#f96692"/><path d="M359.55,51.42a33.94,33.94,0,0,0,.8,6.27,1.63,1.63,0,0,0,.27.7,1.89,1.89,0,0,0,1.47.53c4.25.22,7.62-2.17,8-6.65.4-4.85-2.73-7.29-7.12-7.9a2.89,2.89,0,0,0-2.54.76,4.07,4.07,0,0,0-.78,2.42A33.29,33.29,0,0,0,359.55,51.42Z" fill="#e59885"/><path d="M382,81.05l2.68-1.85a1.26,1.26,0,0,0,.2-1.76L375,63.1A3,3,0,0,0,370.89,62h0a3,3,0,0,0-.47,4.23l9.87,14.34A1.27,1.27,0,0,0,382,81.05Z" fill="#e59885"/><rect x="364.94" y="71.61" width="14.83" height="20.58" rx="2.79" transform="translate(115.25 363.43) rotate(-60)" fill="#a6a6ba"/><path d="M384.72,77.41h0A2.67,2.67,0,0,0,381.25,76l-14.22,8,1.12,2.38L383.62,81A2.66,2.66,0,0,0,384.72,77.41Z" fill="#e59885"/><path d="M368.61,85.65a1,1,0,0,1-.43,1c-.31.23-.55.54-.85.77a2.92,2.92,0,0,1-2.9.24,1.91,1.91,0,0,1-.78-.56,1,1,0,0,1-.21-.91,3.62,3.62,0,0,1,.51-.74c.27-.38.38-.89.75-1.18A2.18,2.18,0,0,1,366,84c.28,0,.94-.29,1.15-.26.45.07.83,1,1.11,1.37C368.32,85.24,368.57,85.48,368.61,85.65Z" fill="#e59885"/><path d="M364.08,60.59c1.43,0,2.92,0,4.32,0a4.68,4.68,0,0,1-9.17.46C360.85,60.83,362.61,60.64,364.08,60.59Z" fill="#2fae9b"/><path d="M364.08,60.59c1.09,0,2.23,0,3.32,0a3.64,3.64,0,0,1-7.21.36C361.53,60.76,362.89,60.63,364.08,60.59Z" fill="#cc8071"/><path d="M367.69,56.66A3.74,3.74,0,0,1,366.51,58a.2.2,0,0,0-.08.08s0,0,0,.07a3.16,3.16,0,0,0,0,.92,4.66,4.66,0,0,0,3.48-1.84,5.49,5.49,0,0,0,1.05-2.47,8,8,0,0,0,.05-1.29c0-.44.1-.88.1-1.32a9.67,9.67,0,0,0-.65-3.14A3.72,3.72,0,0,0,370,48a1.26,1.26,0,0,0-.83-.54.28.28,0,0,0-.2,0,.3.3,0,0,0-.11.24,9.15,9.15,0,0,0,0,1.57,14.26,14.26,0,0,1-.51,4.31,5.14,5.14,0,0,0-.36,1.29,3.82,3.82,0,0,1-.14,1.5A1.47,1.47,0,0,1,367.69,56.66Z" fill="#4a40a0"/><path d="M359.23,61.6a19.37,19.37,0,0,0-12.37,2.88s2.12,6,6.53,9.33a22.94,22.94,0,0,0,6.15-8.55A5,5,0,0,0,359.23,61.6Z" fill="#59ccbd"/><path d="M370.15,60.56s4.46-.06,7.13,5.13l1.88,2.3s-1.77,5.94-4.46,7C374.7,75,366.45,65.46,370.15,60.56Z" fill="#59ccbd"/><path d="M327.94,49.05l-3.75,1.27a.37.37,0,0,0-.24.34L324,61.34a.34.34,0,0,0,.46.33l3.75-1.27a.33.33,0,0,0,.24-.33l0-10.68A.37.37,0,0,0,327.94,49.05Z" fill="#2c1d75"/><path d="M327.94,49.05l-3.75,1.27a.37.37,0,0,0-.24.34L324,61.34a.34.34,0,0,0,.46.33l3.75-1.27a.33.33,0,0,0,.24-.33l0-10.68A.37.37,0,0,0,327.94,49.05Z" fill="#5549ad"/><path d="M328.21,60.4a.33.33,0,0,0,.24-.33l0-10.61-3.66,1.23a.36.36,0,0,0-.24.34l.05,10.61Z" fill="#2c1d75"/><path d="M327.86,51.27c0,.26-.13.46-.28.46s-.28-.2-.28-.46.12-.46.28-.46S327.86,51,327.86,51.27Z" fill="#6958dd"/><path d="M327.74,55.69c-.26-.37-.51-.81-.08-.91a.71.71,0,0,1,.52.14,3,3,0,0,1,1.21,1.93c.08.39.11,1.14-.3,1.38s-.86-.15-1-.38a1,1,0,0,1-.12-.79,4.21,4.21,0,0,1,.16-.61.41.41,0,0,0,0-.16.25.25,0,0,0,0-.11A5.89,5.89,0,0,0,327.74,55.69Z" fill="#e59885"/><path d="M366.12,48.42S362,51.1,359,50.65c0,0-3.27-6.43,1.83-7.38S369,46.71,369,46.71s2.29,2.11,1.95,4.36-2.89,4.35-2.89,4.35S365.12,49.84,366.12,48.42Z" fill="#4a40a0"/><path d="M367.65,53a1,1,0,0,1,.57-.32.71.71,0,0,1,.68.45A1.45,1.45,0,0,1,369,54a3.43,3.43,0,0,1-1.67,2.44c-.18-.63-.35-1.26-.49-1.9a.72.72,0,0,1,.18-.76C367.22,53.54,367.41,53.26,367.65,53Z" fill="#e59885"/><path d="M421.86,267.69c23.25,1.35,73.22,8.79,93.59,11.92A23.4,23.4,0,0,0,532,276l30.56-20.28a1.12,1.12,0,0,0-.37-2L438.19,226.49a2,2,0,0,0-1.84,3.41l27.45,27a1.12,1.12,0,0,1-.69,1.81l-41.36,6.71A1.12,1.12,0,0,0,421.86,267.69Z" fill="#ccc" opacity="0.34"/><g style="isolation:isolate"><polygon points="453.15 217.14 482.58 200.04 524.64 224.32 495.21 241.43 453.15 217.14" fill="#4ac3bc"/><polygon points="453.36 145.57 482.78 128.47 482.58 200.04 453.15 217.14 453.36 145.57" fill="#2e8989"/><polygon points="440.45 91.49 469.88 74.39 549.47 256.65 520.04 273.75 440.45 91.49" fill="#4ac3bc"/><path d="M440.45,91.49,520,273.75l-80-46.17Zm12.91,54.08-.21,71.57,42.06,24.29-41.85-95.86" fill="#3bafb2"/></g><polygon points="445.55 119.17 445.54 121.12 440.45 118.18 440.46 116.23 445.55 119.17" fill="#06457e"/><polygon points="444.1 122.85 444.09 124.8 440.45 122.7 440.46 120.75 444.1 122.85" fill="#06457e"/><polygon points="444.1 126.95 444.09 128.9 440.45 126.8 440.46 124.85 444.1 126.95" fill="#06457e"/><polygon points="444.1 131.05 444.09 132.99 440.45 130.89 440.46 128.95 444.1 131.05" fill="#06457e"/><polygon points="445.55 135.56 445.54 137.51 440.45 134.57 440.46 132.63 445.55 135.56" fill="#06457e"/><polygon points="444.1 139.25 444.09 141.2 440.45 139.1 440.46 137.15 444.1 139.25" fill="#06457e"/><polygon points="444.1 143.35 444.09 145.29 440.45 143.19 440.46 141.25 444.1 143.35" fill="#06457e"/><polygon points="444.1 147.44 444.09 149.39 440.45 147.29 440.46 145.34 444.1 147.44" fill="#06457e"/><polygon points="445.55 151.96 445.54 153.91 440.45 150.97 440.46 149.02 445.55 151.96" fill="#06457e"/><polygon points="444.1 155.65 444.09 157.59 440.45 155.49 440.46 153.54 444.1 155.65" fill="#06457e"/><polygon points="444.1 159.74 444.09 161.69 440.45 159.59 440.46 157.64 444.1 159.74" fill="#06457e"/><polygon points="444.1 163.84 444.09 165.79 440.45 163.69 440.46 161.74 444.1 163.84" fill="#06457e"/><polygon points="445.55 168.36 445.54 170.31 440.45 167.37 440.46 165.42 445.55 168.36" fill="#06457e"/><polygon points="444.1 172.04 444.09 173.99 440.45 171.89 440.46 169.94 444.1 172.04" fill="#06457e"/><polygon points="444.1 176.14 444.09 178.09 440.45 175.99 440.46 174.04 444.1 176.14" fill="#06457e"/><polygon points="444.1 180.24 444.09 182.18 440.45 180.08 440.46 178.14 444.1 180.24" fill="#06457e"/><polygon points="445.55 184.75 445.54 186.7 440.45 183.76 440.46 181.81 445.55 184.75" fill="#06457e"/><polygon points="444.1 188.44 444.09 190.39 440.45 188.29 440.46 186.34 444.1 188.44" fill="#06457e"/><polygon points="444.1 192.54 444.09 194.48 440.45 192.38 440.46 190.44 444.1 192.54" fill="#06457e"/><polygon points="444.1 196.63 444.09 198.58 440.45 196.48 440.46 194.53 444.1 196.63" fill="#06457e"/><polygon points="445.55 201.15 445.54 203.1 440.45 200.16 440.46 198.21 445.55 201.15" fill="#06457e"/><polygon points="444.1 204.84 444.09 206.78 440.45 204.68 440.46 202.73 444.1 204.84" fill="#06457e"/><polygon points="444.1 208.93 444.09 210.88 440.45 208.78 440.46 206.83 444.1 208.93" fill="#06457e"/><polygon points="444.1 213.03 444.09 214.98 440.45 212.88 440.46 210.93 444.1 213.03" fill="#06457e"/><polygon points="445.55 217.55 445.54 219.5 440.45 216.56 440.46 214.61 445.55 217.55" fill="#06457e"/><polygon points="444.1 221.23 444.09 223.18 440.45 221.08 440.46 219.13 444.1 221.23" fill="#06457e"/><polygon points="444.1 225.33 444.09 227.28 440.45 225.18 440.46 223.23 444.1 225.33" fill="#06457e"/><path d="M468.9,227.1h.9a0,0,0,0,1,0,0v15.53a2.25,2.25,0,0,1-2.25,2.25h-.44a2.25,2.25,0,0,1-2.25-2.25V231.15a4,4,0,0,1,4-4Z" transform="translate(208.4 -219.03) rotate(33.56)" fill="#e86042"/><path d="M479.09,257.08s1.77,11.19-8.74,9c0,0-7.41-.31-10.11-3.84l.84-9.68Z" fill="#2c1d75"/><path d="M465.55,242.84h0a2.47,2.47,0,0,0-1.67-3.08l-15.56-3.5-.66,2.23,14.82,6A2.47,2.47,0,0,0,465.55,242.84Z" fill="#e86042"/><path d="M463.23,252.91a43.28,43.28,0,0,0,7.8,3.32,25.65,25.65,0,0,0,8.05,1l5.67-21.84c.8-3.1-.64-6.22-3.31-7.16-.89-.31-1.83-.62-2.73-.88-1.27-.37-3.6.2-5,0a4.08,4.08,0,0,0-4.42,3.12Z" fill="#f66c45"/><path d="M438,262.55h0a3,3,0,0,1,2.37-3.61l21-4.35,10.12,10.77-29.92-.44A3,3,0,0,1,438,262.55Z" fill="#241c63"/><path d="M442.27,261.7h0a3.06,3.06,0,0,0-3.48-2.56l-26.38,4,.58,3.8,26.71-1.73A3.07,3.07,0,0,0,442.27,261.7Z" fill="#241c63"/><path d="M412.41,263.11s-.75-4.53-2.45-4.66l1.31,8.72,1.72-.26Z" fill="#35248a"/><path d="M455.44,246.35h0a3.06,3.06,0,0,1,4.32.06l16.92,13.51-6.33,6.15-15-15.4A3.05,3.05,0,0,1,455.44,246.35Z" fill="#2c1d75"/><path d="M458.72,245.65h0a3,3,0,0,0-4.1,1.33l-12.15,23.75,3.42,1.75,14.16-22.72A3.06,3.06,0,0,0,458.72,245.65Z" fill="#2c1d75"/><path d="M443.51,269.39s-5.9,1.46-6.37,3.09l8.58.81.19-1Z" fill="#35248a"/><path d="M495,223.52l-1.85-2.22a1,1,0,0,0-1.45-.13L480.5,230.5a2.48,2.48,0,0,0-.31,3.49h0a2.48,2.48,0,0,0,3.49.31L494.84,225A1,1,0,0,0,495,223.52Z" fill="#f66c45"/><path d="M496.21,223.63h0a2.48,2.48,0,0,0-1.54-3.14l-15.4-4.14-.75,2.21,14.55,6.62A2.47,2.47,0,0,0,496.21,223.63Z" fill="#f66c45"/><path d="M479.47,216.57s-.51-2.48-1.22-2.92-.69,1.32-.69,1.32-3.4-2.32-4.15-1.23-1.36,3.42,5.15,4.78Z" fill="#dad180"/><path d="M448.3,236.44s-1.09-2.28-1.9-2.53-.34,1.45-.34,1.45-3.87-1.42-4.32-.19-.49,3.66,6.15,3.39Z" fill="#e09d82"/><path d="M445.43,228.53l-3.51,1.82a.35.35,0,0,0-.18.37l1.67,10.55a.35.35,0,0,0,.51.26l3.51-1.83a.34.34,0,0,0,.19-.36l-1.68-10.55A.35.35,0,0,0,445.43,228.53Z" fill="#2c1d75"/><path d="M445.43,228.53l-3.51,1.82a.35.35,0,0,0-.18.37l1.67,10.55a.35.35,0,0,0,.51.26l3.51-1.83a.34.34,0,0,0,.19-.36l-1.68-10.55A.35.35,0,0,0,445.43,228.53Z" fill="#5549ad"/><path d="M447.43,239.7a.34.34,0,0,0,.19-.36L446,228.85l-3.42,1.78a.37.37,0,0,0-.19.37L444,241.48Z" fill="#2c1d75"/><path d="M447,238.9a.3.3,0,0,0,.15-.31L445.78,230,443,231.44a.31.31,0,0,0-.16.3l1.37,8.62Z" fill="#54b4ca"/><path d="M445.41,233.28a1.12,1.12,0,0,0,.17,1.36,3.45,3.45,0,0,1,.28.26,1.58,1.58,0,0,1,.29.63,3,3,0,0,0,1.06,1.72c.09.06.21.12.3.06s.1-.2.09-.31a13.6,13.6,0,0,0-.25-1.42,3.51,3.51,0,0,0-.38-1.24C446.84,234.18,445.31,233.44,445.41,233.28Z" fill="#e09d82"/><path d="M480.33,228.46a2.3,2.3,0,0,0-.09-.64c-.51-.16-1-.33-1.53-.47a13.38,13.38,0,0,0-3.58,0,2.18,2.18,0,0,0-.29,1.1,2.76,2.76,0,0,0,5.49,0Z" fill="#a86a54"/><rect x="475.78" y="223.33" width="3.62" height="5.2" transform="matrix(-1, 0.07, -0.07, -1, 970.07, 417.23)" fill="#a86a54"/><path d="M472.4,219.88a10.84,10.84,0,0,0,.2,1.88,10.16,10.16,0,0,0,.72,2.43,5.06,5.06,0,0,0,1.1,1.49.83.83,0,0,0,.94.25c1.72-.38,3.37-.34,4.6-1.8a6.91,6.91,0,0,0,1.41-4.9c-.24-3.33-2.45-5.88-4.94-5.71C473.26,213.75,472.32,217.07,472.4,219.88Z" fill="#e09d82"/><path d="M471.37,214.68c-.13.17-1.62,3.76,3.68,3.76s2.15,5.39,4.26,6.3,6.15-7.15,3-9.48C482.27,215.26,475.17,209.87,471.37,214.68Z" fill="#342d7a"/><path d="M478.24,221.2s1.06-1.7,1.48-.64-.42,3.61-1.48,3.61Z" fill="#e09d82"/><polygon points="188.9 311.24 188.55 316.78 191.86 317.19 192.8 311.87 188.9 311.24" fill="#ffc2b9"/><path d="M161.91,284.91h0a4.11,4.11,0,0,1-1-5.46l11.64-13.27,8.29,6.39-13.33,11.72A4.11,4.11,0,0,1,161.91,284.91Z" fill="#5945b4"/><path d="M196.05,286.68h0a4.12,4.12,0,0,0,3-4.65l-10.76-14.12-10.1,2.76L191.15,284A4.12,4.12,0,0,0,196.05,286.68Z" fill="#5945b4"/><path d="M188.23,313.52l4.75,1.24,5.89-31.21a4.09,4.09,0,0,0-3.5-4.88h0a4.09,4.09,0,0,0-4.59,3.92Z" fill="#5945b4"/><polygon points="186.34 274.38 170.11 275.95 170.11 268.25 188.8 268.25 186.34 274.38" fill="#5945b4"/><path d="M190,269.37s-5.46,2.28-10.5,1.87a43.8,43.8,0,0,1-9.64-2.36l2.9-32.59a33,33,0,0,1,9-.62,62.06,62.06,0,0,1,9.5,2.13Z" fill="#fb93c6"/><polygon points="191.86 317.19 197.46 320.74 188.09 318.75 188.55 316.78 191.86 317.19" fill="#1d1c3a"/><path d="M192.82,259.41l-4-22.3,3,.89a6.37,6.37,0,0,1,4.18,5.16l2.11,15.59a2.78,2.78,0,0,1-2.44,3.08h0A2.76,2.76,0,0,1,192.82,259.41Z" fill="#fb93c6"/><path d="M197.28,263.26l7.46-1.4a2.66,2.66,0,0,0,2.13-3.26h0a2.65,2.65,0,0,0-3.22-1.92l-7.28,2.95Z" fill="#fb93c6"/><path d="M166.05,256.1l8.18-14-1.51-5.76a7,7,0,0,0-5.14,3.63l-6.25,13.71a2.66,2.66,0,0,0,1.32,3.53h0A2.66,2.66,0,0,0,166.05,256.1Z" fill="#fb93c6"/><path d="M181.82,252.42l-17.79.06a2.65,2.65,0,0,0-2.61,2.89h0a2.64,2.64,0,0,0,2.87,2.39l17.87-1.61Z" fill="#f9acd5"/><rect x="187.29" y="313.18" width="6.58" height="1.73" transform="translate(83.49 -37.35) rotate(14.3)" fill="#d6e2e6"/><polygon points="194.37 281.48 200.1 280.07 199.72 276.75 193.23 277.34 194.37 281.48" fill="#ffc2b9"/><path d="M195.86,276.43l.57,5.21-30,5.1a4.08,4.08,0,0,1-4.85-3.54h0a4.09,4.09,0,0,1,4-4.55Z" fill="#4a3da5"/><polygon points="200.1 280.07 203.59 285.7 201.69 276.32 199.72 276.75 200.1 280.07" fill="#1d1c3a"/><rect x="192.76" y="278.12" width="6.58" height="1.73" transform="matrix(-0.13, -0.99, 0.99, -0.13, -54.53, 510.24)" fill="#d6e2e6"/><path d="M177.07,236.89a4.49,4.49,0,0,1-.12-1.2,30.55,30.55,0,0,1,4.8,0,30,30,0,0,1,3.79.64,4.32,4.32,0,0,1-8.47.58Z" fill="#d3669f"/><path d="M177.67,236.81a3.57,3.57,0,0,1-.1-1.17,30.89,30.89,0,0,1,4.18,0,27.81,27.81,0,0,1,3.19.51,3.7,3.7,0,0,1-7.27.63Z" fill="#f4b7b0"/><polygon points="184 237.86 178.32 237.18 179.68 231.05 185.5 232.34 184 237.86" fill="#f4b7b0"/><path d="M189.14,229.79a21,21,0,0,1-1.88,3.9,2.9,2.9,0,0,1-.8,1c-1.57,1.12-4.77-1.34-5.76-2.48a5.76,5.76,0,0,1-.83-6c1.2-3.14,4.25-4.89,6.82-3.91,2.06.78,2.87,2.68,2.86,4.77A9.36,9.36,0,0,1,189.14,229.79Z" fill="#ffc2b9"/><polygon points="184.06 261.55 204.08 257.35 203.82 255.24 179.17 258.31 184.06 261.55" fill="#bbc1d0"/><polygon points="179.17 258.31 179.27 259.15 184.17 262.39 184.06 261.55 179.17 258.31" fill="#393769"/><path d="M182.64,258.2l.27.47a1.1,1.1,0,0,0,.34.4.82.82,0,0,0,.41.09,5.21,5.21,0,0,0,2.43-.76,1.53,1.53,0,0,0,.66-.48,1.51,1.51,0,0,0,.15-.94,7.6,7.6,0,0,0-.56-2.45,3.85,3.85,0,0,0-1.43-1.78,8.79,8.79,0,0,0-2.45-.6,3.54,3.54,0,0,0-2.67.25,2,2,0,0,0-.64,3.08,4.52,4.52,0,0,0,2.3,1.53,1.76,1.76,0,0,1,.55.22,1.46,1.46,0,0,1,.32.42Z" fill="#ffc2b9"/><path d="M183.5,261.53l.06-.6,1.23-13.48a2.2,2.2,0,0,1,1.78-1.75l19.23-3.47c.91-.16,1.58.36,1.51,1.16l-1.23,13.48-.06.59a1.51,1.51,0,0,1-1.24,1.22l-20.22,3.65C183.92,262.45,183.45,262.09,183.5,261.53Z" fill="#393769"/><path d="M184.78,261.41l.05-.58,1.2-13.07a2.12,2.12,0,0,1,1.72-1.7l18.67-3.37c.88-.16,1.53.35,1.46,1.12l-1.2,13.08-.05.58a1.49,1.49,0,0,1-1.2,1.19L185.8,262.2C185.18,262.31,184.73,262,184.78,261.41Z" fill="#bbc1d0"/><path d="M194.82,251.29a.88.88,0,0,0-.29-.87,2.85,2.85,0,0,1,1.19-.43c1.12-.12,1.88.6,1.69,1.62a2.76,2.76,0,0,1-2.35,2,1.42,1.42,0,0,1-1.69-1A1.83,1.83,0,0,0,194.82,251.29Z" fill="#fff"/><path d="M206.68,256.89l-.05.58,0,.16a1.62,1.62,0,0,1-1.19,1l-20,3.6a.71.71,0,0,1-.67-.8l.05-.58v-.1l21.85-3.94Z" fill="#c5c3d8"/><path d="M192.84,258.48a1.19,1.19,0,0,0-.62.09c-.44.25-.35.94,0,1.34a.56.56,0,0,1,.13.24c0,.23-.22.37-.43.45l-2.83,1a2.08,2.08,0,0,0-1.14.72,1.36,1.36,0,0,0,.24,1.59,2.88,2.88,0,0,0,1.51.77,11.33,11.33,0,0,0,5.84-.53,3.52,3.52,0,0,0,2.26-1.44C199.52,259.47,195,258.61,192.84,258.48Z" fill="#ffc2b9"/><path d="M184,225.49s2.79,3.28,5.55,3c0,0,1.53-5-1-6.94a6.64,6.64,0,0,0-7.28-.48s-5.67,3-2.08,11.78C179.18,232.83,183.87,229,184,225.49Z" fill="#ae7282"/><path d="M183,229a1.58,1.58,0,0,0-.38-1.36v0a1.22,1.22,0,0,0-2,.56,2.83,2.83,0,0,0-.08.87,2.75,2.75,0,0,0,.79,1.72c.53.53.77.21,1.13-.33A3.4,3.4,0,0,0,183,229Z" fill="#ffc2b9"/><path d="M317,293.35l8.83,5.13a12.92,12.92,0,0,0,13,0l18.32-10.82a2.09,2.09,0,0,0-.66-3.86L341,280.69l-23.59,8.39A2.36,2.36,0,0,0,317,293.35Z" fill="#ccc" opacity="0.34"/><g style="isolation:isolate"><polygon points="331.91 297.05 320.86 290.63 320.79 265.74 331.84 272.16 331.91 297.05" fill="#e259a4"/><polygon points="350.68 239.53 339.63 233.1 361.29 220.6 372.34 227.02 350.68 239.53" fill="#ef78bf"/><polygon points="310.18 284.67 299.13 278.25 299.07 256.52 310.12 262.95 310.18 284.67" fill="#e259a4"/><polygon points="310.12 262.95 299.07 256.52 320.73 244.02 331.78 250.44 310.12 262.95" fill="#ef78bf"/><polygon points="331.78 250.44 320.73 244.02 320.66 219.13 331.71 225.55 331.78 250.44" fill="#e259a4"/><polygon points="331.71 225.55 320.66 219.13 339.56 208.22 350.61 214.64 331.71 225.55" fill="#ef78bf"/><polygon points="350.61 214.64 350.68 239.53 372.34 227.02 372.4 248.75 350.74 261.25 350.81 286.14 331.91 297.05 331.84 272.16 310.18 284.67 310.12 262.95 331.78 250.44 331.71 225.55 350.61 214.64" fill="#f18cd0"/></g><path d="M216,347.79l37,22.22a15.6,15.6,0,0,0,16.47-.26L326.58,333a3,3,0,0,0-.62-5.35l-46-16.37a3,3,0,0,0-2.37.15l-61.38,31.11A3,3,0,0,0,216,347.79Z" fill="#ccc" opacity="0.34"/><path d="M289.57,299.93c-.13,2.28-2.23,4-4,5.12l-.71.44c-.08.05-.32.15-.35.23a.67.67,0,0,0,0,.2V307l0,7.83V317c1.84-1.07,3.92-2.47,4.75-4.52a6.53,6.53,0,0,0,.3-2.6l0-7.88v-2.11Z" fill="#cc4029"/><path d="M279.31,297.56a6.16,6.16,0,0,0-3.8-.8,8.92,8.92,0,0,0-3.46,1.23l-1.63.94-8.06,4.69-6.67,3.88-.53.3c-.81.5-2,1.24-2,2.3,0,.87,0,1.74,0,2.6l0,8.56v.18c0-1.16,1.42-2,2.3-2.47l1.23-.72,5.2-3,6.14-3.56,3.82-2.22a10.12,10.12,0,0,1,3-1.24,6.14,6.14,0,0,1,3,.07,5.23,5.23,0,0,1,2.59,1.5,1.41,1.41,0,0,1,.36.92c0-1.51,0-3,0-4.51l0-6.25v-.57C280.77,298.52,280,298,279.31,297.56Z" fill="#b53628"/><polygon points="284.52 305.7 284.49 317.04 268.67 326.23 268.71 314.89 284.52 305.7" fill="#cc4029"/><path d="M258.75,317.84a18.56,18.56,0,0,1-9.81-2.63c-3.15-1.82-4.68-3.71-4.57-5.67s1.8-3.89,5-5.78l15.82-9.19a20.45,20.45,0,0,1,9.95-2.94,18.55,18.55,0,0,1,9.81,2.62c3.15,1.82,4.68,3.72,4.57,5.68s-1.8,3.88-5.05,5.77l-15.81,9.19A20.53,20.53,0,0,1,258.75,317.84Zm-3.41-10.14q-4,2.31-.7,4.2c2.18,1.26,4.59,1.12,7.25-.42l16.72-9.72q4-2.31.7-4.2c-2.19-1.26-4.6-1.12-7.25.42l-16.72,9.72" fill="#fa684f"/><path d="M264.88,328a21.84,21.84,0,0,0,3-1.32l.62-.34c.06,0,.18-.07.2-.13a.54.54,0,0,0,0-.18c0-.75,0-1.51,0-2.27,0-2.36,0-4.72,0-7.08,0-.6,0-1.2,0-1.8a20.44,20.44,0,0,1-11.33,2.92,18,18,0,0,1-5.61-1.23,19,19,0,0,1-5.09-2.91,5.4,5.4,0,0,1-2.31-3.94c0,1.17,0,2.35,0,3.52,0,2,0,4,0,5.94v1.7a4,4,0,0,0,.56,2.14,9.81,9.81,0,0,0,3.46,3.19,20.75,20.75,0,0,0,4.92,2.22,18.31,18.31,0,0,0,10.45-.05C264.12,328.27,264.5,328.15,264.88,328Z" fill="#b53628"/><polygon points="313.57 311.8 313.54 323.13 225.62 345.67 225.65 334.33 313.57 311.8" fill="#cc4029"/><g style="isolation:isolate"><g clip-path="url(#clip-path-2)"><g style="isolation:isolate"><path d="M288.49,332.72l0,11.34v.09l0-11.34v-.09" fill="#913c2e"/><path d="M288.49,332.81l0,11.34a.34.34,0,0,0,0,.1l0-11.34a.31.31,0,0,0,0-.1" fill="#963e2f"/></g></g></g><polygon points="225.65 334.33 225.62 345.67 219.25 341.99 219.29 330.65 225.65 334.33" fill="#cc4029"/><polygon points="307.2 308.12 313.57 311.8 225.65 334.33 219.29 330.65 307.2 308.12" fill="#fa684f"/><path d="M288.45,344.25c0-1.28,0-2.56,0-3.84,0-2,0-4.06,0-6.09v-1.41c-.13,2.28-2.22,4-4,5.12l-.71.45c-.08,0-.32.14-.35.22a.67.67,0,0,0,0,.2V340l0,7.83V350a15.64,15.64,0,0,0,3.29-2.43A5.29,5.29,0,0,0,288.45,344.25Z" fill="#cc4029"/><path d="M278.22,330.55a6.1,6.1,0,0,0-3.8-.81A9.15,9.15,0,0,0,271,331l-1.62.95-8.07,4.68-6.67,3.88-.48.28c-.82.5-2,1.24-2.05,2.33,0,.86,0,1.73,0,2.6q0,4.28,0,8.55v.19c0-1.17,1.42-2,2.29-2.47l1.24-.72,5.22-3,6.13-3.56,3.81-2.21a10.11,10.11,0,0,1,3-1.25,6.18,6.18,0,0,1,3,.09,5.32,5.32,0,0,1,2.51,1.46,1.52,1.52,0,0,1,.39.95c0-1.5,0-3,0-4.51,0-2.08,0-4.16,0-6.24,0-.19,0-.39,0-.58C279.68,331.5,278.89,330.93,278.22,330.55Z" fill="#b53628"/><polygon points="283.44 338.69 283.4 350.02 267.59 359.22 267.62 347.88 283.44 338.69" fill="#cc4029"/><path d="M288.48,332.91q-.17,2.94-5,5.78l-15.82,9.19a20.46,20.46,0,0,1-10,2.94,18.55,18.55,0,0,1-9.8-2.63q-4.74-2.73-4.57-5.67t5.05-5.78l15.81-9.19a20.49,20.49,0,0,1,10-2.94,18.61,18.61,0,0,1,9.81,2.63Q288.65,330,288.48,332.91ZM260.8,344.47l16.72-9.72c2.65-1.54,2.89-2.94.7-4.2s-4.6-1.12-7.25.42l-16.72,9.71q-4,2.31-.7,4.21t7.25-.42" fill="#fa684f"/><path d="M263.8,361a22,22,0,0,0,2.89-1.29l.69-.37c.06,0,.18-.07.21-.14a.49.49,0,0,0,0-.17c0-.76,0-1.52,0-2.27,0-2.36,0-4.73,0-7.09v-1.79a20.62,20.62,0,0,1-10.6,2.94,19.08,19.08,0,0,1-10.32-3.35c-1.6-1.08-3.42-2.66-3.41-4.76,0,1.16,0,2.33,0,3.49l0,5.93a7.46,7.46,0,0,0,.52,3.83,9.52,9.52,0,0,0,3.36,3.16,20.24,20.24,0,0,0,4.91,2.26,18.47,18.47,0,0,0,10.52,0Z" fill="#b53628"/><path d="M142.29,14.91c.64.15,1,.67,1,1.59a4.49,4.49,0,0,1-.8,2.51,6.31,6.31,0,0,1-2.25,2l-1,.55v3.63l-1.1.64,0-9.12,1.72-1A3.8,3.8,0,0,1,142.29,14.91Zm-2.6,5.29c1.33-.76,2.4-1.56,2.39-3,0-1.69-1.6-.76-2.15-.44l-.68.39v3.33l.43-.24" fill="#f66550"/><polygon points="145.24 16.76 150.69 13.62 150.69 14.64 145.24 17.78 145.24 16.76" fill="#f66550"/><polygon points="145.25 20.37 145.24 19.35 150.69 16.2 150.7 17.22 145.25 20.37" fill="#f66550"/><polygon points="157.91 5.26 157.91 6.42 154.16 8.59 154.17 11.35 156.87 9.78 156.88 10.94 154.17 12.5 154.18 16.55 153.05 17.21 153.02 8.09 157.91 5.26" fill="#f66550"/><polygon points="162.41 2.53 159.86 13.55 158.95 14.07 161.49 3.06 162.41 2.53" fill="#f66550"/><path d="M167,0l2.7,7.57-1.15.67L168,6.65l-3.14,1.81-.49,2.19-1.15.67L165.78.72Zm-1.86,7.24,2.54-1.46-1.26-3.93a0,0,0,0,0-.06,0s0,.06,0,.09l-1.17,5.31" fill="#f66550"/><polygon points="143.89 27.63 143.9 28.78 141.59 30.11 141.62 38.08 140.48 38.73 140.46 30.77 138.14 32.1 138.14 30.95 143.89 27.63" fill="#694ec3"/><polygon points="145.54 34.47 145.54 33.45 150.99 30.3 150.99 31.32 145.54 34.47" fill="#694ec3"/><polygon points="145.53 30.87 150.98 27.72 150.98 28.74 145.53 31.89 145.53 30.87" fill="#694ec3"/><polygon points="158.2 19.37 158.21 20.52 154.45 22.69 154.46 25.45 157.16 23.89 157.17 25.04 154.46 26.6 154.47 30.66 153.34 31.31 153.31 22.19 158.2 19.37" fill="#694ec3"/><polygon points="162.7 16.63 160.15 27.65 159.25 28.18 161.78 17.16 162.7 16.63" fill="#694ec3"/><polygon points="166.5 14.58 166.5 15.41 165.8 15.82 165.82 23.3 166.52 22.89 166.52 23.7 164.02 25.14 164.02 24.33 164.69 23.95 164.67 16.46 164 16.85 164 16.02 166.5 14.58" fill="#694ec3"/><path d="M139.11,42.52v3.82c0,.09,0,.11.09.08a3.23,3.23,0,0,0,.27-.54,3.53,3.53,0,0,1,1.42-1.74c.8-.46,1.13,0,1.13.93l0,5.09-1,.55v-5c0-.48-.13-.71-.54-.47a2,2,0,0,0-.63.66,11.18,11.18,0,0,0-.77,1.55v4.43l-1,.56,0-8.86Z" fill="#aa3967"/><polygon points="144.03 44.05 149.49 40.91 149.49 41.93 144.04 45.07 144.03 44.05" fill="#aa3967"/><polygon points="144.04 47.66 144.04 46.64 149.49 43.49 149.5 44.51 144.04 47.66" fill="#aa3967"/><path d="M153.63,34.17c.67-.38,2.43-1,2.44,1.18a4.66,4.66,0,0,1-.38,1.68,13.87,13.87,0,0,1-1.54,2.6l-.88,1.29a5.84,5.84,0,0,0-.7,1.32,2.5,2.5,0,0,0-.2.83l3.73-2.15V42l-4.93,2.85c0-2.19.75-3.48,2.24-5.63C154.18,38.16,155,37,155,36c0-.62-.32-1.31-1.32-.74a4.1,4.1,0,0,0-1.76,2.56l-.84-.12a6.52,6.52,0,0,1,1.18-2.28A5,5,0,0,1,153.63,34.17Z" fill="#aa3967"/><polygon points="163.56 28.6 163.56 29.76 161.25 31.09 161.28 39.05 160.14 39.71 160.12 31.74 157.8 33.08 157.8 31.93 163.56 28.6" fill="#aa3967"/><path d="M167.14,29c.23-.13,1-.5,1.45-.08a1.28,1.28,0,0,1,.37.5l-.82.95c-.09-.24-.3-.86-1-.48A3.3,3.3,0,0,0,166,32.74a5.74,5.74,0,0,0,.18,1.6.7.7,0,0,0,1.1.43,2.37,2.37,0,0,0,1-1.8l.86,0a4,4,0,0,1-1.82,2.81c-2.16,1.24-2.23-1.65-2.23-2a6.45,6.45,0,0,1,.57-2.89A3.91,3.91,0,0,1,167.14,29Z" fill="#aa3967"/><path d="M174.67,25.93a4.35,4.35,0,0,1,.43,1.92,5.39,5.39,0,0,1-2.25,4.66c-1,.57-1.4.22-1.61,0a3,3,0,0,1-.62-2.27,5.09,5.09,0,0,1,2.17-4.54C173.86,25.12,174.38,25.47,174.67,25.93Zm-1.81,5.6c1-.6,1.21-2.22,1.21-3.15a5,5,0,0,0-.2-1.43.61.61,0,0,0-.63-.46,1.21,1.21,0,0,0-.41.15c-1.07.62-1.26,2.29-1.26,3.29,0,.5.16,2.25,1.29,1.6" fill="#aa3967"/><path d="M178.32,22.6a2.22,2.22,0,0,1,1.52-.36l-.28,1a1.44,1.44,0,0,0-1.28.14,1.65,1.65,0,0,0-.84,1.35c0,.48.34.54.69.54H179c.31,0,1.05,0,1.05,1.1a3.75,3.75,0,0,1-1.85,3,2.29,2.29,0,0,1-1.67.34l.37-1.07a1.39,1.39,0,0,0,1.33-.1,1.91,1.91,0,0,0,.95-1.57c0-.54-.22-.57-1.15-.56s-1.43-.26-1.43-1.11A3.43,3.43,0,0,1,178.32,22.6Z" fill="#aa3967"/><path d="M185.77,16.31c.73.5.92,1.56.93,3.26a11.08,11.08,0,0,1-.64,4.08A4.2,4.2,0,0,1,184.13,26a1.38,1.38,0,0,1-1.91-.19,5.82,5.82,0,0,1-.64-2.88c0-3.62,1.18-5.65,2.65-6.5A1.55,1.55,0,0,1,185.77,16.31Zm-1.55,8.6c1.21-.7,1.42-2.94,1.42-4.7,0-2.66-.5-3.24-1.45-2.69a3.44,3.44,0,0,0-1.38,2.5,15.42,15.42,0,0,0-.18,2.3,6.59,6.59,0,0,0,.34,2.26c.19.47.55.73,1.25.33" fill="#aa3967"/><polygon points="191.06 12.59 188.51 23.61 187.6 24.13 190.14 13.12 191.06 12.59" fill="#aa3967"/><path d="M196,13.28a4.31,4.31,0,0,1,.47,2.09c0,2.29-.82,3.92-1.82,4.5a1,1,0,0,1-1.23-.12c-.15-.19-.2-.2-.24-.18a.33.33,0,0,0-.06.21v3l-.95.55,0-8.53.85-.93v1.39c0,.1.05.12.07.1a.2.2,0,0,0,.08-.08,4,4,0,0,1,1.45-2.27A1,1,0,0,1,196,13.28ZM194.46,19c.47-.28,1-1.09,1-3.14,0-.69-.1-2.35-1.11-1.76-.84.48-1.3,2.1-1.29,3.21,0,1.93.75,2,1.36,1.69" fill="#aa3967"/><path d="M201.33,9.25v1.84a2.83,2.83,0,0,0-.36.16,4.62,4.62,0,0,0-1.61,2.1v3.71l-1,.58,0-6.25.91-.94v2.06c0,.07,0,.13.05.12l.12-.07c.07-.13.28-.67.33-.79A7.64,7.64,0,0,1,201.33,9.25Z" fill="#aa3967"/><path d="M206.37,6.49l.78-.45v5.85a8.66,8.66,0,0,1-.12,1.17,3.88,3.88,0,0,1-.94,1.72,5.21,5.21,0,0,1-1.25,1,6.11,6.11,0,0,1-1.34.57V15.23l.4-.23c.15.14.33.27.94-.08a3.22,3.22,0,0,0,.9-.82,2.77,2.77,0,0,0,.46-1.66v-.95l0,0c-.08,0-.09.07-.19.33a3.22,3.22,0,0,1-1.28,1.54,1,1,0,0,1-1.5-.31,4,4,0,0,1-.33-1.91,4.6,4.6,0,0,1,1.79-3.76c.86-.5,1.23-.19,1.46.17.09.13.09.15.15.15a.26.26,0,0,0,.1-.21ZM205,12.27a3.18,3.18,0,0,0,1.3-2.84c0-1.51-.6-1.82-1.3-1.42-1.12.65-1.12,2.42-1.12,3,0,.41.1,1.86,1.12,1.27" fill="#aa3967"/><path d="M391.22,27.16a4.59,4.59,0,0,1,2.26,3.71,2,2,0,0,1-.36,1.14,2.53,2.53,0,0,1-1.44.77l-.83.24a1.14,1.14,0,0,0-.65.48,1,1,0,0,0-.18.56l3.46,2v1l-4.58-2.65c.05-2,.72-2.4,2.11-2.8.7-.2,1.47-.42,1.47-1.38a2.5,2.5,0,0,0-1.21-2.09,1,1,0,0,0-1.64.49l-.78-1a1.27,1.27,0,0,1,1.11-.84A2.26,2.26,0,0,1,391.22,27.16Z" fill="#4ac3bc"/><path d="M406.47,35.93v3.55a.18.18,0,0,0,.08.17s.16-.12.25-.22a1,1,0,0,1,1.33-.07,2.22,2.22,0,0,1,1,2.06l0,4.72-.89-.51V40.94a1,1,0,0,0-.5-1,.67.67,0,0,0-.58-.06,2.3,2.3,0,0,0-.73.6v4.11l-.9-.52,0-8.23Z" fill="#4ac3bc"/><polygon points="419.72 48.78 419.71 49.75 417.11 48.25 417.12 47.28 419.72 48.78" fill="#4ac3bc"/><path d="M429.09,62.23a4.58,4.58,0,0,1,2.26,3.71,1.9,1.9,0,0,1-.36,1.14,2.59,2.59,0,0,1-1.44.77l-.82.24a1.19,1.19,0,0,0-.66.47,1,1,0,0,0-.18.57l3.46,2v1l-4.58-2.65c.06-2,.72-2.4,2.11-2.8.71-.21,1.47-.42,1.47-1.38a2.47,2.47,0,0,0-1.21-2.09,1,1,0,0,0-1.64.49l-.78-1a1.27,1.27,0,0,1,1.11-.84A2.26,2.26,0,0,1,429.09,62.23Z" fill="#4ac3bc"/><path d="M434.25,52a12.84,12.84,0,0,1,1.45,5.3,4.76,4.76,0,0,1-1.28,3.38,1,1,0,0,0-.17.18l-.92-.53c.06-.06.33-.32.38-.39s.47-.64.51-.68a4.22,4.22,0,0,0,.65-2.42,10,10,0,0,0-1.05-4.27l-.48-1.09Z" fill="#4ac3bc"/><g style="isolation:isolate"><path d="M398.3,33.81l.72.42,0,5.43a5,5,0,0,1-.12,1,.81.81,0,0,1-.88.59,2.65,2.65,0,0,1-1.16-.41,7.58,7.58,0,0,1-1.24-.89v-1l.38.21a1.88,1.88,0,0,0,.87.93,1.2,1.2,0,0,0,.83.21c.44-.1.44-.77.44-1.05v-.87l0-.08c-.07,0-.08,0-.17.11s-.46.47-1.2,0a3.45,3.45,0,0,1-1.38-1.88,6.11,6.11,0,0,1-.3-2.12c0-1.45.76-2.1,1.68-1.57a3.06,3.06,0,0,1,1.35,1.73c.08.21.08.23.14.3s.09,0,.09-.1ZM397,37.65c.34.2,1.2.42,1.21-1.24a3,3,0,0,0-1.19-2.7c-1.05-.6-1.05,1-1.05,1.57a2.83,2.83,0,0,0,1,2.37" fill="#4ac3bc"/><path d="M403.51,34.25a5,5,0,0,0-1.08,1.34,4.38,4.38,0,0,0-.49,2.18,13.31,13.31,0,0,0,1.56,5.32l-.93-.54a16.86,16.86,0,0,1-1.17-3.12,9.26,9.26,0,0,1-.28-2,4.83,4.83,0,0,1,1.45-3.78Z" fill="#4ac3bc"/><polygon points="436.69 48.22 436.69 49.13 388.57 21.34 383.51 39.54 379.92 25.81 377.64 26.89 377.11 25.91 380.27 24.41 383.41 36.45 387.97 20.08 436.69 48.22" fill="#4ac3bc"/></g><polygon points="413.88 53.6 413.86 61.13 415.3 61.96 415.29 62.9 411.23 60.55 411.23 59.61 412.83 60.54 412.85 53.96 411.13 52.97 411.14 52.01 413.88 53.6" fill="#4ac3bc"/><path d="M422.31,45.08v3.55a.15.15,0,0,0,.08.16c.05,0,.16-.11.26-.21A1,1,0,0,1,424,48.5a2.2,2.2,0,0,1,1,2.07v4.72l-.89-.51V50.09a1.06,1.06,0,0,0-.5-1,.66.66,0,0,0-.58,0,2.1,2.1,0,0,0-.73.6v4.11l-.9-.52,0-8.23Z" fill="#4ac3bc"/><path d="M354.87,9.07l-2.21,8.47-1.75-1L348.62,5.45l1.52.88,1.26,7.08c0,.16.08.55.13.83a6.34,6.34,0,0,0,.1.69.31.31,0,0,0,.11.2l.11.07c.07,0,.1,0,.12-.09a4.39,4.39,0,0,0,.11-.68c0-.2.08-.4.12-.58l1.26-5.6Z" fill="#4ac3bc"/><polygon points="359.52 19.73 359.5 26.82 360.85 27.6 360.85 28.48 357.02 26.27 357.02 25.39 358.53 26.27 358.55 20.08 356.93 19.14 356.94 18.24 359.52 19.73" fill="#4ac3bc"/><polygon points="362.97 21.48 362.97 19.95 371.14 24.67 371.14 26.2 362.97 21.48" fill="#4ac3bc"/><polygon points="362.98 16.08 371.15 20.8 371.15 22.32 362.98 17.61 362.98 16.08" fill="#4ac3bc"/><path d="M187.59,182.52c1.87-1.08,3.21-.78,4,.71l-1.44,1.8c-.57-1-1.1-1.62-2.52-.81a3.78,3.78,0,0,0-1.87,2.94,1.12,1.12,0,0,0,1.34,1.25l2.44-.15a2.17,2.17,0,0,1,1.85.79,2.67,2.67,0,0,1,.42,1.65,7.2,7.2,0,0,1-1.19,3.88,6.86,6.86,0,0,1-2.66,2.53,3.62,3.62,0,0,1-2.8.5,2.54,2.54,0,0,1-1.38-1.33l1.47-1.91c.35.93,1.17,1.86,2.83.91a4.36,4.36,0,0,0,2.14-3.51c0-.65-.22-1.35-1.51-1.28l-2.17.12a2.31,2.31,0,0,1-2-.71,3.16,3.16,0,0,1-.37-1.75A7.12,7.12,0,0,1,187.59,182.52Z" fill="#643f9e"/><polygon points="199.06 176.19 199.06 177.47 197.97 178.1 198.01 189.64 199.09 189.01 199.1 190.26 195.24 192.49 195.24 191.24 196.27 190.64 196.24 179.1 195.21 179.7 195.2 178.41 199.06 176.19" fill="#643f9e"/><path d="M211.55,169l0,14.08-2.13,1.23-3.6-7.09a22.6,22.6,0,0,1-1-2.42s-.07,0-.08,0c-.11.15-.11.17-.1.27,0,.4.09,2.46.09,2.56l0,9.36-1.4.81,0-14.08,2.17-1.25,3.58,7s.49,1.1.5,1.11c.09.2.44,1.11.51,1.3l.1,0c.07-.11.07-.13.07-.32s-.07-1.14-.07-1.33c0-.86,0-1.59,0-2.07l0-8.32Z" fill="#643f9e"/><path d="M219,171.71l0,0v.79c-.43.23-.73.36-1,.18a.56.56,0,0,1-.26-.43h0c-.06.08-.27.46-.32.53a3.62,3.62,0,0,1-1.42,1.46c-.71.41-1.23,0-1.24-.72a3.67,3.67,0,0,1,.75-2.08,6.76,6.76,0,0,1,2.17-1.91v-.76c0-.23,0-.8-.8-.34a5.94,5.94,0,0,0-1.46,1.46l-.38-.53a6.78,6.78,0,0,1,1.9-1.77,1.71,1.71,0,0,1,1.17-.28c.36.12.47.49.47,1.07v3C218.59,171.59,218.59,171.94,219,171.71Zm-1.3,0v-1.6a3.63,3.63,0,0,0-2,2.68c0,.49.29.75.76.48a4.32,4.32,0,0,0,1.27-1.56" fill="#643f9e"/><polygon points="220.84 175.64 220.83 174.06 229.24 169.21 229.25 170.78 220.84 175.64" fill="#643f9e"/><polygon points="220.82 170.07 229.23 165.22 229.23 166.79 220.82 171.65 220.82 170.07" fill="#643f9e"/><path d="M238.73,166.23l.06,0v1.36c-.74.39-1.26.63-1.71.31a1,1,0,0,1-.44-.74h-.05c-.09.13-.46.78-.54.91a6.3,6.3,0,0,1-2.44,2.5c-1.23.71-2.12,0-2.12-1.23a6.32,6.32,0,0,1,1.27-3.58,11.78,11.78,0,0,1,3.72-3.26v-1.31c0-.4,0-1.38-1.37-.59a10.15,10.15,0,0,0-2.52,2.51l-.66-.91a11.87,11.87,0,0,1,3.27-3,3,3,0,0,1,2-.49c.61.2.8.84.8,1.84l0,5.06C238,166,238,166.62,238.73,166.23Zm-2.23,0v-2.75c-1.83,1.08-3.48,2.84-3.48,4.61,0,.84.51,1.28,1.31.82a7.51,7.51,0,0,0,2.18-2.68" fill="#643f9e"/><polygon points="245.46 149.18 241.53 166.18 240.13 166.99 244.04 150 245.46 149.18" fill="#643f9e"/><path d="M250,150.63c.35-.2,1.55-.78,2.24-.12a2,2,0,0,1,.57.76l-1.27,1.46c-.13-.36-.47-1.32-1.49-.73s-1.81,2.3-1.81,4.37a8.61,8.61,0,0,0,.28,2.47c.23.59.74,1.21,1.69.66a3.62,3.62,0,0,0,1.48-2.78l1.33-.08a6.05,6.05,0,0,1-2.81,4.33c-3.33,1.93-3.43-2.53-3.43-3.09a9.8,9.8,0,0,1,.87-4.46A6,6,0,0,1,250,150.63Z" fill="#643f9e"/><path d="M195.11,208.68l.07,0V210c-.73.38-1.25.62-1.7.31a1,1,0,0,1-.43-.75H193c-.1.13-.47.78-.55.9A6.36,6.36,0,0,1,190,213c-1.23.71-2.11,0-2.12-1.23a6.32,6.32,0,0,1,1.28-3.57,11.7,11.7,0,0,1,3.7-3.25v-1.3c0-.4,0-1.37-1.37-.59a10.41,10.41,0,0,0-2.51,2.5l-.65-.9a11.55,11.55,0,0,1,3.26-3,2.84,2.84,0,0,1,2-.48c.62.2.81.83.81,1.83v5C194.43,208.48,194.43,209.08,195.11,208.68Zm-2.22,0v-2.74c-1.82,1.08-3.47,2.83-3.46,4.59,0,.84.5,1.28,1.3.82a7.45,7.45,0,0,0,2.17-2.67" fill="#643f9e"/><polygon points="202.52 195.86 202.53 199.91 206.04 197.89 206.04 199.46 202.53 201.48 202.55 205.53 201.18 206.32 201.17 202.27 197.66 204.3 197.66 202.73 201.17 200.7 201.16 196.65 202.52 195.86" fill="#643f9e"/><path d="M212.68,189.44c1.63-.94,2.82.21,2.83,3.67,0,1.44-.37,5.38-2.82,6.8a1.42,1.42,0,0,1-2.15-.73c-.08-.17-.12-.2-.2-.16a.47.47,0,0,0-.1.2l0,2.23-1.31.11,0-13.32,1.46-1.5,0,5.66a.13.13,0,0,0,.07.12l.16-.12c.25-.6.35-.85.47-1.07A4.25,4.25,0,0,1,212.68,189.44Zm-.31,9.23c1.65-.95,1.64-4,1.64-4.69,0-1.26-.14-3.84-1.73-2.93-.58.33-2,1.85-2,5.08,0,1.91.79,3.27,2.05,2.54" fill="#643f9e"/><polygon points="222.91 184.09 222.92 188.14 226.43 186.12 226.44 187.68 222.93 189.71 222.94 193.76 221.57 194.55 221.56 190.5 218.05 192.52 218.05 190.96 221.56 188.93 221.55 184.88 222.91 184.09" fill="#643f9e"/><path d="M232.07,178.26c.35-.2,1.55-.77,2.24-.12a2,2,0,0,1,.56.77l-1.26,1.45c-.13-.36-.47-1.32-1.48-.73s-1.81,2.29-1.81,4.35a8.57,8.57,0,0,0,.28,2.47c.23.59.73,1.2,1.68.65a3.58,3.58,0,0,0,1.48-2.76l1.33-.08a6.1,6.1,0,0,1-2.8,4.32c-3.33,1.92-3.43-2.53-3.43-3.08a9.86,9.86,0,0,1,.87-4.45A6.09,6.09,0,0,1,232.07,178.26Z" fill="#643f9e"/><polygon points="237.5 177.73 245.89 172.89 245.89 174.46 237.51 179.3 237.5 177.73" fill="#643f9e"/><polygon points="237.52 183.28 237.51 181.71 245.9 176.87 245.9 178.44 237.52 183.28" fill="#643f9e"/><path d="M99.38,384.24,2.73,327.71a5.53,5.53,0,0,1,.11-9.6l26.81-14.89a5.5,5.5,0,0,1,5.47.06l100.9,59a5.53,5.53,0,0,1-.11,9.6l-22.51,12.5A14.17,14.17,0,0,1,99.38,384.24Z" fill="#ccc" opacity="0.34"/><g style="isolation:isolate"><g style="isolation:isolate"><g clip-path="url(#clip-path-3)"><g style="isolation:isolate"><path d="M9.09,221l15.64-9.09a34.12,34.12,0,0,0-6.89,5.55L2.2,226.51A34.12,34.12,0,0,1,9.09,221" fill="#2e8989"/></g></g></g><path d="M57.69,290.2q1.55-12.52,3.05-25,1.53-12.68,3-25.34l1.71-14.2-9.72,5.65-5.18,3a4.48,4.48,0,0,0-.6.35c-.28.22-.2.57-.24.94-.31,2.54-.61,5.08-.92,7.62Q47,258.48,45.16,273.77T41.4,304.51c-.32,2.56-.64,5.13-1,7.69L40,316a9.19,9.19,0,0,1-.29,1.88c-.19.54-.45,1.07-.65,1.61a31,31,0,0,0-1.62,6.3,4.9,4.9,0,0,1-.34,1.57c-.25.52-.53,1-.83,1.54a16.33,16.33,0,0,1-1.86,2.59,10.27,10.27,0,0,1-2.4,2h0l4.19-2.44,7.66-4.45a47.68,47.68,0,0,0,4.56-2.72,12,12,0,0,0,2.55-2.63c.37-.51.71-1.05,1-1.59a10.2,10.2,0,0,0,.89-1.7,11.93,11.93,0,0,0,.29-1.9c.11-.65.24-1.31.4-2a27.72,27.72,0,0,1,1.19-3.89,9,9,0,0,0,.69-1.92c.09-.75.19-1.51.28-2.26.2-1.51.39-3,.58-4.54l1.14-9.08C57.5,291.71,57.59,291,57.69,290.2Z" fill="#53c9c0"/><path d="M135.19,345q0-2.61-.18-5.22l-10.46,6.08-4.88,2.84c-.07,0-.26.1-.3.17s0,.43,0,.54l.06,1c0,.66.06,1.31.07,2a51.37,51.37,0,0,1-.33,7.54c-.62,5-2.22,10.77-6.87,13.47l9.65-5.61,5.22-3c.43-.25.86-.49,1.26-.76a12.16,12.16,0,0,0,3.94-4.54C134.69,355.07,135.16,349.87,135.19,345Z" fill="#53c9c0"/><path d="M114.23,350.07a9.78,9.78,0,0,1,4.5-1.25c.56,0,.6.08,1-.16l3.27-1.9,9.57-5.57,2.42-1.4a6.67,6.67,0,0,0-2.63.16,19.92,19.92,0,0,0-2.75,1.14,12,12,0,0,1-3.35.69q-1.8.2-3.6.33c-2.43.18-4.86.28-7.3.4l-1.85.1a3.1,3.1,0,0,0-.86.07,2,2,0,0,0-.37.21L101,349.47l-3.92,2.28c3-.2,6-.29,9.06-.49,1.43-.09,2.85-.22,4.27-.37A12.26,12.26,0,0,0,114.23,350.07Z" fill="#4ac3bc"/><path d="M95.09,346.72c.69,1.66,1.37,3.33,2,5l9.27-5.39,5.33-3.1.69-.4c.07,0,.3-.12.33-.19s-.15-.46-.19-.59c-.2-.54-.4-1.08-.61-1.62-.41-1-.84-2.1-1.28-3.14a106.13,106.13,0,0,1-4.86-12.63,22.74,22.74,0,0,1-.81-6.09q0-3.74,0-7.47c.08-9.77.41-19.55.8-29.31s.87-19.7,1.25-29.55c0-1.23.1-2.45.14-3.68l-8.85,5.15-5.41,3.14a9,9,0,0,0-1.27.74c-.26.24-.13.76-.14,1.12l-.15,3.67c-.37,9.44-.82,18.88-1.2,28.32s-.7,18.91-.8,28.37c0,2.37,0,4.73,0,7.1a28.5,28.5,0,0,0,.39,5.84,61.1,61.1,0,0,0,4.07,11.49C94.2,344.59,94.65,345.65,95.09,346.72Z" fill="#53c9c0"/><polygon points="121.24 252.78 136.87 243.69 136.81 265.72 121.17 274.81 121.24 252.78" fill="#53c9c0"/><path d="M121.24,252.78l-.07,22L91.51,257.68c-.89,24.25-2.34,47.25-2.21,71.15,0,6.2,5,15.2,7.76,22.92,5.19-.34,10.5-.38,15.52-1.14,2.11-.33,3.59-2.18,6.79-1.73.94,13.71-1.73,25-11.67,25.92-4.41.4-10.52-1.46-16.23-4.76a43.57,43.57,0,0,1-7.89-5.8c-11.16-10.49-14-25-13.1-37.34,1.77-25.44,3.87-50.65,5.91-76.87L49.85,234.71c-3.41,28.27-6.63,55.77-10.13,83.07A31.47,31.47,0,0,0,37.23,327c-3.06,6.51-7.68,9.47-13.57,6.07a28,28,0,0,1-7.74-7.41c-8.83-11.55-8.23-19.62-1.73-24.81,17.89-14.3,23.54-40,22.88-72.36a49.7,49.7,0,0,0-8.93-6.84c-10.93-6.31-18.72-2.45-25.94,4.83,1.15-21,8.88-30.61,23.23-23.66C57,218.15,88.76,235.72,121.24,252.78Z" fill="#3bafb2"/><path d="M37.79,208.94q12.84,6.44,25.55,13.13t25.33,13.42Q101.36,242.26,114,249l6.42,3.39c.3.15.57.44.88.34a3,3,0,0,0,.49-.29l4.66-2.7,10.18-5.92.2-.12q-7.69-4-15.38-8.13l-15.41-8.21q-7.77-4.15-15.56-8.29T75.11,211c-5.11-2.66-10.22-5.31-15.36-7.91s-10.38-5.23-15.6-7.79c-4.46-2.18-9.33-4.71-14.43-3.36a21.64,21.64,0,0,0-5.23,2.6l-7.26,4.22-5.41,3.15-.29.16c3-1.75,6.57-1.68,9.84-.76a30.49,30.49,0,0,1,4.93,2c1.82.88,3.63,1.78,5.45,2.67C33.76,206.93,35.78,207.93,37.79,208.94Z" fill="#4ac3bc"/></g></g></g></svg>