<svg xmlns="http://www.w3.org/2000/svg" xmlns:xlink="http://www.w3.org/1999/xlink" viewBox="0 0 3987.11 1127.55"><defs><clipPath id="clip-path"><polygon points="1465.21 702.09 898.11 702.09 833.88 469.97 828.95 452.18 824.76 437 814.9 401.4 1373.84 401.4 1384.66 437 1389.27 452.18 1394.68 469.97 1465.21 702.09" fill="none"/></clipPath></defs><title>Online Learning</title><g id="Layer_2" data-name="Layer 2"><g id="Слой_2" data-name="Слой 2"><path d="M2477,1124.23s297.9-311.54,50.38-648.84C2307.74,176.12,2051.69,196.57,1863.84,318c-80,51.73-369.59,286.74-565.93-17.78C1030.16-115,160.94-143.54,330.17,495.39c81.89,309.19-327.81,320.43-159.09,629.5Z" fill="#ebf3fa"/><g id="girl_2" data-name="girl 2"><path d="M495.13,705s-83.59,36.42-98.77,35.76-108.67-28.48-108.67-28.48l2.38,16.08s72.16,41.5,97.38,43.86c24.84,2.32,109.76-22.29,118-27.49S519,710.23,495.13,705Z" fill="#ed985f"/><path d="M507.69,571s30.84-5.85,46.2,5.36c27.82,20.32,29.31,90.36,39.74,100.8s35.56,6,37.8,60-10,58.51,4.58,82.61S629.84,868,629.84,868s8.5-13.3,4.85-22.91c0,0-3.53,21.2-17,26.16s-15.45,8.61-17.61,15.9c0,0-114.86-58.86-115-100.61s-22.61-83.1-11.57-101.19c0,0-4.92,7.74-5.52,16.35,0,0-6.62-12.69,4.86-24.5s-13.47-36.26-9.77-64.58C465.63,593.13,479.27,571.84,507.69,571Z" fill="#233862"/><path d="M485,744.75a80.54,80.54,0,0,0,28.1,12c43.32,10,59.92-26.61,66.16-51.74a37.39,37.39,0,0,0-14.68-4.51c-3.13-.37-6.42-.61-9.15-.75-4.86-3.72-12.11-19-13.71-42.65l-2,.55L505.51,667s1.56,10.86,2.33,21.11c.59,8,.68,15.7-.84,17.58-2.66.58-4.26,1-4.26,1a.06.06,0,0,1,0,0A220.58,220.58,0,0,0,485,744.75Z" fill="#ffb27d"/><path d="M505.51,667s1.57,10.84,2.33,21.11c19.34-1.94,28.31-20.35,31.81-30.45Z" fill="#ed985f"/><path d="M499.73,677.15s45.91-2.53,43.89-31.1,2.55-48.13-26.84-47.72-34.32,11.71-36,21.41S487.74,677.07,499.73,677.15Z" fill="#ffb27d"/><path d="M481,603.76c6.47-9.1,12-7.6,15.15-5.23,24.07-15.58,41.68,3.63,41.68,3.63a54.72,54.72,0,0,0,20.16,31s-8,5.76-27.61,2.19c-6-1.09-11.55-4.9-16.38-9.65a107.23,107.23,0,0,0,20,21.16c-23.78-9-35.32-40.33-36.48-43.65-2.62,2.71-7.75,8.57-9,14-1.76,7.44-9.37,19.07-13.77,18.87C474.77,636.08,471.33,617.41,481,603.76Z" fill="#233862"/><path d="M592.31,838.09c4.14-21.2,17.66-105.87,4.14-133.12-4.85-9.79-23.9-10.67-44.8-9.81-6.51,4.2-31.29,20.06-41.47,18.08l-.57-.13c-4.79-1.2-6.6-4.57-2.61-7.47a91,91,0,0,0-23.2,1.42c-7.26,1.37-26.85,11.5-26.85,11.5s9.86,17.82,24.41,24c-2.48,22.12,1.2,31.88,24.15,83,19.39,43.19-2.62,82.08-2.62,82.08s114.16,91.78,114.8,45C618.16,917.45,587,865.18,592.31,838.09Z" fill="#b5453c"/><path d="M497.23,1007.38a21.21,21.21,0,0,1-15.26-9.3l-1.77-2.65c-13-19.67-18.05-79.92-47.28-144.09-7.12-15.63-32.67-18.44-39.64-36.1,0,0-17.15-57.25,32.83-58.94S560,915.59,561.28,932.47C562.56,948.83,594.32,1018.33,497.23,1007.38Z" fill="#dd6d22"/><path d="M298.59,1006.06h71.14s2.66-11.34-2-19.06c-4.14-6.83-2.55-10.73.51-16.38a27.65,27.65,0,0,1-12,2.26c-3.55-.2-7.29-1.81-10.58-3.72-3.06,3.49-16.17,18.35-20.27,21.29C320.75,993.79,300,992.6,298.59,1006.06Z" fill="#9e332e"/><path d="M584.81,727.17S594.06,811.4,534,829.05s-77.09-77.5-28.61-84.35S584.81,727.17,584.81,727.17Z" fill="#9e332e"/><path d="M391.66,772.85c-4.29,32.11-21,133.47-50.52,182.92-9.51,15.94,24,24.88,24.15,24.83,4.49-1.18,12-8.33,15.42-11.44,24-21.59,72.58-82.72,72.58-131.73,0-23.9.42-69.54-17-81.14C425.63,749.15,393.36,760.1,391.66,772.85Z" fill="#ed7d2b"/><path d="M539.65,1006.06s-2.63-3.67-7.23-10.63c-5.47-8.29-11.53-24.6-18.87-45.5-7.72-21.94-16.87-48.94-28.31-77-3.53-8.67-7.28-17.45-11.26-26.21-7.12-15.63-26.71-13.47-33.67-31.13,0,0-27.19-61.23,22.79-62.92S608,916.45,613.5,932.47C619.47,950,648.62,1022.87,539.65,1006.06Z" fill="#f99746"/><path d="M350.81,1006.06h71.13s2.66-11.34-2-19.06c-4.13-6.83-2.55-10.73.52-16.38a27.68,27.68,0,0,1-12,2.26c-3.55-.2-7.3-1.81-10.58-3.72-3.06,3.49-16.17,18.35-20.27,21.29C373,993.79,352.24,992.6,350.81,1006.06Z" fill="#b5453c"/><path d="M513.55,949.93c-7.72-21.94-16.87-48.94-28.31-77,3-21.28,9.43-39.9,20.27-47.41C505.51,825.5,531.8,906.94,513.55,949.93Z" fill="#ed7d2b"/><path d="M433.18,770.57c-4.29,32.12-10.32,135.75-39.82,185.2-9.52,15.94,24,24.88,24.14,24.83,4.49-1.18,12-8.33,15.42-11.44,24-21.59,72.59-82.72,72.59-131.73,0-23.9-28.05-67.62-45.43-79.22C449.38,751.06,434.88,757.82,433.18,770.57Z" fill="#f99746"/><path d="M279.2,670.87,352,663.13a4.71,4.71,0,0,1,4.9,3L383,734.62a4.7,4.7,0,0,1-4.2,6.37l-72.29,2.92A4.7,4.7,0,0,1,302,741l-26.63-63.66A4.71,4.71,0,0,1,279.2,670.87Z" fill="#9e332e"/><path d="M272.87,671.53l72.85-7.74a4.71,4.71,0,0,1,4.89,3l26.06,68.48a4.69,4.69,0,0,1-4.2,6.37l-72.29,2.92a4.71,4.71,0,0,1-4.53-2.88L269,678A4.7,4.7,0,0,1,272.87,671.53Z" fill="#b5453c"/><path d="M313.25,703.51c-.89-2.45.37-4.43,2.81-4.43a7,7,0,0,1,6,4.43c.89,2.44-.37,4.42-2.81,4.42A7,7,0,0,1,313.25,703.51Z" fill="#9e332e"/><path d="M275.05,678a1.47,1.47,0,0,1,1.38-2.17,3.45,3.45,0,0,1,3,2.17,1.48,1.48,0,0,1-1.39,2.18A3.43,3.43,0,0,1,275.05,678Z" fill="#9e332e"/><path d="M579.23,705s-101,37.18-116.13,36.42c-9.81-.49-91.31-29.14-91.31-29.14S365.74,703,359.17,701c0,0-11.59-5.32-14.9-6.31s-2.65,0-1.66,3.15c.52,1.63,2.37,3.22,4,4.51-5.57,1.53-11.07,3.6-13.63,4.09-4.3.83-16.56,4.81-12.91,10.77s20.53,7.28,27.81,6,16.56,2.91,16.56,2.91,79.33,51,101.14,50.73c43.05-.49,115.7-26.92,123.9-32.12S603.06,710.23,579.23,705Z" fill="#ffb27d"/><path d="M280.37,706.29s7.31-11.56,9.7-12c7.29-1.44,7.29,8.16,5.74,14.35-1.66,6.64-7.27,12.9-8.82,12.36S278.65,712.39,280.37,706.29Z" fill="#ffb27d"/><path d="M280.1,708.61s-2.34,13,10,19.72Z" fill="#ffb27d"/><path d="M491.14,660.72s4.34-1.72,16.55-.73c0,0-.65,4.77-9.66,5.24C492.93,665.49,491.14,660.72,491.14,660.72Z" fill="#fff"/><path d="M527.21,723.31s9,28.58,40,35.09c0,0,51.22-15.78,25.72-50.67C593,707.73,567.76,689,527.21,723.31Z" fill="#b5453c"/></g><path d="M502.76,352.88c0-2.89.06-5.84.12-8.73A241.13,241.13,0,0,1,513.8,281c-5.4.2-10.59.52-15.6.84a245.61,245.61,0,0,0-9.5,53.4c-.39,5.39-.58,10.78-.64,16.24v1.41c0,5.46.19,10.91.51,16.31,4.94,2.31,10,4.49,15.34,6.67-.51-5.13-.9-10.33-1-15.53C502.82,357.82,502.76,355.39,502.76,352.88Zm471.13-98.4a253.21,253.21,0,0,0-331.4-134.59c-3.72,1.6-7.45,3.27-11,5-6,2.89-11.87,6-17.52,9.31a248.65,248.65,0,0,0-51.8,39.92c-3.28,3.21-6.42,6.55-9.5,10-3.85,4.23-7.51,8.66-11,13.15a252.77,252.77,0,0,0-15.66,22.41c-2.7,4.3-5.2,8.73-7.64,13.15-3.79,7-7.19,14.19-10.34,21.63-2.37,5.59-4.49,11.17-6.41,16.89-1.22,3.46-2.31,6.93-3.34,10.46a245.61,245.61,0,0,0-9.5,53.4c-.39,5.39-.58,10.78-.64,16.24v1.41c0,5.46.19,10.91.51,16.31.26,4.43.71,8.85,1.22,13.28A247.38,247.38,0,0,0,508,451.28a252.91,252.91,0,0,0,464.91,2.38c.32-.77.7-1.61,1-2.38,1.41-3.34,2.76-6.67,4-10a253.34,253.34,0,0,0-4-186.79ZM960.53,445.25c-.06.13-.06.19-.12.32-1.61,3.72-3.28,7.44-5.07,11.1a238.35,238.35,0,0,1-433.91-11.1,233.94,233.94,0,0,1-15.91-56.74c-.71-4.3-1.22-8.6-1.61-13-.51-5.13-.9-10.33-1-15.53-.06-2.51-.12-4.94-.12-7.45,0-2.89.06-5.84.12-8.73A241.13,241.13,0,0,1,513.8,281c1.09-3.46,2.24-6.86,3.53-10.27s2.63-7.06,4.1-10.52c2.12-4.88,4.3-9.69,6.68-14.38,2.25-4.49,4.62-8.86,7.12-13.16a239.63,239.63,0,0,1,24-33.83c3.72-4.36,7.57-8.6,11.62-12.7l1.67-1.67A238.33,238.33,0,0,1,633.89,140c4.68-2.38,9.43-4.56,14.31-6.61,1.29-.58,2.63-1.09,3.92-1.61A238.33,238.33,0,0,1,960.53,445.25Z" fill="#adcbf9"/><path d="M1020.93,403.85l-19.57-.45c6.29,8.15,7.7,15.66,3.78,22s-13.28,11.81-27.28,15.86a159.63,159.63,0,0,1-17.33,4c-17.13,3.08-38.51,4.88-63.48,5.13-63.16.77-141.59-7.83-220.8-24.07-53.34-11-102.63-24.52-143.9-39.41-6.29-2.24-12.39-4.56-18.23-6.87-3.47-1.34-6.87-2.76-10.21-4.17-5.33-2.18-10.4-4.36-15.34-6.67-3.47-1.54-6.8-3.15-10.08-4.75-45.51-22.21-66.3-43.65-57-58.86,7.51-12.33,34.85-20.67,76.7-23.75,5-.32,10.2-.64,15.6-.84,1.09-3.46,2.24-6.86,3.53-10.27-5.46.13-10.72.39-15.79.65-52.77,3.14-81,12.43-91.28,29.24-11.94,19.58,4.37,45.85,56.55,71.4,7.19,3.53,14.89,7,23,10.46,5.07,2.12,10.33,4.24,15.73,6.36l7.51,2.89c6.16,2.31,12.45,4.62,18.93,6.86,40.57,14.06,87.81,26.77,138.52,37.23,70.92,14.51,141.4,23.11,201.67,24.52,8.86.26,17.46.26,25.8.19a458.26,458.26,0,0,0,57.39-3.85c6.22-.83,12.06-1.86,17.52-3,25.74-5.33,42.68-13.68,49.42-24.72C1027,421.31,1026.39,412.83,1020.93,403.85Z" fill="#adcbf9"/><path d="M912.89,397.59c-.25.45-.51.91-.79,1.35-7.74,12.29-25.05,18.64-49.34,18.63a200.56,200.56,0,0,1-39.39-4.4c-47.8-9.7-104.3-34.05-159.1-68.59-53.87-33.94-99.57-73.6-129-111.92-.52-.67-1-1.33-1.52-2q-4.2-5.56-7.82-10.95c-21.47-31.88-27.93-58.91-17.64-75.23,7.74-12.29,25.05-18.63,49.34-18.63a200.56,200.56,0,0,1,39.39,4.4q8.26,1.68,16.89,3.94,9.79,2.56,20,5.86,7-3.56,14.36-6.64c1.29-.55,2.58-1.08,3.89-1.6q-10.49-3.81-20.69-6.91c-10.88-3.32-21.47-6-31.69-8.11-51.59-10.47-88.19-3.23-103.06,20.37-14.16,22.46-6.45,56.26,21.64,95.69,1.44,2,2.92,4,4.46,6.08,1.72,2.29,3.51,4.57,5.34,6.86,30.46,38.07,75.86,77,128.84,110.4,56.17,35.39,114.31,60.41,163.7,70.43a213.66,213.66,0,0,0,42.08,4.68c29.45,0,50.56-8.51,61-25.05a43.37,43.37,0,0,0,4.2-8.67Z" fill="#adcbf9"/><path d="M651.68,584.66a25.12,25.12,0,0,1-8.58-1.48c-43.38-15.73-23.32-144.06,17.57-256.81,37.83-104.28,98.94-209.84,142.56-209.84a25.08,25.08,0,0,1,8.58,1.47c24.71,9,26.21,53.17,23.12,88.67-4.12,47.45-18.58,107.17-40.69,168.14C756.42,479.09,695.3,584.66,651.68,584.66ZM803.23,129.92c-27.44,0-84.93,76.85-130,201-21.73,59.91-35.92,118.41-39.95,164.73C629,545.5,637.89,567,647.67,570.59a11.64,11.64,0,0,0,4,.68c27.44,0,84.93-76.86,130-201,21.73-59.91,35.91-118.42,39.94-164.74,4.33-49.83-4.57-71.37-14.34-74.91A11.51,11.51,0,0,0,803.23,129.92Z" fill="#adcbf9"/><path d="M910.42,306.92c-48.32,0-92.47-4.58-131.88-13.73-47.14-10.95-87.67-28.41-120.46-51.91-56.44-40.43-70.31-84.4-70.87-86.25L600,151.12c.13.42,13.54,42.16,66.79,79.94,49.5,35.11,144.44,73.9,315.67,59.27l1.14,13.35Q945.63,306.92,910.42,306.92Z" fill="#adcbf9"/><path d="M862.9,570c-93.69-69.74-186.21-101-247.33-114.87-66.06-15-110.29-13.62-110.73-13.6l-.49-13.39c1.86-.07,46.44-1.49,114.19,13.93,62.38,14.2,156.8,46.05,252.36,117.19Z" fill="#adcbf9"/><path d="M2642.39,1067.43a52.89,52.89,0,0,1-52.88,52.87H2158.8V1017.77h433.94a50.31,50.31,0,0,1,8,.64A49.67,49.67,0,0,1,2642.39,1067.43Z" fill="#f99746"/><path d="M2238.76,1068.46a51.66,51.66,0,0,1-15,36.5l-.16.16a51.67,51.67,0,0,1-36.65,15.18H1697.57V1017.77h490.51a50.69,50.69,0,0,1,50.68,50.69Z" fill="#fcecdb"/><path d="M2279.43,1112.62a7.66,7.66,0,0,1-7.66,7.68H1680.14a7.67,7.67,0,1,1,0-15.34h591.63A7.67,7.67,0,0,1,2279.43,1112.62Z" fill="#ed7d2b"/><path d="M2279.43,1025.44a7.66,7.66,0,0,1-7.66,7.67H1680.14a7.67,7.67,0,1,1,0-15.34h591.63A7.68,7.68,0,0,1,2279.43,1025.44Z" fill="#ed7d2b"/><polygon points="1697.58 1069.04 1763.19 1070.76 1697.58 1071.8 1697.58 1069.04" fill="#f4d2b8"/><polygon points="1697.58 1085.12 1853.67 1086.84 1697.58 1087.88 1697.58 1085.12" fill="#f4d2b8"/><path d="M2600.74,1018.41,2459.12,1120.3H2158.8V1017.77h433.94A50.31,50.31,0,0,1,2600.74,1018.41Z" fill="#ed7d2b"/><path d="M610.68,999.74H910.12a49.6,49.6,0,0,1,49.6,49.6v18.13a52.82,52.82,0,0,1-52.82,52.82H610.68a0,0,0,0,1,0,0V999.74A0,0,0,0,1,610.68,999.74Z" fill="#86d1cd"/><path d="M277.78,999.74H620.19a48.2,48.2,0,0,1,48.2,48.2V1071a49.3,49.3,0,0,1-49.3,49.3H277.78a0,0,0,0,1,0,0V999.74A0,0,0,0,1,277.78,999.74Z" fill="#fcecdb"/><rect x="259.66" y="1102.27" width="438.09" height="18.03" rx="7.66" fill="#86d1cd"/><rect x="259.66" y="999.74" width="438.09" height="18.03" rx="7.66" fill="#86d1cd"/><polygon points="277.78 1060.02 325.14 1062.05 277.78 1063.27 277.78 1060.02" fill="#f4d2b8"/><polygon points="277.78 1078.93 390.44 1080.96 277.78 1082.18 277.78 1078.93" fill="#f4d2b8"/><path d="M1073.83,565.64l-44,522.86s-4.61,31.7,19,31.75c38.77.1,192.94,0,192.94,0s-29.17-6.59-28.82-21.44c.42-17.5,51.4-538.12,51.4-538.12Z" fill="#d86713"/><path d="M1254.27,1110.77c-7.62,0-154.88.48-192.63,0-16.45-.21-19.33-14.63-19.47-24a46.54,46.54,0,0,1,.5-7.79l1.14-13.59,2.92-34.64,2.57-30.6,3.31-39.32,2.79-33.19,31.24-371.53,190.51-4.95s-21.47,217.88-36.66,376.48c-1.69,17.67-3.31,34.61-4.8,50.43q-.72,7.57-1.4,14.79c-1.41,15-2.69,28.79-3.81,40.95q-.88,9.63-1.63,17.83c-1.94,21.39-3.08,35-3.09,37.65a21.77,21.77,0,0,0,.37,4.23C1229.26,1110.22,1251.41,1110.77,1254.27,1110.77Z" fill="#ee9849"/><polygon points="611.17 281.12 718.29 711.37 732.95 770.29 782.84 970.69 1709.68 970.69 1525.8 281.12 611.17 281.12" fill="#f1a34f"/><polygon points="611.17 281.12 596.33 286.07 763.11 985.66 782.84 970.69 611.17 281.12" fill="#ee9849"/><polygon points="763.11 985.66 1684.24 985.66 1709.68 970.69 782.84 970.69 763.11 985.66" fill="#d86713"/><rect x="1086.58" y="1110.98" width="199.44" height="9.48" transform="translate(2372.6 2231.43) rotate(180)" fill="#f1a34f"/><polygon points="1664.78 843.63 1514.39 290.24 609.69 290.24 609.69 281.12 1525.8 281.12 1675.69 842.4 1664.78 843.63" fill="#f1a34f"/><polygon points="1235.32 985.66 1234.29 992.9 1046.73 1030.8 1049.3 1000.19 1050.53 985.66 1235.32 985.66" fill="#d86713"/><path d="M1254.27,1110.77c-7.62,0-154.88.48-192.63,0-16.45-.21-19.33-14.63-19.47-24l186.68-35.13c-1.94,21.39-3.08,35-3.09,37.65a21.77,21.77,0,0,0,.37,4.23C1229.26,1110.22,1251.41,1110.77,1254.27,1110.77Z" fill="#e78b37"/><polygon points="1189.99 831.1 782.84 970.69 732.95 770.29 1189.99 831.1" fill="#e78b37"/><polygon points="611.17 281.12 1525.8 281.12 1674.2 835.32 744.43 835.32 611.17 281.12" fill="#699dee"/><path d="M1270.83,905.38c-2.64-13.6-15.8-24.61-29.39-24.61s-22.47,11-19.83,24.61S1237.41,930,1251,930,1273.47,919,1270.83,905.38Z" fill="#d86713"/><polygon points="1631.06 811.3 774.69 811.3 677.71 424.96 670.28 395.33 663.93 370.06 649.06 310.8 1493.09 310.8 1509.42 370.06 1516.39 395.33 1524.55 424.96 1631.06 811.3" fill="#e9f3fe"/><polygon points="1509.42 370.06 663.93 370.06 649.06 310.8 1493.09 310.8 1509.42 370.06" fill="#afcdfb"/><path d="M684,337.58c-1-4.09,1.47-7.4,5.56-7.4a10.11,10.11,0,0,1,9.25,7.4c1,4.09-1.47,7.41-5.56,7.41A10.12,10.12,0,0,1,684,337.58Z" fill="#e9f3fe"/><path d="M708.59,337.58c-1-4.09,1.47-7.4,5.56-7.4a10.11,10.11,0,0,1,9.25,7.4c1,4.09-1.47,7.41-5.56,7.41A10.12,10.12,0,0,1,708.59,337.58Z" fill="#e9f3fe"/><path d="M735.09,337.58c-1-4.09,1.47-7.4,5.56-7.4a10.12,10.12,0,0,1,9.26,7.4c1,4.09-1.47,7.41-5.56,7.41A10.12,10.12,0,0,1,735.09,337.58Z" fill="#e9f3fe"/><path d="M793.1,752.29c0-17.09,14.31-30.95,32-30.95s32,13.86,32,30.95-14.31,31-32,31S793.1,769.39,793.1,752.29Z" fill="#699dee"/><path d="M822.5,734.05l18.36,15.88a3.41,3.41,0,0,1,0,5.23l-18.05,15.23a3.62,3.62,0,0,1-6-2.59l-.32-31.12A3.62,3.62,0,0,1,822.5,734.05Z" fill="#e9f3fe"/><path d="M1545.8,755.87a5.87,5.87,0,0,1-5.83,5.83H887.62a5.84,5.84,0,0,1,0-11.67H1540A5.86,5.86,0,0,1,1545.8,755.87Z" fill="#afcdfb"/><path d="M960.24,750V761.7H887.62a5.84,5.84,0,0,1,0-11.67Z" fill="#699dee"/><polygon points="1465.21 702.09 898.11 702.09 833.88 469.97 828.95 452.18 824.76 437 814.9 401.4 1373.84 401.4 1384.66 437 1389.27 452.18 1394.68 469.97 1465.21 702.09" fill="#afcdfb"/><polygon points="1378.51 530.18 1192.05 530.18 1170.93 453.86 1169.31 448.01 1167.93 443.02 1164.69 431.32 1348.47 431.32 1352.02 443.02 1353.54 448.01 1355.32 453.86 1378.51 530.18" fill="#e9f3fe"/><polygon points="1268.78 511.27 1204.13 511.27 1196.8 484.8 1196.24 482.78 1195.77 481.05 1194.64 476.99 1258.36 476.99 1259.59 481.05 1260.12 482.78 1260.74 484.8 1268.78 511.27" fill="#afcdfb" opacity="0.6"/><polygon points="1351.08 511.27 1286.43 511.27 1279.11 484.8 1278.55 482.78 1278.07 481.05 1276.95 476.99 1340.67 476.99 1341.9 481.05 1342.43 482.78 1343.04 484.8 1351.08 511.27" fill="#afcdfb" opacity="0.6"/><path d="M1304.76,445.85H1186.6a1.69,1.69,0,0,1-1.68-1.69h0a1.68,1.68,0,0,1,1.68-1.68h118.16a1.69,1.69,0,0,1,1.68,1.68h0A1.69,1.69,0,0,1,1304.76,445.85Z" fill="#afcdfb"/><path d="M1309.13,454.94H1191a1.69,1.69,0,0,1-1.69-1.69h0a1.69,1.69,0,0,1,1.69-1.68h118.15a1.69,1.69,0,0,1,1.69,1.68h0A1.69,1.69,0,0,1,1309.13,454.94Z" fill="#afcdfb"/><path d="M1329.57,468.14h-133a1.9,1.9,0,0,1-1.9-1.89h0a1.9,1.9,0,0,1,1.9-1.9h133a1.9,1.9,0,0,1,1.89,1.9h0A1.89,1.89,0,0,1,1329.57,468.14Z" fill="#afcdfb"/><polygon points="1413.35 649.52 1226.89 649.52 1205.77 573.2 1204.15 567.35 1202.78 562.36 1199.53 550.66 1383.31 550.66 1386.86 562.36 1388.38 567.35 1390.16 573.2 1413.35 649.52" fill="#e9f3fe"/><polygon points="1303.62 630.61 1238.97 630.61 1231.65 604.14 1231.08 602.12 1230.61 600.39 1229.48 596.33 1293.2 596.33 1294.43 600.39 1294.96 602.12 1295.58 604.14 1303.62 630.61" fill="#afcdfb" opacity="0.6"/><polygon points="1385.92 630.61 1321.28 630.61 1313.95 604.14 1313.39 602.12 1312.91 600.39 1311.79 596.33 1375.51 596.33 1376.74 600.39 1377.27 602.12 1377.88 604.14 1385.92 630.61" fill="#afcdfb" opacity="0.6"/><path d="M1339.6,565.19H1221.44a1.69,1.69,0,0,1-1.68-1.69h0a1.69,1.69,0,0,1,1.68-1.68H1339.6a1.68,1.68,0,0,1,1.68,1.68h0A1.69,1.69,0,0,1,1339.6,565.19Z" fill="#afcdfb"/><path d="M1344,574.28H1225.82a1.69,1.69,0,0,1-1.69-1.69h0a1.69,1.69,0,0,1,1.69-1.68H1344a1.69,1.69,0,0,1,1.68,1.68h0A1.69,1.69,0,0,1,1344,574.28Z" fill="#afcdfb"/><path d="M1347.17,583.37H1229a1.69,1.69,0,0,1-1.69-1.69h0A1.69,1.69,0,0,1,1229,580h118.15a1.69,1.69,0,0,1,1.69,1.68h0A1.69,1.69,0,0,1,1347.17,583.37Z" fill="#afcdfb"/><path d="M426.34,1055.69s-10.3,5-13.71,13.08a13.12,13.12,0,0,0-1.07,4.55c-.57,10.8,0,35.24,0,35.24l-30.42-12.22-30.33,12.22v-33.13a21.15,21.15,0,0,1,7.43-16.35,13.33,13.33,0,0,1,8.4-3.39Z" fill="#f99746"/><path d="M426.34,1055.69s-10.3,5-13.71,13.08l-61,.48s2.4-11.64,15-13.56Z" fill="#ed7d2b"/><path d="M1843.44,862.7h364.49a66.78,66.78,0,0,1,66.78,66.78V956a62.71,62.71,0,0,1-62.71,62.71H1843.44a0,0,0,0,1,0,0v-156A0,0,0,0,1,1843.44,862.7Z" transform="translate(4118.15 1881.38) rotate(180)" fill="#b5453c"/><path d="M2203.4,862.7h420.31A62.33,62.33,0,0,1,2686,925v32.7a60.95,60.95,0,0,1-60.95,60.95H2203.4a0,0,0,0,1,0,0v-156A0,0,0,0,1,2203.4,862.7Z" transform="translate(4889.44 1881.38) rotate(-180)" fill="#fcecdb"/><rect x="2167.13" y="995.35" width="541.29" height="23.33" rx="9.68" transform="translate(4875.56 2014.03) rotate(180)" fill="#b5453c"/><rect x="2167.13" y="862.7" width="541.29" height="23.33" rx="9.68" transform="translate(4875.56 1748.74) rotate(180)" fill="#b5453c"/><polygon points="2686.04 940.69 2627.52 943.31 2686.04 944.89 2686.04 940.69" fill="#f4d2b8"/><polygon points="2686.04 904.8 2546.83 907.42 2686.04 909 2686.04 904.8" fill="#f4d2b8"/><path d="M2548.26,906.9s9.19,4.94,12.23,13.07a14.58,14.58,0,0,1,1,4.55c.51,10.8,0,35.25,0,35.25l27.13-12.23,27,12.23V926.63c0-6.26-2.32-12.35-6.63-16.35a11.21,11.21,0,0,0-7.49-3.38Z" fill="#b5453c"/><path d="M2548.26,906.9s9.19,4.94,12.23,13.07l54.36.49s-2.13-11.64-13.35-13.56Z" fill="#9e3732"/><path d="M1797.55,688.39s-19.37,11-24.79,11-26.72-4.11-32.65-1.08-16.68,15.23-18.69,19.22c-3.63,7.16,14.59,4,23.2-2.11a5.43,5.43,0,0,1,4.3-.88c4.45,1,13.72,2.65,18.19,1,6-2.23,37.7-4.7,37.7-4.7Z" fill="#e49963"/><path d="M1775.65,1086.26s-2.09,33.65-8.6,34.13c-.86.06-33,.06-33,.06l-41-.23s.26-9.89,12.26-12,32.07-10.52,39.34-26.38C1752.25,1065.18,1775.65,1086.26,1775.65,1086.26Z" fill="#163560"/><path d="M1945,538.35s-20.09,142.74-53.34,155.52c-16.41,6.31-88.93,20.61-110.38,22,0,0-5.25-4.26-4-21.62,0,0,76-27.89,86.77-43.06,16.06-22.58-10-92.23,10.18-113.43S1928.32,507.49,1945,538.35Z" fill="#ed7d2b"/><path d="M1938.18,839.07a249.65,249.65,0,0,1-19.62,28.07c-21.58,27.25-45.08,49.72-49.17,71a97,97,0,0,1-3.8,13.59c-1.71,4.86-3.82,10-6.26,15.27-9.16,19.89-22.86,42.19-36.53,62.45-23.65,35-45.88,64.27-45.88,64.27l-40.77-1.74c1.64-4.09,19.42-52.46,43.21-111.57l29.84-74.14,3.94-9.8c3-7.54,6-14.95,8.93-22.17,22.33-55.51,40.12-99.71,40.12-99.71s89.28-33.81,98.55-11.9C1968.38,780.72,1962.16,798.42,1938.18,839.07Z" fill="#599dad"/><path d="M1870.06,990.15s28.35,18.22,25.6,24.14c-.36.79-16,28.86-16,28.86l-20.21,35.71s-8.5-5-4.48-16.54,6.45-33.14-3.85-47.21C1840.24,1000.3,1870.06,990.15,1870.06,990.15Z" fill="#163560"/><path d="M1856.18,1022.18s17.72-15.63,20.85-27.1c0,0-73-87.5-88.87-107.11-.72-.9-.54-1.89.42-3,12-13.48,144.83-40.9,162.2-67.91A84,84,0,0,0,1962,791.22c3.94-16.49.82-27.88.82-27.88l-132.7-3.84s-110.48,68.8-123,115.71S1856.18,1022.18,1856.18,1022.18Z" fill="#6bb7bf"/><path d="M1788.58,885c12-13.48,144.83-40.9,162.2-67.91A84,84,0,0,0,1962,791.22v-16.8l-56.4-8.87s-16,49.22-63.37,67.67C1797.87,850.51,1789.47,881.18,1788.58,885Z" fill="#5aa9ad"/><path d="M1866.43,529.35c26.85,6.94,71.35-17.93,71.35-17.93s-17.28-11.61-23.68-37.12c-.33-1.29-.62-2.61-.88-4l-13.79-2.92-20.5,18.37a177.43,177.43,0,0,0,3,20.74c.44,2.28,1,4.74,1.54,7.35A63.41,63.41,0,0,0,1866.43,529.35Z" fill="#e49963"/><path d="M1966.21,640.63c-3.85,51.72,1.21,130.37-3.15,144-3.77,11.76-46.66,4.77-63.78.85-6.34-1.46-14-3.53-21.94-6-22.12-6.85-46.21-16.63-48.8-23.89a7,7,0,0,1-.24-.83,6.77,6.77,0,0,1,0-3c.86-3.7,4.18-7.71,4.57-16.87.44-10.23.37-22.27.76-35.22,0-1.46,0-3,.2-4.5v-.53c0-.28,0-.55,0-.83.38-14.45,1.13-29.63,2-44.69.55-9.46,1.2-18.83,1.94-27.8,1.93-23.17,4.53-43.77,8-56.8,5.62-21.23,18-35.08,29.29-45.22l8.16-7c9.11,2,19.88.67,29.62-3.95,10.53-5,14.17-8.59,16-7.24C1953.24,519.86,1970.75,577.41,1966.21,640.63Z" fill="#f99746"/><path d="M1877.34,779.49c-22.12-6.85-46.21-16.63-48.8-23.89a7,7,0,0,1-.24-.83c0-1,0-2,0-3,.86-3.7,4.18-7.71,4.57-16.87.44-10.23.37-22.27.76-35.22,0-1.46,0-3,.2-4.5v-.53c0-.28,0-.55,0-.83l89.4-113.9S1983.39,705,1877.34,779.49Z" fill="#ed7d2b"/><path d="M1878.93,485.79a177.43,177.43,0,0,0,3,20.74c20-6.48,29.11-24.56,32.14-32.23-.33-1.29-.62-2.61-.88-4l-13.79-2.92Z" fill="#d68d5d"/><path d="M1876.23,497.35s43.67-7.29,38.71-34.41-2.66-46.33-30.75-42.83-31.59,14.85-32.14,24.3S1864.75,498.55,1876.23,497.35Z" fill="#e49963"/><rect x="1684.02" y="626.62" width="4.05" height="106.02" transform="translate(-127.5 554.3) rotate(-18)" fill="#4a75cb"/><rect x="1700.42" y="722.83" width="111.25" height="6.66" transform="translate(-15.11 37.67) rotate(-1.22)" fill="#4a75cb"/><path d="M1809.5,733.61s-35.73,9.42-49.14,8.43-24.55-7.36-26.23-10.69-5.23-9.23,3.89-8.14,21.58,3,22,1.28-7.44-1.59-7.44-1.59-2.36-3.44.62-3.56,11.66-2.49,14.89-.87,6.2,7.57,8.56,7.32,29.91-12.41,29.91-12.41Z" fill="#e49963"/><path d="M1936.08,544.21s-4.22,144.08-35.86,160.45c-15.62,8.08-86.12,30.29-107.28,34.08,0,0-5.69-3.66-6.33-21,0,0,72.44-36.1,81.49-52.37,13.48-24.21-20.08-90.57-2.38-113.87S1916.15,515.37,1936.08,544.21Z" fill="#f99746"/><path d="M1914.1,474.3s.5-9.31-5.24-14.64c0,0,2-9.33-1.7-10.87s-4.46,6.31-6.15,5.08-9.23-7.08-12.45-15.69-32.79,1.82-36.24,3.37-14.52-4.14-16.67-8.75c0,0,6.15-4.93,8.92-8.62s22.15-28.6,49.21-21.53,30.76,20,29.23,31.07S1925.18,470.58,1914.1,474.3Z" fill="#2b478b"/><path d="M2207.59,593.87s13.86,20.51,21.76,63.63c6.92,37.76,13,51.71,23,59.45s65.7,30.61,65.7,30.61l-4.16,9.76s-81.66-11.12-90.83-24.77-44.14-94.27-41.42-112.84S2207.59,593.87,2207.59,593.87Z" fill="#f4a269"/><path d="M2407.53,1044.31c-.73,8,10.35,9.9,23.2,10.54s9,3.27,26.55,6.45,24.65-1.63,25.92-4c1.14-2.11-7-5.41-15.76-9.14-1.1-.46-2.2-1-3.3-1.43-9.81-4.31-15.32-13.11-23-21.27-7.24-7.73-14.12-32.47-14.12-32.47l-23.91-5.11s6.71,22.27,9,31.78c1.37,5.59-.65,11.84-2.45,16.6A31.8,31.8,0,0,0,2407.53,1044.31Z" fill="#ffb27d"/><path d="M2430.73,1054.85c12.84.64,9,3.27,26.55,6.45s24.65-1.63,25.92-4c1.14-2.11-7-5.41-15.76-9.14l-.14.15a50.12,50.12,0,0,1-26.65.32c-11.64-3.16-22.9-10.12-30.92-12.37a31.8,31.8,0,0,0-2.2,8C2406.8,1052.27,2417.88,1054.21,2430.73,1054.85Z" fill="#c65447"/><path d="M2169.41,760.74s158.9-12,188.81,6.93,77.9,238.78,77.9,238.78-3,2.38-9.58,3.09c-6.15.67-19.69-2.95-19.69-2.95S2337.9,908.2,2333,883.41s-3.67-46.91-14.73-47.5-148.92,16.76-169.77-20-3.62-73.1-3.62-73.1Z" fill="#163560"/><path d="M2346.73,1069.83c-.73,8,10.35,9.9,23.19,10.54s9,3.27,26.56,6.45,24.65-1.62,25.92-4c1.14-2.11-7.05-5.41-15.76-9.14-1.1-.46-2.2-.94-3.3-1.42-9.81-4.32-15.32-13.12-23-21.28-7.24-7.73-14.12-32.47-14.12-32.47l-23.92-5.11s6.72,22.27,9.05,31.78c1.37,5.59-.65,11.85-2.45,16.6A31.39,31.39,0,0,0,2346.73,1069.83Z" fill="#ffb27d"/><path d="M2369.92,1080.37c12.84.64,9,3.27,26.56,6.45s24.65-1.62,25.92-4c1.14-2.11-7.05-5.41-15.76-9.14l-.14.15a50.12,50.12,0,0,1-26.65.32c-11.65-3.16-22.9-10.12-30.92-12.37a31.39,31.39,0,0,0-2.2,8C2346,1077.79,2357.08,1079.73,2369.92,1080.37Z" fill="#c65447"/><path d="M2138.29,770.59s141.15,6.68,170.31,26.71,68.54,241.64,68.54,241.64-3,2.26-9.69,2.72c-6.17.42-19.56-3.72-19.56-3.72s-65.07-101-69-126-1.84-47-12.87-48-149.46,10.95-168.87-26.57S2138.29,770.59,2138.29,770.59Z" fill="#1c468a"/><path d="M2188.59,460c-6.27-4.14-14-5.06-19.52-5.1a9.21,9.21,0,0,1,4.3-1.7c-3.35-.73-11.13,2.12-11.13,2.12-45.86-21.27-57.88,47.54-58,63.71s-1.21,34.71-25.67,47.59c-48.13,25.33-12.43,77.54-12.43,77.54.35.24,32.08,42.25,32.08,42.25-.32-13.1,51.32-82.49,84-101,8.37-10.72,12.41-30.37,12.71-31.92-2.36,15.64-5.64,24.28-8.38,29.09C2214.77,559.93,2205.19,470.93,2188.59,460Z" fill="#b5453c"/><path d="M2132.35,570.25a158.82,158.82,0,0,1,26.3,0,84.29,84.29,0,0,1,22.81,5.72c12.44,5.2,11.14,27.23-15,23.15S2130.52,576.78,2132.35,570.25Z" fill="#ffb27d"/><path d="M2180.36,586.31c.15.08,3.72,19-13.37,18.19-11.22-.49-35.42-14.07-33.29-23.68,1-4.56,9.5-16.41,11.2-43.46l2,.55,34.34,9.21s-1.52,10.9-2.23,21.22C2178.46,577,2178.44,585.25,2180.36,586.31Z" fill="#ffb27d"/><path d="M2181.29,547.12s-1.52,10.9-2.23,21.22c-19.44-1.85-28.55-20.3-32.11-30.43Z" fill="#f4a269"/><path d="M2143.6,533.88s-9.13-16.81-10.66-30.76c-1.09-10,6.36-46.12,42.68-38.42a49.93,49.93,0,0,1,20.14,9.19c7.6,5.91,18.32,18.28,3.35,49.27l-4.06,10.54Z" fill="#b5453c"/><path d="M2187.14,557.32s-46.12-2.31-44.24-31-2.81-48.34,26.72-48.08,34.54,11.59,36.24,21.33S2199.19,557.19,2187.14,557.32Z" fill="#ffb27d"/><path d="M2190.66,478.93s-14.86,32.83-34.56,36.52-27.74-2.06-27.74-2.06a55,55,0,0,0,20.09-31.2S2182.21,462.27,2190.66,478.93Z" fill="#b5453c"/><path d="M2187.35,481.46s8.92,8.14,10.73,15.6,1.84,22.58,6.26,22.36c0,0,11-22.25,1.21-35.91C2195.14,469,2187.35,481.46,2187.35,481.46Z" fill="#b5453c"/><path d="M2233.3,763.14c-3.73,4.47-15.39,5.84-27.85,7.89-9.8,1.62-20.1,3.65-27.42,8-16.63,9.76-71,42.76-86.88,41.25-6.18-.58-5-12.36-1.28-28,5.89-24.69,18.21-59,18.21-73.9,0-8.14,2.71-27.4,6.32-49.42q.43-2.65.89-5.37c7.16-42.81,17.06-93.29,17.06-93.29s11.05,24.11,32.58,24.11S2181.46,576,2181.46,576s19.64,2.31,24.28,7.31,16.41,26.61,18.75,32.5c0,0,.48,7.5-18.09,11.07,0,0,4.52,20.36,5.06,33.92.4,10-6.84,41.4-8.92,60.91-.74,6.91-.84,12.34.28,14.8,1.44,3.15,6.09,6.29,11.37,9.37C2224.69,752,2237.73,757.84,2233.3,763.14Z" fill="#1c468a"/><path d="M2214.19,745.85c11.92,20.32-32.32,26.42-39.64,30.72-16.63,9.77-67.48,45.17-83.4,43.66-6.18-.58-5-12.36-1.28-28,5.89-24.69,18.21-59,18.21-73.9,0-8.14,2.71-27.4,6.32-49.42l19.17-18.4s20.54,53.08,40.11,61.78a163.64,163.64,0,0,0,28.86,9.39c-.74,6.91-.84,12.34.28,14.8C2204.26,739.63,2208.91,742.77,2214.19,745.85Z" fill="#163560"/><rect x="2238.26" y="760.91" width="44.46" height="5.25" fill="#9e332e"/><path d="M2273.27,765.45c.43-1.74,40.87-65.23,40.87-65.23h90L2359,763.74Z" fill="#9e332e"/><path d="M2277.05,766.17c.44-1.74,41-65.95,41-65.95h86l-42.93,65.95Z" fill="#b5453c"/><path d="M2352.91,733.41a7.19,7.19,0,0,1-6.26,4.65c-2.58,0-3.94-2.08-3.06-4.65a7.18,7.18,0,0,1,6.26-4.66C2352.43,728.75,2353.79,730.83,2352.91,733.41Z" fill="#9e332e"/><path d="M2251.45,738.34c-2.52-1.08-22,2.47-27.57,3.51-17.64-3.46-75.65-15.05-78.48-18.68-3.33-4.29-10.6-134.85-18.94-137,0,0-16.38-9.95-32.23,8.93s11.26,153.84,34.74,160.77c26.08,7.7,101.42-1.23,101.42-1.23h0c6.19,2.12,17,3.31,22.75,5.22,7.58,2.53,14.32.42,16-2.53S2254.4,739.61,2251.45,738.34Z" fill="#ffb27d"/><path d="M2132.35,570.25s-33.65,3-43.43,14.1-12.63,41.07-12.63,41.07,29.64,23.93,65.35,14.64Z" fill="#1c468a"/><rect y="1119.95" width="2866.32" height="7.6" rx="3.25" fill="#2e3552"/><g clip-path="url(#clip-path)"><path d="M1165.64,512.08s3.15-12.44,8.39-13.1,13.14-4,14.79.2-12.53,25.82-18.18,20.47S1165.64,512.08,1165.64,512.08Z" fill="#ffb27d"/><path d="M1109.59,928.17s5.91,6.67,8.07,14.41a2.31,2.31,0,0,1-2.27,3.13h-25.71a5.24,5.24,0,0,1-5-4.75c-.06-4.71.59-11.83,4.57-16.14C1095.61,917.93,1109.59,928.17,1109.59,928.17Z" fill="#163560"/><path d="M1148.44,921.34s7.86,23.84,12.57,24.18c.62.05,23.4.05,23.4.05h29.38a14.27,14.27,0,0,0-11.31-8.66c-8.9-1.48-24.73-7.45-32.88-18.69C1161,906.4,1148.44,921.34,1148.44,921.34Z" fill="#163560"/><path d="M1096.67,774.07c4.57,13.25,7.51,23.7,7.48,28.66C1104,824.9,1147.84,925,1147.84,925c14.14,6,30.3-.06,30.3-.06-4.79-13.87-31.46-138-45.62-213.75-6-31.8-10-54-10-54l-77.38-8.74S1080.79,728.08,1096.67,774.07Z" fill="#2c3a64"/><path d="M1045.15,648.42s35.64,79.66,51.52,125.65l35.85-62.87c-6-31.8-10-54-10-54Z" fill="#2c3a64"/><path d="M1086.51,665.41s21.28,221.19,26.22,264c0,0-13.15,4-29.33-2.18,0,0-29.42-102.79-32.75-133.75s-36.59-126.68-31-135.58S1086.51,665.41,1086.51,665.41Z" fill="#2c3a64"/><path d="M1032.06,476.79s8.18,19.66,8.48,25.53-18.38,9.06-27.85,4.21-8-9.17-8-9.17-4.31-20-3.59-21.59S1032.06,476.79,1032.06,476.79Z" fill="#ffb27d"/><path d="M1163.44,509.79s-33.43,41.57-34.82,46.92c-19.19-22.37-48.72-50.42-50.07-51.52-3.77-3.07-10.56-4.94-17.43-6.07a150.29,150.29,0,0,0-21.16-1.76c-.32,0-.48,0-.48,0,.89,3.31-2.72,9.45-10.64,10-9.4.61-22.65-4.48-24.13-10-.08-.28-22,1.1-18.18,42.12a16.54,16.54,0,0,0,.2,1.77c1.47,13.77,5.81,31.79,14.65,55.51,3.16,8.51,13.63,71.7,16.74,71.76a53,53,0,0,0,8.68,3.09c3.11.89,7.19,1.89,12.2,2.82,10.65,2,25.66,3.76,45.84,3.76,36.88,0,46.23-10.5,46.23-10.5,2,0-20.51-50.83-32.29-94.49C1111,580.32,1124,587.13,1125.4,588c6.18,3.75,10.51,5.3,13.53,5.49h0a2.66,2.66,0,0,0,.41,0,5.84,5.84,0,0,0,4-1.19c2.78-1.46,6.57-4.68,10.41-11.76,5.07-9.33,11.09-28.21,16.27-40.81,2.86-7,5.07-14.59,8-20.88C1178,518.84,1170.88,511.21,1163.44,509.79Z" fill="#bc3f3f"/><path d="M1043.55,612.17c7.36,30.58-6.65,50.09-16.75,59.43a53,53,0,0,1-8.68-3.09c-3.11-.06-13.58-63.25-16.74-71.76C992.54,573,988.2,555,986.73,541.24c.8-.94,1.27-1.44,1.27-1.44S1032.62,566.84,1043.55,612.17Z" fill="#a02e2e"/><path d="M1033,479s-4.71,10.68-12.7,10.78-19-10.61-19-10.61Z" fill="#e8945b"/><path d="M1033.55,478.47c-1.65,1.65-5.73,3.93-9.16,5.44a12.89,12.89,0,0,1-9,.19c-4.82-1.52-12.15-3.9-14.12-4.93-4.67-2.43-5.73-7.35-7.77-14.19-2.41-8.1-4.93-14.46-5.28-19.13-.42-5.59,2.27-8.77,11.95-9.63,17.78-1.58,26.58,3,28.53,9.08q.8,2.46,1.47,4.68C1036,469,1036.27,475.76,1033.55,478.47Z" fill="#ffb27d"/><path d="M1029.39,447.55s-4.16-4.39-9.3-2.67-4.43,6.51-14.21,5.74-13.29-5.29-14.41-3S993,463.24,993,463.24s-31-43.89,8-43.89c0,0,39.55-2.42,32.18,42.19Z" fill="#2c3a64"/><path d="M1111.41,489.12l-.05,0C1111.42,489.17,1111.41,489.12,1111.41,489.12Z" fill="#ffb27d"/><path d="M1115.63,426.41c.13-.73.24-1.21.24-1.21A3,3,0,0,0,1115.63,426.41Z" fill="#d35c2b"/><polygon points="1177.69 560.49 1171.3 559.52 1189.24 457.87 1189.24 457.87 1177.69 560.49" fill="#2c3a64"/><path d="M1168.78,508.36s5.9,5.86,6.89,2.65,8.47-6.89,9-8.39-8.62-2.16-10-2.19S1167.82,506.3,1168.78,508.36Z" fill="#ffb27d"/><path d="M1018.14,506.09c.51.14,7.4-1.73,16.79-.6,0,0,.7,8.49-1.73,9.18s-7.53.11-8.6,0S1018.14,506.09,1018.14,506.09Z" fill="#1c468a"/><path d="M1024.6,514.67s28.43,119.44,36,127,13.51,10,13.51,10,6-7.22,5.87-10.67-46.78-126.35-46.78-126.35Z" fill="#1c468a"/><path d="M1064.44,631.23s19.33,6.26,25.15,6.49,12.66-9.71,10.39-12.64c-.66-.84-9.1,3-11.51,1.73-3.65-2-8.32-.48-11.25-.13s-14.18-6-14.18-6Z" fill="#ffb27d"/><path d="M1071.21,620.66c-31.42-22.2-53.48-33.38-60.39-36.68,1.92-16.41,1.06-42.52-6.11-86.65,0,0-30.49,3.38-33.75,14-4.7,15.36,6.36,58.12,15.53,92.33l.35.21a11.55,11.55,0,0,0,2.94,3.36c13,10.43,81.7,30.45,81.7,30.45C1076.47,630.49,1071.21,620.66,1071.21,620.66Z" fill="#bc3f3f"/><polygon points="1085.25 623.72 1033.69 608.38 1032.06 615.76 1087.29 631.31 1085.25 623.72" fill="#fcecdb"/><polygon points="1111.33 603.83 1085.25 623.72 1087.29 631.31 1117.3 610.83 1111.33 603.83" fill="#f4d2b8"/><polygon points="1087.87 633.49 1029.04 615.54 1029.23 614.02 1087.29 631.31 1087.87 633.49" fill="#2c3a64"/><polygon points="1087.87 633.49 1121.18 610.35 1119.83 608.98 1087.29 631.31 1087.87 633.49" fill="#2c3a64"/><path d="M1018.14,506.09s-13.48-14-14.58-13.08-2.49,4-1.84,4.89,18.06,10.69,18.06,10.69Z" fill="#1c468a"/><path d="M1034.93,505.49s2.7-13.95,3.15-13.42,4.8,4.39,5,5.36-5.42,8.84-8,9.44S1034.93,505.49,1034.93,505.49Z" fill="#1c468a"/><path d="M3956.4,530.66s7.46-14.35,13.72-15.11,16.37-4.59,17,.23-22.42,29.77-27.28,23.61S3956.4,530.66,3956.4,530.66Z" fill="#ffb27d"/><path d="M3815.5,513.68s10,40.2,24.66,70.26c4.11,8.43,44,32.46,46.4,34.21,25.11,18.24,24.61-8.55,24.61-8.55,1.41-17.68-51.3-85.05-53.06-86.88-3.4-3.55-10.65-5.7-18.22-7A163.56,163.56,0,0,0,3815.5,513.68Z" fill="#bc3f3f"/><path d="M3763.22,1010.39s4.75,7.69,4.86,16.62a3.58,3.58,0,0,1-3.59,3.6h-29.64a4.41,4.41,0,0,1-4.28-5.48c1.38-5.43,4.33-13.63,10.25-18.61C3750.27,998.58,3763.22,1010.39,3763.22,1010.39Z" fill="#163560"/><path d="M3810.12,1002.51s1.71,27.49,7,27.88c.71.06,27,.06,27,.06H3878s-.57-8.28-10.37-10-26.2-8.6-32.14-21.55C3829.24,985.29,3810.12,1002.51,3810.12,1002.51Z" fill="#163560"/><path d="M3795.93,832.72c1.19,15.27,1.34,27.32-.23,33-7,25.56,12.6,141,12.6,141,14.45,6.91,35-.08,35-.08-1.25-16,6.35-159.12,13.43-246.44,3-36.66,5.18-62.31,5.18-62.31l-86.52-10.07S3791.83,779.69,3795.93,832.72Z" fill="#e58638"/><path d="M3775.35,687.85s16.48,91.84,20.58,144.87l60.76-72.49c3-36.66,5.18-62.31,5.18-62.31Z" fill="#e58638"/><path d="M3817.79,707.44s-43.8,255-51.33,304.4c0,0-16.4,4.58-33.15-2.52,0,0-2.17-118.5,3.56-154.2s-3-146,6.19-156.32S3817.79,707.44,3817.79,707.44Z" fill="#ee9849"/><path d="M3813.28,490s3.36,22.66,1.89,29.43-24,10.45-33.41,4.86-6.35-10.58-6.35-10.58,1.2-23,2.53-24.89S3813.28,490,3813.28,490Z" fill="#ffb27d"/><path d="M3868.46,710.06s-14,12.11-56.54,12.11c-23.27,0-40-2-51.69-4.34a132,132,0,0,1-13.2-3.25A47.07,47.07,0,0,1,3738,711c-3.57-.06,3.89-72.92,2.87-82.74-2.87-27.34-2.3-48.12.25-64,.07-.7.19-1.4.32-2,8.22-47.3,34-48.89,34-48.57,0,6.37,13.7,12.24,24.73,11.53,9.3-.63,15.36-7.71,15.36-11.53a77.35,77.35,0,0,1,7.71,1.14c23.52,4.08,37.23,39,37.23,85.67C3860.43,651,3870.75,710.06,3868.46,710.06Z" fill="#bc3f3f"/><path d="M3784.7,646.06c-.95,35.25-23.14,57.75-37.67,68.52A47.07,47.07,0,0,1,3738,711c-3.57-.06,3.89-72.92,2.87-82.74-2.87-27.34-2.3-48.12.25-64,1.21-1.09,1.92-1.66,1.92-1.66S3786.1,593.79,3784.7,646.06Z" fill="#a02e2e"/><path d="M3813.64,492.52s-8.74,12.31-18,12.42S3777,492.72,3777,492.72Z" fill="#e8945b"/><path d="M3814.48,491.91c-2.42,1.9-7.82,4.53-12.24,6.27a15.2,15.2,0,0,1-10.47.22c-5.09-1.76-12.81-4.51-14.76-5.68-4.63-2.81-4.33-8.48-4.57-16.37-.28-9.34-1.22-16.67-.18-22.06,1.24-6.44,5.32-10.1,16.75-11.09,21-1.83,29.73,3.43,30.09,10.46.1,1.89.19,3.69.25,5.4C3820.19,481,3818.45,488.78,3814.48,491.91Z" fill="#ffb27d"/><path d="M3819.23,456.26a8.8,8.8,0,0,0-9.89-3.08c-6.46,2-7.12,7.5-18.16,6.62s-13.69-6.11-15.67-3.5-3.14,18.05-3.14,18.05-22.19-50.6,22.79-50.6c0,0,46.35-2.8,24.07,48.63Z" fill="#2c3a64"/><path d="M3775.41,513.65s-36.2,3.9-43.25,16.18c-10.17,17.72-10.63,67-10.63,106.46,0,0,15.38,11.67,25.9-5.58C3757.39,614.38,3768,583.7,3775.41,513.65Z" fill="#bc3f3f"/><path d="M3901,504.18l-.06,0S3901,504.18,3901,504.18Z" fill="#ffb27d"/><path d="M3925.2,431.88c.38-.84.64-1.39.64-1.39A4.45,4.45,0,0,0,3925.2,431.88Z" fill="#d35c2b"/><polygon points="3967.73 576.96 3961.44 575.9 3983.19 458.36 3985.36 458.73 3967.73 576.96" fill="#2c3a64"/><path d="M3960.38,531.41s8.55,2.57,8.75-1.21,7.77-11.71,8-13.53-10.6,2.69-12.16,3.4S3958.67,529.88,3960.38,531.41Z" fill="#ffb27d"/><path d="M3968.56,538.45s-5.86-8.79-14-10.43a400.15,400.15,0,0,1-38.69,35.27,57,57,0,0,0-21.52,34.79c-4.08,20.48,6.13,26.42,6.13,26.42s8.13,1,21.06-14.92c8.73-10.76,21.5-32.53,31.36-47.05C3958.35,554.49,3963.25,545.71,3968.56,538.45Z" fill="#bc3f3f"/><path d="M3788.18,523.75c.55.16,9.07-2,19.55-.7,0,0-1.82,9.79-4.83,10.59s-8.73.13-9.92,0S3788.18,523.75,3788.18,523.75Z" fill="#1c468a"/><path d="M3793,533.64s-4.12,137.71,2.26,146.47,12.49,11.51,12.49,11.51,9.11-8.32,10.06-12.3-14.89-145.68-14.89-145.68Z" fill="#1c468a"/><path d="M3802.9,668s20.36,7.22,27,7.48,17.6-11.19,15.88-14.57c-.49-1-11.42,3.51-13.79,2-3.59-2.3-9.46-.55-12.94-.15s-14.5-6.88-14.5-6.88Z" fill="#ffb27d"/><path d="M3753.35,612.32s24.84,12.34,60.63,43.52c0,0,3,11.33-5,19.67,0,0-73.06-23.08-84.8-35.1S3742.39,610,3753.35,612.32Z" fill="#bc3f3f"/><polygon points="3829.22 659.37 3774.5 641.68 3770.35 650.2 3829.22 668.12 3829.22 659.37" fill="#fcecdb"/><polygon points="3865.43 636.44 3829.22 659.37 3829.22 668.12 3870.15 644.51 3865.43 636.44" fill="#f4d2b8"/><polygon points="3829.22 670.64 3766.93 649.95 3767.62 648.19 3829.22 668.12 3829.22 670.64" fill="#2c3a64"/><polygon points="3829.22 670.64 3874.77 643.96 3873.63 642.37 3829.22 668.12 3829.22 670.64" fill="#2c3a64"/><path d="M3788.18,523.75s-11.22-16.14-12.77-15.08-4.11,4.63-3.63,5.64,17.52,12.33,17.52,12.33Z" fill="#1c468a"/><path d="M3807.73,523.05s7.42-16.08,7.77-15.46,4.17,5.06,4.06,6.18-9,10.18-12.17,10.88S3807.73,523.05,3807.73,523.05Z" fill="#1c468a"/></g></g></g></svg>