<svg xmlns="http://www.w3.org/2000/svg" viewBox="0 0 719.07 533.26"><title>Pc</title><g id="Layer_2" data-name="Layer 2"><g id="illustrations"><g id="desktop-workspace-by-oblik-studio"><path d="M479.18,493.44a11,11,0,0,0,9.12-17.1c-7.79-11.48-23-19.27-40.48-19.27s-32.69,7.79-40.49,19.27a11,11,0,0,0,9.12,17.1Z" fill="#c5c6e3"/><path d="M534.1,369.39H172.82a19.46,19.46,0,0,1-19.4-19.4V132.52a19.46,19.46,0,0,1,19.4-19.4H534.1a19.46,19.46,0,0,1,19.4,19.4V349.93A19.51,19.51,0,0,1,534.1,369.39Z" fill="#c5c6e3"/><path d="M532.65,329.33H174.2a8,8,0,0,1-8-8v-189a8,8,0,0,1,8-8H532.65a8,8,0,0,1,8,8V321.41A8,8,0,0,1,532.65,329.33Z" fill="#e8eaf7"/><path d="M421.53,422.08H285.39l16.86-52.69H404.61Z" fill="#c5c6e3"/><path d="M453,408.79H254a5.19,5.19,0,0,0-5.2,5.19v3a5.2,5.2,0,0,0,5.2,5.2H453a5.19,5.19,0,0,0,5.19-5.2v-3A5.22,5.22,0,0,0,453,408.79Z" fill="#c5c6e3"/><path d="M351.61,360A10.64,10.64,0,1,0,341,349.39,10.63,10.63,0,0,0,351.61,360Z" fill="#e8eaf7"/><path d="M129.85,520.21h158.5V485.28H129.85a17,17,0,0,0-17,17v1A17,17,0,0,0,129.85,520.21Z" fill="#f8e7d8"/><path d="M17.52,482.63h278a1.27,1.27,0,1,1,0,2.53H130.64a17.53,17.53,0,0,0,0,35.05h164.9a1.27,1.27,0,0,1,0,2.54h-278A17.54,17.54,0,0,1,0,505.23v-5.14A17.52,17.52,0,0,1,17.52,482.63Z" fill="#110580"/><path d="M161.45,512.48h126.9v-1.64H161.45a.87.87,0,0,0-.84.85A.81.81,0,0,0,161.45,512.48Z" fill="#debca7"/><path d="M147.67,495.32H288.35v-1.63H147.67a.82.82,0,1,0,0,1.63Z" fill="#debca7"/><path d="M132.21,503.59H288.35V502H132.21a.87.87,0,0,0-.85.85A.82.82,0,0,0,132.21,503.59Z" fill="#debca7"/><path d="M46.89,341.47l1.09-.24a5.33,5.33,0,0,1,6,3.26L61.39,365c.12.24.12.54.25.85a17.78,17.78,0,0,1-8.71,3.92,19.27,19.27,0,0,1-8.58-.54c0-.24-.12-.49-.12-.79l-1.69-21.69A5.48,5.48,0,0,1,46.89,341.47Z" fill="#d7d7e6"/><path d="M46.53,310.35a1.87,1.87,0,0,0-3.21,0c-1.08,2.24-2.59,5.14-3.74,7.07-1.94,3.39-2.84,11.48-1.94,15.11,1.15,4.53,4.42,9.3,5.44,10.69a1.67,1.67,0,0,0,.85.61,9.41,9.41,0,0,0,5.19.12c3.39-.79,3.75-3,3.75-3s1.94-7.56,1.63-12.09-2.78-10.39-3.86-11.42A67,67,0,0,1,46.53,310.35Z" fill="#c7645d"/><path d="M74.08,447.4,61.76,367.27a11.57,11.57,0,0,0-.31-1.26,18,18,0,0,1-8.58,3.8,18.68,18.68,0,0,1-8.46-.54,12.58,12.58,0,0,0,.25,1.45l19.09,78.73a5.28,5.28,0,0,0,6.1,3.81A5.2,5.2,0,0,0,74.08,447.4Z" fill="#2b31ba"/><path d="M70.42,455.34l25,1.82,11.09-152-25-1.83Z" fill="#dadaed"/><path d="M96.4,325l-.13,1.81,8.56.63.13-1.81Z" fill="#989bd7"/><path d="M95.2,341.93l-.13,1.81,8.55.62.14-1.8Z" fill="#989bd7"/><path d="M93.93,359l-.13,1.81,8.55.63.14-1.81Z" fill="#989bd7"/><path d="M92.72,375.94l-.13,1.81,8.56.62.13-1.8Z" fill="#989bd7"/><path d="M91.45,393l-.13,1.81,8.56.63.13-1.81Z" fill="#989bd7"/><path d="M90.24,410l-.13,1.81,8.56.62.13-1.81Z" fill="#989bd7"/><path d="M89,427l-.14,1.81,8.56.63.13-1.81Z" fill="#989bd7"/><path d="M85.94,475.7l16,2.79,21-120-16-2.79Z" fill="#ffadb2"/><path d="M107,355.61l16,2.78-2.48-22.9-3.33-.6Z" fill="#ebdbcd"/><path d="M119.51,346.07l-2.35-1.58-1.87.25-2.36-1.21,4.23-8.64,3.32.6,1,9.25Z" fill="#ff7a82"/><path d="M118.19,398.58H48.28a3,3,0,0,0-3,3.38l9.3,74.63a6.92,6.92,0,0,0,6.83,6h43.81a6.87,6.87,0,0,0,6.83-6.11L121.15,402A3,3,0,0,0,118.19,398.58Z" fill="#ff7a82"/><path d="M404.31,74.27,15.16,522.75H418.87L513,140.38Z" fill="#fcb58a" opacity="0.18" style="isolation:isolate"/><path d="M515.55,52.16l-5.32,9.07L695,169.39l5.31-9.07Z" fill="#676bc4"/><path d="M701.29,180.37l-9.48-4.55L592.53,382.39l9.47,4.55Z" fill="#676bc4"/><path d="M494.88,45.81a70.37,70.37,0,0,0-93.11,20.12,5.44,5.44,0,0,0,1.69,7.79l111.67,65.51a5.37,5.37,0,0,0,7.61-2.36A70.4,70.4,0,0,0,494.88,45.81Z" fill="#2b31ba"/><path d="M520.08,3.51a25.67,25.67,0,0,0-33.89,7.31,2,2,0,0,0,.6,2.84L527.4,37.47a2,2,0,0,0,2.78-.85A25.43,25.43,0,0,0,520.08,3.51Z" fill="#2b31ba"/><path d="M701.3,184.73A17.77,17.77,0,1,0,683.54,167,17.77,17.77,0,0,0,701.3,184.73Z" fill="#2b31ba"/><path d="M530.34,36.52l-44.07-25.8L465.06,47l44.06,25.8Z" fill="#2b31ba"/><path d="M671,419.9H531.93a5.8,5.8,0,0,1-5.8-5.8A22.82,22.82,0,0,1,549,391.26H654a22.82,22.82,0,0,1,22.84,22.84A5.8,5.8,0,0,1,671,419.9Z" fill="#2b31ba"/><path d="M634.23,393.32h-65.5v-5.86a14,14,0,0,1,14-14h37.46a14,14,0,0,1,14,14Z" fill="#2b31ba"/><path d="M598.1,533.26H577.49a26.37,26.37,0,0,1-26.34-24.95l-3.33-60.79a4,4,0,0,1,4-4.23h71.91a4,4,0,0,1,4,4.23l-3.33,60.79A26.36,26.36,0,0,1,598.1,533.26Z" fill="#ff5856"/><path d="M627,457.07l-.54,9.3a18.62,18.62,0,0,1-2.18,36.8l-.54,9.31A27.88,27.88,0,0,0,627,457.07Z" fill="#ff5856"/><path d="M593.09,429.15s-17.65-16.31-17-28.28c.84-18.31,17.34-25.26,11-42.48-3-8.22-15.35-34.68-15.35-34.68s20.42,20.12,27.61,32.57c6.53,11.24,5.74,29.12-1.39,37.7C582.51,412.59,593.09,429.15,593.09,429.15Z" fill="#dcdced"/></g></g></g></svg>