<svg xmlns="http://www.w3.org/2000/svg" xmlns:xlink="http://www.w3.org/1999/xlink" viewBox="0 0 161 200.26"><defs><clipPath id="clip-path"><path d="M41.54,141.15c31.83-9.93,23.15-42.79,23.15-42.79l14.67-1.79V96.3l1.14.13,1.14-.13v.27l14.67,1.79s-8.68,32.86,23.15,42.79S158.52,161,161,200.26H0C2.48,161,9.71,151.07,41.54,141.15Z" fill="none"/></clipPath></defs><title>Person</title><g id="Layer_2" data-name="Layer 2"><g id="OBJECTS"><path d="M74.12,104.2S44.23,103,40.79,72.49,47,13.52,75.21,10,113-8.8,111.69,7.17c0,0,5.63-6,7-3.11s.42,8.38-6.45,11.79c0,0,13.87,4,13.14,32.6C124.57,82,123.36,110.83,74.12,104.2Z" fill="#010c39"/><path d="M57.26,66.35c4.11,6.49,4.69,17-.64,20.33S42.09,85,38,78.53,34.87,64,40.19,60.68,53.16,59.85,57.26,66.35Z" fill="#cc885a"/><path d="M109.15,67.94c-4.56,6.18-5.88,16.58-.81,20.32s14.61-.62,19.17-6.81,4.14-14.23-.93-18S113.7,61.75,109.15,67.94Z" fill="#cc885a"/><g clip-path="url(#clip-path)"><path d="M41.54,141.15c31.83-9.93,23.15-42.79,23.15-42.79l14.67-1.79V96.3l1.14.13,1.14-.13v.27l14.67,1.79s-8.68,32.86,23.15,42.79S158.52,161,161,200.26H0C2.48,161,9.71,151.07,41.54,141.15Z" fill="#cc885a"/><path d="M65.73,106.15a41,41,0,0,0-1-7.79l14.67-1.79V96.3l1.14.13,1.14-.13v.27l14.67,1.79a44,44,0,0,0-1,12.42C92.09,117.36,80.5,126.47,65.73,106.15Z" fill="#ad683a"/><path d="M66.31,105.73c-.1,0-.26.16-.14.24l.34-.14Z" fill="#b77b53"/><path d="M66.3,106.82a.87.87,0,0,0,.79-.31c-.37.09-.27,0-.7.1-.11-.08,0-.26.08-.32-.11,0-.06-.2-.29-.13-.12.3,0,.48.32.52C66.47,106.77,66.36,106.79,66.3,106.82Z" fill="#b77b53"/><path d="M75,116.25l0-.08A.11.11,0,0,0,75,116.25Z" fill="#b77b53"/><path d="M82.56,119.28a.1.1,0,0,0-.1.06C82.52,119.33,82.57,119.31,82.56,119.28Z" fill="#b77b53"/><path d="M84,119.71l-.09,0S84,119.74,84,119.71Z" fill="#b77b53"/><path d="M75,116.25l.12.22C75.2,116.38,75.07,116.33,75,116.25Z" fill="#b77b53"/><path d="M68.06,107.67a.24.24,0,0,0-.15,0,.31.31,0,0,1,.1,0Z" fill="#b77b53"/><path d="M72,114.33l0,0-.14.07Z" fill="#b77b53"/><path d="M69.94,112.49c0,.05.26-.15.38-.23-.12.07-.19.08-.25,0A1.06,1.06,0,0,0,69.94,112.49Z" fill="#b77b53"/><path d="M67.47,108.92l-.08,0Z" fill="#b77b53"/><path d="M73.47,115.62a.45.45,0,0,0,0,.1A.24.24,0,0,0,73.47,115.62Z" fill="#b77b53"/><path d="M66.92,102.9h0S66.92,102.92,66.92,102.9Z" fill="#b77b53"/><polygon points="65.65 106.16 65.63 106.12 65.45 106.11 65.65 106.16" fill="#b77b53"/><path d="M86.78,119.71h0C86.71,119.76,86.75,119.75,86.78,119.71Z" fill="#b77b53"/><path d="M97.22,100.2c-.35.36-.24-.65-.65-.11C96.71,100,97,100.69,97.22,100.2Z" fill="#b77b53"/><path d="M68.07,107.75l.07.08S68.1,107.76,68.07,107.75Z" fill="#b77b53"/><path d="M96.57,100.09h0l0,0Z" fill="#b77b53"/><path d="M92.28,116.67a.42.42,0,0,0-.14-.06A.38.38,0,0,0,92.28,116.67Z" fill="#b77b53"/><path d="M88.12,118.64h.12A.23.23,0,0,0,88.12,118.64Z" fill="#b77b53"/><path d="M93.68,114.71c.06,0,.1,0,.13-.1h0A.08.08,0,0,1,93.68,114.71Z" fill="#b77b53"/><path d="M95.16,112.79h-.08l0,.07Z" fill="#b77b53"/><path d="M67.05,99.38a.94.94,0,0,1-.14-.26C67,99.33,66.64,99.45,67.05,99.38Z" fill="#b77b53"/><path d="M67.92,107.78q.1-.06.15,0l-.06,0A.36.36,0,0,0,67.92,107.78Z" fill="#b77b53"/><path d="M91.93,113l.25-.22A2.46,2.46,0,0,0,91.93,113Z" fill="#b77b53"/><path d="M82.54,97.94l-.08,0A.06.06,0,0,0,82.54,97.94Z" fill="#b77b53"/><path d="M92.75,112a.14.14,0,1,0,.24-.11Z" fill="#b77b53"/><path d="M66.91,99.12Z" fill="#b77b53"/><path d="M66.79,99.87,66,99.35h0c0-.13.4.25.63.42-.1-.1-.35-.44-.26-.44a1,1,0,0,1,.12.16c-.07-.15,0-.16.07-.18s.07,0,.26-.28a.27.27,0,0,1,.06.1,1.83,1.83,0,0,1-.12-.55c.15,0,.26-.29.35,0-.1,0-.09.11-.13.2l.15-.14c.19.36-.21.16-.17.44.3-.16.63-.52.89-.44.09.36-.56.19-.19.48L67.3,99c.35.55-.24,0,.1.58.51,0,.53-.25,1-.21.08-.21-.08-.29,0-.51.65-.46.66.86,1.12.3.1-.26.09-.73.49-.53L70,99c.48,0,.2-.63.73-.41-.07.17-.36.18-.28.22.36.29.2-.26.45-.29l.1.36c.5-.12,1-.45,1.58-.59,0,.11-.1.24,0,.34a4.26,4.26,0,0,1,2.24,0l.22-.35a.13.13,0,0,1,.07.2c.28.09,0-.2.11-.34s.22.16.13.27c.44-.33,1.27-.75,1.81-.47l-.08.11c.4.08.35-.71.75-.46l-.06.07c.57,0,1.15-.15,1.68-.15h.74l.12-1a2.16,2.16,0,0,1,0-.27l-1.15,1a1.3,1.3,0,0,1,.43.27c.06-.16.17-.17.3-.14l.22,0a1.2,1.2,0,0,0,.31,0,.32.32,0,0,0,.29-.33c.51.25.41.38,1,.5l-1.6-1.41a.22.22,0,0,0,0,.08c0,.07.06.13.15.19l1.15,1.31c.1-.12.2-.27.33-.29l0,.34.34-.32.12.42.22-.06a.26.26,0,0,1-.14-.27.71.71,0,0,1,.76.51l.8-.19c0,.13-.17.16-.28.23.45-.29,0,.37.45.1,0-.08,0-.2.07-.26a1,1,0,0,0,.92.23l-.09.22c.56.13,1.22,0,1.86.12-.22-.13-.11-.53.08-.54l0,.36c.15-.2-.18-.16.1-.39.24.07.11.42,0,.52l.31-.09c0,.11-.07.15-.11.29.15-.21.46.41.68,0V99c.64.08.95,0,1.47,0,0-.3.25-.21.43-.44A4,4,0,0,0,91,99c.34-.11.13-.25.29-.41,0,.28.46.31.2.48A4.73,4.73,0,0,0,92.94,99c-.06-.12-.14-.18-.08-.27s.27.15.24.28l0,0a1.37,1.37,0,0,1,1.21.32c.12.2,0,.35.31.1l0,0a2.2,2.2,0,0,1,.53-.24s0,0,0,.06l0,0a1.36,1.36,0,0,0-.38.25l0,0c.22-.08.16.06.11.14s-.12.14,0,.24a1.18,1.18,0,0,0-.25,0,.65.65,0,0,0-.15.23,1.75,1.75,0,0,0-.1.62A1.68,1.68,0,0,1,94,102h.19c.17.19-.13.18-.19.3.15,0,.19-.16.29,0,.06,1.38-.58,2.78-.8,4.2-.07.52,1,.33.51,1l-.35-.19c.41,1.05,0,2.14.39,3.15-.08-.06-.19-.06-.2-.16s-.09.18-.1.18,0,0,0,0a1.62,1.62,0,0,0,.26.12s-.19-.05-.3-.07.14.45-.13.38c-.05,0-.05-.09-.05-.13.05.17-.31.47,0,.53-.3.21-.24.62-.54.74.17.34-.47.37-.13.71-.38-.33-.68.21-.66.52-.06-.15-.24,0-.34-.16-.15.18-.23.41,0,.55-.73-.1-.32,1-1,.6a6.25,6.25,0,0,1-1.29,1.7c-.25-.43.57-.46.25-.86-.37.51-.47,1.07-1.07,1.27-.17,0,0-.23,0-.33-.44.48-1.07.48-1.48.93a.27.27,0,0,1,.06-.17c-.09.06-.26,0-.17.23l.08-.09c.29.24-.19.77-.17.94,0-.67-.58,0-.53-.85a.33.33,0,0,0-.05.33c-.12,0-.17-.09-.11-.28-.35.21-.16.41-.51.48,0-.1,0-.16,0-.29-.12.25-.26.5-.58.45,0-.07,0-.15,0-.16-.49.12-.82.68-1.42.51.15-.48-.2-.15-.24-.57l-.3.12.12.2c-.26,0-.52.29-.75.13a1.59,1.59,0,0,0,.21-.15c-.16,0-.33,0-.51,0l.28.18c-.3.18,0,.52-.38.37.09,0-.28,0-.39-.29h0c-.16.12-.32.22-.51.08,0-.14.12-.44.1-.53-.19.31-.64,0-.89.28a.56.56,0,0,0,.12-.32l-.18.24c-.1-.12-.11-.17,0-.33-.36-.15,0,.54-.41.2,0,0,0-.06.12-.08-.41-.22-.9-.1-1.26-.38,0-.42.38,0,.37-.34a5.22,5.22,0,0,1-1.86-.36l.08.09c-.34.48-.26-.47-.65-.37.09,0,.24-.24.19-.19-.31-.27-.8-.26-1.42-.46l.15-.08c-.13-.25-.5-.4-.67-.61-.15.07-.26,0-.31.2-.08-.59-.45-.72-.84-.84s-.75-.25-.8-.75c.07.05.24,0,.19,0l-.56-.29c-.13.23,0,.17-.07.4a.48.48,0,0,1-.48-.06c.32.06.26-.31.27-.5,0,.08-.12.11-.17.18.06-.56-.38.34-.5-.19l.1-.08c-.16-.06-.4,0-.5-.18.14-.27.22,0,.39-.15-.19-.16-.74.06-.71-.3.14,0,.25.12.38.13.06-.42,0-.37-.11-.54v0l-.18-.41v.14c-.76.32-.54-.35-1.2-.31.63,0,.24-.14.51-.34,0-.14,0-.33,0-.36-.34,0-.08-.38-.55-.32.07-.09-.13-.17.1-.32-.24-.13-.1.17-.21.25-.54-.06-.3-1-1-1.09-.47-.25-.81-.09-1.24-.33,0-.23.38-.15.38-.15a.62.62,0,0,0-.42-.53c.1,0,.13-.11.18-.24-.15-.13-.39.15-.42-.14a1.3,1.3,0,0,1,.45-.12c-.22-.11-.51-.17-.72-.29.11-.17.31-.07.45-.08-.22-.15-.54-.43-.82-.31l0,.19c-.07-.06.17-.19.25-.17.32,0,.12.32,0,.4L67,107.3c-.39.52.48.47.67.74l-.44.18.51,0c0,.13-.21.33-.37.24,0,.33.26.07.2.38,0,0,0,0-.07,0l.25.09c-.1,0-.22.24-.26.08.07.5.69.31.53.66h0c.49.35.29-.17.87-.09l-.42.76.29-.18s.09.16,0,.23c.32,0,.08-.12.33-.17,0,.42.64.5.29.91.26-.09,0-.34.29-.23-.36.46.32.2.31.57-.27.14-.33-.15-.33.23.47-.23.28.45.51.54.29-.27.46.24.82.41-.11.08.38.64.55,1l-.06.05c.32-.26.54,0,.79.16a.44.44,0,0,1-.44.2,1.54,1.54,0,0,0,.19.17.42.42,0,0,1,.39,0l-.24.18c.27.21.74.16,1,.59.19-.2.23-.82.69-.69-.08.13-.23.35-.36.32,0,0,.18,0,.2.09l-.29.09c.08.21.21-.1.31,0-.13.17,0,.19-.12.31s-.06-.15-.15-.12a.72.72,0,0,1,.17.54c.06-.11.17-.23.29-.18.29.18-.06.28,0,.48.15-.07.24.18.43-.08.08.06,0,.2,0,.29.21,0,.7.42.72,0l0,0h0c.65,0,.89.8,1.47.94l0,.09c.35,0,.69.31,1,.2a.28.28,0,0,1,0,.37c.27,0,.34-.07.61.25-.31.07,0,.19-.3,0,.28.22.28.43.73.28-.22.21.12.41.31.39l-.16-.27a1.33,1.33,0,0,1,.47.19l-.2.31c.26.34.64.25,1,.18s.62-.09.81.32c.24-.21-.34-.25-.11-.51.3.12.54.69.65.71.42.29.5-.44.94-.26a.44.44,0,0,1,.29-.57c.31.08.36.59.14.67s-.11,0-.11-.09-.25.08-.14.23l.06-.12c.15.15.61.17.49.38.27-.12.12-.22-.06-.29.42.2.67,0,1.11.15-.07-.06-.14-.22-.07-.22.65.13.27-.26.69-.34.26.18-.05.47.37.28.28.1.1.34,0,.45.38-.29.78,0,1,.06l-.21.14a.71.71,0,0,1,.34-.11l-.17-.24c.14,0,.24,0,.26.11.09-.2-.18-.4,0-.69.19.09.45-.25.59.07-.54,0,.14.32-.28.48a.42.42,0,0,1,.31-.07s0,.08,0,.1c.59.18.14-.42.64-.57,0,.2.22.31.3.24-.21.07-.2-.27-.07-.47.37,0,.3-.23.47-.27h-.21c0-.2.15-.24.34-.38.07.13-.15.17,0,.2.09-.41.67.12.89-.26.21,0,.17.33.35.34.24-.41.52,0,.79-.36-.24-.17-.22-.1-.09-.47-.17.16-.33.35-.51.5.07-.18.14-.36.2-.55-.18.11-.3.36-.43.37.09-.28.09-.21-.09-.36.44.23.36-.47.76-.39l.33.55c.59,0,.57-.75,1.16-1l-.23,0c-.08-.26.29-.27.39-.47.12.18.27.16.42.21-.11-.12.37-.3.13-.66l.4,0c.46-.27,0-.85.38-1.13.07.27.34.22.22.57.13-.12.25-.2.15-.3.16,0,.09-.53.34-.51,0-.11-.18-.27-.05-.4a.14.14,0,0,1,.08.07c-.08-.07.07-.31-.21-.34.84,0,.8-1.1,1.5-1.13.14-.34.3-.74.45-1,0,0,.09,0,0,.09.39-.29-.42-.52.05-.93.49-.19,0,.35.25.21.87.18,0-1,.39-1.13l0,.07c.23-.25-.3-.58-.25-1a.16.16,0,0,0,.1,0,2,2,0,0,1-.59-1.16c.28.12.14.17.43.1,0-.17-.46,0-.53-.29.15-.12.29-.36.59-.39v.32c.4-.16,0-.41.06-.58l.17,0c0-.49-.46-.51-.41-1l-.13,0c-.42-.32.24-.24-.05-.54l.43-.07a3.88,3.88,0,0,1-.42-1,3.41,3.41,0,0,1,.61.9c0-.19,0-.65-.19-.76,0,.08.13.18.06.25a1,1,0,0,1-.42-1c.82.15.3-1,1-1.16-.23-.7.3-1.28.38-2-.69.16,0-.23-.65-.3,0-.17,0-.31.07-.32.18-.23.37-.51.58-.83s.09.25.26.21c.21-.72.36-.35.68-.94-.29.19-.32-.12-.1-.59l-.5.73c-.15-.59.49-1,.69-1.58a1.47,1.47,0,0,0-.57,0l.57-.14c-.66,0-2.12-.26-2.82.19,0-.08-.11-.27.14-.29a4.39,4.39,0,0,0-1-.07,5.67,5.67,0,0,0-.57.1,1.26,1.26,0,0,1-1-.1l.07-.15c-.13,0-.26.28-.4.09s.07-.15,0-.17-.38.24-.54.13l.17-.17c-.65-.29-1.09.32-1.67.36.06-.47-.45-.69-.71-.8l0-.07c-.78-.16-1.39.23-2.14.33-.39-.57-1.51-.4-2.2-.78.1.1-.06.37-.2.4-.16-.12-.51.27-.43-.16H85c-.08-.44-.44-.37-.71-.42l-.12.57c-.61-.92-1.91.08-2.21-.71l-.19.08,1.11,1.25a1.28,1.28,0,0,0-.11-.27L82,94.84l-.5.31a.43.43,0,0,0-.1.09l0-.31a4.5,4.5,0,0,0-.51,0,1.21,1.21,0,0,0-.36,0s0,0-.1,0a.33.33,0,0,0,.09-.22c-.21,0-.5.84-.78.83l0-.47-.16,0-1.21-.27-.15,1.48a2.56,2.56,0,0,1-.05.27l1.11-1.25a1.51,1.51,0,0,0-1.3.23c0-.06,0-.2.09-.23-.27,0-1.09-.18-.92.44-.06-.41-.6,0-.9.25l0-.31c-.22.42-.22.53-.58.68-.09,0-.1-.23,0-.17-.31-.12-.19.31-.57.2l.11-.21c-.3,0-.26.11-.4.36a.49.49,0,0,1-.66-.28c0,.17-.16.42-.35.36a.22.22,0,0,1,0-.21c-.53-.14-.7.44-1.09.19,0-.1,0-.15-.08-.17a2.85,2.85,0,0,1,.7,0c0-.28-.36-.29-.15-.71-.24.24-.62.76-1,.66l0-.09,0,0a.18.18,0,0,0-.19.07.74.74,0,0,0-.27-.06c-.07-.22-.39-.08-.55-.07.05.31-.17.28.06.51,0,0,0,0,.13-.06l.07,0v0l.4-.07c-.11.17-.23.32-.43.17-.06.21-.12.42-.16.52-.28-.4-.73-.57-.82-.83-.47.23-1.15.26-1.39.87-.13.09-.18-.15-.24-.23s.17-.07.2-.16c-.26.18-.82.16-.84.57-.37-.14.16-.4-.32-.27l0-.13c-1.07-.52-1.23,1.19-3.06.58a.57.57,0,0,1,.28.1,4.36,4.36,0,0,0-1.28.08c.17.65.41,1.34.56,1.94a2.76,2.76,0,0,1,0,1.53c-.07.35.19.34.41.52l-.31.12.42.29c.34.47-.7,1-.11,1.52l.21-.11c0,.23.2.71-.06.69,0,0,.24.06.13.16l-.17,0,.33.53c-.09.44-.68,0-.68.6.08.23.54.64.65.55a.29.29,0,0,1,.27-.27l.1.22c.51,0,1,.16,1.36-.4l-.33-.36.24-.14,0,.32c.22-.2,0-.3-.14-.42a.47.47,0,0,0,.26-.17l-.51-.34c.19-.06.4.14.49-.12-.23-.16-.43.2-.6-.08.22-.2.41-.16.19-.35a.22.22,0,0,1,.28.07c-.17-.17-.11-.49-.39-.56.27-.22-.14-.63.35-.67a1,1,0,0,1-.46-.46c.61.25,0-.65.58-.64-.55-.17-.35-.82-.7-1.19,0,0,.13,0,.11.09,0-.24.15-.33.22-.5a.65.65,0,0,1-.49-.16l-.37-.15c.4-.12.52.07.92,0-.35,0-.38-.11-.68-.14.26,0,.12,0,.5,0-.59-.2-.11-.07-.49-.29.27,0,.57.29.36.09C66.56,99.7,66.79,99.88,66.79,99.87Zm5.77-1.64h0l-.17,0Zm.67-.09-.29,0c0-.11,0-.22,0-.22S73.12,98.06,73.23,98.14ZM71.54,96.2c.11,0,.15,0,.17.06l-.18.06v0A.7.7,0,0,1,71.54,96.2Z" fill="#b77b53"/><path d="M71.4,96.63s0,0,0,0a.19.19,0,0,0,.07.06l0-.1Z" fill="#b77b53"/><path d="M74.94,116.16h0s0,0,0,0S74.94,116.15,74.94,116.16Z" fill="#b77b53"/><polygon points="81.77 98 81.78 97.92 81.71 97.99 81.77 98" fill="#b77b53"/><path d="M72.62,113a.2.2,0,0,0,0-.09S72.62,113,72.62,113Z" fill="#b77b53"/><path d="M71.5,111.9l-.08-.24A.66.66,0,0,0,71.5,111.9Z" fill="#b77b53"/><path d="M70.75,110.92l-.11.08h0Z" fill="#b77b53"/><path d="M87.3,116.75l0,0C87.41,116.63,87.35,116.67,87.3,116.75Z" fill="#b77b53"/><path d="M82,118a1.13,1.13,0,0,1,.2-.13C82.08,117.88,82,117.87,82,118Z" fill="#b77b53"/><polygon points="91.9 113.06 91.91 113.06 91.93 113.03 91.9 113.06" fill="#b77b53"/><path d="M82.44,118a.26.26,0,0,0-.26,0A.34.34,0,0,0,82.44,118Z" fill="#b77b53"/><path d="M67.41,106.79l0-.05,0,0Z" fill="#b77b53"/><path d="M67.34,106.76l-.07,0S67.31,106.77,67.34,106.76Z" fill="#b77b53"/><path d="M67.13,106.67l.14.06S67.22,106.64,67.13,106.67Z" fill="#b77b53"/><path d="M68.31,108.15l.09-.05Z" fill="#b77b53"/><path d="M68.64,108.52c0-.11,0-.38-.16-.47l-.08,0C68.58,108.05,68.43,108.55,68.64,108.52Z" fill="#b77b53"/><path d="M69,111l-.21-.38c0,.14-.09.32-.25.19C68.61,111.45,68.64,110.55,69,111Z" fill="#b77b53"/><path d="M69.76,112.08c-.21-.12-.13.12-.18.16C69.76,112.27,69.8,112.28,69.76,112.08Z" fill="#b77b53"/><path d="M77.46,117.86l-.14.24C77.5,118.14,77.37,118,77.46,117.86Z" fill="#b77b53"/><polygon points="79.66 117.19 79.57 116.97 79.41 117.19 79.66 117.19" fill="#b77b53"/><polygon points="80.14 119.41 80.05 119.43 80.38 119.41 80.14 119.41" fill="#b77b53"/><path d="M95.14,113.31l-.31-.15C94.8,113.29,95.1,113.54,95.14,113.31Z" fill="#b77b53"/><path d="M96.08,106.16c.17-.07.29-.25.13-.38C96.18,105.93,96,106.08,96.08,106.16Z" fill="#b77b53"/><polygon points="83.91 95.48 84.06 95.38 83.79 95.45 83.91 95.48" fill="#b77b53"/></g><path d="M116.62,37.65c.22.66,7.28,45.42-9.15,62S62.62,106.42,55.7,89.42c-6-14.67-7.13-42.31,4.5-59.21S105.15,4,116.62,37.65Z" fill="#cc885a"/><path d="M95.27,49.83,93.81,65.91c-.22,2.44.06,5.83-.73,8.17-.5,1.46.34.32-.56.9s-2.92.57-4.09.8c-.52.1-.3.89.22.79l4.84-.95a.41.41,0,0,0,.3-.39l2.3-25.4c0-.52-.77-.52-.82,0Z" fill="#ad683a"/><path d="M77,64c.07,1.54-.75,2.82-1.83,2.87s-2-1.16-2.07-2.7.75-2.83,1.83-2.88S77,62.41,77,64Z" fill="#010c39"/><path d="M104.3,64.86c.06,1.54-.75,2.82-1.83,2.87s-2-1.16-2.07-2.7.75-2.83,1.83-2.87S104.23,63.32,104.3,64.86Z" fill="#010c39"/><path d="M44.4,69.49c3.24.22,5.86,3.14,4.75,6.46-.67,2-3,1.84-4.08.25-.68-1-.49-2.17.78-2.5a3,3,0,0,1,2.95,1c.34.4.92-.18.58-.58-1.17-1.35-3.77-1.94-5.08-.41s.09,3.51,1.51,4.22a2.83,2.83,0,0,0,4-1.31,5.62,5.62,0,0,0-1.3-6.27,6.93,6.93,0,0,0-4.07-1.66c-.53,0-.53.79,0,.82Z" fill="#ad683a"/><path d="M124.12,70.82c-3.68.25-6.48,3.31-5.66,7.08a2.89,2.89,0,0,0,3.66,2.39c1.53-.43,3.12-2.3,2.4-4-.93-2.14-4.15-1.51-5.38-.08-.35.4.23,1,.58.58a2.93,2.93,0,0,1,2.94-1c1.26.33,1.47,1.48.79,2.5-1.06,1.59-3.4,1.73-4.08-.25-1.14-3.32,1.52-6.24,4.75-6.46.52,0,.52-.85,0-.82Z" fill="#ad683a"/><ellipse cx="106.25" cy="80.27" rx="6.05" ry="4.88" fill="#f4826c"/><path d="M72.57,79.46c0,2.7-2.71,4.89-6,4.89s-6-2.19-6-4.89,2.7-4.88,6-4.88S72.57,76.77,72.57,79.46Z" fill="#f4826c"/><path d="M86.21,95.61c0,.38-.66.69-1.47.69s-1.48-.31-1.48-.69.66-.68,1.48-.68S86.21,95.23,86.21,95.61Z" fill="#eaa16e"/><path d="M69.28,51c.26,1.38,2.89.69,6.17.07s6-1,5.7-2.34-3.14-2-6.41-1.38S69,49.57,69.28,51Z" fill="#010c39"/><path d="M99.8,50.05c-.27,1.39,2.42,1.73,5.7,2.37s5.89,1.34,6.17,0-2.17-3-5.45-3.67S100.07,48.67,99.8,50.05Z" fill="#010c39"/><path d="M75.31,82.23c4.35,8,18.2,9.11,21.83-.1.2-.49-.59-.71-.79-.22C93,90.46,80,89.13,76,81.81c-.25-.46-1,0-.71.42Z" fill="#ad683a"/><path d="M119.46,141.15c-7.25-2.26-12.39-5.72-16-9.7-18.7,13-35.52,10.57-43.28-3.29-3.62,5.35-9.43,10.12-18.62,13C9.71,151.07,2.48,161,0,200.26H161C158.52,161,151.29,151.07,119.46,141.15Z" fill="#6a75cf"/><path d="M103.07,191.27c-34.62,3.74-64.87-13.53-94-30.51-5.57,8.57-7.87,20.65-9.06,39.5H161c-1.09-17.34-3.12-28.95-7.77-37.37C150.69,164.86,119.07,188.27,103.07,191.27Z" fill="#4a5aba"/><path d="M48,56.56s1.66,13.68,5.79,12.52,15.5-38.35,15.5-38.35,26.25,9.71,44.44-3.52c0,0-15.52-26-48-6.82C65.74,20.39,52.3,31.14,48,56.56Z" fill="#010c39"/><path d="M54.34,68.27c.39,8.64,7,15.9,15.9,15.9a15.91,15.91,0,1,0,0-31.81c-8.94,0-15.52,7.29-15.9,15.91-.05,1,1.59,1,1.64,0C56.33,60.5,62.21,54,70.24,54a14.27,14.27,0,1,1,0,28.53c-8,0-13.91-6.49-14.26-14.26C55.93,67.21,54.29,67.21,54.34,68.27Z" fill="#fff"/><path d="M94.9,68.27c.39,8.64,7,15.9,15.91,15.9a15.91,15.91,0,1,0,0-31.81c-8.94,0-15.52,7.29-15.91,15.91-.05,1,1.6,1,1.64,0C96.89,60.5,102.78,54,110.81,54a14.27,14.27,0,1,1,0,28.53c-8,0-13.92-6.49-14.27-14.26C96.5,67.21,94.85,67.21,94.9,68.27Z" fill="#fff"/><path d="M85.91,68.85c2.69-2.66,6.46-2.33,9.24,0,.8.67,2-.49,1.16-1.16-3.46-2.89-8.19-3.34-11.56,0-.75.74.41,1.9,1.16,1.16Z" fill="#fff"/><path d="M90.53,196.91l-1.75-54.24,4.91-1.42,15.12,13.51s2-2.93-2.27-8.59a23,23,0,0,0-10.11-7.56c-.28-.19-13.32,2.74-13.32,2.74l1.63,56.83Z" fill="#4a5aba"/><path d="M103.44,131.45s-25.63,19.9-43.28-3.29c0,0-10.37,11.85-11.15,23.78l18.39-12.6s11.76,6.78,26.45,0l15.3,12.6S110.41,137.14,103.44,131.45Z" fill="#aab4f2"/><rect x="78.77" y="139.74" width="7.44" height="60.41" fill="#aab4f2"/></g></g></svg>