<svg xmlns="http://www.w3.org/2000/svg" viewBox="0 0 1821 1743.83"><title>Phone</title><g id="Layer_2" data-name="Layer 2"><g id="Слой_1" data-name="Слой 1"><path d="M860.39,820.49S780.64,1000.86,748,984,851.35,789.37,851.35,789.37,752,615.92,689.89,581.51c0,0-15.16,219.24-42.64,194.82S625,523,625,523,492.15,390.2,405.71,463.59s-78,145.61-59.31,166.75S511,749.07,494.36,765.28s-135-20.91-177.91-75.28c0,0-41.93,189.76,42.15,236.5S500.69,941.19,552.12,971s78.09,67.53,44.62,63.89-110-69.33-172.57-62.92-108.67,5.12-45.73,70.54,200.91,146.44,266,108.17l8.14-4.79a36.39,36.39,0,0,1-8.14,4.79c8.1,17.18,2.51,68.72-3.26,107.24-1.37,6.29-2.87,15.26-4.5,27.73h0c-.95,5.48-1.77,9.94-2.35,13-18.61,82.39-109,184.58-109,184.58l12.76,15c112-88.63,114.71-222.86,114.71-222.86,10.93-100.41,56.73-163,56.73-163s195.17,18,203-134.33C912.52,978.09,905.13,876.16,860.39,820.49Z" fill="#dfebfd"/><path d="M1432.77,741.21s-95.23,190.51-192,322c-38.48,52.34-77.22,95.33-110.27,113.26-32.36,17.54-59.75,44.8-82.41,75-58.71,78.21-85.8,176.12-85.8,176.12L715,1053.38s8.44-365.81,38.14-427c43.29-89.17,64.2-269.34,80.83-305.21,12.34-26.61,47.57-164.06,51-174.16,1.46-4.35,13.19-11,28.41-11,12.22,0,33,11.81,38.19,36.07,26.45,122.65-5.39,203.55-5,207.14,9.33,94.26-18.72,164.23.95,182.76.74.68,2.09.36,4-.87,34.1-21.89,245.75-330.46,271.82-337.12C1250.77,217,1432.77,741.21,1432.77,741.21Z" fill="#efa26f"/><path d="M1036.74,1353.55s-3.37,166.3-13,390.28H399.78C542.4,1439.69,666.4,1183.71,666.4,1183.71S1021.67,1194.56,1036.74,1353.55Z" fill="#f99746"/><path d="M1649,96.46l-76.6,112.29L1497.27,319c-4.58,5.53-9.89,7.46-15.63,6.9-18-1.71-40.35-27.72-57.74-42.13l-1.77-1.45a54.27,54.27,0,0,1-7.2-76.18L1529.82,67.21h0L1563.89,26a54.26,54.26,0,0,1,76.18-7.21l1.77,1.45A54.29,54.29,0,0,1,1649,96.46Z" fill="#ffb27d"/><path d="M1572.44,208.75,1497.27,319c-4.58,5.53-9.89,7.46-15.63,6.9l48.18-258.64C1529.92,68.66,1538.11,184.71,1572.44,208.75Z" fill="#efa26f"/><path d="M1240.8,1063.23c-38.48,52.34-77.22,95.33-110.27,113.26-32.36,17.54-59.75,44.8-82.41,75-26.07-12.15-55.79-26.41-84.84-40.53-35.37-17.19-36.73-67.41-2.08-86,.34-.18.67-.36,1-.55,32.47-18.57,65.73-84.17,65.73-84.17Z" fill="#d38254"/><path d="M883.15,152.7l-20,80.92s17.52,7.17,28.77,1.6S912.32,157.06,883.15,152.7Z" fill="#ffc197"/><rect x="951.48" width="585.13" height="1101.47" rx="77.08" fill="#2b478b"/><path d="M1507.61,84.37v925.36c0,31.39-25.5,57.07-56.65,57.07H1037.13c-31.15,0-56.64-25.68-56.64-57.07V84.37c0-31.39,25.49-57.07,56.64-57.07H1451C1482.11,27.3,1507.61,53,1507.61,84.37Z" fill="#c0d8fb"/><path d="M1451,27.3,1042.25,1066.8h-5.12c-31.15,0-56.64-25.68-56.64-57.07V84.37c0-31.39,25.49-57.07,56.64-57.07Z" fill="#cbe1fd"/><rect x="1131.96" y="6.46" width="224.19" height="55.26" rx="25.62" fill="#2b478b"/><path d="M1610.91,520.53l-11.42,4.34-76.82,29.19a48.19,48.19,0,0,1-5.44,1.72,52.46,52.46,0,0,1-62-32l-1.13-3a52.48,52.48,0,0,1,30.32-67.5L1556,426.08l5.2-2,11.42-4.34a52.46,52.46,0,0,1,67.48,30.32l1.13,2.95A52.48,52.48,0,0,1,1610.91,520.53Z" fill="#ffb27d"/><path d="M1548.53,522.29c-12.82,4.86-36,13.48-48.44,15.26-3.51.51-10-1.4-16-8-3.63-4-7.09-9.6-9.66-17.42a55.11,55.11,0,0,1-2.63-11.12,46.93,46.93,0,0,1,.42-13.23,13.19,13.19,0,0,1,7.33-9.43s0,0,.06,0c13.2-6.31,31-14,46.58-18.27,10.79-3,21.7,1.78,25.11,11.22l1.61,4.41,8.25,22.58C1564.55,507.62,1559,518.34,1548.53,522.29Z" fill="#ffd3b6"/><path d="M1548.53,522.29c-12.82,4.86-36,13.48-48.44,15.26-3.51.51-10-1.4-16-8-.65-1.5-1.24-3.09-1.8-4.78a55.27,55.27,0,0,1-2.63-11.12,47.3,47.3,0,0,1,.42-13.23,13.24,13.24,0,0,1,7.33-9.44l.06,0c13.2-6.31,31-14,46.59-18.27a22.05,22.05,0,0,1,18.85,3l8.25,22.58C1564.55,507.62,1559,518.34,1548.53,522.29Z" fill="#ffc197"/><path d="M1576.05,628.52l-59.23,16.13a34,34,0,0,1-41.64-23.82l-1.83-6.7a34,34,0,0,1,23.82-41.64l59.24-16.13A34,34,0,0,1,1598,580.18l1.83,6.71A34,34,0,0,1,1576.05,628.52Z" fill="#ffb27d"/><path d="M1544,625.62c-10.88,2.9-30.55,8-40.86,8.59-3.75.21-11.26-3-16.16-12.82a39.76,39.76,0,0,1-3-8.35,39.09,39.09,0,0,1-1.32-8.71,33.81,33.81,0,0,1,1.32-10.14,10.49,10.49,0,0,1,6.7-6.77l0,0c11.29-4,26.45-8.75,39.57-11,9.06-1.59,17.65,2.77,19.77,10.24l1.53,5.33,4.56,16C1558.26,615.37,1552.91,623.26,1544,625.62Z" fill="#ffd3b6"/><path d="M1544,625.62c-10.88,2.9-30.55,8-40.86,8.59-3.75.21-11.26-3-16.16-12.82a37.4,37.4,0,0,1-1.19-8.17,33.81,33.81,0,0,1,1.32-10.14,10.52,10.52,0,0,1,6.69-6.77s0,0,.06,0c11.29-4,26.45-8.74,39.57-11,7.5-1.32,14.68,1.45,18.14,6.67l4.56,16C1558.26,615.37,1552.91,623.26,1544,625.62Z" fill="#ffc197"/><path d="M605.66,1309.88s121.92,116.78,204.12,161.87L872,1427.61v65.11s122.39,21.65,161,0V1315.15L689.24,1142.82Z" fill="#ed7d2b"/><path d="M715,1040.21s-77.43,115.84-154.38,239.69c0,0,162.17,111.56,250.1,144.29L926,1292.1l-16.47,159s102.07,37.2,149.42,27.49c0,0-3-144.24-3-238.75C1056,1239.84,775.44,1161.2,715,1040.21Z" fill="#f3f8ff"/><path d="M734,1334.17a19.2,19.2,0,1,1,19,19.37A19.21,19.21,0,0,1,734,1334.17Z" fill="#f99746"/><path d="M1609,407l-1.28.43-77.66,19.94c-34.15,8.78-69.46-9.7-78.47-41.05L1447,370.25c-8.67-30.1,10-61.58,41.68-71.79l25.64-6.58,52-13.36c34.14-8.77,69.46,9.71,78.47,41.06l4.62,16.06C1658,365.34,1640,396.36,1609,407Z" fill="#ffb27d"/><path d="M1573.45,385.32l-37.73,17-.24.06a40.56,40.56,0,0,1-4.56.94c-.63.1-1.28.17-1.91.24a4.28,4.28,0,0,1-.8,0,6,6,0,0,1-5.21-8.48,37.5,37.5,0,0,0,2.14-25.58l-.9-3.29a.32.32,0,0,0,0-.09l-2.92-10.72a40.24,40.24,0,0,0-13.68-20.85c-.77-.63-1.57-1.22-2.38-1.78-7.46-5.17-5.56-16.87,3.17-19.29l.24-.07,41.4-6.27c10.24-2.78,20.1,5.1,22.89,15.34l3.33,12.2,7.08,26C1586.12,371,1583.69,382.54,1573.45,385.32Z" fill="#ffd3b6"/><path d="M1573.45,385.32l-37.73,17-.24.06c-.88.17-3.65.63-7.27,1.19a6,6,0,0,1-5.21-8.48,37.5,37.5,0,0,0,2.14-25.58l-.9-3.29a.32.32,0,0,0,0-.09l-2.92-10.72a40.24,40.24,0,0,0-13.68-20.85,10.6,10.6,0,0,1,5.94-4.23l.24-.07L1555.2,324c8.62-2.34,17,2.88,21.06,10.69l7.08,26C1586.12,371,1583.69,382.54,1573.45,385.32Z" fill="#ffc197"/><path d="M951.48,811s-16.94-147.89-32.57-176.73-28.86-86.6-4.81-129.51,32.35-125.5,32.35-125.5c9.33,94.26-18.72,164.23.95,182.76.74.68,2.09.36,4-.87Z" fill="#d38254"/><path d="M490.69,1360.57s-28.88-79-76.85-112.88c0,0-22.32,160.71-52,154.71s37.78-177.29,37.78-177.29S281.86,1110.37,225,1097.18c0,0,37.56,176.87,10.3,163.76s-74.9-195.34-74.9-195.34S61,1010.37,0,1043.67v185.42c46.65,18.46,118.79,45.5,111.8,57.66s-63.8,14-111.8,1v129.14c10.91,13.91,24.34,24.28,40.86,28.13,77.08,18,115.72-20.51,163.15-8.53s77,35.76,49.74,40.45S151,1446.93,103,1466.14s-84.81,28.62-20.23,66.13,192,70.43,234.84,25.44h0l5.35-5.62,0,0a29.81,29.81,0,0,1-5.39,5.68c10.29,11.76,17.52,53.82,21.67,85.6.33,5.26,1.17,12.68,2.69,22.84.5,4.71.87,8.54,1.12,11.15,1.12,20.54-2.32,43.86-7.74,66.52h20.57c6.55-51-3.49-89.18-3.53-89.34h0c-14.05-81.9,8-141.76,8-141.76h0C360.79,1512.66,518.86,1482.7,490.69,1360.57Z" fill="#e1eefb"/><path d="M1812.44,1219.32c-27.11-100.13-196.08-68.84-196.08-68.84s-114.73,175.23-148.11,179.4,68.84-169,68.84-169c-64.67-6.25-229.46,73-229.46,73s10.43,204.43-23,200.26,0-181.48,0-181.48c-62.58,18.77-121,91.78-121,91.78-73,118.9,83.44,206.52,83.44,206.52s2.09,70.92-41.71,152.28h0s-9.88,15-19.93,40.55h17.06q2.09-6.87,4.63-13.24a.1.1,0,0,1,0-.08,1.42,1.42,0,0,1,.08-.18c1.16-2.64,2.84-6.39,4.94-11v0c5.21-10.2,8.73-17.74,11-23.18a.11.11,0,0,0,0-.05c15.62-32,38.12-73.77,53.13-82.52a33,33,0,0,1-3.65-7.83c1.16,2.5,2.38,5.1,3.65,7.83,29.2,62.58,175.22,73,256.58,56.32s45.89-39.63,2.08-76.88-135.59-27.42-162.7-42,12.51-29.21,66.75-25,81.35,58.41,169,66.76,154.36-156.45,154.36-156.45c-60.49,18.77-169-14.6-173.14-35.47s156.45-18.77,181.48-25S1839.56,1319.45,1812.44,1219.32Z" fill="#dfebfd"/></g></g></svg>