<svg xmlns="http://www.w3.org/2000/svg" viewBox="0 0 644.01 384.75"><title>Search</title><g id="Layer_2" data-name="Layer 2"><g id="illustrations"><g id="laptop-job-boards-by-oblik-studio"><path d="M244.36,147.43a1.5,1.5,0,0,1-.92-1.42,1.54,1.54,0,0,1,.45-1.09,1.5,1.5,0,0,1,1.08-.45h7.52v-7.55a1.54,1.54,0,1,1,3.07,0v10.65H245A1.6,1.6,0,0,1,244.36,147.43Z" fill="#110580"/><path d="M90.14,147.34a1.55,1.55,0,0,1-.67-.57,1.51,1.51,0,0,1-.25-.85,1.54,1.54,0,0,1,.45-1.09,1.51,1.51,0,0,1,1.08-.45H110a1.54,1.54,0,1,1,0,3.08H90.75A1.58,1.58,0,0,1,90.14,147.34Zm38.56,0a1.53,1.53,0,0,1-.76-.7,1.56,1.56,0,0,1-.14-1,1.49,1.49,0,0,1,.54-.88,1.44,1.44,0,0,1,1-.34h19.28a1.54,1.54,0,1,1,0,3.08H129.31a1.27,1.27,0,0,1-.61-.1Zm38.56,0a1.53,1.53,0,0,1-.76-.7,1.51,1.51,0,0,1-.14-1,1.49,1.49,0,0,1,.54-.88,1.44,1.44,0,0,1,1-.34h19.28a1.54,1.54,0,0,1,1.09.45,1.57,1.57,0,0,1,0,2.18,1.54,1.54,0,0,1-1.09.45H167.87a1.46,1.46,0,0,1-.55-.07Zm38.54,0a1.55,1.55,0,0,1-.67-.57,1.51,1.51,0,0,1-.25-.85,1.54,1.54,0,0,1,1.54-1.54h19.23a1.51,1.51,0,0,1,1.08.45,1.55,1.55,0,0,1,0,2.18,1.51,1.51,0,0,1-1.08.45H206.42a1.31,1.31,0,0,1-.62-.06Z" fill="#110580"/><path d="M60.9,147.45V136.79a1.57,1.57,0,0,1,.44-1.09A1.54,1.54,0,0,1,64,136.79v7.57h7.52a1.51,1.51,0,0,1,1.08.45,1.56,1.56,0,0,1,0,2.19,1.51,1.51,0,0,1-1.08.45Z" fill="#110580"/><path d="M61.84,120.2a1.57,1.57,0,0,1-.68-.57,1.59,1.59,0,0,1-.25-.85v-18a1.55,1.55,0,0,1,.45-1.09,1.53,1.53,0,0,1,2.17,0,1.55,1.55,0,0,1,.45,1.09v18a1.55,1.55,0,0,1-1.53,1.55A1.59,1.59,0,0,1,61.84,120.2Zm0-36a1.51,1.51,0,0,1-.68-.57,1.57,1.57,0,0,1-.25-.85v-18a1.54,1.54,0,1,1,3.07,0v18a1.56,1.56,0,0,1-.45,1.1,1.5,1.5,0,0,1-1.68.32Zm0-36a1.57,1.57,0,0,1-.68-.57,1.59,1.59,0,0,1-.25-.85v-18a1.52,1.52,0,0,1,.45-1.09,1.51,1.51,0,0,1,2.17,0A1.52,1.52,0,0,1,64,28.7v18a1.52,1.52,0,0,1-.45,1.09,1.5,1.5,0,0,1-1.08.46,1.4,1.4,0,0,1-.57-.13Z" fill="#110580"/><path d="M61.89,12.11A1.54,1.54,0,0,1,61,10.69V0H71.56A1.54,1.54,0,0,1,73.1,1.57a1.56,1.56,0,0,1-.45,1.1,1.54,1.54,0,0,1-1.09.45h-7.5v7.57a1.54,1.54,0,0,1-1.54,1.54A1.72,1.72,0,0,1,61.89,12.11Z" fill="#110580"/><path d="M90.23,3a1.5,1.5,0,0,1-.79-.7,1.53,1.53,0,0,1-.16-1,1.58,1.58,0,0,1,.56-.9,1.56,1.56,0,0,1,1-.33h19.28a1.5,1.5,0,0,1,1.08.45,1.54,1.54,0,0,1,.45,1.09,1.56,1.56,0,0,1-.45,1.1,1.5,1.5,0,0,1-1.08.45H90.84A1.41,1.41,0,0,1,90.23,3Zm38.55.11a1.47,1.47,0,0,1-.56-.24,1.6,1.6,0,0,1-.43-.43,1.59,1.59,0,0,1-.23-1.18,1.57,1.57,0,0,1,.66-1A1.58,1.58,0,0,1,129.4,0h19.28a1.5,1.5,0,0,1,1.08.45,1.54,1.54,0,0,1,.45,1.09,1.56,1.56,0,0,1-.45,1.1,1.5,1.5,0,0,1-1.08.45H129.4A1.62,1.62,0,0,1,128.78,3.12Zm38.53,0a1.55,1.55,0,0,1-.67-.57,1.59,1.59,0,0,1-.25-.85A1.55,1.55,0,0,1,167.93.15h19.34a1.52,1.52,0,0,1,1.08.46,1.55,1.55,0,0,1,0,2.18,1.51,1.51,0,0,1-1.08.45H167.94A1.39,1.39,0,0,1,167.31,3.12Zm38.56,0a1.55,1.55,0,0,1-.67-.57A1.59,1.59,0,0,1,205,1.7,1.55,1.55,0,0,1,206.49.15h19.28a1.55,1.55,0,0,1,1.08,2.64,1.53,1.53,0,0,1-1.08.45H206.5a1.58,1.58,0,0,1-.61-.12Z" fill="#110580"/><path d="M253.49,12.23a1.55,1.55,0,0,1-.67-.57,1.59,1.59,0,0,1-.25-.85V3.24h-7.5a1.55,1.55,0,0,1,0-3.09h10.59V10.84a1.54,1.54,0,0,1-1.54,1.55A1.78,1.78,0,0,1,253.49,12.23Z" fill="#110580"/><path d="M253.43,120.31a1.49,1.49,0,0,1-.67-.57,1.51,1.51,0,0,1-.25-.85v-18a1.53,1.53,0,0,1,2.62-1.09,1.58,1.58,0,0,1,.45,1.09V119a1.58,1.58,0,0,1-.45,1.09,1.54,1.54,0,0,1-1.09.45A1.23,1.23,0,0,1,253.43,120.31Zm0-36a1.49,1.49,0,0,1-.67-.57,1.51,1.51,0,0,1-.25-.85v-18a1.55,1.55,0,0,1,.45-1.09,1.53,1.53,0,0,1,2.17,0,1.6,1.6,0,0,1,.45,1.09v18a1.58,1.58,0,0,1-.45,1.09,1.54,1.54,0,0,1-1.09.45,1.57,1.57,0,0,1-.6-.12Zm0-36a1.43,1.43,0,0,1-.67-.57,1.51,1.51,0,0,1-.25-.85v-18a1.53,1.53,0,0,1,2.62-1.09,1.58,1.58,0,0,1,.45,1.09v18a1.62,1.62,0,0,1-.45,1.1,1.58,1.58,0,0,1-1.09.45,1.28,1.28,0,0,1-.57-.13Z" fill="#110580"/><path d="M11.05,102l1.23-.19a6.14,6.14,0,0,1,7,3.78l8.5,23.79c.1.32.18.64.25,1A20.92,20.92,0,0,1,18,135a21.38,21.38,0,0,1-9.86-.64c0-.31-.12-.58-.12-.88L6.14,108.26a6.23,6.23,0,0,1,1.31-4.05A6.14,6.14,0,0,1,11.05,102Z" fill="#d7d7e6"/><path d="M10.65,66a2.19,2.19,0,0,0-.78-.79,2.15,2.15,0,0,0-1.07-.29,2.1,2.1,0,0,0-1.07.29,2.14,2.14,0,0,0-.79.79c-1.27,2.59-3,6-4.28,8.2C.4,78.05-.64,87.47.42,91.67A41.83,41.83,0,0,0,6.66,104a2,2,0,0,0,1,.72,11.29,11.29,0,0,0,6,.14c3.86-.94,4.34-3.52,4.34-3.52s2.21-8.74,1.86-13.9-3.22-12.06-4.44-13.3A78,78,0,0,1,10.65,66Z" fill="#c7645d"/><path d="M42.42,224.79,28.2,131.94a8.15,8.15,0,0,0-.34-1.54A20.78,20.78,0,0,1,18,134.85a21.36,21.36,0,0,1-9.73-.61A9.94,9.94,0,0,0,8.55,136l22,91.24a6.16,6.16,0,0,0,2.78,3.19,6.12,6.12,0,0,0,7.76-1.57A6.25,6.25,0,0,0,42.42,224.79Z" fill="#2b31ba"/><path d="M38.19,234,67,236.06,79.75,60,51,57.84Z" fill="#dadaed"/><path d="M68.15,82.87,68,85l9.89.72L78,83.59Z" fill="#989bd7"/><path d="M66.78,102.11l-.14,2.08,9.91.7.14-2.09Z" fill="#989bd7"/><path d="M65.28,122.27l-.15,2.08,9.89.73.15-2.09Z" fill="#989bd7"/><path d="M63.87,142l-.15,2.08,9.89.72.15-2.07Z" fill="#989bd7"/><path d="M62.44,161.69l-.15,2.08,9.89.73.15-2.08Z" fill="#989bd7"/><path d="M61,181.39l-.15,2.08,9.88.73.16-2.08Z" fill="#989bd7"/><path d="M59.56,201.1l-.15,2.08,9.89.72.15-2.08Z" fill="#989bd7"/><path d="M56.05,257.52l18.37,3.24L98.63,121.65l-18.37-3.24Z" fill="#ffadb2"/><path d="M80.31,118.41l18.38,3.24L95.82,95.07,92,94.39Z" fill="#ebdbcd"/><path d="M94.68,107.32,92,105.5l-2.22.29-2.67-1.42,4.85-10,3.83.68L97,105.76Z" fill="#ff7a82"/><path d="M93.18,168.18H12.71a3.52,3.52,0,0,0-1.44.28,3.57,3.57,0,0,0-1.2.86,3.5,3.5,0,0,0-.86,2.77L20,258.59a8,8,0,0,0,2.62,5,7.93,7.93,0,0,0,5.27,2H78.28a7.93,7.93,0,0,0,5.28-2,8.06,8.06,0,0,0,2.62-5l10.39-86.49a3.49,3.49,0,0,0-.14-1.44,3.33,3.33,0,0,0-.7-1.26,3.5,3.5,0,0,0-1.15-.87A3.4,3.4,0,0,0,93.18,168.18Z" fill="#ff7a82"/><path d="M485.36,26H160.66a21,21,0,0,0-20.9,21V253.43a21,21,0,0,0,20.9,21h324.7a21,21,0,0,0,20.91-21V47A21,21,0,0,0,485.36,26Z" fill="#b3b6de"/><path d="M486.84,39.22H159.18a5.55,5.55,0,0,0-5.54,5.57V251a5.56,5.56,0,0,0,5.54,5.58H486.84a5.56,5.56,0,0,0,5.54-5.58V44.79A5.55,5.55,0,0,0,486.84,39.22Z" fill="#e8eaf7"/><path d="M546.24,374.14H99.78A12.53,12.53,0,0,1,89,368a12.72,12.72,0,0,1-.34-12.42L134,285.42a20.69,20.69,0,0,1,7.54-8A20.4,20.4,0,0,1,152,274.5H494a20.38,20.38,0,0,1,10.56,2.93,20.69,20.69,0,0,1,7.54,8l45.27,70.18A12.68,12.68,0,0,1,557,368a12.53,12.53,0,0,1-10.74,6.12Z" fill="#c5c6e3"/><path d="M558.74,361.12a12.68,12.68,0,0,1-.84,4.95,12.54,12.54,0,0,1-11.7,8.07H99.78a12.56,12.56,0,0,1-11.71-8.07,12.68,12.68,0,0,1-.83-4.95v11.17A12.65,12.65,0,0,0,91,381.11a12.49,12.49,0,0,0,8.81,3.64H546.24a12.51,12.51,0,0,0,8.79-3.66,12.72,12.72,0,0,0,3.71-8.8V361.13Z" fill="#999bc9"/><path d="M409.92,365H236.12a4,4,0,0,1-3.46-2,4.24,4.24,0,0,1-.57-2,4.14,4.14,0,0,1,.48-2l6.89-22.49a6.56,6.56,0,0,1,5.81-3.5H400.83a6.51,6.51,0,0,1,3.39.94,6.69,6.69,0,0,1,2.42,2.56L413.47,359a4.05,4.05,0,0,1-1.56,5.44A4.09,4.09,0,0,1,409.92,365Z" fill="#d8dbf2"/><path d="M473.65,325.31H172.38a4.71,4.71,0,0,1-2.35-.61,4.81,4.81,0,0,1-1.86-6.43l12.7-26.6a7.72,7.72,0,0,1,2.84-3.05,7.83,7.83,0,0,1,4-1.11H458.3a7.66,7.66,0,0,1,4,1.13,7.79,7.79,0,0,1,2.86,3l12.69,26.55a4.76,4.76,0,0,1,.59,2.39,4.81,4.81,0,0,1-.67,2.37A4.73,4.73,0,0,1,476,324.7,4.68,4.68,0,0,1,473.65,325.31Z" fill="#a7a9d6"/><path d="M153.64,58.53H492.39V251a5.54,5.54,0,0,1-.42,2.13,5.33,5.33,0,0,1-1.19,1.8,5.6,5.6,0,0,1-1.8,1.21,5.48,5.48,0,0,1-2.11.42H159.16a5.55,5.55,0,0,1-5.52-5.56Z" fill="#fff"/><path d="M258.57,76.29H223.36a1.6,1.6,0,0,0-1.6,1.6v35.44a1.6,1.6,0,0,0,1.6,1.6h35.21a1.6,1.6,0,0,0,1.59-1.6V77.89A1.6,1.6,0,0,0,258.57,76.29Z" fill="#e8e8f7"/><path d="M420.76,107.86H293.52A3.52,3.52,0,0,0,290,111.4h0a3.52,3.52,0,0,0,3.51,3.54H420.76a3.52,3.52,0,0,0,3.51-3.54h0A3.52,3.52,0,0,0,420.76,107.86Z" fill="#e8e8f7"/><path d="M385,92.08H293.52A3.52,3.52,0,0,0,290,95.61v0a3.52,3.52,0,0,0,3.51,3.53H385a3.52,3.52,0,0,0,3.51-3.53v0A3.52,3.52,0,0,0,385,92.08Z" fill="#e8e8f7"/><path d="M402.89,76.29H293.52A3.52,3.52,0,0,0,290,79.83h0a3.52,3.52,0,0,0,3.51,3.54H402.89a3.53,3.53,0,0,0,3.52-3.54h0A3.53,3.53,0,0,0,402.89,76.29Z" fill="#e8e8f7"/><path d="M258.57,139.17H223.36a1.6,1.6,0,0,0-1.6,1.6v35.44a1.6,1.6,0,0,0,1.6,1.6h35.21a1.59,1.59,0,0,0,1.59-1.6V140.77A1.6,1.6,0,0,0,258.57,139.17Z" fill="#e8e8f7"/><path d="M420.76,170.73H293.52a3.52,3.52,0,0,0-3.51,3.54h0a3.53,3.53,0,0,0,3.51,3.54H420.76a3.53,3.53,0,0,0,3.51-3.54h0A3.52,3.52,0,0,0,420.76,170.73Z" fill="#e8e8f7"/><path d="M385,155H293.52a3.52,3.52,0,0,0-3.51,3.53v0a3.53,3.53,0,0,0,3.51,3.54H385a3.53,3.53,0,0,0,3.51-3.54v0A3.52,3.52,0,0,0,385,155Z" fill="#e8e8f7"/><path d="M402.89,139.17H293.52a3.52,3.52,0,0,0-3.51,3.54h0a3.52,3.52,0,0,0,3.51,3.54H402.89a3.53,3.53,0,0,0,3.52-3.54h0A3.53,3.53,0,0,0,402.89,139.17Z" fill="#e8e8f7"/><path d="M258.57,202.05H223.36a1.61,1.61,0,0,0-1.6,1.61v35.43a1.6,1.6,0,0,0,1.6,1.6h35.21a1.59,1.59,0,0,0,1.59-1.6V203.66A1.6,1.6,0,0,0,258.57,202.05Z" fill="#e8e8f7"/><path d="M420.76,233.61H293.52a3.52,3.52,0,0,0-3.51,3.54h0a3.53,3.53,0,0,0,3.51,3.54H420.76a3.53,3.53,0,0,0,3.51-3.54h0A3.52,3.52,0,0,0,420.76,233.61Z" fill="#e8e8f7"/><path d="M385,217.82H293.52a3.53,3.53,0,0,0-3.51,3.54v0a3.52,3.52,0,0,0,3.51,3.53H385a3.52,3.52,0,0,0,3.51-3.53v0A3.53,3.53,0,0,0,385,217.82Z" fill="#e8e8f7"/><path d="M402.89,202.05H293.52a3.53,3.53,0,0,0-3.51,3.54v0a3.52,3.52,0,0,0,3.51,3.53H402.89a3.53,3.53,0,0,0,3.52-3.53v0A3.54,3.54,0,0,0,402.89,202.05Z" fill="#e8e8f7"/><path d="M166.1,52.44a3.62,3.62,0,1,0-3.59-3.62A3.61,3.61,0,0,0,166.1,52.44Z" fill="#ff7a82"/><path d="M179.43,52.44a3.62,3.62,0,1,0-3.59-3.62A3.61,3.61,0,0,0,179.43,52.44Z" fill="#fdb62f"/><path d="M192.74,52.44a3.62,3.62,0,1,0-3.59-3.62A3.61,3.61,0,0,0,192.74,52.44Z" fill="#64a7b0"/><path d="M642.64,77.15a1,1,0,0,1,.92.22,1.4,1.4,0,0,1,.31.38,1.22,1.22,0,0,1,.13.47,1,1,0,0,1-.06.48,34,34,0,0,1-2.85,6.79,1.2,1.2,0,0,1-1.63.48,1.24,1.24,0,0,1-.58-.73,1.18,1.18,0,0,1,.11-.92A31.85,31.85,0,0,0,641.63,78a1.15,1.15,0,0,1,.38-.57A1.24,1.24,0,0,1,642.64,77.15Z" fill="#110580"/><path d="M444.24,27.14a1.55,1.55,0,0,1,.43,0l1.72.43c4,1,8.14,2,12.5,3.23a1.17,1.17,0,0,1,.43.22,1.39,1.39,0,0,1,.31.37,1.28,1.28,0,0,1,.14.47,1.54,1.54,0,0,1,0,.48,1.22,1.22,0,0,1-.22.44,1.26,1.26,0,0,1-.37.32,1.07,1.07,0,0,1-.47.14,1.32,1.32,0,0,1-.48-.06C453.85,32,449.74,31,445.76,30L444,29.53a1.15,1.15,0,0,1-.73-.54,1.22,1.22,0,0,1-.15-.91,1.23,1.23,0,0,1,.4-.65A1.16,1.16,0,0,1,444.24,27.14Zm28.11,8.15a1.28,1.28,0,0,1,.55,0,108.8,108.8,0,0,1,13.49,6.07,1.35,1.35,0,0,1,.37.3,1.22,1.22,0,0,1,.27.88,1.18,1.18,0,0,1-.14.45,1.16,1.16,0,0,1-.29.37,1.25,1.25,0,0,1-.41.22,1.07,1.07,0,0,1-.47.05,1,1,0,0,1-.44-.14,110.08,110.08,0,0,0-13.21-5.93,1.15,1.15,0,0,1-.61-.5,1.22,1.22,0,0,1-.17-.77,1.15,1.15,0,0,1,.35-.72,1.19,1.19,0,0,1,.71-.34Zm25.59,14a1.23,1.23,0,0,1,.47,0,1.13,1.13,0,0,1,.42.22A69.83,69.83,0,0,1,509.45,60a1.27,1.27,0,0,1,.23.41,1.23,1.23,0,0,1,0,.47,1,1,0,0,1-.13.45,1.28,1.28,0,0,1-.29.37,1.19,1.19,0,0,1-.89.26,1.25,1.25,0,0,1-.82-.43,67.71,67.71,0,0,0-10.25-10.06,1.34,1.34,0,0,1-.31-.36,1.18,1.18,0,0,1-.14-.45,1.06,1.06,0,0,1,0-.47,1.19,1.19,0,0,1,.21-.42A1.22,1.22,0,0,1,497.94,49.29Zm18.42,22.5a1.26,1.26,0,0,1,.71.13,1.2,1.2,0,0,1,.5.52,69.36,69.36,0,0,1,5.36,13.9,1.21,1.21,0,0,1,.07.5,1.19,1.19,0,0,1-.13.49,1.38,1.38,0,0,1-.32.4,1.18,1.18,0,0,1-.45.22,1.2,1.2,0,0,1-.5,0,1.28,1.28,0,0,1-.47-.18,1.37,1.37,0,0,1-.36-.36,1.4,1.4,0,0,1-.18-.48,66.37,66.37,0,0,0-5.15-13.47,1.18,1.18,0,0,1-.14-.45,1.24,1.24,0,0,1,.06-.47,1.27,1.27,0,0,1,.23-.41,1.16,1.16,0,0,1,.37-.29,1.32,1.32,0,0,1,.44-.08Zm-6,16.41a55,55,0,0,1,8.12-.39,1.23,1.23,0,0,1,.84.37,1.29,1.29,0,0,1,.34.87,1.19,1.19,0,0,1-.11.45,1.05,1.05,0,0,1-.27.39,1.14,1.14,0,0,1-.39.25,1,1,0,0,1-.46.08,56.46,56.46,0,0,0-7.8.39,49.24,49.24,0,0,0-6.37,1.18,1.2,1.2,0,0,1-.91-.13,1.24,1.24,0,0,1-.55-.74,1.4,1.4,0,0,1,0-.5,1.36,1.36,0,0,1,.15-.47,1.17,1.17,0,0,1,.33-.37,1.24,1.24,0,0,1,.45-.21,50.08,50.08,0,0,1,6.68-1.25Zm22.42,1.54a1.34,1.34,0,0,1,.4,0,145.13,145.13,0,0,1,14.18,4.06,1.21,1.21,0,0,1,.61.63,1.14,1.14,0,0,1,0,.87,1.2,1.2,0,0,1-.55.68,1.17,1.17,0,0,1-.86.12,143.56,143.56,0,0,0-13.93-4,1.23,1.23,0,0,1-.92-1.25,1.27,1.27,0,0,1,.32-.76,1.21,1.21,0,0,1,.73-.38Zm-42.21,5.73a1.16,1.16,0,0,1,1.12.5,1.11,1.11,0,0,1,.19.43,1.23,1.23,0,0,1,0,.47,1.26,1.26,0,0,1-.17.44,1.15,1.15,0,0,1-.32.34,31.16,31.16,0,0,0-5.51,5.07,23.83,23.83,0,0,0-3.47,5.53,1.18,1.18,0,0,1-.68.54,1.17,1.17,0,0,1-.86-.06,1.19,1.19,0,0,1-.61-.62,1.24,1.24,0,0,1,0-.87,26,26,0,0,1,3.84-6.17A32.74,32.74,0,0,1,490,95.61a1,1,0,0,1,.6-.15Zm33,4.64h.15a1.22,1.22,0,0,1,.46.09,1.2,1.2,0,0,1,.65.65,1.22,1.22,0,0,1,.09.46,45,45,0,0,1-2.43,14.86,1.22,1.22,0,0,1-.62.68,1.2,1.2,0,0,1-.91.06,1.2,1.2,0,0,1-.72-1.54,42.28,42.28,0,0,0,2.28-14.06,1.19,1.19,0,0,1,.29-.86,1.17,1.17,0,0,1,.8-.4Zm37.08-1.55a1.57,1.57,0,0,1,.53,0c1.62.56,3.25,1.1,4.87,1.55,3.18,1,6.14,1.86,9.05,2.59a1.09,1.09,0,0,1,.42.2,1.07,1.07,0,0,1,.33.34,1.11,1.11,0,0,1,.16.44,1.06,1.06,0,0,1,0,.47,1.11,1.11,0,0,1-.19.43,1.07,1.07,0,0,1-.34.33,1.22,1.22,0,0,1-.91.16c-2.95-.75-6-1.55-9.21-2.63q-2.46-.8-4.93-1.54a1.25,1.25,0,0,1-.64-.49,1.23,1.23,0,0,1-.19-.79,1.2,1.2,0,0,1,.35-.73,1.13,1.13,0,0,1,.73-.34Zm69.8-3.69A1.3,1.3,0,0,1,631,95a1.17,1.17,0,0,1,.48.37,1.06,1.06,0,0,1,.22.42,1.23,1.23,0,0,1-.1.92,1.28,1.28,0,0,1-.3.36,48.55,48.55,0,0,1-12.93,7.52,1.17,1.17,0,0,1-.9,0,1.15,1.15,0,0,1-.59-1.56,1.23,1.23,0,0,1,.65-.64,45.28,45.28,0,0,0,12.28-7.15,1.39,1.39,0,0,1,.64-.32ZM589,105.4h.28a69.53,69.53,0,0,0,14.35.14,1.24,1.24,0,0,1,.89.26,1.26,1.26,0,0,1,.44.82,1.19,1.19,0,0,1-.26.89,1.18,1.18,0,0,1-.81.44,72.16,72.16,0,0,1-14.84-.14,1.16,1.16,0,0,1-.8-.44,1.23,1.23,0,0,1-.26-.88,1.28,1.28,0,0,1,.35-.76,1.24,1.24,0,0,1,.74-.36ZM479.06,120.85a1.17,1.17,0,0,1,.86.23,1.22,1.22,0,0,1,.46.77,15.66,15.66,0,0,0,5.35,9.71,15.39,15.39,0,0,0,1.88,1.31,1.25,1.25,0,0,1,.56.73,1.23,1.23,0,0,1-.12.92,1.22,1.22,0,0,1-.74.57,1.23,1.23,0,0,1-.92-.12,22,22,0,0,1-2.18-1.54,18,18,0,0,1-6.14-11.17,1.28,1.28,0,0,1,.21-.91A1.24,1.24,0,0,1,479.06,120.85Zm34.5,6a1.1,1.1,0,0,1,.54,0,1.16,1.16,0,0,1,.46.29,1.3,1.3,0,0,1,.27.39,1.27,1.27,0,0,1,.09.47,1.22,1.22,0,0,1-.09.46,1.34,1.34,0,0,1-.27.4,29.79,29.79,0,0,1-13.06,7.58,1.23,1.23,0,0,1-.47,0,1.43,1.43,0,0,1-.44-.15,1.17,1.17,0,0,1-.35-.31,1.22,1.22,0,0,1-.24-.9,1.29,1.29,0,0,1,.16-.44,1.08,1.08,0,0,1,.73-.56,27.68,27.68,0,0,0,12-7,1.08,1.08,0,0,1,.75-.29Z" fill="#110580"/><path d="M423.66,20a1.28,1.28,0,0,1,.85.21,25.14,25.14,0,0,0,6.11,3,1.22,1.22,0,0,1,.71,1.55,1.17,1.17,0,0,1-.63.68,1.15,1.15,0,0,1-.91,0,27.77,27.77,0,0,1-6.62-3.27,1.28,1.28,0,0,1-.42-.58,1.22,1.22,0,0,1,0-.71,1.25,1.25,0,0,1,.37-.61,1.26,1.26,0,0,1,.65-.3Z" fill="#110580"/><path d="M421.05,227.11a48.66,48.66,0,1,0-48.35-48.66A48.5,48.5,0,0,0,421.05,227.11Z" fill="#e8ebff"/><path d="M479,199.8a12.06,12.06,0,0,0-16.63,4,12.21,12.21,0,0,0,4,16.73l74,45.42A12.06,12.06,0,0,0,557,261.94a12.22,12.22,0,0,0-4-16.73Z" fill="#2b31ba"/><path d="M422.74,169.43H373.53l-.19,1.17a49.45,49.45,0,0,0-.62,7.39v1.42h50a5,5,0,0,0,5-5,5,5,0,0,0-1.45-3.53,5,5,0,0,0-3.51-1.46Z" fill="#cfcfeb"/><path d="M391.53,158.43a5,5,0,0,0-1.45-3.53,5,5,0,0,0-3.51-1.46h-7.19l-.4.73a50.37,50.37,0,0,0-3.33,7.38l-.68,1.89h11.6a5,5,0,0,0,5-5Z" fill="#cfcfeb"/><path d="M409.61,142.46a5,5,0,0,0-1.46-3.51,4.93,4.93,0,0,0-3.5-1.45H393.71l-.37.28a50.06,50.06,0,0,0-8.06,7.34l-2,2.33h21.38a5,5,0,0,0,1.91-.37,5.17,5.17,0,0,0,1.62-1.08,5,5,0,0,0,1.46-3.54Z" fill="#cfcfeb"/><path d="M404.65,201.13H377.87l1.15,2.08a51.61,51.61,0,0,0,4.94,7.38l.42.51h20.27a4.92,4.92,0,0,0,3.51-1.46,5,5,0,0,0,0-7A4.92,4.92,0,0,0,404.65,201.13Z" fill="#cfcfeb"/><path d="M370.13,147.2a60.35,60.35,0,0,0,2.73,66.62A59.59,59.59,0,0,0,480,187.73a60.15,60.15,0,0,0-27.86-60.5A59.35,59.35,0,0,0,385.89,130,60,60,0,0,0,370.13,147.2Zm92.19,56.6A48.83,48.83,0,1,1,468,167,48.48,48.48,0,0,1,462.32,203.8Z" fill="#2b31ba"/><path d="M440.65,149.86c4.94,4.46,6.43,10.26,5.34,14.5-1.19,4.63,6.14,3.57,7.32-.65a17,17,0,0,0-6.63-18.92,27.95,27.95,0,0,0-23.51-3.55,2.59,2.59,0,0,0-1.09.5,2.56,2.56,0,0,0-.76.93,2.67,2.67,0,0,0,0,2.34c1.78,2.07,4,1.43,9.49,1.43A15.43,15.43,0,0,1,440.65,149.86Z" fill="#fff"/></g></g></g></svg>