<svg xmlns="http://www.w3.org/2000/svg" viewBox="0 0 581.35 619.89"><title>Sitting in a chair</title><g id="Layer_2" data-name="Layer 2"><g id="illustrations"><g id="girl-sitting-on-armchair-with-laptop-by-oblik-studio"><path d="M52,469.45v0Z" fill="#7a5734"/><path d="M88.22,359.64c-34.53,0-62.68-3.2-63.61-7.19l5.15,60.25c0,28.61,26.34,51.95,58.52,51.95h0c32.2,0,58.52-23.4,58.52-51.95l5.14-60.35h0C151.14,356.44,123,359.64,88.22,359.64Z" fill="#dec7b2"/><path d="M88.22,359.64c-35.06,0-63.54-3.26-63.67-7.35v-.06c.28-4.06,28.67-7.35,63.67-7.35s63.32,3.26,63.66,7.35v.06C151.76,356.38,123.27,359.64,88.22,359.64Z" fill="#e8d4c1"/><path d="M88.22,358.43c-29.61,0-53.6-2.79-53.66-6.2v-.06c.28-3.41,24.21-6.2,53.66-6.2s53.46,2.73,53.65,6.2v.06C141.81,355.64,117.82,358.43,88.22,358.43Z" fill="#ba9c7e"/><path d="M26.81,378.3a17.14,17.14,0,0,1,11.6,5.05c6.54,6.32,10.6,16,15.87,23.46a115.51,115.51,0,0,0,5.26-12.27c1.86-5,8.59-9.67,13.86-5.61a53,53,0,0,1,13.45,15.4c3.13,5.27,5.67,11.53,10.6,15.47,4.74,3.81,10.08,4.93,12-1.86,1.73-5.92,1.14-12.34,3-18.26,1.62-4.93,4.13-10.13,9.21-12.27,6-2.61,11.81.59,17.14,3.35,3.19,1.61,6.32,3.34,9.39,5.14l-1.05,12.74c-5.46-3.41-12.12-7.59-17.73-8.4-3.54-.53-3.26,1.86-3.54,5.21-.18,3-.18,6-.34,8.92-.34,6.08-1.21,12.12-4.8,17.14-7.66,10.79-22.07,10.26-32.2,3.41-5.46-3.65-9.4-8.46-12.87-14-1.14-1.79-2.2-3.65-3.35-5.54-4.33,10.07-11,19.12-21.94,15.34-6.79-2.39-11.19-9.8-15.28-15.34-1.27-1.74-3.6-5.86-5.92-9.61Z" fill="#ebdbcd"/><path d="M1.8,153.7c1.33-5.14,7.41-5.92,11-2.94,6.79,5.67,10.33,13.54,14.08,21.32A120.63,120.63,0,0,0,41.2,194.9c11.4,14.53,24,28.08,32.45,44.72,16.21,32.27,20,70.33,8.92,104.86-.34,1,1.8-4.4-1.67,5.21-3.13,8.68-15.47,4-15.34-6.08.12-9.85-2.54-19.06-7-27.86-8.67-17.39-19.52-33.6-28-51.21A438,438,0,0,1,8.5,210.08C2.61,192-3,172.77,1.8,153.7Z" fill="#4c7378"/><path d="M81.27,52.38c4.34-7.93,17.2-2.54,14.6,6.14-7.47,25.54-2.14,52.6,2.54,78.14,4.75,26.06,10.2,52,13.45,78.26,5.74,46.74,3.88,99.22-25.72,138.21-3.19,4.21-9.86.68-7.25-4.28,2.94-5.55-4.47-41.94-7.75-53.59-3.35-12-6.67-24.05-9.67-36.14-5.86-23.59-10.67-47.73-12-72.06C47,139.69,58.61,93.85,81.27,52.38Z" fill="#57848a"/><path d="M95.34,312.12c3.48-15.93.93-32.73,4.34-48.6,3.35-15.53,7.88-31.27,15.13-45.47,6.88-13.45,17.39-23.06,29.72-31.4,11.6-7.87,25.33-15.59,29.42-30,2.38-8.52,17-7.25,16.05,2.2-1.92,19.28-10.07,36.26-19.52,52.94-10.08,17.73-18.88,34.65-23.87,54.52-8.46,34.06-15.81,78.26-54.68,88.74C87.22,356.23,87.94,346.12,95.34,312.12Z" fill="#689399"/><polygon points="507.27 27.77 505.35 25.97 523.76 6.17 538.14 26.1 535.94 27.65 523.48 10.38 507.27 27.77" fill="#e8d4c1"/><path d="M442.09,540.31h0c-5.27,1.39-11-2.2-13.55-8.53l-13.85-35.21c-3.07-7.75.06-16.21,6.54-17.85l8.58-2.26c6.48-1.74,13.33,4.12,14.54,12.33l5.27,37.48C450.55,532.9,447.36,538.91,442.09,540.31Z" fill="#7a5b3c"/><path d="M221,540.31h0c5.27,1.39,11-2.2,13.54-8.53l13.86-35.21c3.07-7.75-.06-16.21-6.54-17.85l-8.59-2.26c-6.47-1.74-13.32,4.12-14.53,12.33l-5.27,37.48C212.48,532.9,215.7,538.91,221,540.31Z" fill="#7a5b3c"/><path d="M475,574.71h0c-6.88,1.8-14.32-2.85-17.54-11.06l-18-45.75c-3.93-10,.07-21,8.53-23.22l11.19-2.94c8.4-2.2,17.32,5.33,18.87,16l6.79,48.66C486.1,565.17,481.89,572.91,475,574.71Z" fill="#a67c52"/><path d="M188,574.71h0c6.88,1.8,14.32-2.85,17.54-11.06l18-45.75c3.94-10-.06-21-8.52-23.22l-11.19-2.94c-8.4-2.2-17.33,5.33-18.88,16l-6.79,48.66C177,565.17,181.14,572.91,188,574.71Z" fill="#a67c52"/><path d="M496.83,393.17H171.28a35.53,35.53,0,0,1-35.46-35.45V223a35.54,35.54,0,0,1,35.46-35.46H496.76A35.53,35.53,0,0,1,532.22,223V357.72A35.47,35.47,0,0,1,496.83,393.17Z" fill="#676bc4"/><path d="M508.94,326.78a11.7,11.7,0,0,0-11.53,10.66c-2.2,22.94-8.67,75.14-22.81,101.14-9.73,17.85-38.28,19.53-45.87,19.59H239.16c-7.59-.12-36.14-1.74-45.87-19.59-14.13-26-20.67-78.14-22.81-101.14A11.8,11.8,0,0,0,159,326.78l-60.26-.87a11.81,11.81,0,0,0-11.93,12.62c2,28.61,9.86,98.94,40.39,144.19,16.61,24.52,42.4,32.11,48.87,33.66,3.66,1.21,314.89.46,317.4-.06,8.33-2.33,31.8-10.66,47.33-33.54,30.59-45.19,38.46-115.61,40.38-144.19A11.79,11.79,0,0,0,569.2,326Z" fill="#676bc4"/><path d="M239.07,458.51H428.88c7.6-.12,36.21-1.73,45.94-19.59,15-27.58,21.39-84.68,23.28-105.13a22,22,0,0,0-2.55-12.4L483,297.71a1.58,1.58,0,0,0-2.94.4C476.68,315,464,375.57,457.37,380c-7.75,5.14-242.6.68-251.59,0-7.66-.53-15.65-62.8-17.85-81.21a1.6,1.6,0,0,0-3-.52L172.8,321.17a22.85,22.85,0,0,0-2.6,12.93c1.8,20.27,8.21,77.39,23.21,104.79C202.9,456.78,231.48,458.39,239.07,458.51Z" fill="#4a52bd"/><path d="M447.3,458.23H215.76c-.68,0-1.33,0-1.92-.06C190.56,457.3,175.5,435,184.05,415l10.54-24.67c.93-2.14,3-7.59,3-7.59,9-20.06,23.27-25.08,43.2-25.08H422.47c19.93,0,38.12,10.26,43.61,26.07,0,0,1.67,4.46,2.6,6.6L479.22,415c8.52,20-6.54,42.34-29.79,43.21C448.63,458.23,448,458.23,447.3,458.23Z" fill="#2f37a8"/><path d="M170.29,333.91a23.39,23.39,0,0,1,2.6-12.92L185,298.11h0a1.61,1.61,0,0,1,3,.34h0s-.28-4.21-9-4.8H144.81a31.05,31.05,0,0,0-16.73,4.93L96.8,318.85a22.15,22.15,0,0,0-10.07,19.68,11.81,11.81,0,0,1,11.93-12.62l60.26.87a11.81,11.81,0,0,1,11.4,9.55l.06.06h0A22.84,22.84,0,0,0,170.29,333.91Z" fill="#868ae0"/><path d="M498,333.91A23.12,23.12,0,0,0,495,321l-12.12-22.82h0a1.61,1.61,0,0,0-3,.34h0s.28-4.21,9-4.8h34.13a30.61,30.61,0,0,1,16.67,4.93L571.09,319a22.16,22.16,0,0,1,10.07,19.68A11.79,11.79,0,0,0,569.23,326l-60.35.87a11.38,11.38,0,0,0-11.12,9.54C497.82,336.51,497.94,334.72,498,333.91Z" fill="#868ae0"/><path d="M488,379.78s9.8,1.15,16.86,8.4,4.75,19.47,0,23.28C496.67,418,480.89,418,469,418a68.2,68.2,0,0,1-19.8-2.66l15.18-37.66S474,376,488,379.78Z" fill="#ab534d"/><path d="M347.61,493.91c-5.85,10.66-11.65,21.26-17.54,31.92-3.94,7.13,1.46,16.8,8.34,19.53,8.27,3.35,15.59-1.21,19.53-8.34,5.85-10.66,11.65-21.26,17.54-31.92,3.94-7.13-1.46-16.8-8.34-19.53-8.24-3.32-15.59,1.21-19.53,8.34Z" fill="#fcb58a"/><path d="M402.35,156.65S389.43,115.3,385,97.91C378.3,71,360,54.77,334,54.77c-26.25,0-44.73,16.46-52,43.27-7.41,27.58-17.14,56.41-17.14,56.41a7.3,7.3,0,0,0,4.21,9c8.34,3.34,25.79,9.2,64.88,8.68,34.87-.47,52.94-5.4,62-6.33A7.24,7.24,0,0,0,402.35,156.65Z" fill="#110580"/><path d="M349,143.63H319.16v51.55a7,7,0,0,0,7,7H342a7,7,0,0,0,7-7V143.63Z" fill="#fcb58a"/><circle cx="333.6" cy="32.17" r="18.6" transform="translate(74.96 245.32) rotate(-45)" fill="#110580"/><path d="M580,112.76H458.55a1.33,1.33,0,0,1-1.34-1.33V26.31A1.33,1.33,0,0,1,458.55,25H580a1.32,1.32,0,0,1,1.33,1.33v85.21A1.31,1.31,0,0,1,580,112.76Z" fill="#ebdbcd"/><path d="M563.81,99.9H474.73a1,1,0,0,1-1-1v-60a1,1,0,0,1,1-1h89.08a1,1,0,0,1,1,1v60A1,1,0,0,1,563.81,99.9Z" fill="#fcfaf8"/><path d="M176.68,358.3c0-23.52,22.93-39.86,46.92-45.93,48.94-12.46,134.86,3.81,134.86,3.81L313.05,345s41.66,11.59,52.08,13.79,78.07,19.87,79.19,21.6-24.92,36.21-24.92,36.21-126.86,1.45-165.86-3.6S176.68,398.44,176.68,358.3Z" fill="#ff8a91"/><path d="M307.35,345.38c20.61,4.8,51.27,13.67,65.06,18,14.13,4.4,19.53,8.68,19.53,8.68s-25.67,22.53-37,67.13c-6.39,25.08-18.6,58.61-20.74,66a3.25,3.25,0,0,0,.75,3.19c2.48,2.67,8.21,8.46,14.32,11.81,7.47,4.12,21.14,8.68,22.53,6.67,0,0,59.67-58.4,82.94-91.94s44.73-60.72,35.52-84.05c-7.53-19.13-24.2-30.41-51.94-36.27-42.41-8.86-91.75-5.39-91.75-5.39s-2.85,7.34-14.07,20.27C323.22,340.3,306.89,345.32,307.35,345.38Z" fill="#ffadb2"/><path d="M289.75,144.5c-4.81,0-4.93-13.95-4.93-15.53s.12-15.53,4.93-15.53,4.92,14,4.92,15.53S294.55,144.5,289.75,144.5Zm0-28.39c-.87.87-2.33,5.45-2.33,12.86s1.4,12,2.33,12.86c.86-.86,2.32-5.45,2.32-12.86S290.61,116.91,289.75,116.11Z" fill="#fff"/><path d="M377.43,144.5c-4.8,0-4.93-13.95-4.93-15.53s.13-15.53,4.93-15.53,4.93,14,4.93,15.53S382.21,144.5,377.43,144.5Zm0-28.39c-.87.87-2.32,5.45-2.32,12.86s1.39,12,2.32,12.86c.87-.86,2.33-5.45,2.33-12.86S378.3,116.91,377.43,116.11Z" fill="#fff"/><circle cx="334.07" cy="105.32" r="49.41" transform="translate(-14.88 135.86) rotate(-22.5)" fill="#fcb58a"/><path d="M283.67,109c.06.8.13,1.61.19,2.32a.53.53,0,0,0,.06.28c.12.87.19,1.74.34,2.54v.07c.12.93.34,1.79.53,2.66A31.15,31.15,0,0,1,315,93.11a27.87,27.87,0,0,1,5.33.46,18.94,18.94,0,0,0,4,.47A17.89,17.89,0,0,0,342.1,78.17a.06.06,0,0,0,.06-.06,21.84,21.84,0,0,0-.28,2.85,19,19,0,0,0,19,19h.06a28.37,28.37,0,0,1,21.48,19.59h0a55.26,55.26,0,0,0,1.46-6.73v-.28c.12-.93.28-1.92.34-2.94,0-.28.06-.47.06-.75.06-1,.13-2.2.13-3.25s0-1.86-.07-2.73c0-.28-.06-.52-.06-.8-.06-.69-.06-1.27-.12-1.93a3.74,3.74,0,0,0-.13-.86,11.21,11.21,0,0,0-.28-1.8,4.34,4.34,0,0,1-.12-.87c-.12-.59-.19-1.21-.34-1.8-.06-.28-.12-.52-.19-.8-.12-.59-.34-1.27-.46-1.86-.06-.19-.12-.47-.19-.68-.18-.69-.4-1.34-.59-2-.06-.18-.12-.34-.18-.53-.28-.74-.53-1.45-.81-2.13-.06-.07-.06-.19-.12-.28-.34-.81-.68-1.61-1.06-2.39h0A50.41,50.41,0,0,0,359.42,62h0a50.15,50.15,0,0,0-8.8-4.06c-.12-.06-.19-.06-.34-.12-.87-.35-1.8-.59-2.67-.87-.12-.06-.27-.06-.46-.13-2-.52-4-.93-6.08-1.27a3.55,3.55,0,0,0-.8-.06c-.81-.06-1.52-.19-2.33-.28-.28,0-.59-.06-.86-.06-1-.06-2.08-.12-3.13-.12a50.46,50.46,0,0,0-50.46,50.46c0,.93,0,1.86.06,2.79A1.81,1.81,0,0,1,283.67,109Z" fill="#110580"/><path d="M322.94,532.37c-1.05,1.34-10.13,13.8-10.94,20.4-.59,4.59-3.35,13-5.21,24.21s-7.75,34.93,9.67,41.25c14.66,5.39,18.2-3.72,21.33-8s11.81-38,12.46-41.59c1.27-7.35,9.39-30.59,9.39-30.59.93-1.93,1.4-2.67-.68-3.26a115.13,115.13,0,0,1-14.14-5.21c-4.68-2.2-9.39-6.54-12.05-8.68-.93-.8-1.46-1.33-2.14-.27C330.69,520.66,323,532.31,322.94,532.37Z" fill="#c7645d"/><path d="M254.69,223.16C239.35,236.83,227.17,253.91,226,275c-1.21,21.79,11.93,38.46,31,47.27,5.68,2.66,12.53,1.61,15.93-4.22,2.95-5,1.52-13.26-4.21-15.93-12.65-5.83-21.33-14.38-19.31-29.23,1.86-13.79,11.81-24.45,21.73-33.32,11.25-9.89-5.27-26.34-16.4-16.43Z" fill="#fcb58a"/><path d="M390.82,239.56A127.61,127.61,0,0,1,404,260.89c3.13,6.38,7.25,13.94,6.47,21.32C408.83,297.49,392,305.8,380,312.28c-13.15,7.12-1.46,27.27,11.74,20.05,18.2-9.86,37.66-22.81,41.35-44.94,1.86-11.41-1.39-21.67-6.07-32a136.78,136.78,0,0,0-16.15-27.68c-3.88-4.93-10-7.65-15.93-4.21-4.9,3-8,11.06-4.16,16.05Z" fill="#f0a173"/><path d="M382.14,187.37a118.07,118.07,0,0,0-33.19-11c-1.92,8.22-6.2,12.74-15.41,12.74-9.39,0-12.61-4.74-14.41-13.14-1.92.06-7.75,1.39-9.08,1.52-16.52,1.45-27.93,8.21-36.39,14.13-11.75,8.12-24.27,24-29.41,30.87a5.26,5.26,0,0,0,.12,6.48c2.79,3.35,7.53,8.52,12.34,11.75,8.52,5.67,22.71,5.67,22.71,5.67l2.14-19.59s-3.59,21.33-4.34,35.46a279,279,0,0,0,0,29.2L385,293.65s3.93-15.28,1.61-36.39c-.59-5.46-6.54-28.86-6.54-28.86l5,15.53s7.53.28,20.39-5.39c3.94-1.74,9.39-5.92,12.62-8.46a3.41,3.41,0,0,0,.59-4.75C413,217.37,395,194.09,382.14,187.37Z" fill="#fff"/><path d="M319.16,152.37v-8.74H349v8.74a49.39,49.39,0,0,0,34.34-43.92,49.38,49.38,0,0,0-98.56,0A49.68,49.68,0,0,0,319.16,152.37Z" fill="none"/><path d="M334.07,154.63a48.69,48.69,0,0,1-14.94-2.32v9.21c4.74,1.45,9.86,1.51,15.13,1,7-.68,10-2,14.72-4v-6.26A48.22,48.22,0,0,1,334.07,154.63Z" fill="#e3996d"/><path d="M523,14a1.22,1.22,0,0,1-1-.47,1.2,1.2,0,0,1,.19-1.73l9.79-7.88a1.26,1.26,0,0,1,1.74.19,1.21,1.21,0,0,1-.19,1.74L523.7,13.7A1.63,1.63,0,0,1,523,14Z" fill="#d4bfa9"/><path d="M531,.41c1.45-1,3.82-.1,5.3,2s1.5,4.66.05,5.66-3.81.11-5.29-2S529.55,1.42,531,.41Z" fill="#d4bfa9"/><path d="M333.42,339.43c17.2,4,34.59,7.13,51.73,11.4,8.52,2.14,17,4.53,25.26,7.47,1.92.69,3.88,1.4,5.73,2.14.93.41,1.93.75,2.86,1.15.68.28,2.38.68,2.94,1.27.81,1.05-1.61,3.35-2.2,4.06-1.46,1.74-2.85,3.41-4.28,5.15-21.2,25.6-40.6,52.72-56.47,82a361.22,361.22,0,0,0-22.6,50.52c-.86,2.39,3,3.47,3.88,1.06,11.34-32.15,27.86-62.21,47.14-90.14,9.73-14.07,20.15-27.68,31.06-40.85,1.33-1.67,2.73-3.26,4.06-4.87a14.13,14.13,0,0,0,3.25-4.8,4.63,4.63,0,0,0-1-4.87c-1.33-1.33-3.53-1.86-5.2-2.54A224.07,224.07,0,0,0,394,349.07c-19.59-5.4-39.67-8.87-59.48-13.45-2.54-.59-3.62,3.22-1.08,3.81Z" fill="#fff"/><path d="M271,245.85s6.48-6.88,8.81-11.59a127,127,0,0,0,5.05-13.73s-2,13.14-3.19,18.81c-1.68,7.94-3.6,11.75-3.6,11.75l-6.2-.34a19.75,19.75,0,0,1-.4-2.32C271.21,247.19,271,245.85,271,245.85Z" fill="#e0e0e0"/><path d="M390.82,248.24s-5.61-7.53-7.41-12.52a119.22,119.22,0,0,1-3.47-14.2s.47,13.27,1,19a54.88,54.88,0,0,0,2.27,12.06l6.2.34s.4-1.15.68-2.26S390.82,248.24,390.82,248.24Z" fill="#e0e0e0"/><path d="M396.49,335.89h-130a9.18,9.18,0,0,1-9-7.4L242.14,251a9.13,9.13,0,0,1,9-10.94H416.92a9.13,9.13,0,0,1,8.86,11.46l-20.45,77.62A9.16,9.16,0,0,1,396.49,335.89Z" fill="#c5c6e3"/><path d="M347.37,290.7a13.32,13.32,0,0,1-26.6.1c-.59-6.92,5.4-12.62,13.27-12.62S347.89,283.76,347.37,290.7Z" fill="#e8e9ff"/><path d="M500.42,60.9c4.12-3.87,11.93-5.61,16.52-3.4s3,1.73,4.59,2.2,4.52-.19,7.25,1.92c3.13,2.48,9,9.2,5.8,18-2.73,7.47-11.47,13.85-22,12.05s-15.74-8.06-17.08-13.39C493.94,72,496.42,64.62,500.42,60.9Z" fill="#ff5856"/><path d="M522.49,62.18s-.34-10.48,6.26-12.87,17.26-5.67,16.8-5-3.07,12-7.53,15C531.29,63.91,522.49,62.18,522.49,62.18Z" fill="#1f6771"/><path d="M515.55,63.57s1-5,1.21-8.12c.4-6.2.27-9.27.27-9.27l5.27.87S521.56,54.3,521,57a28.88,28.88,0,0,1-2.66,7.53s-1,.81-1.86.34A1.42,1.42,0,0,1,515.55,63.57Z" fill="#6b4d3a"/><path d="M517,46c.14-.72,1.43-1.08,2.87-.79s2.5,1.11,2.36,1.83-1.44,1.08-2.88.79S516.85,46.69,517,46Z" fill="#8a634b"/></g></g></g></svg>