<svg xmlns="http://www.w3.org/2000/svg" xmlns:xlink="http://www.w3.org/1999/xlink" viewBox="0 0 652.19 591.93"><defs><clipPath id="clip-path"><path d="M212.77,105.63h185a3.5,3.5,0,0,1,3.58,3.58V268.74a3.5,3.5,0,0,1-3.58,3.58h-185a3.5,3.5,0,0,1-3.58-3.58V109.21A3.61,3.61,0,0,1,212.77,105.63Z" fill="none"/></clipPath><clipPath id="clip-path-2"><circle cx="356.22" cy="295.96" r="295.96" fill="none"/></clipPath></defs><title>Teacher</title><g id="Layer_2" data-name="Layer 2"><g id="illustrations"><g id="desktop-video-chat-coffee-by-oblik-studio"><g id="Layer_2-2" data-name="Layer 2"><g id="illustrations-2" data-name="illustrations"><circle cx="356.22" cy="295.96" r="295.96" fill="#ebdbcd"/><path d="M141.91,49.81H566.09a22.75,22.75,0,0,1,22.76,22.76V327.78a22.75,22.75,0,0,1-22.76,22.76H141.91a22.74,22.74,0,0,1-22.75-22.76V72.57A22.86,22.86,0,0,1,141.91,49.81Z" fill="#c5c6e3"/><path d="M143.63,63H564.55A9.38,9.38,0,0,1,574,72.39v222a9.22,9.22,0,0,1-9.41,9.23H143.63a9.18,9.18,0,0,1-9.23-9.23v-222A9.23,9.23,0,0,1,143.63,63Z" fill="#e8eaf7"/><polygon points="433.94 412.69 274.06 412.69 293.92 350.75 414.08 350.75 433.94 412.69" fill="#c5c6e3"/><path d="M237.24,397H470.91a6.14,6.14,0,0,1,6.16,6.15v3.44a6.14,6.14,0,0,1-6.16,6.15H237.24a6.13,6.13,0,0,1-6.15-6.15V403.1A6.15,6.15,0,0,1,237.24,397Z" fill="#c5c6e3"/><circle cx="351.93" cy="327.28" r="12.49" fill="#e8eaf7"/><path d="M195.84,92.1H507.9V279.72a5.79,5.79,0,0,1-5.83,5.83H201.67a5.79,5.79,0,0,1-5.83-5.83Z" fill="#fff"/><path d="M418.35,105.63h72.57a3.5,3.5,0,0,1,3.58,3.58V268.74a3.5,3.5,0,0,1-3.58,3.58H418.35a3.5,3.5,0,0,1-3.59-3.58V109.21A3.5,3.5,0,0,1,418.35,105.63Z" fill="#e8e8f7"/><path d="M212.77,105.63h185a3.5,3.5,0,0,1,3.58,3.58V268.74a3.5,3.5,0,0,1-3.58,3.58h-185a3.5,3.5,0,0,1-3.58-3.58V109.21A3.61,3.61,0,0,1,212.77,105.63Z" fill="#ebdbcd"/><path d="M429,133.51h25.16a2.63,2.63,0,0,1,2.57,2.57h0a2.63,2.63,0,0,1-2.57,2.58H429a2.63,2.63,0,0,1-2.57-2.58h0A2.53,2.53,0,0,1,429,133.51Z" fill="#c5c6e3"/><path d="M429,144.31H480.5a2.64,2.64,0,0,1,2.57,2.58h0a2.63,2.63,0,0,1-2.57,2.57H429a2.63,2.63,0,0,1-2.57-2.57h0A2.42,2.42,0,0,1,429,144.31Z" fill="#c5c6e3"/><path d="M429,191.55H480.5a2.63,2.63,0,0,1,2.57,2.57h0a2.64,2.64,0,0,1-2.57,2.58H429a2.64,2.64,0,0,1-2.57-2.58h0A2.43,2.43,0,0,1,429,191.55Z" fill="#c5c6e3"/><path d="M429,180.77h38.36a2.64,2.64,0,0,1,2.57,2.58h0a2.63,2.63,0,0,1-2.57,2.57H429a2.63,2.63,0,0,1-2.57-2.57h0A2.52,2.52,0,0,1,429,180.77Z" fill="#c5c6e3"/><path d="M429,241H480.5a2.64,2.64,0,0,1,2.57,2.58h0a2.63,2.63,0,0,1-2.57,2.57H429a2.63,2.63,0,0,1-2.57-2.57h0A2.54,2.54,0,0,1,429,241Z" fill="#c5c6e3"/><path d="M429,230.23h25.16a2.63,2.63,0,0,1,2.57,2.58h0a2.63,2.63,0,0,1-2.57,2.57H429a2.63,2.63,0,0,1-2.57-2.57h0A2.53,2.53,0,0,1,429,230.23Z" fill="#c5c6e3"/><path d="M429,251.63H480.5a2.63,2.63,0,0,1,2.57,2.57h0a2.63,2.63,0,0,1-2.57,2.58H429a2.64,2.64,0,0,1-2.57-2.58h0A2.53,2.53,0,0,1,429,251.63Z" fill="#c5c6e3"/><path d="M433.41,213.27a6.34,6.34,0,1,1-6.33,6.34A6.33,6.33,0,0,1,433.41,213.27Z" fill="#4e53ba"/><path d="M433.41,116.58a6.34,6.34,0,1,1-6.33,6.33A6.33,6.33,0,0,1,433.41,116.58Z" fill="#4e53ba"/><path d="M433.41,163.64a6.34,6.34,0,1,1-6.33,6.33A6.32,6.32,0,0,1,433.41,163.64Z" fill="#ff7a82"/><g clip-path="url(#clip-path)"><path d="M252.66,510.63l-1.89,25.51c-.35,5.65,6.16,10.27,11.63,9.91,6.69-.35,10.27-5.29,10.63-11.12l1.89-25.52c.5-5.65-6.15-10.27-11.63-9.91C256.6,499.82,253,504.8,252.66,510.63Z" fill="#fcb58a"/><path d="M334.14,513.2l3.94,25.34c.86,5.65,8.38,8.55,13.7,7,6.34-1.89,8.73-7.52,7.88-13.35l-3.94-25.33c-.86-5.65-8.38-8.55-13.7-7-6.51,2-8.73,7.7-7.88,13.35Z" fill="#fcb58a"/><path d="M251,239.46c-9.41,16.61-15.24,33.57-15.75,52.72-.5,18,3.44,35.78,19.18,46.55,10.45,7.19,21-9.23,10.63-16.42s-10.78-21.05-10.1-32.71c.86-14.38,5.3-27.05,12.49-39.54,6.13-10.92-10.12-21.55-16.45-10.6Z" fill="#fcb58a"/><path d="M331.75,248.73c8.73,11.3,15.06,23.11,18,37.32,2.4,12,3.26,23.29-6.69,32.17-9.23,8.55,3.58,23.29,12.85,14.71a47.37,47.37,0,0,0,13.35-20.54c2.57-8.91,1.89-17.64.35-26.7-3.25-19-11.31-34.92-23.11-50-7.7-9.77-22.59,3.07-14.71,13Z" fill="#fcb58a"/><path d="M355,232.27s-9.92-70-13.17-82.84c-5.15-19.68-19.18-31.49-39-31.49-20.18,0-34.24,12-39.72,31.67-5.65,20.18-13.17,81.12-13.17,81.12a5.08,5.08,0,0,0,3.26,6.51c6.33,2.4,19.68,6.69,49.63,6.34,26.7-.36,40.58-3.94,47.41-4.62a5.38,5.38,0,0,0,5-5.65A3.3,3.3,0,0,0,355,232.27Z" fill="#ff5856"/><path d="M291.85,186.93H313.6v37.14a5.71,5.71,0,0,1-5.65,5.66H297.5a5.72,5.72,0,0,1-5.65-5.66V186.93Z" fill="#fcb58a"/><circle cx="302.8" cy="158.84" r="36.11" transform="translate(-23.63 260.64) rotate(-45)" fill="#fcb58a"/><path d="M266,157.48a5.67,5.67,0,0,0,.18,1.72v.18a7.23,7.23,0,0,0,.36,1.89h0c.17.68.17,1.36.35,2A22.88,22.88,0,0,1,289,146a31,31,0,0,1,3.94.35,16.19,16.19,0,0,0,2.9.36,13.14,13.14,0,0,0,13-11.63h0a7.83,7.83,0,0,0-.18,2A13.8,13.8,0,0,0,322.51,151h0a21.05,21.05,0,0,1,15.75,14.21h0a24.07,24.07,0,0,0,1-5v-.18a7.83,7.83,0,0,0,.18-2v-5.45a3.12,3.12,0,0,0-.18-1.36c-.17-.36,0-.36-.17-.68a3.21,3.21,0,0,1-.18-1.36l-.18-.68c-.18-.51-.18-.86-.35-1.37s-.18-.35-.18-.5l-.36-1.36c0-.18-.17-.36-.17-.5-.18-.51-.36-1-.51-1.37,0-.17,0-.17-.18-.35-.17-.5-.35-1-.5-1.54v-.18c-.18-.5-.5-1.18-.68-1.71h0a38.21,38.21,0,0,0-14.71-16.1h0a30.1,30.1,0,0,0-6.33-2.9h-.18a7,7,0,0,1-1.89-.69h-.36a38.56,38.56,0,0,0-4.44-.85h-.5l-1.72-.18h-2.9A36.73,36.73,0,0,0,266,155.68v1.8Z" fill="#ff5856"/><path d="M337.9,218.78a70.57,70.57,0,0,0-24.3-8.05c-1.36,6-4.44,9.23-11.3,9.23s-9.24-3.43-10.45-9.59a40.44,40.44,0,0,0-6.69,1.19c-12.49,2.39-17.46,5.65-23.62,10.27-9.59,7.19-19,22.07-21,25.51a1,1,0,0,0,0,1.36,31.27,31.27,0,0,0,8.55,9.08,56.76,56.76,0,0,0,13.53,6.34s2.9-5.48,3.94-7.52c1.18-2.75,4.29-12,4.29-12a38.69,38.69,0,0,0-3.08,12.49c-.18,5.83,1.89,12.32,1.72,16.25a89.14,89.14,0,0,1-3.94,20,1.56,1.56,0,0,0,1,1.89h0a157.73,157.73,0,0,0,33.56,4.3,231.62,231.62,0,0,0,36.28-2.76,1.4,1.4,0,0,0,1.19-1.71v-.18a127.74,127.74,0,0,1-3.26-19.51c-1-8.9,0-10.62,0-17.1a132.27,132.27,0,0,0-1.89-14l1.89,17.82a39.75,39.75,0,0,0,15.92-3.76,40.51,40.51,0,0,0,9.09-6.84,1.62,1.62,0,0,0,.36-1.89C357.41,244.61,346.81,224.07,337.9,218.78Z" fill="#868ae0"/><path d="M291.85,193.26v-6.33H313.6v6.33a35.71,35.71,0,0,0,25-32,36,36,0,0,0-71.92,0A36.29,36.29,0,0,0,291.85,193.26Z" fill="none"/><path d="M302.8,195a33.44,33.44,0,0,1-10.95-1.72V200a26.22,26.22,0,0,0,10.95.68,29.54,29.54,0,0,0,10.77-2.9v-4.61A34.28,34.28,0,0,1,302.8,195Z" fill="#e3996d"/><path d="M271.84,296.32A218.66,218.66,0,0,0,302,299.4c13.17,0,29.45-1.9,29.45-1.9s1.36,9.41,2,11.49-10.77,6.15-31,5.65c-26.52-.5-32.86-4.29-32.71-5.3C269.59,308.45,271.84,296.32,271.84,296.32Z" fill="#fcb58a"/><path d="M340,315c16.43,32.7,24.15,53.24,28.59,96.89,3.76,36.79-1,86.1-1.71,114.19a4,4,0,0,1-.68,2.39c-1.36,2-9.92,3.94-12.32,4.12-11.8.86-22.93-.86-24-5.15a689.63,689.63,0,0,1-14.2-76.69c-2.76-21.39-6.16-45.37-7.88-62.83a1.18,1.18,0,0,0-2.36,0h0c-.36,2.9-.69,19.36-1.19,24.3-1.18,13.85-3.43,27.38-5.83,41.08-3.58,21.75-12,52.39-18.32,73.1a5.09,5.09,0,0,1-3.43,3.58,67.66,67.66,0,0,1-13.17.68c-5.3-.35-16.43-2-17.11-4.61-8-33.56-8.38-97.91,3.43-165a158.21,158.21,0,0,1,15.07-44.52,233.14,233.14,0,0,0,36.46,3.76A161.31,161.31,0,0,0,340,315Z" fill="#ffadb2"/><path d="M269.59,309.13a5.48,5.48,0,0,0-3.25,2.58,12.2,12.2,0,0,0-1.54,4.79s13.7,4.12,39.72,4.8c25.15.68,35.42-6.33,35.42-6.33a7.33,7.33,0,0,0-3.07-4.12c-2.05-1.18-3.58-2-3.58-2s-7.88,7-31.85,5.3S269.59,309.13,269.59,309.13Z" fill="#ffadb2"/><path d="M260.36,539.54a30,30,0,0,0,12.31-2.22,47.68,47.68,0,0,1,3.58,9.92c.51,3.43,2.4,14.71-.35,17-2.58,2.22-2.22,1.71-5.83,3.25-5.15,2.22-7.19,1-14.21,4.62-2.57,1.36-13.7,11.63-25,12.67-9.41.86-12-3.76-13.17-6.34-1-2.57.86-7.37,7.52-12.31a119.26,119.26,0,0,0,18-17,53.69,53.69,0,0,0,7.2-13C250.59,536.14,252.49,539.37,260.36,539.54Z" fill="#c7645d"/><path d="M350.07,540.4a26.14,26.14,0,0,1-12-2.4,29.64,29.64,0,0,0-4.44,11.31c-.68,3.43-1.89,13.53.86,15.57s2.22,1.71,5.83,3.25c5.15,2,7.19,1,14.21,4.62,2.57,1.36,13.7,11.81,25,12.67,6.83.5,12-3.76,13-6.34s1.18-7.69-7.19-13.34S367,551.17,365.66,548.63c-1.89-3.76-6-12-6-12S357.76,540.22,350.07,540.4Z" fill="#c7645d"/><path d="M332.78,244.11s1.36,7.87,1.54,11.81v6.16a20.76,20.76,0,0,0,2.75-.18c1-.18,1.9-.36,1.9-.36s-1-3.58-2.22-7C335.68,251.27,332.78,244.11,332.78,244.11Z" fill="#4e53ba"/><path d="M271.31,243.58s-1.89,5.47-2.75,9.08a30.09,30.09,0,0,0-.51,5.66,49.88,49.88,0,0,1-1.89,5.65,1.09,1.09,0,0,1-1,.68,26.06,26.06,0,0,1-2.75-.68,8.75,8.75,0,0,0-2-.68c.36.18,3.08-4.29,5.15-7.87C267.05,252.13,271.31,243.58,271.31,243.58Z" fill="#4e53ba"/><path d="M334,316.33c12.16,24.15,19.5,50.31,23.61,77,4.3,28.23,4.62,56.82,3.26,85.23-.86,16.43-2,32.86-3.76,49.13-.18,1.9,2.75,1.9,2.9,0,2.75-29.44,5-58.89,4.29-88.31-.68-27.56-3.93-55.11-11.48-81.84A234.21,234.21,0,0,0,336.36,315a1.38,1.38,0,1,0-2.39,1.36Z" fill="#fff"/><path d="M267.73,317c-10.63,24.47-16.43,50.67-19.68,77a597.3,597.3,0,0,0-3.76,82,463.35,463.35,0,0,0,2.9,48.45c.18,1.89,3.08,1.89,2.9,0-3.26-28.24-3.43-56.65-2.4-84.91.86-26.37,3.26-52.89,9.09-78.73a243.47,243.47,0,0,1,13.7-42.44c.51-1.72-1.89-3.08-2.75-1.39Z" fill="#fff"/><path d="M302,299.4a223.9,223.9,0,0,1-30.13-3.08s-.17,1.36-.5,3.26A98,98,0,0,0,302.15,303a99.59,99.59,0,0,0,29.09-5.3l.36-.18h0A272,272,0,0,1,302,299.4Z" fill="#f0a173"/></g><path d="M200.78,78.73h302.3a5,5,0,0,1,5,5h0v8.37H195.84V83.7a5,5,0,0,1,4.94-5Z" fill="#868ae0"/><g clip-path="url(#clip-path-2)"><path d="M156.45,269.59l-1-.17a5.3,5.3,0,0,0-6,3.25l-7.19,20a1.48,1.48,0,0,0-.18.86,16.19,16.19,0,0,0,8.56,3.76,17.5,17.5,0,0,0,8.37-.51c0-.17.18-.5.18-.68l1.72-21.22A5.67,5.67,0,0,0,156.45,269.59Z" fill="#d7d7e6"/><path d="M156.8,239.14a1.74,1.74,0,0,1,2.4-.68,1.4,1.4,0,0,1,.68.68c1,2.22,2.57,5,3.58,6.84a25.75,25.75,0,0,1,1.9,14.71,33.53,33.53,0,0,1-5.3,10.44,1.62,1.62,0,0,1-.86.68,10.7,10.7,0,0,1-5.15.18c-3.26-.86-3.76-2.9-3.76-2.9a46,46,0,0,1-1.54-11.81,26.64,26.64,0,0,1,3.76-11.13A48.39,48.39,0,0,0,156.8,239.14Z" fill="#c7645d"/><path d="M129.75,373.33l12.16-78.4a2.88,2.88,0,0,1,.36-1.19,18.15,18.15,0,0,0,16.6,3.26c0,.5-.17,1-.17,1.36l-18.65,77.19a5,5,0,0,1-6,3.94A5.6,5.6,0,0,1,129.75,373.33Z" fill="#2b31ba"/><rect x="103.41" y="232.99" width="24.66" height="149.29" transform="translate(-22.06 9.23) rotate(-4.17)" fill="#dadaed"/><rect x="99.45" y="253.71" width="8.38" height="1.72" transform="translate(-18.23 8.21) rotate(-4.17)" fill="#989bd7"/><rect x="99.98" y="271.17" width="8.38" height="1.72" transform="translate(-18.74 7.94) rotate(-4)" fill="#989bd7"/><rect x="101.16" y="287.96" width="8.38" height="1.72" transform="translate(-19.91 8.06) rotate(-4)" fill="#989bd7"/><rect x="103.06" y="303.7" width="8.38" height="1.72" transform="translate(-21.86 8.6) rotate(-4.17)" fill="#989bd7"/><rect x="104.24" y="320.31" width="8.38" height="1.72" transform="translate(-23.06 8.73) rotate(-4.17)" fill="#989bd7"/><rect x="105.45" y="337.09" width="8.38" height="1.72" transform="matrix(1, -0.07, 0.07, 1, -24.28, 8.87)" fill="#989bd7"/><rect x="106.82" y="353.69" width="8.38" height="1.72" transform="translate(-25.48 9.01) rotate(-4.17)" fill="#989bd7"/><rect x="92.07" y="283.79" width="15.92" height="119.48" transform="translate(-57.73 22.39) rotate(-9.93)" fill="#ffadb2"/><polygon points="97.58 283.48 81.83 286.2 84.23 263.62 87.64 263.11 97.58 283.48" fill="#ebdbcd"/><polygon points="85.24 274.06 87.49 272.52 89.35 272.67 91.57 271.49 87.64 263.11 84.23 263.62 83.37 272.67 85.24 274.06" fill="#ff7a82"/><path d="M86.63,325.41h68.46a2.87,2.87,0,0,1,2.9,2.9v.36l-9.09,73.1a6.69,6.69,0,0,1-6.69,6H99.12a6.7,6.7,0,0,1-6.69-6l-8.91-73.1a3,3,0,0,1,2.58-3.26A.33.33,0,0,0,86.63,325.41Z" fill="#ff7a82"/><path d="M8.23,410.47H163.49a16.52,16.52,0,0,1,16.6,16.61h0v1a16.52,16.52,0,0,1-16.6,16.61H8.23V410.47Z" fill="#f8e7d8"/><path d="M273.53,407.93H1.18A1.15,1.15,0,0,0,0,409.11H0a1.15,1.15,0,0,0,1.18,1.19h161.6a17.15,17.15,0,0,1,17.11,17.1h0a17.16,17.16,0,0,1-17.11,17.11H1.18A1.15,1.15,0,0,0,0,445.69H0a1.15,1.15,0,0,0,1.18,1.19H273.53a17.16,17.16,0,0,0,17.11-17.11h0v-5a17.07,17.07,0,0,0-17.11-16.87Z" fill="#110580"/><path d="M132.5,437.2H8.23v-1.54H132.5a.82.82,0,0,1,.86.86h0a1,1,0,0,1-.86.68Z" fill="#debca7"/><path d="M146,420.24H8.23V418.7H146a.83.83,0,0,1,.86.86h0a.81.81,0,0,1-.86.68Z" fill="#debca7"/><path d="M161.24,428.29H8.2v-1.54h153a.83.83,0,0,1,.86.86h0a.79.79,0,0,1-.86.68Z" fill="#debca7"/></g><g clip-path="url(#clip-path-2)"><path d="M607.85,451.73c-22.76-3.43-45.7-7.19-68.13-12-42.44-8.9-53.57,57.36-11.48,66.24,9.91,2,20,4.11,30,6A291.56,291.56,0,0,0,607.85,451.73Z" fill="#fcb58a"/><path d="M478.78,436.16c22.44.86,41.44,12.49,59.58,25.16,13,9.09,25.84-11.31,12.84-20.36-21.57-15.07-44.83-27.91-71.38-28.92-15.75-.89-16.78,23.44-1,24.12Z" fill="#fcb58a"/><path d="M518.14,509.77l-28.59-.18c-18.14-.18-33.2-15.74-33.56-34.57l-.18-6.51c-.35-18.82,14-34.24,32.18-34.06l28.59.17c18,.18,33.2,15.75,33.56,34.57l.18,6.51C550.67,494.53,536.29,510,518.14,509.77Z" fill="#fcb58a"/><path d="M411.33,545.2H379.49a40.78,40.78,0,0,1-40.76-38.51l-5.09-93.82a6.13,6.13,0,0,1,5.65-6.51H450.75a6.13,6.13,0,0,1,6.16,6.16v.35l-5.15,93.79A40.39,40.39,0,0,1,411.33,545.2Z" fill="#ff5856"/><path d="M456,427.61,455.16,442a28.77,28.77,0,0,1-3.43,56.83l-.86,14.38A43.08,43.08,0,0,0,456,427.61Z" fill="#ff5856"/><path d="M403.64,384.46s-27.23-25.16-26.37-43.66c1.36-28.23,26.69-39,17.1-65.73-4.61-12.67-23.62-53.57-23.62-53.57s31.5,31.16,42.62,50.31c10.1,17.47,8.91,45-2,58.19C387.39,359,403.64,384.46,403.64,384.46Z" fill="#dcdced"/><path d="M491.8,434.8h0A22.94,22.94,0,0,1,513.38,459h0l-1.72,29.1a22.94,22.94,0,0,1-24.15,21.57h0a27.43,27.43,0,0,1-25.84-29.09l1.19-19.68A27.54,27.54,0,0,1,491.8,434.8Z" fill="#f0a173"/><path d="M487.19,433.59h0a22.93,22.93,0,0,1,21.57,24.12h0l-1.71,29.09a23,23,0,0,1-24.15,21.58h0a27.42,27.42,0,0,1-25.84-29.1h0l1.18-19.68a27.32,27.32,0,0,1,28.95-26Z" fill="#fcb58a"/></g></g></g></g></g></g></svg>