<svg xmlns="http://www.w3.org/2000/svg" viewBox="0 0 638.54 668.47"><title>Thinking</title><g id="Layer_2" data-name="Layer 2"><g id="illustrations"><g id="girl-sitiing-on-table-conducting-an-interview-by-oblik-studio"><path d="M460.39,575.35H399.1a3.65,3.65,0,0,1-3.65-3.66v-2.87a3.65,3.65,0,0,1,3.65-3.66h61.29a3.65,3.65,0,0,1,3.65,3.66v2.87A3.73,3.73,0,0,1,460.39,575.35Z" fill="#b7b7c4"/><path d="M439.15,402.68H420.27V565.15h18.88Z" fill="#735639"/><path d="M446.21,126.26l16.46-1.57L466,157.1a40.56,40.56,0,0,1-9.47,1.83c-4.9.26-9.47,0-9.47,0Z" fill="#0c0454"/><path d="M383.82,78.25c-5.42,11.23-17.38,59.91-17.38,59.91a2.42,2.42,0,0,0,1,2.87c3.14,2.16,10.52,9,24.89,13.59,7,2.22,24.11,5.1,31.95,4.51a4.17,4.17,0,0,0,2.48-1.37l8-111.59C401,44.47,387,71.65,383.82,78.25Z" fill="#110580"/><path d="M397,141c-5.49,0-9.87-7.71-9.87-17.51S391.4,106,397,106s9.86,7.71,9.86,17.51S402.44,141,397,141Zm0-32.6c-4.05,0-7.45,6.93-7.45,15.16s3.4,15.16,7.45,15.16,7.45-6.93,7.45-15.16S401,108.43,397,108.43Z" fill="#fff"/><path d="M434.91,144.43c28,0,50.76-21.44,50.76-47.89s-22.73-47.89-50.76-47.89-50.76,21.44-50.76,47.89S406.87,144.43,434.91,144.43Z" fill="#fcb58a"/><path d="M457.32,139.46c-.79-19-1.77-43.05-1.77-43.77,0,0-10.71-2.88-16.85-8.62a21,21,0,0,1-4.18-5.43A20.52,20.52,0,0,0,439,90.2c5.49,6.34,13.85,10.85,13.85,10.85-.06.65.66,22-.39,40.37C454.18,140.83,455.75,140.18,457.32,139.46Z" fill="#e3996d"/><path d="M570.67,450.83c-27.11,0-49.06,1-49.19,2.15.13,1.18,22.08,2.16,49.19,2.16s49.06-1,49.19-2.16C619.73,451.74,597.78,450.83,570.67,450.83Zm1.11,3.72c-20.32,0-36.78-.72-36.78-1.64s16.46-1.63,36.78-1.63,36.78.72,36.78,1.63S592.1,454.55,571.78,454.55Z" fill="#e8d4c1"/><path d="M570.67,450.83c-27.18,0-49.19,1-49.19,2.15s22,2.16,49.19,2.16,49.19-1,49.19-2.16S597.85,450.83,570.67,450.83Zm1.11,3.72c-20.32,0-36.78-.72-36.78-1.64s16.46-1.63,36.78-1.63,36.78.72,36.78,1.63S592.1,454.55,571.78,454.55Z" fill="#e8d4c1"/><path d="M571.78,454.55c20.31,0,36.78-.73,36.78-1.64s-16.47-1.63-36.78-1.63S535,452,535,452.91,551.47,454.55,571.78,454.55Z" fill="#ba9c7e"/><path d="M598.82,265.61a337.63,337.63,0,0,0-22.28,78,347.57,347.57,0,0,0-3.33,81.07,338.48,338.48,0,0,0,6.6,45.08c.59,2.68,4.71,1.57,4.12-1.11a337.62,337.62,0,0,1,4.24-159.14,331.33,331.33,0,0,1,14.77-42.8,2.1,2.1,0,0,0-1.5-2.61A2.19,2.19,0,0,0,598.82,265.61Z" fill="#4c7378"/><path d="M600.2,378.64a205.13,205.13,0,0,0-18.82,93.42c.13,2.74,4.38,2.74,4.25,0a201.17,201.17,0,0,1,10.52-72,187.83,187.83,0,0,1,7.71-19.27C605,378.31,601.38,376.15,600.2,378.64Z" fill="#4c7378"/><path d="M546.62,271.23a534.48,534.48,0,0,1,15,70.76c3.52,23.84,5.81,47.88,7.64,71.86,1.05,13.59,2,27.24,2.81,40.9.2,2.74,4.44,2.74,4.25,0-1.57-24.24-3.2-48.54-5.56-72.72s-5.55-48.21-10.32-72c-2.68-13.46-5.88-26.79-9.73-40C550,267.44,545.9,268.55,546.62,271.23Z" fill="#4c7378"/><path d="M521.73,340.88c5.82,5.94,9.41,13.52,12.55,21.1a270.58,270.58,0,0,1,9.14,25.61,288.49,288.49,0,0,1,12.68,82.84c0,2.74,4.24,2.74,4.24,0a296.93,296.93,0,0,0-5.55-54.88A287.17,287.17,0,0,0,539,362.7c-3.59-8.89-7.51-17.84-14.37-24.76C522.78,335.91,519.77,338.92,521.73,340.88Z" fill="#4c7378"/><path d="M551.07,425.28a26.58,26.58,0,0,0-10.33-7.78c-3.26-1.3-5.87-1.3-6.66-.45s-.59,3.39.52,6.53a35.43,35.43,0,0,0,5.82,10.32,33.3,33.3,0,0,0,9.08,7.71c2.87,1.7,5.36,2.42,6.07,2,.92-.59,1.44-3.14.85-6.6A25.16,25.16,0,0,0,551.07,425.28Z" fill="#4c7378"/><path d="M564.53,396.47c2.61-12.8.2-24-2.22-24.43s-8.63,9.08-11.17,21.69.06,23.91,1.76,24.3C555.06,418.55,561.92,409.28,564.53,396.47Z" fill="#689399"/><path d="M553,417.92c2.65-2.7-3.71-13.26-14.21-23.57S517.62,377.86,515,380.56s3.71,13.26,14.21,23.57S550.34,420.62,553,417.92Z" fill="#4c7378"/><path d="M572.5,433.19A88,88,0,0,0,574.65,418a70.81,70.81,0,0,0-.32-12.55c-.85-7.18-2.55-11.5-3.73-11.5s-2.94,4.19-4.9,10.78c-1,3.27-2.09,7.19-3.13,11.44s-2.29,8.95-3.4,13.91-2.16,9.67-3,14-1.56,8.36-2.15,11.76c-1.11,6.8-1.37,11.37-.59,11.76,1,.46,4.44-2.68,8.36-8.69a77.69,77.69,0,0,0,5.88-11.1A85.23,85.23,0,0,0,572.5,433.19Z" fill="#57848a"/><path d="M600.33,438.54a108.34,108.34,0,0,0,8.75-19.47c1.77-5.36,2.22-9.08,1.18-9.8s-4.31,1.24-8.49,5.1a75.16,75.16,0,0,0-13.4,17.31,71.91,71.91,0,0,0-7.77,20.51,35,35,0,0,0-.85,6.86,4,4,0,0,0,.2,2.09,1.35,1.35,0,0,0,.32.53,1.48,1.48,0,0,0,.66.45,1.15,1.15,0,0,0,1-.13c.39-.26.65-.72.52-1s-.33-.2-.39-.2-.13.07-.2.13.07,0,0,0a.2.2,0,0,1-.13-.06.84.84,0,0,1-.13-.2V461l.26-.2h.07a2.51,2.51,0,0,1,.91.07h.26a.24.24,0,0,0,.2-.07,33.42,33.42,0,0,0,4.83-4.83A102.18,102.18,0,0,0,600.33,438.54Z" fill="#57848a"/><path d="M589.48,406.13a89.6,89.6,0,0,0-5.62-22.73c-2.28-5.62-4.5-9-5.75-8.82s-2.28,4.05-2.87,10.06a117.13,117.13,0,0,0,.52,23A120.48,120.48,0,0,0,577.85,420c.85,3.78,1.77,7.05,2.42,9.79s1.24,5,1.7,6.67.78,2.74,1.24,2.81,1.5-.53,2.55-2.09a24.68,24.68,0,0,0,2.94-7.25A54.66,54.66,0,0,0,590,419,87.42,87.42,0,0,0,589.48,406.13Z" fill="#4c7378"/><path d="M533,362.3a56,56,0,0,0-15.61-10.65c-4.57-2-7.9-2.48-8.69-1.5s.46,4.05,3.07,8.1a81.66,81.66,0,0,0,11.7,13.91,77,77,0,0,0,14.63,10.92c4.25,2.41,7.45,3.46,8.1,2.87.85-.72.2-4.05-2-8.56A52.87,52.87,0,0,0,533,362.3Z" fill="#689399"/><path d="M525.07,327.61c-6.27-11.17-15.49-17.64-17.58-16.33s-.46,12.22,5.62,23.06,15.16,17.58,16.79,16.79C531.86,350.09,531.34,338.78,525.07,327.61Z" fill="#4c7378"/><path d="M548.39,349a48.92,48.92,0,0,0-6.53-18.49c-2.75-4.37-5.42-6.59-6.53-6.14s-1.7,3.73-1.77,8.56a120.37,120.37,0,0,0,1.24,18,115.51,115.51,0,0,0,4,17.64c1.5,4.64,3,7.71,3.85,7.71,1.11.07,3-2.81,4.51-7.71A46.53,46.53,0,0,0,548.39,349Z" fill="#57848a"/><path d="M618.36,390.92a95.22,95.22,0,0,0,15.16-12.74c3.59-3.79,5.55-6.8,4.9-7.91s-4.18-1-9.34.46a64.73,64.73,0,0,0-18.49,8.82,63.18,63.18,0,0,0-14.77,14.24c-3.13,4.38-4.44,7.71-3.92,8.43.72.85,4.25.13,9.08-1.83A88.43,88.43,0,0,0,618.36,390.92Z" fill="#689399"/><path d="M622.15,357.53A90.84,90.84,0,0,0,630,332.64c1-6.73.58-11.1-.53-11.49s-4,2.94-7.57,8.42a202.36,202.36,0,0,0-12.09,22A178.4,178.4,0,0,0,600.52,375c-2,6.27-2.74,10.58-2,11.1s4.58-1.89,9.21-6.86A91.23,91.23,0,0,0,622.15,357.53Z" fill="#4c7378"/><path d="M610.12,359.59c3-16.19,2.31-29.86-1.41-30.54s-9.14,11.89-12.09,28.08S594.31,387,598,387.67,607.17,375.78,610.12,359.59Z" fill="#689399"/><path d="M614.31,250.59a126.72,126.72,0,0,0,7.84-21.17c1.5-5.75,1.76-9.67.72-10.32s-4.31,1.7-8.36,6.2a82,82,0,0,0-12.61,19.41,78.88,78.88,0,0,0-6.73,22.14c-.85,6-.53,10,.32,10.33,1,.39,3.92-2.35,7.45-7.12A125.1,125.1,0,0,0,614.31,250.59Z" fill="#689399"/><path d="M603.79,250.58a116.69,116.69,0,0,0-.46-21.36c-.71-5.55-1.89-9.21-3.07-9.41s-3.4,2.94-5.48,8.3a74.36,74.36,0,0,0-4.64,21.5,70.55,70.55,0,0,0,2,21.95c1.43,5.55,3.26,8.95,4.18,8.95,1.11,0,2.74-3.47,4.18-8.89A111.37,111.37,0,0,0,603.79,250.58Z" fill="#4c7378"/><path d="M613.66,289.85a80,80,0,0,0,6.14-12,67.57,67.57,0,0,0,3.26-10.58c1.31-6.21,1-10.32-.12-10.78s-4,2.42-7.78,7.19c-1.83,2.35-4,5.22-6.21,8.43s-4.57,6.66-6.92,10.45-4.51,7.38-6.4,10.78-3.53,6.53-4.84,9.27c-2.61,5.49-4,9.35-3.26,9.94s4.63-.79,9.73-4.58a57.74,57.74,0,0,0,8.17-7.45A71.56,71.56,0,0,0,613.66,289.85Z" fill="#689399"/><path d="M582.88,284.56c-.78-4.12-1.56-8-2.35-11.43-.32-1.77-.78-3.4-1.11-5-.2-.78-.39-1.5-.52-2.28s-.33-1.44-.46-2.1c-1.24-5.35-2.22-9.08-3.53-9.27-1.11-.2-3.52,3-5.16,9.08-.19.72-.39,1.57-.59,2.35s-.26,1.7-.39,2.55a51.65,51.65,0,0,0-.45,5.68,68.06,68.06,0,0,0,1,12.81,81,81,0,0,0,7.45,21.36c2.68,5.16,5,8.3,5.81,8.17,1.11-.2,2.16-4,2.35-9.93A101.51,101.51,0,0,0,582.88,284.56Z" fill="#4c7378"/><path d="M602.55,329.05a67,67,0,0,0,9.67-18.82c1.63-5.29,1.83-9,.72-9.6s-4.12,1.37-8.1,5A108.62,108.62,0,0,0,591.38,321a95.22,95.22,0,0,0-10.26,17.71c-2.22,5-3.07,8.49-2.42,9.08.85.72,4.32-.59,8.83-3.72A65.41,65.41,0,0,0,602.55,329.05Z" fill="#57848a"/><path d="M549.44,258.42A69.85,69.85,0,0,0,536.5,239.8c-4.12-4.18-7.38-6.2-8.43-5.61s-.65,4.44,1,10a141.22,141.22,0,0,0,8,20.06c1.77,3.72,3.53,7.12,5.16,10.26.79,1.56,1.64,3.07,2.42,4.44s1.5,2.74,2.16,3.92c2.74,4.83,4.76,8,5.68,7.9s2.42-3.85,2.42-9.93a32.7,32.7,0,0,0-.33-4.9,47.84,47.84,0,0,0-1-5.55A55.34,55.34,0,0,0,549.44,258.42Z" fill="#4c7378"/><path d="M549.11,288.15c-9.61-12.08-21.17-18.55-23-16.92s2.94,13.72,12.28,25.48,20.58,18.69,22,17.64C562.24,313.11,558.71,300.24,549.11,288.15Z" fill="#4c7378"/><path d="M554.33,315.26a47.87,47.87,0,0,0-11.17-8.75c-3.4-1.9-6.07-2.61-7.06-1.9s-.91,3.6.4,7.39a35.69,35.69,0,0,0,8,12.74A35.17,35.17,0,0,0,557,333c3.79,1.38,6.67,1.51,7.25.85.72-.85.07-3.59-1.63-7.05A46.39,46.39,0,0,0,554.33,315.26Z" fill="#689399"/><path d="M561.78,351.66A184.25,184.25,0,0,0,549,331.4c-3.73-5-6.67-8-7.65-7.64s-.78,4.25.72,10.19a97.85,97.85,0,0,0,9,22.28,99.65,99.65,0,0,0,14.44,19.92c4.44,4.71,7.9,7.26,8.56,6.93.85-.46,0-4.25-2.16-10A174.84,174.84,0,0,0,561.78,351.66Z" fill="#689399"/><path d="M582.43,362.82a35.82,35.82,0,0,0-3.14-15.22c-1.76-3.72-3.86-5.81-5.1-5.62s-2.48,2.75-3.53,6.47a56.53,56.53,0,0,0-1.95,14.11,55.3,55.3,0,0,0,1.69,14.18c1,3.79,2.23,6.4,3.14,6.53,1.11.2,3.2-1.76,5.16-5.42A33,33,0,0,0,582.43,362.82Z" fill="#4c7378"/><path d="M587.78,384.52a39.32,39.32,0,0,0,3.6-16.93c-.2-4.57-1.38-7.44-2.55-7.71s-3.33,1.9-5.82,5.36a83.79,83.79,0,0,0-7.7,13.59,74.92,74.92,0,0,0-5,14.83c-1,4.18-1.17,7.25-.45,7.77s3.85-.32,7.44-3.19A38.73,38.73,0,0,0,587.78,384.52Z" fill="#689399"/><path d="M570,278.48a94.31,94.31,0,0,0-2.55-25.09c-1.57-6.4-3.53-10.19-4.77-10.12s-2.68,4-3.92,10.39a153.61,153.61,0,0,0-2.55,24.49,148.79,148.79,0,0,0,1.38,24.63c1,6.41,2.22,10.46,3.13,10.59,1.11.13,3.27-3.6,5.23-9.87A92.58,92.58,0,0,0,570,278.48Z" fill="#689399"/><path d="M619.86,453c-.13,1.18-22.08,2.16-49.19,2.16s-49.07-1-49.2-2.16v.46l8.3,87.74,1.37,14.7c.07,2.61,17.71,4.7,39.46,4.7s39.46-2.09,39.46-4.7l.26-3.07v-.2l.66-6.79,8.75-92.38A.63.63,0,0,0,619.86,453Z" fill="#dec7b2"/><path d="M613.72,518.18l.39-3.92a.89.89,0,0,1-.46.13l-44.22,16.47c-8.5,3.13-17,6.34-25.42,9.47a1.78,1.78,0,0,0-.78,2.94c7.84,7.91,19.6,8.17,29.79,10.91a32.29,32.29,0,0,1,9.14,3.79h5.62c-6.53-6.34-16.46-7.84-25.34-9.73-5.1-1.12-10.33-2.49-14.51-5.62,14.7-5.49,29.34-10.91,44-16.4Q602.85,522.29,613.72,518.18Z" fill="#ebdbcd"/><path d="M575.3,483.23c14.25-4,28.55-7.9,42.79-11.82l.66-7.06q-45.57,1-91.14,4.12c-1.57.13-3.14.19-4.7.32l.33,3.53c26.26-1.83,52.59-3.2,78.85-4l15.15-.39c-13.26,3.66-26.52,7.26-39.78,11-16.66,4.64-33.26,9.6-48.93,16.92l-2.94,1.37L526,501c.78-.39,1.63-.78,2.42-1.18C543.42,492.64,559.36,487.67,575.3,483.23Z" fill="#ebdbcd"/><path d="M538.85,513.61c16.72-.26,33.19-3.79,49.46-7.39,9-2,18-4.05,27-5.62l.33-3.59c-22.15,3.92-44,10.52-66.38,12.55a129.71,129.71,0,0,1-22.47.13l.33,3.59C531.08,513.54,534.93,513.67,538.85,513.61Z" fill="#ebdbcd"/><path d="M608.63,452.92c0,.91-16.47,1.63-36.79,1.63s-36.78-.72-36.78-1.63H521.61V453c.13,1.18,22.08,2.16,49.19,2.16s49.06-1,49.19-2.16v-.06Z" fill="#e8d4c1"/><path d="M372.52,210.22c-5.3,19.53-10.46,39.46-19.54,57.62-2.42,4.83-6.79,17.12-13.65,16.66A19,19,0,0,1,324,273.85c-2.88-5.75-11.05-7.38-16.34-4.31-5.88,3.46-7.18,10.58-4.31,16.33,5.36,10.78,15.81,18.16,27.31,21.17,15.35,4,27.5-2.29,36.06-15,15-22.34,21.89-49.85,28.88-75.46C399.63,201.66,376.57,195.32,372.52,210.22Z" fill="#f0a173"/><path d="M377.15,476.11c1.57,9.28,3.53,18.49,5.82,27.64,4.11,16.13,30.44,9.28,26.33-6.86-2.35-9.15-4.25-18.36-5.82-27.64-1.17-6.86-10.25-10.71-16.79-9C378.92,462.26,376,469.19,377.15,476.11Z" fill="#e3996d"/><path d="M470.38,286.46s7.84,19.46,7.84,21.23-36.26,6.86-51.09,6c-11.43-.66-37.43-4.77-35.93-7.25s9.28-21.89,9.28-21.89,18.94,4.77,34.23,4.31S470.38,286.46,470.38,286.46Z" fill="#e3996d"/><path d="M391.14,306.45s10.51,3.46,16.59,4.31c25.94,3.72,42.73,1.57,42.73,1.57S373.5,354.47,371,360s21.75,24.5,28.87,45.87c6.34,19,10.59,66.31,11.44,76.5a2.86,2.86,0,0,1-1.7,2.87,66.06,66.06,0,0,1-15.48,4.64c-11.5,2.09-18.95,4.18-19.15,1.57S332,409.54,330.44,406.93s-26.06-40.84-27.11-50.57C300.26,327.09,391.14,306.45,391.14,306.45Z" fill="#ff8a91"/><path d="M417.92,165.6s-20.77,4.18-30,11.89c-8.23,6.92-23.25,36.19-26.39,42.46a1.89,1.89,0,0,0,.33,2.16c2,2,7,6.66,11.56,9,5.88,3.07,17.64,5.43,17.64,5.43l2.68-17.77s-6.47,11.75-2.16,24.43a107.41,107.41,0,0,1,4.77,22.08c.2,2.74-.39,18.29-.39,18.29a203.6,203.6,0,0,0,32.86,5.3c17,1.17,45.93-4.32,45.93-4.32s-1.44-36.06-.52-42.59a49.57,49.57,0,0,0-2-22.61l5,19.86s17.12,2.16,20.38.46,8.56-6.27,10.91-8.3a2.51,2.51,0,0,0,.79-2.48c-1.64-6.66-9.08-34.1-21.43-47.76-6.34-7-29.59-14.24-35-14.24S417.92,165.6,417.92,165.6Z" fill="#fff"/><path d="M470.12,49.76c10.9,0,19.73-8.31,19.73-18.55S481,12.65,470.12,12.65,450.39,21,450.39,31.21,459.22,49.76,470.12,49.76Z" fill="#110580"/><path d="M382.9,505.44s9.87,1.83,14.25.39c6.72-2.22,13.32-7.38,13.32-7.38s8.37,8.95,10.65,11.11,5.23,3.59,7.52,7.64,2.48,15.36-13.14,25.94c-5.62,3.85-12.67,28.55-26.52,33.45-9.28,3.26-16.66,4.31-22.93,1.43s-8-9.93,4.83-19.46,9.93-20.65,11.31-27.64S382.9,505.44,382.9,505.44Z" fill="#ab534d"/><path d="M278.12,497.41c-1.31,10.32-2.68,20.64-4,31-.92,6.93,6.92,12.88,13.65,12.88,8.1,0,12.74-6,13.66-12.88,1.3-10.32,2.68-20.64,4-31,.92-6.93-6.92-12.87-13.65-12.87C283.67,484.54,279,490.48,278.12,497.41Z" fill="#fcb58a"/><path d="M338.81,263.53c7.84,1.56,13.85,6.66,19.53,12.08,4.05,3.86,9.67-2.55,5.62-6.47-6.79-6.46-14.24-12.28-23.52-14.11C335,253.92,333.32,262.41,338.81,263.53Z" fill="#fcb58a"/><path d="M449.74,139l-31.82-.2s2.36,30.31,2.36,30.51c0,5.36,7.12,9.67,15.94,9.67s15.94-4.31,15.94-9.67C452.09,169.19,449.74,139,449.74,139Z" fill="#fcb58a"/><path d="M434.91,144.36a54.37,54.37,0,0,1-16.79-2.68l.39,6.08c3.59,1.7,9.28,2.94,15,3.33,5,.33,12.16.52,17-.91l-.52-7.91A55.16,55.16,0,0,1,434.91,144.36Z" fill="#e3996d"/><path d="M478.68,307.56s13.92,15.29,16.4,26,4.11,27,.52,36.46-14.89,23.19-35.47,24.43c-34,2-104.79-10.32-107.93-10.32s-1.9,20.71-12.54,49.65c-9.54,25.74-26.53,68.53-30.12,77.48a2.76,2.76,0,0,1-2.48,1.76,108.71,108.71,0,0,1-21.5-1,33.93,33.93,0,0,1-13.39-5.23,3.77,3.77,0,0,1-1.63-3.53c1.11-9.93,5.88-51.21,8.82-68.14,3.13-17.83,5.42-86.56,16.79-100.48,9.93-12.15,13.52-13.45,24.69-17,10.06-3.14,117.53-4.12,117.53-4.12Z" fill="#ffadb2"/><path d="M271.58,533.34c-3.27,6.08-9.73,14.5-15,18-12.48,8.36-28.36,19.66-30.71,22s-7.71,12.47.46,17.9c5.88,3.85,22.86,5.35,44.29-5.23,16.14-8,24.17-9.67,30-11.89,9.8-3.59,7.58-14.31,5.56-19.53-1.57-4.12-2-4.9-3.14-15.55-.26-2.29-1.18-11.56-1.18-11.56a44.13,44.13,0,0,1-17.37,1.69,17.25,17.25,0,0,1-10.39-5.29S272.76,531.18,271.58,533.34Z" fill="#c7645d"/><path d="M490,406.86H369.44a3.65,3.65,0,0,1-3.65-3.66v-12a3.65,3.65,0,0,1,3.65-3.66H490a3.66,3.66,0,0,1,3.66,3.66v12A3.66,3.66,0,0,1,490,406.86Z" fill="#ab8868"/><path d="M246.49,217.4l64.42,6.4a5.88,5.88,0,0,1,4,2.29l68.59,85.13c.79,1,.13,2.61-.91,2.48l-67.42-7.45a4.61,4.61,0,0,1-3.2-1.89l-66.12-85.13C245.25,218.51,245.71,217.27,246.49,217.4Z" fill="#d7d7e6"/><path d="M481.68,234.32c.26,1.24.53,2.48.79,3.72.06.53.58,3.34.39,2.23s.26,2.09.32,2.8c.14,1.31.2,2.62.27,3.92.06,2.42,0,4.84-.13,7.32-.07.72-.14,1.5-.2,2.22,0-.19.26-1.83.06-.39s-.52,2.94-.91,4.38c-.26,1.11-.65,2.15-1,3.2-.72,2.42.2.06-.65,1.76-.53,1-1.05,2-1.57,2.94-.33.52-2.55,3.73-1.37,2.22-3.66,4.58-6.41,6.6-12,9.15-22.09,10.13-51.22,2.09-74.09-3.33-10.13-2.42-20.25-5-30.18-8.17-14.7-4.64-21,18.42-6.34,23.06,24.7,7.84,50.7,13.92,76.5,16.27,29.6,2.68,62.39-7,72.85-37.63,4.57-13.46,3.52-28.35.52-42C501.48,212.89,478.42,219.29,481.68,234.32Z" fill="#fcb58a"/><path d="M474.37,227c2.15-1.43,26.06-18.49,26.06-18.49l8.5,22.35s-2.42,4.24-12,9.08a36.26,36.26,0,0,1-18.75,3.72Z" fill="#fff"/><path d="M459.73,313.31c.66,6,1.24,12.08,1.9,18.09.58,5.43,1.37,10.92,1.57,16.4.13,4.58-.46,9.48-3.86,12.87-3,3-7.32,4.05-11.43,4.38a122.23,122.23,0,0,1-14.7-.2l-17.84-.78c-12-.52-24-1-36-1.5-5.82-.26-11.63-.52-17.45-.72a101.56,101.56,0,0,0-14.17.2c-9.15.91-18.1,3.91-23.92,11.43-6,7.77-7.77,17.77-9.79,27.11-2.55,11.83-5.1,23.58-7.65,35.41s-5.09,23.58-7.64,35.41c-2.16,9.86-4.12,19.86-6.67,29.59-.39,1.51-.78,3.07-1.24,4.58-.65,2.22,2.75,3.13,3.4.91,2.48-8.43,4.25-17,6.08-25.54,2.54-11.83,5.09-23.59,7.64-35.41s5.16-23.78,7.71-35.67c1.17-5.49,2.29-11,3.59-16.4A56.16,56.16,0,0,1,324,379.82a24.12,24.12,0,0,1,9.21-9.94,33.13,33.13,0,0,1,12.87-4.11c10.19-1.37,20.84-.2,31.09.26,12,.52,24.05,1.05,36,1.5l18.16.79c5,.19,10.2.65,15.23.39,4.24-.2,8.68-.92,12.41-3.2A15.89,15.89,0,0,0,466.27,355c1-4.9.45-9.93-.07-14.83-.65-6-1.24-12.09-1.89-18.1-.33-2.94-.59-5.81-.92-8.75C463,311.09,459.47,311,459.73,313.31Z" fill="#fff"/><path d="M95.65,590.64a6.38,6.38,0,0,1-3.92-8l78.79-258.26a6.34,6.34,0,0,1,8.1-4l8.23,2.94a6.32,6.32,0,0,1,3.79,8.17L103.75,586.91A6.41,6.41,0,0,1,95.65,590.64Z" fill="#8a6645"/><path d="M504.1,590.63a6.39,6.39,0,0,0,3.92-8L429.29,324.41a6.34,6.34,0,0,0-8.1-4L413,323.37a6.31,6.31,0,0,0-3.79,8.16l87,255.32A6.18,6.18,0,0,0,504.1,590.63Z" fill="#8a6645"/><path d="M517,333.3H82.78a6.42,6.42,0,0,1-6.41-6.4v-14a6.41,6.41,0,0,1,6.41-6.4H517a6.41,6.41,0,0,1,6.4,6.4v14A6.45,6.45,0,0,1,517,333.3Z" fill="#c49c77"/><path d="M134.45,557c-39.92-5-57.82,20.71-57.88,20.78s1.89,1.37,1.89-4l-.91-8.11s-3.4,1-4.71,1.57c-4,1.7-7.7,6.47-8.82,6.4s-4.83-3.46-10.77-5.09-12.94-.07-13.59-.52-.4-2.49-1.31-5.16a28.61,28.61,0,0,0-4-6.73c-.13.13-9.08,17.24-11,20.71s-5.1,8.82-5.55,20.31c-.66,15.36,9.66,9.15,9.66,9.15l-7.18-6.66H7c-3.85,0-7,3.79-7,8.36s3.14,8.37,7,8.37H181l.13-14.38C181.1,601.87,182,562.94,134.45,557Z" fill="#110580"/><path d="M172.6,622.91H27.5a8.36,8.36,0,0,1,0-16.72H172.6a8.36,8.36,0,1,1,0,16.72Z" fill="#110580"/><path d="M148.89,577.7c-8.88-1.63-18.29-1-26.2,3.66a30,30,0,0,0-12.54,14.57,19.92,19.92,0,0,0-1.5,6.73c-5.36-.33-11.11-.33-16.07,1.76A10.14,10.14,0,0,0,86.7,610a10.48,10.48,0,0,0,.12,8,7.53,7.53,0,0,0,7,4.7,1,1,0,0,0,0-2c-5.1-.06-6.86-5.94-5.23-10,2-5,8.56-5.88,13.2-6.14a64.25,64.25,0,0,1,8,.13,1,1,0,0,0,1-1c-.26-4.71,2.09-9.67,5-13.46a29,29,0,0,1,17.12-10.71,39.61,39.61,0,0,1,15.68.06C149.61,579.79,150.13,577.9,148.89,577.7Z" fill="#787ccb"/><path d="M162.87,620.83c6.53,1.49,13.39,1.76,20,3,3.86.71,12,2.54,4.9,5.74-8.88,4-21,1.31-30.38,1.84-10.39.64-21.75,3.32-28.68,11.68s-4.38,26.86,9.6,25.29c8.37-1,12-9.48,6.67-16.07-.26-.32-.52-.66-.78-1,.84,1.49,1.69,2.94,2.61,4.43-.59-1.63-1.57.45.26-.38,2.16-1,4-2.43,6.27-3.22,4.84-1.63,9.93-2.09,14.9-2.6,10.32-1,23.45-.86,31.68-8.17s9.41-20.26-.13-27c-9.15-6.46-26.78-5.74-37-2.42C158.82,613.38,158.3,619.71,162.87,620.83Z" fill="#110580"/><path d="M29.4,585.74a6.18,6.18,0,0,0,4.7,4.7,7.05,7.05,0,0,0,6.67-2c.65-.78-.46-1.89-1.11-1.11a5.34,5.34,0,0,1-5.1,1.64,4.61,4.61,0,0,1-3.59-3.6A.81.81,0,0,0,29.4,585.74Z" fill="#787ccb"/><path d="M51.67,591c0,2.35,2.23,4.11,4.38,4.51a9,9,0,0,0,7.12-2.36c.79-.65-.32-1.76-1.11-1.11a7.15,7.15,0,0,1-5.49,2c-1.5-.19-3.33-1.3-3.33-3A.79.79,0,1,0,51.67,591Z" fill="#787ccb"/><path d="M44.43,601.22A10.21,10.21,0,0,0,39.26,599a.86.86,0,0,0-.84.46,1,1,0,0,0,0,1,.49.49,0,0,1,.13.26c-.07-.26,0,.06.06.13a2.64,2.64,0,0,1,.13.46c0,.06.07.13.07.26v.06a1.41,1.41,0,0,0,.06.46c.07.72.07,1.37.13,2.09v.26a1,1,0,0,0,1,.59h.06a1.42,1.42,0,0,0,.46-.26l.13-.13a1.54,1.54,0,0,1,.46-.26c.06-.07.2-.07.26-.13s.07-.07.13-.07a3,3,0,0,0,.52-.2,6.58,6.58,0,0,0,2.23-1.24A1.06,1.06,0,0,0,44.43,601.22Zm-2.81,2.88h0C41.81,604,41.68,604.1,41.62,604.1Z" fill="#787ccb"/><path d="M314.44,69c-5.1-15-18.23-27.12-33.84-32S247.28,34.28,233,42.18c-7,3.86-13.33,9.22-17.25,16s-5.16,15.22-2.28,22.54c3.46,8.82,12.15,14.63,21,18.75,9.47,4.44,22.41,7.38,34.42,4.38,9.94,6.07,19.87,12.21,29.8,18.29a183.06,183.06,0,0,0-7.52-20.32l1.31-.13a41.69,41.69,0,0,0,18.42-12.8,21.2,21.2,0,0,0,4.84-9.67A21,21,0,0,0,314.44,69Z" fill="#fcfaf8"/><path d="M243.82,27.48c-3.92-11.69-16.14-18.42-28-22.14A118.49,118.49,0,0,0,133,10C120.86,15.4,109.1,23.5,103.81,35.65c-4.57,10.58-3.59,23.13,1.7,33.39s14.5,18.22,25,23c-3.66,9.34-9.21,20.78-12.81,30.12,7.38-4.38,14.83-8.76,22.21-13.13,3.79-2.22,7.65-4.51,11.89-5.82,5.75-1.76,11.89-1.63,17.91-2,16.85-1,33.64-6,47.42-15.75s24.24-24.56,27.31-41.16C245.38,38.72,245.58,32.84,243.82,27.48Z" fill="#fff"/><path d="M221.93,144.3c-.52-4.25-3.59-7.71-6.92-10.39-9.54-7.45-22.41-9.87-34.37-8A30.78,30.78,0,0,0,168,130.51a22.06,22.06,0,0,0-8,24.63,7.44,7.44,0,0,0,1.9,2.55c-3.73,7.05-5.88,12.28-9,19.53a138.66,138.66,0,0,1,23.72-14.44l1,.53c10,6.07,23.2,3.13,33.26-2.81C216.84,157,222.78,151.22,221.93,144.3Z" fill="#fff"/><path d="M396.1,210.28s-3.92,11.37-4.83,15.42a58.66,58.66,0,0,0-1,10.71l-3.85-.85A71.08,71.08,0,0,1,389.83,223C391.14,219.69,396.1,210.28,396.1,210.28Z" fill="#e0e0e0"/><path d="M472.21,217.53s1.5,11,1.77,13.39a110.3,110.3,0,0,1,.39,12.42l3.85.26a104.26,104.26,0,0,0-2.61-15.42C474.82,225.24,472.21,217.53,472.21,217.53Z" fill="#e0e0e0"/><path d="M460.72,147c-5.49,0-9.87-7.71-9.87-17.5S455.16,112,460.72,112s9.86,7.7,9.86,17.51S466.27,147,460.72,147Zm0-32.6c-4.05,0-7.45,6.93-7.45,15.16s3.4,15.16,7.45,15.16,7.44-6.93,7.44-15.16S464.77,114.37,460.72,114.37Z" fill="#fff"/><path d="M503.44,150.57c4.31-2,4-4.12,2.94-7.84L485.15,83c-6.34-21.17-27-36.72-51.48-36.72-15.95,0-25.09,6.73-25.09,6.73s10.32,2.49,17.9,9.61,3.07,15.87,12.22,24.5c6.14,5.75,16.85,8.62,16.85,8.62,0,.85,1.7,41.55,2.42,58.8.26,6.07,3.72,5.49,15.87,3.79C490,156,496.32,153.9,503.44,150.57Z" fill="#110580"/><path d="M427.26,81.06a16.27,16.27,0,0,0-14.44,8.75,15.87,15.87,0,0,0-7.38-1.76,16.84,16.84,0,0,0-2.55.19,16.26,16.26,0,1,0,.72,4.71,12.72,12.72,0,0,0-.19-2.22,13.84,13.84,0,0,1,8.42,1.43,15.62,15.62,0,0,0-.91,5.23,16.33,16.33,0,1,0,16.33-16.33Zm-40,25.67A13.79,13.79,0,1,1,401.07,93,13.79,13.79,0,0,1,387.28,106.73Zm40,4.44a13.79,13.79,0,1,1,13.79-13.78A13.78,13.78,0,0,1,427.26,111.17Z" fill="#e0e0e0"/><path d="M346.65,291l-13-1.3c-8.17-.85-14.51-6.93-14-13.59l.2-2.29c.52-6.6,7.64-11.36,15.81-10.51l13,1.3c8.17.85,14.5,6.93,14,13.59l-.19,2.29C361.93,287.11,354.81,291.82,346.65,291Z" fill="#fcb58a"/><path d="M176.65,149.26A3.46,3.46,0,1,0,173,145.8,3.56,3.56,0,0,0,176.65,149.26Z" fill="#d6d7f0"/><path d="M189.33,149.26a3.47,3.47,0,1,0-3.66-3.46A3.57,3.57,0,0,0,189.33,149.26Z" fill="#d6d7f0"/><path d="M201.15,149.26a3.46,3.46,0,1,0-3.65-3.46A3.57,3.57,0,0,0,201.15,149.26Z" fill="#d6d7f0"/><path d="M264.13,84.13a5,5,0,0,0,0,2.41,3.71,3.71,0,0,0,1,1.77,3.66,3.66,0,0,0,1.31.85,2.51,2.51,0,0,0,1.57.32,4.16,4.16,0,0,0,2-.52s.07,0,.07-.06l-1,.39h.06a6.86,6.86,0,0,1-1.11.13h.07a6,6,0,0,1,1.11-.13l1-.39.85-.66c.19-.26.46-.58.65-.85l.39-1a6,6,0,0,0,.14-1.11,6,6,0,0,1-.14-1.11,3.18,3.18,0,0,0-.78-1.44,2.42,2.42,0,0,0-.78-.78,4,4,0,0,0-2-.78,1.63,1.63,0,0,0-1.11,0,1.89,1.89,0,0,0-1,.26,2.51,2.51,0,0,0-.91.52,2.36,2.36,0,0,0-.79.78A4.51,4.51,0,0,0,264.13,84.13Z" fill="#d6d7f0"/><path d="M254.59,60.15c1.64-2.55,5.88-3.92,8.82-3.59,1.38.13,4.19.85,5,2.15.59.92.72-.13-.26.92a14.82,14.82,0,0,1-2.42,1.43c-4.64,3.07-9.47,11.83-2.48,15.29,2.74,1.37,6.34-.26,6.27-3.59,0-1.5-.52-2.49.26-3.79a9.05,9.05,0,0,1,2.61-2c2.16-1.57,4.25-3.2,4.71-6,.78-5-3.73-8.88-8-10.51a15.27,15.27,0,0,0-14.11,1.69c-2.22,1.57-6.6,6.6-2.55,8.63A1.66,1.66,0,0,0,254.59,60.15Z" fill="#d6d7f0"/><path d="M206.51,306.45H195.6a14,14,0,0,1-13.91-13.2l-1.77-32.08A2.14,2.14,0,0,1,182,259h38a2.15,2.15,0,0,1,2.1,2.22l-1.77,32.08A13.87,13.87,0,0,1,206.51,306.45Z" fill="#ff5856"/><path d="M221.8,266.21l-.26,4.9a9.85,9.85,0,0,1-1.18,19.46l-.26,4.9a14.72,14.72,0,0,0,1.7-29.26Z" fill="#ff5856"/><path d="M203.9,251.44s-9.34-8.62-9-15c.46-9.67,9.15-13.33,5.82-22.47-1.57-4.32-8.1-18.36-8.1-18.36s10.78,10.65,14.57,17.24c3.46,6,3.07,15.42-.72,19.93C198.28,242.68,203.9,251.44,203.9,251.44Z" fill="#dcdced"/><path d="M212.92,37.87H133.08a3.33,3.33,0,0,1,0-6.66h79.84a3.33,3.33,0,1,1,0,6.66Z" fill="#d6d7f0"/><path d="M186.78,70h-53.7a3.34,3.34,0,0,1,0-6.67h53.7a3.34,3.34,0,1,1,0,6.67Z" fill="#d6d7f0"/><path d="M168.17,53.55H133.08a3.33,3.33,0,0,1,0-6.66h35.09a3.35,3.35,0,0,1,3.33,3.33A3.31,3.31,0,0,1,168.17,53.55Z" fill="#d6d7f0"/><path d="M206.32,53.55h-22a3.33,3.33,0,0,1,0-6.66h22a3.34,3.34,0,0,1,3.33,3.33A3.3,3.3,0,0,1,206.32,53.55Z" fill="#d6d7f0"/></g></g></g></svg>